<svg
    xmlns="http://www.w3.org/2000/svg"
    viewBox="0 0 25 25"
    id="vector">
    <path
        id="path"
        d="M 2 12 L 6 12 C 6.265 12 6.52 12.105 6.707 12.293 C 6.895 12.48 7 12.735 7 13 L 7 23 C 7 23.265 6.895 23.52 6.707 23.707 C 6.52 23.895 6.265 24 6 24 L 2 24 C 1.735 24 1.48 23.895 1.293 23.707 C 1.105 23.52 1 23.265 1 23 L 1 13 C 1 12.735 1.105 12.48 1.293 12.293 C 1.48 12.105 1.735 12 2 12 Z"
        fill="currentColor"/>
    <path
        id="path_2"
        d="M 10 1 L 14 1 C 14.265 1 14.52 1.105 14.707 1.293 C 14.895 1.48 15 1.735 15 2 L 15 23 C 15 23.265 14.895 23.52 14.707 23.707 C 14.52 23.895 14.265 24 14 24 L 10 24 C 9.735 24 9.48 23.895 9.293 23.707 C 9.105 23.52 9 23.265 9 23 L 9 2 C 9 1.735 9.105 1.48 9.293 1.293 C 9.48 1.105 9.735 1 10 1 Z"
        fill="currentColor"/>
    <path
        id="path_3"
        d="M 18 7 L 22 7 C 22.265 7 22.52 7.105 22.707 7.293 C 22.895 7.48 23 7.735 23 8 L 23 23 C 23 23.265 22.895 23.52 22.707 23.707 C 22.52 23.895 22.265 24 22 24 L 18 24 C 17.735 24 17.48 23.895 17.293 23.707 C 17.105 23.52 17 23.265 17 23 L 17 8 C 17 7.735 17.105 7.48 17.293 7.293 C 17.48 7.105 17.735 7 18 7 Z"
        fill="currentColor"/>
</svg>
