<svg
    xmlns="http://www.w3.org/2000/svg"
    viewBox="0 0 25 25"
    id="vector">
    <path
        id="path"
        d="M 24.345 4.886 C 24.369 4.895 24.387 4.907 24.411 4.916 L 24.423 4.816 Z M 0.47 4.872 C 0.484 4.867 0.497 4.861 0.509 4.854 L 0.458 4.812 Z M 23.356 6.064 C 23.154 6.064 22.96 6.142 22.815 6.281 C 22.806 6.29 22.803 6.287 22.806 6.275 L 17.582 10.988 L 13.327 2.463 C 13.225 2.328 13.093 2.218 12.941 2.143 C 12.789 2.069 12.621 2.03 12.452 2.032 C 12.254 2.033 12.061 2.087 11.891 2.188 C 11.722 2.29 11.583 2.435 11.489 2.609 L 7.306 10.988 L 1.915 6.124 C 1.798 6.059 1.666 6.024 1.532 6.024 C 1.326 6.024 1.127 6.106 0.981 6.252 C 0.835 6.398 0.753 6.597 0.753 6.803 Q 0.753 6.857 0.735 6.857 L 2.403 19.319 C 2.403 19.27 2.4 19.221 2.394 19.173 C 2.444 19.592 2.608 19.99 2.868 20.322 C 3.128 20.654 3.474 20.909 3.869 21.058 C 3.802 21.032 3.732 21.013 3.661 20.999 C 6.505 21.79 9.457 22.128 12.406 21.999 C 15.387 22.072 18.361 21.678 21.22 20.832 C 21.152 20.845 21.085 20.864 21.02 20.888 C 21.415 20.738 21.761 20.483 22.021 20.15 C 22.281 19.817 22.445 19.419 22.495 19 C 22.484 19.094 22.482 19.188 22.489 19.282 L 24.145 6.882 C 24.136 6.867 24.131 6.85 24.133 6.832 C 24.131 6.626 24.048 6.429 23.902 6.284 C 23.755 6.139 23.557 6.058 23.351 6.059 Z M 23.356 6.064"
        fill="currentColor"/>
</svg>
