<svg
    xmlns="http://www.w3.org/2000/svg"
    viewBox="0 0 25 25"
    id="vector">
    <path
        id="path_1"
        d="M 12.5 7.022 M 5.652 7.022 C 5.652 5.206 6.374 3.463 7.658 2.18 C 8.941 0.896 10.684 0.174 12.5 0.174 C 14.316 0.174 16.059 0.896 17.342 2.18 C 18.626 3.463 19.348 5.206 19.348 7.022 C 19.348 8.838 18.626 10.581 17.342 11.864 C 16.059 13.148 14.316 13.87 12.5 13.87 C 10.684 13.87 8.941 13.148 7.658 11.864 C 6.374 10.581 5.652 8.838 5.652 7.022"
        fill="currentColor"
       />
    <path
        id="path_2"
        d="M 2 19.718 C 2 20.807 3.107 21.853 5.075 22.624 C 7.044 23.394 9.716 23.827 12.5 23.827 C 15.284 23.827 17.956 23.394 19.925 22.624 C 21.893 21.853 23 20.807 23 19.718 C 23 18.629 21.893 17.583 19.925 16.812 C 17.956 16.042 15.284 15.609 12.5 15.609 C 9.716 15.609 7.044 16.042 5.075 16.812 C 3.107 17.583 2 18.629 2 19.718 Z"
        fill="currentColor"
       />
</svg>
