<svg
    xmlns="http://www.w3.org/2000/svg"
    viewBox="0 0 14 14"
    id="vector">
    <path
        id="path"
        d="M 7 0 C 5.144 0 3.363 0.738 2.05 2.05 C 0.738 3.363 0 5.144 0 7 C 0 8.856 0.738 10.637 2.05 11.95 C 3.363 13.262 5.144 14 7 14 C 8.856 14 10.637 13.262 11.95 11.95 C 13.262 10.637 14 8.856 14 7 C 14 5.144 13.262 3.363 11.95 2.05 C 10.637 0.738 8.856 0 7 0 Z M 9.7 5.8 L 6.727 8.777 C 6.676 8.828 6.613 8.865 6.543 8.883 C 6.474 8.902 6.4 8.902 6.331 8.883 C 6.261 8.865 6.198 8.828 6.147 8.777 C 6.145 8.775 6.143 8.773 6.142 8.77 L 6.135 8.765 L 4.3 6.929 C 4.224 6.852 4.181 6.748 4.181 6.639 C 4.181 6.531 4.224 6.427 4.301 6.35 C 4.378 6.273 4.482 6.23 4.59 6.23 C 4.699 6.23 4.803 6.273 4.88 6.349 L 6.435 7.908 L 9.122 5.223 C 9.201 5.157 9.301 5.123 9.403 5.128 C 9.505 5.132 9.602 5.175 9.675 5.247 C 9.747 5.32 9.79 5.417 9.795 5.519 C 9.799 5.621 9.766 5.721 9.7 5.8 Z"
        fill="#6175ae"/>
</svg>
