<svg
    xmlns="http://www.w3.org/2000/svg"
    viewBox="0 0 40 40"
    id="vector">
    <path
        id="path_3"
        d="M 20 20 M 1 20 C 1 14.963 3.003 10.127 6.565 6.565 C 10.127 3.003 14.963 1 20 1 C 25.037 1 29.873 3.003 33.435 6.565 C 36.997 10.127 39 14.963 39 20 C 39 25.037 36.997 29.873 33.435 33.435 C 29.873 36.997 25.037 39 20 39 C 14.963 39 10.127 36.997 6.565 33.435 C 3.003 29.873 1 25.037 1 20"
        fill="#00000000"
        stroke="#6175ae"
        stroke-width="2"/>
    <path
        id="path_4"
        d="M 5.5 12 L 34.5 12 C 35.03 12 35.539 12.211 35.914 12.586 C 36.289 12.961 36.5 13.47 36.5 14 L 36.5 26 C 36.5 26.53 36.289 27.039 35.914 27.414 C 35.539 27.789 35.03 28 34.5 28 L 5.5 28 C 4.97 28 4.461 27.789 4.086 27.414 C 3.711 27.039 3.5 26.53 3.5 26 L 3.5 14 C 3.5 13.47 3.711 12.961 4.086 12.586 C 4.461 12.211 4.97 12 5.5 12 Z"
        fill="#f2f5ff"/>
</svg>
