<svg
    xmlns="http://www.w3.org/2000/svg"
    viewBox="0 0 22 22"
    id="vector">
    <path
        id="path"
        d="M 11.266 16.125 L 12.066 15.58 L 15.247 17.721 L 18.428 15.58 L 19.228 16.125 L 15.244 18.811 Z M 11.266 14.373 L 15.25 11.96 L 19.234 14.373 L 15.25 16.787 Z M 15.25 19.745 L 18.431 17.604 L 19.231 18.149 L 15.247 20.835 L 11.263 18.149 L 12.063 17.604 Z"
        fill="#000000"/>
    <path
        id="path_1"
        d="M 10 18.101 L 5.295 18.101 C 5.024 18.107 4.762 18.004 4.566 17.817 C 4.37 17.63 4.256 17.372 4.25 17.101 L 4.25 4.101 C 4.256 3.83 4.37 3.572 4.566 3.385 C 4.762 3.198 5.024 3.095 5.295 3.101 L 14.705 3.101 C 14.976 3.095 15.238 3.198 15.434 3.385 C 15.63 3.572 15.744 3.83 15.75 4.101 L 15.75 10.601"
        fill="#00000000"
        stroke="#000000"
        stroke-width="1"
        stroke-linecap="round"/>
    <path
        id="path_2"
        d="M 10.345 9.501 L 10.345 10.373 L 12.045 10.373 C 12.161 10.373 12.272 10.419 12.353 10.501 C 12.435 10.582 12.481 10.693 12.481 10.809 C 12.481 10.925 12.435 11.036 12.353 11.117 C 12.272 11.199 12.161 11.245 12.045 11.245 L 10.345 11.245 L 10.345 13.245 C 10.345 13.337 10.316 13.427 10.262 13.501 C 10.208 13.576 10.131 13.631 10.044 13.66 C 9.956 13.688 9.862 13.688 9.774 13.66 C 9.687 13.631 9.61 13.576 9.556 13.501 C 9.502 13.427 9.473 13.337 9.473 13.245 L 9.473 11.245 L 7.773 11.245 C 7.657 11.245 7.546 11.199 7.465 11.117 C 7.383 11.036 7.337 10.925 7.337 10.809 C 7.337 10.693 7.383 10.582 7.465 10.501 C 7.546 10.419 7.657 10.373 7.773 10.373 L 9.473 10.373 L 9.473 9.501 L 7.773 9.501 C 7.657 9.501 7.546 9.455 7.465 9.373 C 7.383 9.292 7.337 9.181 7.337 9.065 C 7.337 8.949 7.383 8.838 7.465 8.757 C 7.546 8.675 7.657 8.629 7.773 8.629 L 8.915 8.629 L 7.199 6.913 C 7.12 6.831 7.076 6.721 7.077 6.606 C 7.078 6.492 7.124 6.383 7.205 6.302 C 7.286 6.221 7.395 6.175 7.509 6.174 C 7.624 6.174 7.734 6.218 7.816 6.297 L 9.916 8.397 L 12.016 6.297 C 12.099 6.221 12.208 6.18 12.32 6.183 C 12.432 6.185 12.539 6.231 12.619 6.31 C 12.698 6.39 12.744 6.497 12.746 6.609 C 12.749 6.721 12.708 6.83 12.632 6.913 L 10.917 8.629 L 12.058 8.629 C 12.174 8.629 12.285 8.675 12.366 8.757 C 12.448 8.838 12.494 8.949 12.494 9.065 C 12.494 9.181 12.448 9.292 12.366 9.373 C 12.285 9.455 12.174 9.501 12.058 9.501 Z"
        fill="#000000"/>
</svg>
