<svg xmlns="http://www.w3.org/2000/svg" xmlns:xlink="http://www.w3.org/1999/xlink" fill="none" version="1.1" width="24" height="24" viewBox="0 0 24 24"><defs><clipPath id="master_svg0_80_0499"><rect x="24" y="0" width="24" height="24" rx="0"/></clipPath></defs><g transform="matrix(0,1,-1,0,24,-24)" clip-path="url(#master_svg0_80_0499)"><g><rect x="24" y="0" width="24" height="24" rx="0" fill="#FFFFFF" fill-opacity="0.009999999776482582"/></g><g><path d="M46,7.5L32,7.5Q29.93305,7.5,28.46796,8.96121Q27,10.42529,27,12.5Q27,12.59849,26.980785,12.69509Q26.961570000000002,12.79169,26.923879,12.88268Q26.886188,12.97368,26.83147,13.05557Q26.776751,13.13746,26.707107,13.20711Q26.637463,13.27675,26.55557,13.33147Q26.473678,13.38619,26.382683,13.42388Q26.291689,13.46157,26.19509,13.48078Q26.0984914,13.5,26,13.5Q25.9015086,13.5,25.80491,13.48078Q25.708311,13.46157,25.617317,13.42388Q25.526322,13.38619,25.44443,13.33147Q25.362537,13.27675,25.292893,13.20711Q25.223249,13.13746,25.16853,13.05557Q25.113812,12.97368,25.076121,12.88268Q25.038429999999998,12.79169,25.019215,12.69509Q25,12.59849,25,12.5Q25,9.59531,27.05563,7.54512Q29.10617,5.5,32,5.5L46,5.5Q46.0985,5.5,46.1951,5.519215Q46.2917,5.53843,46.3827,5.576121Q46.4737,5.613812,46.5556,5.66853Q46.6375,5.723249,46.7071,5.792893Q46.776700000000005,5.862537,46.8315,5.94443Q46.8862,6.026322,46.9239,6.117317Q46.961600000000004,6.208311,46.9808,6.30491Q47,6.4015086,47,6.5Q47,6.5984914,46.9808,6.69509Q46.961600000000004,6.791689,46.9239,6.882683Q46.8862,6.973678,46.8315,7.05557Q46.776700000000005,7.137463,46.7071,7.207107Q46.6375,7.276751,46.5556,7.33147Q46.4737,7.386188,46.3827,7.423879Q46.2917,7.46157,46.1951,7.480785Q46.0985,7.5,46,7.5ZM47,6.5Q47,6.5984914,46.9808,6.69509Q46.961600000000004,6.791689,46.9239,6.882683Q46.8862,6.973678,46.8315,7.05557Q46.776700000000005,7.137463,46.7071,7.207107Q46.6375,7.276751,46.5556,7.33147Q46.4737,7.386188,46.3827,7.423879Q46.2917,7.46157,46.1951,7.480785Q46.0985,7.5,46,7.5Q45.9015,7.5,45.8049,7.480785Q45.7083,7.46157,45.6173,7.423879Q45.5263,7.386188,45.4444,7.33147Q45.3625,7.276751,45.2929,7.207107Q45.2232,7.137463,45.1685,7.05557Q45.1138,6.973678,45.0761,6.882683Q45.038399999999996,6.791689,45.0192,6.69509Q45,6.5984914,45,6.5Q45,6.4015086,45.0192,6.30491Q45.038399999999996,6.208311,45.0761,6.117317Q45.1138,6.026322,45.1685,5.94443Q45.2232,5.862537,45.2929,5.792893Q45.3625,5.723249,45.4444,5.66853Q45.5263,5.613812,45.6173,5.576121Q45.7083,5.53843,45.8049,5.519215Q45.9015,5.5,46,5.5Q46.0985,5.5,46.1951,5.519215Q46.2917,5.53843,46.3827,5.576121Q46.4737,5.613812,46.5556,5.66853Q46.6375,5.723249,46.7071,5.792893Q46.776700000000005,5.862537,46.8315,5.94443Q46.8862,6.026322,46.9239,6.117317Q46.961600000000004,6.208311,46.9808,6.30491Q47,6.4015086,47,6.5ZM27,12.5Q27,12.59849,26.980785,12.69509Q26.961570000000002,12.79169,26.923879,12.88268Q26.886188,12.97368,26.83147,13.05557Q26.776751,13.13746,26.707107,13.20711Q26.637463,13.27675,26.55557,13.33147Q26.473678,13.38619,26.382683,13.42388Q26.291689,13.46157,26.19509,13.48078Q26.0984914,13.5,26,13.5Q25.9015086,13.5,25.80491,13.48078Q25.708311,13.46157,25.617317,13.42388Q25.526322,13.38619,25.44443,13.33147Q25.362537,13.27675,25.292893,13.20711Q25.223249,13.13746,25.16853,13.05557Q25.113812,12.97368,25.076121,12.88268Q25.038429999999998,12.79169,25.019215,12.69509Q25,12.59849,25,12.5Q25,12.40151,25.019215,12.30491Q25.038429999999998,12.20831,25.076121,12.11732Q25.113812,12.02632,25.16853,11.94443Q25.223249,11.86254,25.292893,11.79289Q25.362537,11.72325,25.44443,11.66853Q25.526322,11.61381,25.617317,11.57612Q25.708311,11.53843,25.80491,11.519210000000001Q25.9015086,11.5,26,11.5Q26.0984914,11.5,26.19509,11.519210000000001Q26.291689,11.53843,26.382683,11.57612Q26.473678,11.61381,26.55557,11.66853Q26.637463,11.72325,26.707107,11.79289Q26.776751,11.86254,26.83147,11.94443Q26.886188,12.02632,26.923879,12.11732Q26.961570000000002,12.20831,26.980785,12.30491Q27,12.40151,27,12.5Z" fill="#6175AE" fill-opacity="1"/></g><g><path d="M42.292893,8.79289L45.29289,5.79289L46,6.5L45.29289,7.20711L42.292893,4.207107Q42.223249,4.137463,42.16853,4.05557Q42.113812,3.973678,42.076121,3.882683Q42.03843,3.791689,42.019215,3.69509Q42,3.5984914,42,3.5Q42,3.4015086,42.019215,3.30491Q42.03843,3.208311,42.076121,3.117317Q42.113812,3.026322,42.16853,2.94443Q42.223249,2.862537,42.292893,2.792893Q42.362537,2.723249,42.44443,2.66853Q42.526322,2.6138120000000002,42.617317,2.576121Q42.708311,2.53843,42.80491,2.519215Q42.9015086,2.5,43,2.5Q43.0984914,2.5,43.19509,2.519215Q43.291689,2.53843,43.382683,2.576121Q43.473678,2.6138120000000002,43.55557,2.66853Q43.637463,2.723249,43.707107,2.792893L46.70711,5.79289Q46.77675,5.86254,46.83147,5.9444300000000005Q46.88619,6.02632,46.92388,6.117319999999999Q46.96157,6.20831,46.98078,6.30491Q47,6.40151,47,6.5Q47,6.59849,46.98078,6.69509Q46.96157,6.79169,46.92388,6.882680000000001Q46.88619,6.97368,46.83147,7.0555699999999995Q46.77675,7.13746,46.70711,7.20711L43.707107,10.20711Q43.637463,10.27675,43.55557,10.33147Q43.473678,10.38619,43.382683,10.42388Q43.291689,10.46157,43.19509,10.48078Q43.0984914,10.5,43,10.5Q42.9015086,10.5,42.80491,10.48078Q42.708311,10.46157,42.617317,10.42388Q42.526322,10.38619,42.44443,10.33147Q42.362537,10.27675,42.292893,10.20711Q42.223249,10.13746,42.16853,10.05557Q42.113812,9.97368,42.076121,9.88268Q42.03843,9.79169,42.019215,9.69509Q42,9.59849,42,9.5Q42,9.40151,42.019215,9.30491Q42.03843,9.20831,42.076121,9.11732Q42.113812,9.02632,42.16853,8.94443Q42.223249,8.86254,42.292893,8.79289ZM44,9.5Q44,9.59849,43.980785,9.69509Q43.96157,9.79169,43.923879,9.88268Q43.886188,9.97368,43.83147,10.05557Q43.776751,10.13746,43.707107,10.20711Q43.637463,10.27675,43.55557,10.33147Q43.473678,10.38619,43.382683,10.42388Q43.291689,10.46157,43.19509,10.48078Q43.0984914,10.5,43,10.5Q42.9015086,10.5,42.80491,10.48078Q42.708311,10.46157,42.617317,10.42388Q42.526322,10.38619,42.44443,10.33147Q42.362537,10.27675,42.292893,10.20711Q42.223249,10.13746,42.16853,10.05557Q42.113812,9.97368,42.076121,9.88268Q42.03843,9.79169,42.019215,9.69509Q42,9.59849,42,9.5Q42,9.40151,42.019215,9.30491Q42.03843,9.20831,42.076121,9.11732Q42.113812,9.02632,42.16853,8.94443Q42.223249,8.86254,42.292893,8.79289Q42.362537,8.72325,42.44443,8.66853Q42.526322,8.61381,42.617317,8.57612Q42.708311,8.53843,42.80491,8.519210000000001Q42.9015086,8.5,43,8.5Q43.0984914,8.5,43.19509,8.519210000000001Q43.291689,8.53843,43.382683,8.57612Q43.473678,8.61381,43.55557,8.66853Q43.637463,8.72325,43.707107,8.79289Q43.776751,8.86254,43.83147,8.94443Q43.886188,9.02632,43.923879,9.11732Q43.96157,9.20831,43.980785,9.30491Q44,9.40151,44,9.5ZM44,3.5Q44,3.5984914,43.980785,3.69509Q43.96157,3.791689,43.923879,3.882683Q43.886188,3.973678,43.83147,4.05557Q43.776751,4.137463,43.707107,4.207107Q43.637463,4.276751,43.55557,4.33147Q43.473678,4.386188,43.382683,4.423879Q43.291689,4.46157,43.19509,4.480785Q43.0984914,4.5,43,4.5Q42.9015086,4.5,42.80491,4.480785Q42.708311,4.46157,42.617317,4.423879Q42.526322,4.386188,42.44443,4.33147Q42.362537,4.276751,42.292893,4.207107Q42.223249,4.137463,42.16853,4.05557Q42.113812,3.973678,42.076121,3.882683Q42.03843,3.791689,42.019215,3.69509Q42,3.5984914,42,3.5Q42,3.4015086,42.019215,3.30491Q42.03843,3.208311,42.076121,3.117317Q42.113812,3.026322,42.16853,2.94443Q42.223249,2.862537,42.292893,2.792893Q42.362537,2.723249,42.44443,2.66853Q42.526322,2.6138120000000002,42.617317,2.576121Q42.708311,2.53843,42.80491,2.519215Q42.9015086,2.5,43,2.5Q43.0984914,2.5,43.19509,2.519215Q43.291689,2.53843,43.382683,2.576121Q43.473678,2.6138120000000002,43.55557,2.66853Q43.637463,2.723249,43.707107,2.792893Q43.776751,2.862537,43.83147,2.94443Q43.886188,3.026322,43.923879,3.117317Q43.96157,3.208311,43.980785,3.30491Q44,3.4015086,44,3.5Z" fill="#6175AE" fill-opacity="1"/></g><g><path d="M26,16.5L40,16.5Q42.067,16.5,43.532,15.0388Q45,13.57472,45,11.5Q45,11.4015086,45.0192,11.30491Q45.038399999999996,11.208311,45.0761,11.117317Q45.1138,11.026322,45.1685,10.94443Q45.2232,10.862537,45.2929,10.792893Q45.3625,10.723249,45.4444,10.66853Q45.5263,10.613812,45.6173,10.576121Q45.7083,10.53843,45.8049,10.519214999999999Q45.9015,10.5,46,10.5Q46.0985,10.5,46.1951,10.519214999999999Q46.2917,10.53843,46.3827,10.576121Q46.4737,10.613812,46.5556,10.66853Q46.6375,10.723249,46.7071,10.792893Q46.776700000000005,10.862537,46.8315,10.94443Q46.8862,11.026322,46.9239,11.117317Q46.961600000000004,11.208311,46.9808,11.30491Q47,11.4015086,47,11.5Q47,14.4047,44.9444,16.45488Q42.8938,18.5,40,18.5L26,18.5Q25.9015086,18.5,25.80491,18.48078Q25.708311,18.461570000000002,25.617317,18.42388Q25.526322,18.38619,25.44443,18.33147Q25.362537,18.27675,25.292893,18.20711Q25.223249,18.13746,25.16853,18.05557Q25.113812,17.97368,25.076121,17.88268Q25.038429999999998,17.79169,25.019215,17.69509Q25,17.598489999999998,25,17.5Q25,17.401510000000002,25.019215,17.30491Q25.038429999999998,17.20831,25.076121,17.11732Q25.113812,17.02632,25.16853,16.94443Q25.223249,16.86254,25.292893,16.79289Q25.362537,16.72325,25.44443,16.66853Q25.526322,16.61381,25.617317,16.57612Q25.708311,16.538429999999998,25.80491,16.51921Q25.9015086,16.5,26,16.5ZM27,17.5Q27,17.598489999999998,26.980785,17.69509Q26.961570000000002,17.79169,26.923879,17.88268Q26.886188,17.97368,26.83147,18.05557Q26.776751,18.13746,26.707107,18.20711Q26.637463,18.27675,26.55557,18.33147Q26.473678,18.38619,26.382683,18.42388Q26.291689,18.461570000000002,26.19509,18.48078Q26.0984914,18.5,26,18.5Q25.9015086,18.5,25.80491,18.48078Q25.708311,18.461570000000002,25.617317,18.42388Q25.526322,18.38619,25.44443,18.33147Q25.362537,18.27675,25.292893,18.20711Q25.223249,18.13746,25.16853,18.05557Q25.113812,17.97368,25.076121,17.88268Q25.038429999999998,17.79169,25.019215,17.69509Q25,17.598489999999998,25,17.5Q25,17.401510000000002,25.019215,17.30491Q25.038429999999998,17.20831,25.076121,17.11732Q25.113812,17.02632,25.16853,16.94443Q25.223249,16.86254,25.292893,16.79289Q25.362537,16.72325,25.44443,16.66853Q25.526322,16.61381,25.617317,16.57612Q25.708311,16.538429999999998,25.80491,16.51921Q25.9015086,16.5,26,16.5Q26.0984914,16.5,26.19509,16.51921Q26.291689,16.538429999999998,26.382683,16.57612Q26.473678,16.61381,26.55557,16.66853Q26.637463,16.72325,26.707107,16.79289Q26.776751,16.86254,26.83147,16.94443Q26.886188,17.02632,26.923879,17.11732Q26.961570000000002,17.20831,26.980785,17.30491Q27,17.401510000000002,27,17.5ZM47,11.5Q47,11.5984914,46.9808,11.69509Q46.961600000000004,11.791689,46.9239,11.882683Q46.8862,11.973678,46.8315,12.05557Q46.776700000000005,12.137463,46.7071,12.207107Q46.6375,12.276751,46.5556,12.33147Q46.4737,12.386188,46.3827,12.423879Q46.2917,12.46157,46.1951,12.480785000000001Q46.0985,12.5,46,12.5Q45.9015,12.5,45.8049,12.480785000000001Q45.7083,12.46157,45.6173,12.423879Q45.5263,12.386188,45.4444,12.33147Q45.3625,12.276751,45.2929,12.207107Q45.2232,12.137463,45.1685,12.05557Q45.1138,11.973678,45.0761,11.882683Q45.038399999999996,11.791689,45.0192,11.69509Q45,11.5984914,45,11.5Q45,11.4015086,45.0192,11.30491Q45.038399999999996,11.208311,45.0761,11.117317Q45.1138,11.026322,45.1685,10.94443Q45.2232,10.862537,45.2929,10.792893Q45.3625,10.723249,45.4444,10.66853Q45.5263,10.613812,45.6173,10.576121Q45.7083,10.53843,45.8049,10.519214999999999Q45.9015,10.5,46,10.5Q46.0985,10.5,46.1951,10.519214999999999Q46.2917,10.53843,46.3827,10.576121Q46.4737,10.613812,46.5556,10.66853Q46.6375,10.723249,46.7071,10.792893Q46.776700000000005,10.862537,46.8315,10.94443Q46.8862,11.026322,46.9239,11.117317Q46.961600000000004,11.208311,46.9808,11.30491Q47,11.4015086,47,11.5Z" fill="#6175AE" fill-opacity="1"/></g><g><path d="M29.70711,15.207107L26.707107,18.20711L26,17.5L26.707107,16.79289L29.70711,19.79289Q29.77675,19.86254,29.83147,19.94443Q29.88619,20.02632,29.92388,20.11732Q29.961570000000002,20.20831,29.98078,20.30491Q30,20.401510000000002,30,20.5Q30,20.598489999999998,29.98078,20.69509Q29.961570000000002,20.79169,29.92388,20.88268Q29.88619,20.97368,29.83147,21.05557Q29.77675,21.13746,29.70711,21.20711Q29.63746,21.27675,29.55557,21.33147Q29.47368,21.38619,29.38268,21.42388Q29.29169,21.461570000000002,29.19509,21.48078Q29.098489999999998,21.5,29,21.5Q28.901510000000002,21.5,28.80491,21.48078Q28.70831,21.461570000000002,28.61732,21.42388Q28.52632,21.38619,28.44443,21.33147Q28.36254,21.27675,28.29289,21.20711L25.292893,18.20711Q25.223249,18.13746,25.16853,18.05557Q25.113812,17.97368,25.076121,17.88268Q25.038429999999998,17.79169,25.019215,17.69509Q25,17.598489999999998,25,17.5Q25,17.401510000000002,25.019215,17.30491Q25.038429999999998,17.20831,25.076121,17.11732Q25.113812,17.02632,25.16853,16.94443Q25.223249,16.86254,25.292893,16.79289L28.29289,13.792893Q28.36254,13.723249,28.44443,13.66853Q28.52632,13.613812,28.61732,13.576121Q28.70831,13.53843,28.80491,13.519214999999999Q28.901510000000002,13.5,29,13.5Q29.098489999999998,13.5,29.19509,13.519214999999999Q29.29169,13.53843,29.38268,13.576121Q29.47368,13.613812,29.55557,13.66853Q29.63746,13.723249,29.70711,13.792893Q29.77675,13.862537,29.83147,13.94443Q29.88619,14.026322,29.92388,14.117317Q29.961570000000002,14.208311,29.98078,14.30491Q30,14.4015086,30,14.5Q30,14.5984914,29.98078,14.69509Q29.961570000000002,14.791689,29.92388,14.882683Q29.88619,14.973678,29.83147,15.05557Q29.77675,15.137463,29.70711,15.207107ZM30,14.5Q30,14.5984914,29.98078,14.69509Q29.961570000000002,14.791689,29.92388,14.882683Q29.88619,14.973678,29.83147,15.05557Q29.77675,15.137463,29.70711,15.207107Q29.63746,15.276751,29.55557,15.33147Q29.47368,15.386188,29.38268,15.423879Q29.29169,15.46157,29.19509,15.480785000000001Q29.098489999999998,15.5,29,15.5Q28.901510000000002,15.5,28.80491,15.480785000000001Q28.70831,15.46157,28.61732,15.423879Q28.52632,15.386188,28.44443,15.33147Q28.36254,15.276751,28.29289,15.207107Q28.22325,15.137463,28.16853,15.05557Q28.11381,14.973678,28.07612,14.882683Q28.038429999999998,14.791689,28.01921,14.69509Q28,14.5984914,28,14.5Q28,14.4015086,28.01921,14.30491Q28.038429999999998,14.208311,28.07612,14.117317Q28.11381,14.026322,28.16853,13.94443Q28.22325,13.862537,28.29289,13.792893Q28.36254,13.723249,28.44443,13.66853Q28.52632,13.613812,28.61732,13.576121Q28.70831,13.53843,28.80491,13.519214999999999Q28.901510000000002,13.5,29,13.5Q29.098489999999998,13.5,29.19509,13.519214999999999Q29.29169,13.53843,29.38268,13.576121Q29.47368,13.613812,29.55557,13.66853Q29.63746,13.723249,29.70711,13.792893Q29.77675,13.862537,29.83147,13.94443Q29.88619,14.026322,29.92388,14.117317Q29.961570000000002,14.208311,29.98078,14.30491Q30,14.4015086,30,14.5ZM30,20.5Q30,20.598489999999998,29.98078,20.69509Q29.961570000000002,20.79169,29.92388,20.88268Q29.88619,20.97368,29.83147,21.05557Q29.77675,21.13746,29.70711,21.20711Q29.63746,21.27675,29.55557,21.33147Q29.47368,21.38619,29.38268,21.42388Q29.29169,21.461570000000002,29.19509,21.48078Q29.098489999999998,21.5,29,21.5Q28.901510000000002,21.5,28.80491,21.48078Q28.70831,21.461570000000002,28.61732,21.42388Q28.52632,21.38619,28.44443,21.33147Q28.36254,21.27675,28.29289,21.20711Q28.22325,21.13746,28.16853,21.05557Q28.11381,20.97368,28.07612,20.88268Q28.038429999999998,20.79169,28.01921,20.69509Q28,20.598489999999998,28,20.5Q28,20.401510000000002,28.01921,20.30491Q28.038429999999998,20.20831,28.07612,20.11732Q28.11381,20.02632,28.16853,19.94443Q28.22325,19.86254,28.29289,19.79289Q28.36254,19.72325,28.44443,19.66853Q28.52632,19.61381,28.61732,19.57612Q28.70831,19.538429999999998,28.80491,19.51921Q28.901510000000002,19.5,29,19.5Q29.098489999999998,19.5,29.19509,19.51921Q29.29169,19.538429999999998,29.38268,19.57612Q29.47368,19.61381,29.55557,19.66853Q29.63746,19.72325,29.70711,19.79289Q29.77675,19.86254,29.83147,19.94443Q29.88619,20.02632,29.92388,20.11732Q29.961570000000002,20.20831,29.98078,20.30491Q30,20.401510000000002,30,20.5Z" fill="#6175AE" fill-opacity="1"/></g></g></svg>