<svg xmlns="http://www.w3.org/2000/svg" xmlns:xlink="http://www.w3.org/1999/xlink" fill="currentColor" version="1.1" width="24" height="24" viewBox="0 0 24 24"><g><g><path d="M15.5,19.15C15.5,19.15,6.5,19.15,6.5,19.15C3.16,19.15,1.25,17.240000000000002,1.25,13.9C1.25,13.9,1.25,8.5,1.25,8.5C1.25,5.16,3.16,3.25,6.5,3.25C6.5,3.25,9.2,3.25,9.2,3.25C9.44,3.25,9.67,3.370059,9.81,3.560059C9.95,3.7500590000000003,9.99,4.00999,9.91,4.23999C9.8,4.54999,9.75,4.89,9.75,5.25C9.75,5.25,9.75,9.15002,9.75,9.15002C9.75,9.91002,9.98,10.53998,10.42,10.979980000000001C10.86,11.41998,11.49,11.65002,12.25,11.65002C12.66,11.65002,13,11.99002,13,12.40002C13,12.40002,13,13.6,13,13.6C13,13.6,15.73,11.77002,15.73,11.77002C15.85,11.69002,16,11.64001,16.15,11.64001C16.15,11.64001,18.75,11.64001,18.75,11.64001C19.11,11.64001,19.45,11.58998,19.76,11.47998C19.99,11.39998,20.24,11.43996,20.44,11.57996C20.64,11.71996,20.75,11.94994,20.75,12.18994C20.75,12.18994,20.75,13.89,20.75,13.89C20.75,17.240000000000002,18.84,19.15,15.5,19.15C15.5,19.15,15.5,19.15,15.5,19.15ZM6.5,4.75C3.98,4.75,2.75,5.98,2.75,8.5C2.75,8.5,2.75,13.9,2.75,13.9C2.75,16.42,3.98,17.65,6.5,17.65C6.5,17.65,15.5,17.65,15.5,17.65C18.02,17.65,19.25,16.42,19.25,13.9C19.25,13.9,19.25,13.12,19.25,13.12C19.09,13.14,18.92,13.15002,18.75,13.15002C18.75,13.15002,16.380000000000003,13.15002,16.380000000000003,13.15002C16.380000000000003,13.15002,13.68,14.95,13.68,14.95C13.24,15.23,12.69,15.26,12.24,15.01C11.79,14.77,11.51,14.3,11.51,13.79C11.51,13.79,11.51,13.08997,11.51,13.08997C10.67,12.95997,9.93,12.59004,9.37,12.04004C8.66,11.33004,8.26,10.30002,8.26,9.15002C8.26,9.15002,8.26,5.25,8.26,5.25C8.26,5.08,8.27,4.91,8.280000000000001,4.75C8.280000000000001,4.75,6.5,4.75,6.5,4.75C6.5,4.75,6.5,4.75,6.5,4.75C6.5,4.75,6.5,4.75,6.5,4.75Z" fill="currentColor" fill-opacity="1"/></g><g><path d="M12.9,15.1801C12.67,15.1801,12.440000000000001,15.12,12.23,15.01C11.78,14.77,11.5,14.3,11.5,13.79C11.5,13.79,11.5,13.09,11.5,13.09C10.66,12.96,9.92,12.59,9.36,12.04C8.65,11.33,8.25,10.30002,8.25,9.15002C8.25,9.15002,8.25,5.25,8.25,5.25C8.25,4.720000000000001,8.3299998,4.22001,8.49,3.76001C9.05,2.19001,10.45,1.25,12.25,1.25C12.25,1.25,18.75,1.25,18.75,1.25C21.1,1.25,22.75,2.8899999999999997,22.75,5.25C22.75,5.25,22.75,9.15002,22.75,9.15002C22.75,10.95002,21.82,12.35,20.25,12.91C19.77,13.07,19.27,13.15,18.75,13.15C18.75,13.15,16.380000000000003,13.15,16.380000000000003,13.15C16.380000000000003,13.15,13.68,14.95,13.68,14.95C13.440000000000001,15.11,13.17,15.1801,12.9,15.1801C12.9,15.1801,12.9,15.1801,12.9,15.1801ZM12.25,2.75C11.1,2.75,10.25,3.3,9.91,4.25C9.81,4.55,9.75,4.890000000000001,9.75,5.25C9.75,5.25,9.75,9.15002,9.75,9.15002C9.75,9.91002,9.98,10.53998,10.42,10.97998C10.86,11.42,11.49,11.65,12.25,11.65C12.66,11.65,13,11.99,13,12.4C13,12.4,13,13.6,13,13.6C13,13.6,15.73,11.77,15.73,11.77C15.85,11.69,16,11.64,16.15,11.64C16.15,11.64,18.75,11.64,18.75,11.64C19.11,11.64,19.45,11.59,19.759999999999998,11.48C20.71,11.13998,21.25,10.29001,21.25,9.14001C21.25,9.14001,21.25,5.239990000000001,21.25,5.239990000000001C21.25,3.69999,20.29,2.7399899999999997,18.75,2.7399899999999997C18.75,2.7399899999999997,12.25,2.7399899999999997,12.25,2.7399899999999997C12.25,2.7399899999999997,12.25,2.75,12.25,2.75C12.25,2.75,12.25,2.75,12.25,2.75Z" fill="currentColor" fill-opacity="1"/></g><g><path d="M14.59990234375,22.75C14.59990234375,22.75,7.39990234375,22.75,7.39990234375,22.75C6.98990234375,22.75,6.64990234375,22.41,6.64990234375,22C6.64990234375,21.59,6.98990234375,21.25,7.39990234375,21.25C7.39990234375,21.25,14.59990234375,21.25,14.59990234375,21.25C15.00990234375,21.25,15.34990234375,21.59,15.34990234375,22C15.34990234375,22.41,15.00990234375,22.75,14.59990234375,22.75C14.59990234375,22.75,14.59990234375,22.75,14.59990234375,22.75Z" fill="currentColor" fill-opacity="1"/></g><g><path d="M11,22.750004414062502C10.59,22.750004414062502,10.25,22.4100044140625,10.25,22.000004414062502C10.25,22.000004414062502,10.25,18.4000244140625,10.25,18.4000244140625C10.25,17.9900244140625,10.59,17.6500244140625,11,17.6500244140625C11.41,17.6500244140625,11.75,17.9900244140625,11.75,18.4000244140625C11.75,18.4000244140625,11.75,22.000004414062502,11.75,22.000004414062502C11.75,22.4100044140625,11.41,22.750004414062502,11,22.750004414062502C11,22.750004414062502,11,22.750004414062502,11,22.750004414062502Z" fill="currentColor" fill-opacity="1"/></g><g><path d="M15.43994140625,8C15.01994140625,8,14.68994140625,7.66,14.68994140625,7.25C14.68994140625,6.84,15.02994140625,6.5,15.43994140625,6.5C15.84994140625,6.5,16.18994140625,6.84,16.18994140625,7.25C16.18994140625,7.66,15.84994140625,8,15.43994140625,8C15.43994140625,8,15.43994140625,8,15.43994140625,8Z" fill="currentColor" fill-opacity="1"/></g><g><path d="M18.25,8C17.83,8,17.5,7.66,17.5,7.25C17.5,6.84,17.84,6.5,18.25,6.5C18.66,6.5,19,6.84,19,7.25C19,7.66,18.66,8,18.25,8C18.25,8,18.25,8,18.25,8Z" fill="currentColor" fill-opacity="1"/></g><g><path d="M12.6201171875,8C12.2001171875,8,11.8701171875,7.66,11.8701171875,7.25C11.8701171875,6.84,12.2101171875,6.5,12.6201171875,6.5C13.0301171875,6.5,13.3701171875,6.84,13.3701171875,7.25C13.3701171875,7.66,13.0401171875,8,12.6201171875,8C12.6201171875,8,12.6201171875,8,12.6201171875,8Z" fill="currentColor" fill-opacity="1"/></g><g style="opacity:0;"><path d="" fill="currentColor" fill-opacity="1"/></g></g></svg>