<svg xmlns="http://www.w3.org/2000/svg" xmlns:xlink="http://www.w3.org/1999/xlink" fill="none" version="1.1" width="32" height="32" viewBox="0 0 32 32"><defs><clipPath id="master_svg0_213_0286"><rect x="0" y="0" width="32" height="32" rx="0"/></clipPath><filter id="master_svg1_213_0286/11_1325" filterUnits="objectBoundingBox" color-interpolation-filters="sRGB" x="-10" y="-10" width="40" height="28"><feFlood flood-opacity="0" result="BackgroundImageFix"/><feBlend mode="normal" in="SourceGraphic" in2="BackgroundImageFix" result="shape"/><feGaussianBlur stdDeviation="2.5" result="effect1_foregroundBlur"/></filter><linearGradient x1="0.3103354275226593" y1="0.23877549171447754" x2="0.8852800726890564" y2="0.8350201845169067" id="master_svg2_11_0696"><stop offset="0%" stop-color="#CBD2F0" stop-opacity="1"/><stop offset="100%" stop-color="#788ACA" stop-opacity="1"/></linearGradient></defs><g clip-path="url(#master_svg0_213_0286)"><g><g filter="url(#master_svg1_213_0286/11_1325)"><rect x="8" y="20" width="20" height="8" rx="0" fill="#414D73" fill-opacity="1"/></g><g><path d="M2.584517,8.37735C2,9.9833,2,11.98886,2,16C2,20.0111,2,22.0167,2.584517,23.6227C3.56439,26.3149,5.6851400000000005,28.4356,8.37735,29.4154C9.9833,30,11.98886,30,16,30C20.0111,30,22.0167,30,23.6227,29.4154C26.3149,28.4356,28.4356,26.3149,29.4154,23.6227C30,22.0167,30,20.0111,30,16C30,11.98886,30,9.9833,29.4154,8.37735C28.4356,5.6851400000000005,26.3149,3.56439,23.6227,2.584517C22.0167,2,20.0111,2,16,2C11.98886,2,9.9833,2,8.37735,2.584517C5.6851400000000005,3.56439,3.56439,5.6851400000000005,2.584517,8.37735C2.584517,8.37735,2.584517,8.37735,2.584517,8.37735Z" fill-rule="evenodd" fill="url(#master_svg2_11_0696)" fill-opacity="1"/></g><g><path d="M19.7717435546875,10.6153564453125C19.1011435546875,10.6153564453125,18.5575435546875,11.2109584453125,18.5575435546875,11.9456664453125C18.5575435546875,12.6803864453125,19.1011435546875,13.2759964453125,19.7717435546875,13.2759964453125C19.7717435546875,13.2759964453125,20.434243554687498,13.2759964453125,20.434243554687498,13.2759964453125C20.434243554687498,13.2759964453125,17.3521535546875,16.5958964453125,17.3521535546875,16.5958964453125C17.3521535546875,16.5958964453125,14.574053554687499,13.6033964453125,14.574053554687499,13.6033964453125C14.102103554687499,13.095016445312499,13.3454635546875,13.0943764453125,12.872793554687501,13.6019564453125C12.872793554687501,13.6019564453125,7.7489355546875,19.104216445312503,7.7489355546875,19.104216445312503C7.2700145546875,19.618506445312498,7.2623105546875,20.4607664453125,7.7317295546875,20.9854564453125C8.2011465546875,21.5101564453125,8.969923554687501,21.5186564453125,9.4488435546875,21.0043564453125C9.4488435546875,21.0043564453125,13.7214435546875,16.4162064453125,13.7214435546875,16.4162064453125C13.7214435546875,16.4162064453125,16.5008635546875,19.4101264453125,16.5008635546875,19.4101264453125C16.9733335546875,19.919066445312502,17.7309435546875,19.919066445312502,18.2034435546875,19.4101264453125C18.2034435546875,19.4101264453125,22.186943554687502,15.1192464453125,22.186943554687502,15.1192464453125C22.186943554687502,15.1192464453125,22.186943554687502,15.8551764453125,22.186943554687502,15.8551764453125C22.186943554687502,16.5898864453125,22.7305435546875,17.185496445312502,23.4011435546875,17.185496445312502C24.0717435546875,17.185496445312502,24.6154435546875,16.5898864453125,24.6154435546875,15.8551764453125C24.6154435546875,15.8551764453125,24.6154435546875,11.9456664453125,24.6154435546875,11.9456664453125C24.6154435546875,11.2109584453125,24.0717435546875,10.6153564453125,23.4011435546875,10.6153564453125C23.4011435546875,10.6153564453125,19.7717435546875,10.6153564453125,19.7717435546875,10.6153564453125C19.7717435546875,10.6153564453125,19.7717435546875,10.6153564453125,19.7717435546875,10.6153564453125Z" fill="#414D73" fill-opacity="1"/></g></g></g></svg>