<svg
    xmlns="http://www.w3.org/2000/svg"
    viewBox="0 0 25 25"
    id="vector">
    <path
        id="path_1"
        d="M 20.705 23.845 L 3.753 23.845 C 3.079 23.844 2.433 23.576 1.956 23.1 C 1.48 22.624 1.212 21.978 1.211 21.304 L 1.211 5.21 C 1.212 4.536 1.48 3.89 1.956 3.413 C 2.433 2.937 3.079 2.669 3.753 2.668 L 19.434 2.668 C 19.659 2.663 19.881 2.718 20.076 2.829 C 20.272 2.94 20.433 3.102 20.544 3.297 C 20.655 3.492 20.711 3.714 20.706 3.939 C 20.711 4.164 20.655 4.386 20.544 4.581 C 20.433 4.776 20.272 4.938 20.076 5.049 C 19.881 5.16 19.659 5.215 19.434 5.21 L 5.025 5.21 C 4.688 5.21 4.365 5.344 4.126 5.582 C 3.888 5.82 3.754 6.143 3.753 6.48 C 3.748 6.705 3.804 6.927 3.915 7.122 C 4.026 7.317 4.187 7.479 4.383 7.59 C 4.578 7.701 4.8 7.756 5.025 7.751 L 20.706 7.751 C 21.38 7.752 22.026 8.02 22.503 8.496 C 22.979 8.973 23.247 9.619 23.248 10.293 L 23.248 21.304 C 23.247 21.978 22.979 22.624 22.502 23.101 C 22.026 23.577 21.379 23.845 20.705 23.845 Z M 15.505 16 C 15.107 16 14.726 16.158 14.444 16.439 C 14.163 16.721 14.005 17.102 14.005 17.5 C 14.005 17.898 14.163 18.279 14.444 18.561 C 14.726 18.842 15.107 19 15.505 19 L 19.505 19 C 19.903 19 20.284 18.842 20.566 18.561 C 20.847 18.279 21.005 17.898 21.005 17.5 C 21.005 17.102 20.847 16.721 20.566 16.439 C 20.284 16.158 19.903 16 19.505 16 Z"
        fill="currentColor"/>
</svg>
