<svg xmlns="http://www.w3.org/2000/svg" xmlns:xlink="http://www.w3.org/1999/xlink" fill="none" version="1.1" width="32" height="32" viewBox="0 0 32 32"><defs><clipPath id="master_svg0_213_0326"><rect x="0" y="0" width="32" height="32" rx="0"/></clipPath><linearGradient x1="0.888144314289093" y1="0.8281729221343994" x2="0.206202894449234" y2="0.1624058187007904" id="master_svg1_11_2546"><stop offset="0%" stop-color="#CCCCCC" stop-opacity="1"/><stop offset="100%" stop-color="#EBEBEB" stop-opacity="1"/></linearGradient></defs><g clip-path="url(#master_svg0_213_0326)"><g><g><path d="M2,9.804030000000001C2,5.53582,5.3340700000000005,2,9.53846,2C9.53846,2,22.4615,2,22.4615,2C26.666,2,30,5.53582,30,9.804030000000001C30,9.804030000000001,30,16.442,30,16.442C30,20.7101,26.666,24.246,22.4615,24.246C22.4615,24.246,16.5176,24.246,16.5176,24.246C16.5176,24.246,12.4084,29.38,12.4084,29.38C11.38729,30.6558,9.53846,29.7892,9.53846,28.3486C9.53846,28.3486,9.53846,24.2908,9.53846,24.2908C9.53846,24.2672,9.53104,24.2531,9.5253,24.246C5.327109999999999,24.2386,2,20.7057,2,16.442C2,16.442,2,9.804030000000001,2,9.804030000000001C2,9.804030000000001,2,9.804030000000001,2,9.804030000000001Z" fill="url(#master_svg1_11_2546)" fill-opacity="1"/></g><g><path d="M8.4615478515625,10.611332109375C8.4615478515625,10.016840109375,8.9437028515625,9.534912109375,9.5384678515625,9.534912109375C9.5384678515625,9.534912109375,22.4615478515625,9.534912109375,22.4615478515625,9.534912109375C23.0563478515625,9.534912109375,23.538447851562502,10.016840109375,23.538447851562502,10.611332109375C23.538447851562502,11.205812109375,23.0563478515625,11.687742109375,22.4615478515625,11.687742109375C22.4615478515625,11.687742109375,9.5384678515625,11.687742109375,9.5384678515625,11.687742109375C8.9437028515625,11.687742109375,8.4615478515625,11.205812109375,8.4615478515625,10.611332109375C8.4615478515625,10.611332109375,8.4615478515625,10.611332109375,8.4615478515625,10.611332109375ZM8.4615478515625,14.916992109375C8.4615478515625,14.322502109375,8.9437028515625,13.840582109375,9.5384678515625,13.840582109375C9.5384678515625,13.840582109375,18.1538578515625,13.840582109375,18.1538578515625,13.840582109375C18.748647851562502,13.840582109375,19.230747851562498,14.322502109375,19.230747851562498,14.916992109375C19.230747851562498,15.511472109375,18.748647851562502,15.993412109375,18.1538578515625,15.993412109375C18.1538578515625,15.993412109375,9.5384678515625,15.993412109375,9.5384678515625,15.993412109375C8.9437028515625,15.993412109375,8.4615478515625,15.511472109375,8.4615478515625,14.916992109375C8.4615478515625,14.916992109375,8.4615478515625,14.916992109375,8.4615478515625,14.916992109375Z" fill="#AAAAAA" fill-opacity="1"/></g></g></g></svg>