<svg xmlns="http://www.w3.org/2000/svg" xmlns:xlink="http://www.w3.org/1999/xlink" fill="none" version="1.1" width="32" height="32" viewBox="0 0 32 32"><defs><clipPath id="master_svg0_66_4704"><rect x="0" y="0" width="32" height="32" rx="0"/></clipPath><linearGradient x1="0.888144314289093" y1="0.8281729221343994" x2="0.206202894449234" y2="0.1624058187007904" id="master_svg1_11_2546"><stop offset="0%" stop-color="#CCCCCC" stop-opacity="1"/><stop offset="100%" stop-color="#DDDDDD" stop-opacity="0.5199999809265137"/></linearGradient></defs><g clip-path="url(#master_svg0_66_4704)"><g><g><path d="M2.584517,8.37735C2,9.9833,2,11.98886,2,16C2,20.0111,2,22.0167,2.584517,23.6227C3.56439,26.3149,5.6851400000000005,28.4356,8.37735,29.4154C9.9833,30,11.98886,30,16,30C20.0111,30,22.0167,30,23.6227,29.4154C26.3149,28.4356,28.4356,26.3149,29.4154,23.6227C30,22.0167,30,20.0111,30,16C30,11.98886,30,9.9833,29.4154,8.37735C28.4356,5.6851400000000005,26.3149,3.56439,23.6227,2.584517C22.0167,2,20.0111,2,16,2C11.98886,2,9.9833,2,8.37735,2.584517C5.6851400000000005,3.56439,3.56439,5.6851400000000005,2.584517,8.37735C2.584517,8.37735,2.584517,8.37735,2.584517,8.37735Z" fill-rule="evenodd" fill="url(#master_svg1_11_2546)" fill-opacity="1"/></g><g><path d="M19.771865625,10.615385055541992C19.101265625,10.615385055541992,18.557665625,11.210987055541992,18.557665625,11.945695055541993C18.557665625,12.680415055541992,19.101265625,13.276025055541993,19.771865625,13.276025055541993C19.771865625,13.276025055541993,20.434365624999998,13.276025055541993,20.434365624999998,13.276025055541993C20.434365624999998,13.276025055541993,17.352275625,16.595925055541993,17.352275625,16.595925055541993C17.352275625,16.595925055541993,14.574175624999999,13.603425055541992,14.574175624999999,13.603425055541992C14.102225624999999,13.095045055541991,13.345585625,13.094405055541992,12.872915625000001,13.601985055541991C12.872915625000001,13.601985055541991,7.749057625,19.104245055541995,7.749057625,19.104245055541995C7.270136625,19.61853505554199,7.262432625,20.460795055541993,7.731851625,20.985485055541993C8.201268625,21.510185055541992,8.970045625000001,21.518685055541994,9.448965625,21.00438505554199C9.448965625,21.00438505554199,13.721565625,16.416235055541993,13.721565625,16.416235055541993C13.721565625,16.416235055541993,16.500985625,19.410155055541992,16.500985625,19.410155055541992C16.973455625,19.919095055541995,17.731065625,19.919095055541995,18.203565625,19.410155055541992C18.203565625,19.410155055541992,22.187065625000002,15.119275055541992,22.187065625000002,15.119275055541992C22.187065625000002,15.119275055541992,22.187065625000002,15.855205055541992,22.187065625000002,15.855205055541992C22.187065625000002,16.589915055541994,22.730665625,17.185525055541994,23.401265625,17.185525055541994C24.071865625,17.185525055541994,24.615565625,16.589915055541994,24.615565625,15.855205055541992C24.615565625,15.855205055541992,24.615565625,11.945695055541993,24.615565625,11.945695055541993C24.615565625,11.210987055541992,24.071865625,10.615385055541992,23.401265625,10.615385055541992C23.401265625,10.615385055541992,19.771865625,10.615385055541992,19.771865625,10.615385055541992C19.771865625,10.615385055541992,19.771865625,10.615385055541992,19.771865625,10.615385055541992Z" fill="#AAAAAA" fill-opacity="1"/></g></g></g></svg>