<svg xmlns="http://www.w3.org/2000/svg" xmlns:xlink="http://www.w3.org/1999/xlink" fill="none" version="1.1" width="32" height="32" viewBox="0 0 32 32"><defs><clipPath id="master_svg0_66_4667"><rect x="0" y="0" width="32" height="32" rx="0"/></clipPath><filter id="master_svg1_66_4667/11_1337" filterUnits="objectBoundingBox" color-interpolation-filters="sRGB" x="-10" y="-10" width="40" height="28"><feFlood flood-opacity="0" result="BackgroundImageFix"/><feBlend mode="normal" in="SourceGraphic" in2="BackgroundImageFix" result="shape"/><feGaussianBlur stdDeviation="2.5" result="effect1_foregroundBlur"/></filter><linearGradient x1="0.3103354275226593" y1="0.23877549171447754" x2="0.8852800726890564" y2="0.8350201845169067" id="master_svg2_11_0696"><stop offset="0%" stop-color="#CBD2F0" stop-opacity="1"/><stop offset="100%" stop-color="#788ACA" stop-opacity="1"/></linearGradient></defs><g clip-path="url(#master_svg0_66_4667)"><g><g filter="url(#master_svg1_66_4667/11_1337)"><rect x="8" y="19" width="20" height="8" rx="0" fill="#414D73" fill-opacity="1"/></g><g><path d="M2,9.804030000000001C2,5.53582,5.3340700000000005,2,9.53846,2C9.53846,2,22.4615,2,22.4615,2C26.666,2,30,5.53582,30,9.804030000000001C30,9.804030000000001,30,16.442,30,16.442C30,20.7101,26.666,24.246,22.4615,24.246C22.4615,24.246,16.5176,24.246,16.5176,24.246C16.5176,24.246,12.4084,29.38,12.4084,29.38C11.38729,30.6558,9.53846,29.7892,9.53846,28.3486C9.53846,28.3486,9.53846,24.2908,9.53846,24.2908C9.53846,24.2672,9.53104,24.2531,9.5253,24.246C5.327109999999999,24.2386,2,20.7057,2,16.442C2,16.442,2,9.804030000000001,2,9.804030000000001C2,9.804030000000001,2,9.804030000000001,2,9.804030000000001Z" fill="url(#master_svg2_11_0696)" fill-opacity="1"/></g><g><path d="M8.46142578125,10.611331632537842C8.46142578125,10.016839632537842,8.94358078125,9.534911632537842,9.53834578125,9.534911632537842C9.53834578125,9.534911632537842,22.46142578125,9.534911632537842,22.46142578125,9.534911632537842C23.05622578125,9.534911632537842,23.538325781250002,10.016839632537842,23.538325781250002,10.611331632537842C23.538325781250002,11.205811632537841,23.05622578125,11.687741632537842,22.46142578125,11.687741632537842C22.46142578125,11.687741632537842,9.53834578125,11.687741632537842,9.53834578125,11.687741632537842C8.94358078125,11.687741632537842,8.46142578125,11.205811632537841,8.46142578125,10.611331632537842C8.46142578125,10.611331632537842,8.46142578125,10.611331632537842,8.46142578125,10.611331632537842ZM8.46142578125,14.916991632537842C8.46142578125,14.322501632537842,8.94358078125,13.840581632537841,9.53834578125,13.840581632537841C9.53834578125,13.840581632537841,18.15373578125,13.840581632537841,18.15373578125,13.840581632537841C18.748525781250002,13.840581632537841,19.230625781249998,14.322501632537842,19.230625781249998,14.916991632537842C19.230625781249998,15.511471632537841,18.748525781250002,15.993411632537843,18.15373578125,15.993411632537843C18.15373578125,15.993411632537843,9.53834578125,15.993411632537843,9.53834578125,15.993411632537843C8.94358078125,15.993411632537843,8.46142578125,15.511471632537841,8.46142578125,14.916991632537842C8.46142578125,14.916991632537842,8.46142578125,14.916991632537842,8.46142578125,14.916991632537842Z" fill="#414D73" fill-opacity="1"/></g></g></g></svg>