<svg
    xmlns="http://www.w3.org/2000/svg"
    viewBox="0 0 25 25"
    id="vector">
    <path
        id="path"
        d="M 23.024 11 C 21.459 12.907 18.69 16.055 18.69 16.055 C 18.69 16.055 19.143 19.511 19.397 21.873 C 19.508 23.073 18.64 23.595 17.658 23.127 Q 14.978 21.775 12.308 20.407 L 6.898 23.098 C 6.703 23.23 6.473 23.299 6.238 23.297 C 6.003 23.294 5.774 23.219 5.583 23.083 C 5.392 22.947 5.246 22.755 5.167 22.534 C 5.088 22.312 5.078 22.072 5.139 21.845 C 5.395 19.488 5.853 16.035 5.853 16.035 C 5.853 16.035 3.054 12.89 1.47 10.99 C 0.91 10.298 1.27 9.315 2.37 9.135 C 4.62 8.709 8.108 8.035 8.108 8.035 C 8.108 8.035 10.016 4.519 11.223 2.364 C 11.887 1.054 12.347 1.205 12.423 1.243 C 12.629 1.314 12.951 1.569 13.373 2.365 C 14.567 4.522 16.452 8.044 16.452 8.044 C 16.452 8.044 19.899 8.722 22.124 9.144 C 22.412 9.146 22.688 9.257 22.898 9.453 C 23.109 9.649 23.238 9.918 23.26 10.204 C 23.282 10.491 23.195 10.776 23.017 11.002 Z M 23.024 11"
        fill="currentColor"
      />
</svg>
