<svg xmlns="http://www.w3.org/2000/svg" xmlns:xlink="http://www.w3.org/1999/xlink" fill="none" version="1.1" width="32" height="32" viewBox="0 0 32 32"><defs><clipPath id="master_svg0_66_4714"><rect x="0" y="0" width="32" height="32" rx="0"/></clipPath><linearGradient x1="0.888144314289093" y1="0.8281729221343994" x2="0.206202894449234" y2="0.1624058187007904" id="master_svg1_11_2546"><stop offset="0%" stop-color="#CCCCCC" stop-opacity="1"/><stop offset="100%" stop-color="#DDDDDD" stop-opacity="0.5199999809265137"/></linearGradient></defs><g clip-path="url(#master_svg0_66_4714)"><g><g><path d="M26.6008,28.2946C25.8682,28.6801,25.0688,28.8448,24.1376,28.9234C23.3826,28.987,22.4778,28.9977,21.3846,28.9995C21.3846,28.9995,10.61539,28.9998,10.61539,28.9998C9.52216,28.998,8.6174,28.987,7.86231,28.9234C6.93121,28.8448,6.13188,28.6801,5.39917,28.2946C4.22149,27.6751,3.26978,26.6898,2.6752000000000002,25.4851C2.307212,24.7395,2.149358,23.926,2.0738378,22.9719C2.0000208295,22.0391,2.0000272421,20.8827,2.0000353299,19.4273C2.0000353299,19.4273,2.0000355866,17.047,2.0000355866,17.047C2.0000355866,17.047,2.0000174853,16.9077,2.0000174853,16.9077C1.999768302,15.641,1.999606036,14.8156,2.194549,14.032C2.366988,13.3389,2.651263,12.6794,3.03632,12.0813C3.47236,11.40397,4.07039,10.84854,4.981,10.00282C4.981,10.00282,4.9810099999999995,10.00281,4.9810099999999995,10.00281C4.9810099999999995,10.00281,5.08295,9.90811,5.08295,9.90811C5.08295,9.90811,9.76794,5.55511,9.76794,5.55511C10.71801,4.67235,11.47712,3.96701,12.1374,3.44337C12.8153,2.905781,13.4559,2.504034,14.1868,2.276266C15.369,1.9079114,16.631,1.9079114,17.813200000000002,2.276266C18.5441,2.504034,19.1847,2.905781,19.8626,3.44337C20.5229,3.967,21.282,4.6723099999999995,22.2319,5.55505C22.2319,5.55505,22.232,5.5551200000000005,22.232,5.5551200000000005C22.232,5.5551200000000005,26.9171,9.90811,26.9171,9.90811C26.9171,9.90811,27.019,10.00281,27.019,10.00281C27.9296,10.84854,28.5276,11.40396,28.9637,12.0813C29.3488,12.6794,29.633,13.3389,29.8054,14.032C30.0004,14.8156,30.0002,15.641,30,16.9077C30,16.9077,30,16.9077,30,16.9077C30,16.9077,30,17.047,30,17.047C30,17.047,30,19.4273,30,19.4273C30,20.8827,30,22.0391,29.9261,22.9719C29.8506,23.926,29.6927,24.7395,29.3248,25.4851C28.7302,26.6898,27.7785,27.6751,26.6008,28.2946C26.6008,28.2946,26.6008,28.2946,26.6008,28.2946Z" fill="url(#master_svg1_11_2546)" fill-opacity="1"/></g><g><path d="M10.615418206642579,22.52030304534912C10.615418206642579,22.52030304534912,10.615418206642579,26.83941304534912,10.615418206642579,26.83941304534912C10.615418206642579,26.83941304534912,10.615418206642579,28.99982304534912,10.615418206642579,28.99982304534912C10.835698483642577,29.00012304534912,11.063629483642579,28.99982304534912,11.299531483642578,28.99982304534912C11.299531483642578,28.99982304534912,11.347723483642579,28.99982304534912,11.347723483642579,28.99982304534912C11.347723483642579,28.99982304534912,20.653614483642578,28.99982304534912,20.653614483642578,28.99982304534912C20.653614483642578,28.99982304534912,20.70051448364258,28.99982304534912,20.70051448364258,28.99982304534912C20.93641448364258,28.99982304534912,21.164314483642578,28.99982304534912,21.38461448364258,28.99952304534912C21.38461448364258,28.99952304534912,21.38461448364258,26.83941304534912,21.38461448364258,26.83941304534912C21.38461448364258,26.83941304534912,21.38461448364258,22.52030304534912,21.38461448364258,22.52030304534912C21.38461448364258,22.52030304534912,21.38461448364258,22.37171304534912,21.38461448364258,22.37171304534912C21.385214483642578,21.51269304534912,21.38551448364258,20.874793045349122,21.23781448364258,20.32221304534912C20.839514483642578,18.831423045349123,19.678394483642577,17.66698304534912,18.191844483642576,17.26752704534912C17.640844483642578,17.11946338434912,17.00474448364258,17.11980943034912,16.148184483642577,17.12027394384912C16.148184483642577,17.12027394384912,16.000014483642577,17.12032750234912,16.000014483642577,17.12032750234912C16.000014483642577,17.12032750234912,15.851854483642578,17.12027394384912,15.851854483642578,17.12027394384912C14.995284483642578,17.11980943034912,14.359194483642579,17.11946338434912,13.808184483642577,17.26752704534912C12.321644483642578,17.66698304534912,11.160517483642579,18.831423045349123,10.762199483642577,20.32221304534912C10.614556901642578,20.874793045349122,10.614901609642578,21.51269304534912,10.615365314442577,22.371703045349122C10.615365314442577,22.371703045349122,10.615418206642579,22.52030304534912,10.615418206642579,22.52030304534912C10.615418206642579,22.52030304534912,10.615418206642579,22.52030304534912,10.615418206642579,22.52030304534912Z" fill="#AAAAAA" fill-opacity="1"/></g></g></g></svg>