<svg xmlns="http://www.w3.org/2000/svg" xmlns:xlink="http://www.w3.org/1999/xlink" fill="none" version="1.1" width="32" height="32" viewBox="0 0 32 32"><defs><clipPath id="master_svg0_66_4700"><rect x="0" y="0" width="32" height="32" rx="0"/></clipPath><linearGradient x1="0.888144314289093" y1="0.8281729221343994" x2="0.206202894449234" y2="0.1624058187007904" id="master_svg1_11_2546"><stop offset="0%" stop-color="#CCCCCC" stop-opacity="1"/><stop offset="100%" stop-color="#DDDDDD" stop-opacity="0.5199999809265137"/></linearGradient><linearGradient x1="0.888144314289093" y1="0.8281729221343994" x2="0.206202894449234" y2="0.1624058187007904" id="master_svg2_11_2546"><stop offset="0%" stop-color="#CCCCCC" stop-opacity="1"/><stop offset="100%" stop-color="#DDDDDD" stop-opacity="0.5199999809265137"/></linearGradient></defs><g clip-path="url(#master_svg0_66_4700)"><g><g><g><path d="M23.4222,4.0850666C24.4846,4.171864,25.3717,4.352174,26.1779,4.762955C27.4951,5.43407,28.5659,6.50493,29.237,7.82207C29.6478,8.62827,29.8281,9.51543,29.9149,10.57778C29.9261,10.714120000000001,29.9358,10.854790000000001,29.9442,11C29.9442,11,27.9965,11,27.9965,11C27.9965,11,22,11,22,11C19.2386,11,17,13.23858,17,16C17,18.761400000000002,19.2386,21,22,21C22,21,27,21,27,21C27,21,28,21,28,21C28,21,29.9442,21,29.9442,21C29.9358,21.1452,29.9261,21.2859,29.9149,21.4222C29.8281,22.4846,29.6478,23.3717,29.237,24.1779C28.5659,25.4951,27.4951,26.5659,26.1779,27.237C25.3717,27.6478,24.4846,27.8281,23.4222,27.9149C22.3809,28,21.087,28,19.4444,28C19.4444,28,13.5731,28,13.5731,28C11.91399,28,10.37716,28,9.09398,27.9161C7.83874,27.8341,6.6633,27.6657,5.82207,27.237C4.50493,26.5659,3.43407,25.4951,2.762955,24.1779C2.3521739999999998,23.3717,2.171864,22.4846,2.0850666,21.4222C1.9999879599,20.3809,1.99999344226,19.087,2.000000117985,17.4444C2.000000117985,17.4444,2.000000117985,14.5556,2.000000117985,14.5556C1.99999344226,12.91304,1.9999879599,11.61909,2.0850666,10.57778C2.171864,9.51543,2.3521739999999998,8.62827,2.762955,7.82207C3.43407,6.50493,4.50493,5.43407,5.82207,4.762955C6.6633,4.334324,7.83874,4.165929,9.09398,4.0838752C10.37715,3.99999558926,11.91397,3.99999785301,13.5731,4.000000356403C13.5731,4.000000356403,19.4444,4.000000117985,19.4444,4.000000117985C21.087,3.99999344226,22.3809,3.9999879599,23.4222,4.0850666C23.4222,4.0850666,23.4222,4.0850666,23.4222,4.0850666ZM8,9C8,9,14,9,14,9C14.5523,9,15,9.44772,15,10C15,10.55229,14.5523,11,14,11C14,11,8,11,8,11C7.44772,11,7,10.55229,7,10C7,9.44772,7.44772,9,8,9C8,9,8,9,8,9Z" fill-rule="evenodd" fill="url(#master_svg1_11_2546)" fill-opacity="1"/></g><g><path d="M22,13C22,13,29.996499999999997,13,29.996499999999997,13C29.9999,13.481249,30,14.01149,30,14.6C30,14.6,30,17.4,30,17.4C30,17.4,30,17.40831,30,17.40831C30,17.60802,30.0004,17.80115,30.000799999999998,17.98779C30.0015,18.34799,30.002200000000002,18.68452,30,19C30,19,22,19,22,19C20.34315,19,19,17.65685,19,16C19,14.34315,20.34315,13,22,13C22,13,22,13,22,13Z" fill="#AAAAAA" fill-opacity="1"/></g><g><path d="M22,15C22,15,23,15,23,15C23.55228,15,24,15.447715,24,16C24,16.55228,23.55228,17,23,17C23,17,22,17,22,17C21.447715,17,21,16.55228,21,16C21,15.447715,21.447715,15,22,15C22,15,22,15,22,15Z" fill="url(#master_svg2_11_2546)" fill-opacity="1"/></g><g><rect x="7" y="9" width="8" height="2" rx="1" fill="#AAAAAA" fill-opacity="1"/></g></g></g></g></svg>