<svg xmlns="http://www.w3.org/2000/svg" xmlns:xlink="http://www.w3.org/1999/xlink" fill="none" version="1.1" width="32" height="32" viewBox="0 0 32 32"><defs><clipPath id="master_svg0_213_0310"><rect x="0" y="0" width="32" height="32" rx="0"/></clipPath><filter id="master_svg1_213_0310/11_1342" filterUnits="objectBoundingBox" color-interpolation-filters="sRGB" x="-10" y="-10" width="40" height="28"><feFlood flood-opacity="0" result="BackgroundImageFix"/><feBlend mode="normal" in="SourceGraphic" in2="BackgroundImageFix" result="shape"/><feGaussianBlur stdDeviation="2.5" result="effect1_foregroundBlur"/></filter><linearGradient x1="0.3103354275226593" y1="0.23877549171447754" x2="0.8852800726890564" y2="0.8350201845169067" id="master_svg2_11_0696"><stop offset="0%" stop-color="#CBD2F0" stop-opacity="1"/><stop offset="100%" stop-color="#788ACA" stop-opacity="1"/></linearGradient></defs><g clip-path="url(#master_svg0_213_0310)"><g><g filter="url(#master_svg1_213_0310/11_1342)"><rect x="8" y="20" width="20" height="8" rx="0" fill="#414D73" fill-opacity="1"/></g><g><path d="M20.7872,2.084474C19.5491,1.9999929953,18.0133,1.99999607474,16.040399999999998,2.0000000545028C16.040399999999998,2.0000000545028,15.9596,2.0000000545028,15.9596,2.0000000545028C13.9867,1.99999607474,12.4509,1.9999929953,11.21273,2.084474C9.956430000000001,2.170192,8.92794,2.346467,7.98322,2.737784C5.60834,3.72149,3.72149,5.60834,2.737783,7.98322C2.346467,8.92794,2.170192,9.956430000000001,2.084474,11.21273C1.9999929953,12.4509,1.99999607474,13.9867,2.0000000545028,15.9596C2.0000000545028,15.9596,2.0000000545028,16.040399999999998,2.0000000545028,16.040399999999998C1.99999607474,18.0133,1.9999929953,19.5491,2.084474,20.7872C2.170192,22.0436,2.346467,23.072,2.737783,24.0168C3.72149,26.3917,5.60834,28.2785,7.98322,29.2622C8.2814,29.3857,8.58792,29.4878,8.907309999999999,29.5724C9.59986,29.7558,10.35295,29.8569,11.21273,29.9156C11.68559,29.9478,12.2018,29.9677,12.7692,29.9801C13.6876,30,14.7401,30,15.9595,30C15.9595,30,16.0405,30,16.0405,30C17.259900000000002,30,18.3124,30,19.2308,29.9801C19.7982,29.9677,20.3144,29.9478,20.7872,29.9156C21.6463,29.8569,22.3988,29.756,23.0909,29.5729C23.411,29.4882,23.718,29.3859,24.0168,29.2622C26.3917,28.2785,28.2785,26.3917,29.2622,24.0168C29.6536,23.072,29.8298,22.0436,29.9156,20.7872C30,19.5491,30,18.0134,30,16.0405C30,16.0405,30,15.9595,30,15.9595C30,13.9866,30,12.4509,29.9156,11.21273C29.8298,9.956430000000001,29.6536,8.92794,29.2622,7.98322C28.2785,5.60834,26.3917,3.72149,24.0168,2.737783C23.072,2.346467,22.0436,2.170192,20.7872,2.084474C20.7872,2.084474,20.7872,2.084474,20.7872,2.084474Z" fill="url(#master_svg2_11_0696)" fill-opacity="1"/></g><g><path d="M21.300215906524656,14.036198791656494C21.300215906524656,17.148888791656496,18.894015906524658,19.610838791656494,15.999415906524657,19.610838791656494C13.104775906524658,19.610838791656494,10.698665906524658,17.148888791656496,10.698665906524658,14.036198791656494C10.698665906524658,10.923518791656495,13.104775906524658,8.461538791656494,15.999415906524657,8.461538791656494C18.894015906524658,8.461538791656494,21.300215906524656,10.923518791656495,21.300215906524656,14.036198791656494C21.300215906524656,14.036198791656494,21.300215906524656,14.036198791656494,21.300215906524656,14.036198791656494ZM15.959555906524658,30.000038791656493C15.959555906524658,30.000038791656493,16.040435906524657,30.000038791656493,16.040435906524657,30.000038791656493C17.259925906524657,30.000038791656493,18.312365906524658,30.000038791656493,19.230815906524658,29.980038791656494C19.798115906524657,29.967738791656494,20.31441590652466,29.947738791656494,20.787315906524658,29.915538791656495C21.64621590652466,29.856838791656493,22.39881590652466,29.755938791656494,23.09081590652466,29.572938791656494C23.37821590652466,29.353338791656494,23.55051590652466,28.991438791656496,23.53701590652466,28.599938791656495C23.51821590652466,28.059538791656493,23.484015906524657,27.546638791656495,23.421515906524657,27.058538791656495C23.29111590652466,26.039738791656493,23.04711590652466,25.217338791656495,22.628815906524657,24.558238791656493C21.85101590652466,23.332638791656493,20.17561590652466,22.242238791656494,15.985485906524659,22.144838791656493C11.810845906524658,22.147138791656495,10.148575906524659,23.239738791656492,9.374344906524659,24.477038791656494C8.953908906524658,25.148938791656494,8.708511906524658,25.991138791656493,8.577604906524659,27.028338791656495C8.514613306524659,27.527538791656493,8.480249506524657,28.050638791656493,8.461538005524659,28.599938791656495C8.448207306524658,28.991238791656492,8.620300906524658,29.352738791656495,8.907302906524658,29.572338791656495C9.599855906524658,29.755738791656494,10.352945906524658,29.856838791656493,11.212735906524658,29.915538791656495C11.685575906524658,29.947738791656494,12.201815906524658,29.967738791656494,12.769225906524658,29.980038791656494C13.687615906524659,30.000038791656493,14.74006590652466,30.000038791656493,15.959555906524658,30.000038791656493C15.959555906524658,30.000038791656493,15.959555906524658,30.000038791656493,15.959555906524658,30.000038791656493Z" fill="#414D73" fill-opacity="1"/></g></g></g></svg>