<svg id="vector" xmlns="http://www.w3.org/2000/svg" width="14" height="12" viewBox="0 0 14.022 12.36"><path fill="#6175ae" d="M13.698,10.078l-5.35,-9.133a1.422,1.422 0,0 0,-2.679 0l-5.35,9.133c-0.738,1.261 -0.149,2.281 1.311,2.281h10.759c1.468,0 2.057,-1.02 1.311,-2.281ZM7.037,10.692a0.747,0.747 0,1 1,0.746 -0.747,0.743 0.743,0 0,1 -0.746,0.747ZM7.775,4.213 L7.609,7.689v0.008a0.581,0.581 0,0 1,-1.161 0l-0.166,-3.559v-0.008a0.747,0.747 0,1 1,1.493 0,0.139 0.139,0 0,1 0,0.083ZM7.775,4.213" id="path_0"/></svg>