<svg
    xmlns="http://www.w3.org/2000/svg"
    viewBox="0 0 40 40"
    id="vector">
    <path
        id="path"
        d="M 20 20 M 1 20 C 1 14.963 3.003 10.127 6.565 6.565 C 10.127 3.003 14.963 1 20 1 C 25.037 1 29.873 3.003 33.435 6.565 C 36.997 10.127 39 14.963 39 20 C 39 25.037 36.997 29.873 33.435 33.435 C 29.873 36.997 25.037 39 20 39 C 14.963 39 10.127 36.997 6.565 33.435 C 3.003 29.873 1 25.037 1 20"
        fill="#00000000"
        stroke="#6175ae"
        stroke-width="2"/>
    <path
        id="path_1"
        d="M 12.71 12.71 L 12.71 12.71 C 12.897 12.524 13.151 12.419 13.415 12.419 C 13.679 12.419 13.933 12.524 14.12 12.71 L 26.85 25.43 C 26.975 25.554 27.065 25.709 27.111 25.88 C 27.157 26.05 27.157 26.23 27.111 26.4 C 27.065 26.571 26.975 26.726 26.85 26.85 L 26.85 26.85 C 26.663 27.036 26.409 27.141 26.145 27.141 C 25.881 27.141 25.627 27.036 25.44 26.85 L 12.71 14.12 C 12.524 13.933 12.419 13.679 12.419 13.415 C 12.419 13.151 12.524 12.897 12.71 12.71 Z"
        fill="#6175ae"/>
    <path
        id="path_2"
        d="M 26.85 12.71 L 26.85 12.71 C 27.036 12.897 27.141 13.151 27.141 13.415 C 27.141 13.679 27.036 13.933 26.85 14.12 L 14.12 26.85 C 13.933 27.036 13.679 27.141 13.415 27.141 C 13.151 27.141 12.897 27.036 12.71 26.85 L 12.71 26.85 C 12.524 26.663 12.419 26.409 12.419 26.145 C 12.419 25.881 12.524 25.627 12.71 25.44 L 25.43 12.71 C 25.554 12.585 25.709 12.495 25.88 12.449 C 26.05 12.403 26.23 12.403 26.4 12.449 C 26.571 12.495 26.726 12.585 26.85 12.71 Z"
        fill="#6175ae"/>
</svg>
