<svg xmlns="http://www.w3.org/2000/svg" xmlns:xlink="http://www.w3.org/1999/xlink" fill="none" version="1.1" width="24" height="24" viewBox="0 0 24 24"><defs><linearGradient x1="0.14304259419441223" y1="0.7828336954116821" x2="0.8024961948394775" y2="0.4241360127925873" id="master_svg0_66_02102"><stop offset="0%" stop-color="#CBD2F0" stop-opacity="1"/><stop offset="100%" stop-color="#CBD2F0" stop-opacity="0.5099999904632568"/></linearGradient></defs><g><g><g><path d="M15.48,3C15.48,3,7.52,3,7.52,3C4.07,3,2,5.0600000000000005,2,8.52C2,8.52,2,16.47,2,16.47C2,19.94,4.07,22,7.52,22C7.52,22,15.47,22,15.47,22C18.93,22,20.99,19.94,20.99,16.48C20.99,16.48,20.99,8.52,20.99,8.52C21,5.0600000000000005,18.93,3,15.48,3C15.48,3,15.48,3,15.48,3Z" fill="url(#master_svg0_66_02102)" fill-opacity="1"/></g><g><path d="M21.019996826782226,2.9799982862854004C19.229996826782227,1.1799992862854003,17.479996826782227,1.1399992862854003,15.639996826782227,2.9799982862854004C15.639996826782227,2.9799982862854004,14.509999826782227,4.0999982862854,14.509999826782227,4.0999982862854C14.409999826782226,4.1999982862854,14.379999626782226,4.3399982862854,14.419999626782227,4.4699982862854C15.119999826782227,6.9199982862854,17.079996826782228,8.8799982862854,19.529996826782227,9.5799982862854C19.559996826782225,9.5899982862854,19.609996826782226,9.5899982862854,19.639996826782227,9.5899982862854C19.739996826782225,9.5899982862854,19.839996826782226,9.549998286285401,19.909996826782226,9.4799982862854C19.909996826782226,9.4799982862854,21.019996826782226,8.3599982862854,21.019996826782226,8.3599982862854C21.929996826782226,7.449998286285401,22.379996826782225,6.5799982862854005,22.379996826782225,5.689998286285401C22.379996826782225,4.7899982862854005,21.929996826782226,3.8999982862854004,21.019996826782226,2.9799982862854004C21.019996826782226,2.9799982862854004,21.019996826782226,2.9799982862854004,21.019996826782226,2.9799982862854004Z" fill="#6175AE" fill-opacity="1"/></g><g><path d="M17.8601234375,10.42000015258789C17.5901234375,10.29000015258789,17.3301234375,10.160000152587891,17.0901234375,10.01000015258789C16.8901234375,9.890000152587891,16.6901234375,9.76000015258789,16.5001034375,9.620000152587892C16.340103437499998,9.52000015258789,16.1601034375,9.370000152587892,15.9801034375,9.22000015258789C15.9601034375,9.210000152587892,15.9001034375,9.160000152587891,15.8201034375,9.08000015258789C15.5101034375,8.83000015258789,15.1801034375,8.490000152587891,14.8701034375,8.12000015258789C14.8501034375,8.10000015258789,14.7901034375,8.04000015258789,14.7401034375,7.95000015258789C14.640103437499999,7.840000152587891,14.4901034375,7.650000152587891,14.360103437500001,7.44000015258789C14.2501034375,7.300000152587891,14.1201034375,7.10000015258789,14.0001034375,6.8900001525878904C13.8501034375,6.6400001525878904,13.7201034375,6.3900001525878904,13.6001034375,6.130000152587891C13.4701034375,5.85000015258789,13.3701034375,5.590000152587891,13.2801034375,5.340000152587891C13.2801034375,5.340000152587891,7.9001034375,10.72000015258789,7.9001034375,10.72000015258789C7.5501004375,11.070000152587891,7.2101004374999995,11.730000152587891,7.1401004375,12.22000015258789C7.1401004375,12.22000015258789,6.7101004375,15.20000015258789,6.7101004375,15.20000015258789C6.6201004375,15.83000015258789,6.7901004375,16.42000015258789,7.1801004375,16.81000015258789C7.5101004375,17.14000015258789,7.9601034375,17.31000015258789,8.460103437499999,17.31000015258789C8.5701034375,17.31000015258789,8.6801034375,17.30000015258789,8.790103437500001,17.29000015258789C8.790103437500001,17.29000015258789,11.7601034375,16.87000015258789,11.7601034375,16.87000015258789C12.2501034375,16.80000015258789,12.9101034375,16.470000152587893,13.2601034375,16.11000015258789C13.2601034375,16.11000015258789,18.6401234375,10.730000152587891,18.6401234375,10.730000152587891C18.3901234375,10.65000015258789,18.1401234375,10.54000015258789,17.8601234375,10.42000015258789C17.8601234375,10.42000015258789,17.8601234375,10.42000015258789,17.8601234375,10.42000015258789Z" fill="#6175AE" fill-opacity="1"/></g><g style="opacity:0;"></g></g></g></svg>