<svg xmlns="http://www.w3.org/2000/svg" xmlns:xlink="http://www.w3.org/1999/xlink" fill="none" version="1.1" width="88" height="88" viewBox="0 0 88 88"><g><g><rect x="9" y="9" width="70" height="70" rx="35" fill="#6BC171" fill-opacity="1"/></g><g style="opacity:0.49000000953674316;"><path d="M33.03075,10.75336Q32.283500000000004,12.43016,31.71578,14.175930000000001Q31.14805,15.921700000000001,30.76607,17.717280000000002Q30.384089,19.512900000000002,30.192044,21.3385Q30,23.1642,30,25Q30,25.8592,30.042159,26.7174Q30.084318,27.5755,30.168535,28.4306Q30.252751,29.2857,30.378822,30.1356Q30.504893,30.9855,30.672515,31.8282Q30.840137,32.6709,31.04891,33.5043Q31.25767,34.3378,31.50709,35.16Q31.7565,35.9822,32.04596,36.7911Q32.33541,37.6001,32.66422,38.3939Q32.99302,39.1877,33.36037,39.9644Q33.72773,40.7411,34.13276,41.4989Q34.53778,42.2566,34.9795,42.9936Q35.42122,43.7306,35.89856,44.445Q36.37591,45.1594,36.88774,45.8495Q37.39956,46.5396,37.944630000000004,47.2038Q38.48971,47.8679,39.06671,48.5046Q39.64371,49.1412,40.2513,49.7487Q40.8588,50.3563,41.495400000000004,50.9333Q42.1321,51.5103,42.7962,52.0554Q43.4604,52.6004,44.1505,53.1123Q44.8406,53.6241,45.555,54.1014Q46.269400000000005,54.5788,47.0064,55.0205Q47.7434,55.4622,48.5011,55.8672Q49.2589,56.2723,50.0356,56.6396Q50.8123,57.007,51.6061,57.3358Q52.3999,57.6646,53.2089,57.954Q54.0178,58.2435,54.84,58.4929Q55.6622,58.7423,56.4957,58.9511Q57.3291,59.1599,58.171800000000005,59.3275Q59.0145,59.4951,59.8644,59.6212Q60.7143,59.7472,61.5694,59.8315Q62.4245,59.9157,63.2826,59.9578Q64.1408,60,65,60Q67.7996,60,70.56360000000001,59.555Q73.32759999999999,59.11,75.98570000000001,58.2312C77.9231,53.8833,79,49.0674,79,44C79,24.67,63.33,9,44,9C40.1686,9,36.48103,9.615628,33.03075,10.75336Z" fill-rule="evenodd" fill="#BCFF70" fill-opacity="1"/></g><g style="opacity:0.47999998927116394;"><path d="M63.25484152832031,73.227604296875Q62.190241528320314,73.92900429687501,61.077441528320314,74.55100429687499Q59.964641528320314,75.173004296875,58.80954152832031,75.71240429687501Q57.65444152832031,76.251904296875,56.463141528320314,76.705804296875Q55.27194152832031,77.159804296875,54.050741528320316,77.525904296875Q52.829641528320316,77.891904296875,51.58504152832031,78.168204296875Q50.340541528320315,78.444504296875,49.079141528320314,78.629504296875Q47.817841528320315,78.814504296875,46.54634152832031,78.907204296875Q45.27494152832031,79.000004296875,44.00004152832031,79.000004296875Q43.20284152832031,79.000004296875,42.40654152832031,78.963704296875Q41.61014152832031,78.927404296875,40.81624152832031,78.85490429687499Q40.02234152832031,78.782404296875,39.23254152832031,78.673804296875Q38.44274152832031,78.565204296875,37.65874152832031,78.420704296875Q36.874741528320314,78.276304296875,36.09814152832031,78.096304296875Q35.32154152832031,77.916304296875,34.55394152832031,77.701204296875Q33.786341528320314,77.486004296875,33.02924152832031,77.236104296875Q32.27224152832031,76.986304296875,31.527341528320314,76.702204296875Q30.782541528320312,76.418104296875,30.05134152832031,76.100404296875Q29.320241528320313,75.78260429687501,28.604241528320312,75.432004296875Q27.888341528320314,75.081304296875,27.189141528320313,74.698404296875Q26.489941528320312,74.315504296875,25.80884152832031,73.901104296875Q25.127741528320314,73.486804296875,24.46624152832031,73.041904296875Q23.80484152832031,72.597004296875,23.16424152832031,72.122404296875Q22.523741528320315,71.647804296875,21.90544152832031,71.144504296875Q21.287141528320312,70.641304296875,20.692441528320312,70.110404296875Q20.097741528320313,69.579504296875,19.527741528320313,69.022104296875Q18.957831528320312,68.464704296875,18.413871528320314,67.881904296875Q17.869911528320312,67.299104296875,17.35304152832031,66.692204296875Q16.836181528320314,66.08520429687499,16.347481528320312,65.455404296875Q15.858791528320314,64.825504296875,15.399281528320312,64.174104296875Q14.939771528320312,63.522704296875,14.510401528320312,62.851004296875004Q14.081031528320313,62.179304296875,13.682681528320312,61.488704296875Q13.284341528320311,60.798204296875,12.917851528320313,60.090204296875Q12.551361528320312,59.382304296875,12.217481528320313,58.658304296875Q11.883611528320312,57.934404296875,11.583041528320312,57.196054296875Q11.282471528320313,56.457684296875,11.015831528320312,55.706394296875004Q10.749191528320313,54.955104296875,10.517041528320313,54.192464296875Q10.284881528320312,53.429814296875,10.087692528320312,52.657384296875Q9.890502528320312,51.884954296875,9.728685528320312,51.104344296875Q9.566868528320313,50.323744296875,9.440760528320313,49.536574296875Q9.314652828320312,48.749414296875,9.224516170220312,47.957324296875C9.701699528320313,47.884555296875,10.175285528320313,47.816736296875,10.645091528320313,47.753892296875C26.777341528320314,45.595964296875,27.797341528320313,50.901574296875,29.013841528320313,57.229244296875C30.493841528320313,64.92730429687501,32.26464152832031,74.138204296875,61.89114152832031,73.263204296875C62.35044152832031,73.24960429687499,62.80494152832031,73.237804296875,63.25484152832031,73.227604296875Z" fill-rule="evenodd" fill="#53B25A" fill-opacity="1"/></g><g transform="matrix(-0.7071067690849304,-0.7071067690849304,0.7071067690849304,-0.7071067690849304,28.85745942062931,131.95412630727515)"><rect x="41.75732421875" y="60.00048828125" width="6" height="36" rx="3" fill="#FFFFFF" fill-opacity="1"/></g><g transform="matrix(0.7071067690849304,-0.7071067690849304,0.7071067690849304,0.7071067690849304,-23.166818820638582,30.12992035812931)"><rect x="24.78662109375" y="43.02978515625" width="6" height="24" rx="3" fill="#FFFFFF" fill-opacity="1"/></g></g></svg>