<svg xmlns="http://www.w3.org/2000/svg" xmlns:xlink="http://www.w3.org/1999/xlink" fill="none" version="1.1" width="24" height="24" viewBox="0 0 24 24"><g><g><path d="M20.25,7C20.25,7,20.25,17,20.25,17C20.25,17,21.75,17,21.75,17C21.75,17,21.75,7,21.75,7C21.75,7,20.25,7,20.25,7C20.25,7,20.25,7,20.25,7ZM20.25,17C20.25,18.385,19.9036,19.4246,19.2629,20.1147C18.6315,20.7946,17.607,21.25,16,21.25C16,21.25,16,22.75,16,22.75C17.893,22.75,19.3685,22.2054,20.3621,21.1353C21.3464,20.0754,21.75,18.615,21.75,17C21.75,17,20.25,17,20.25,17C20.25,17,20.25,17,20.25,17ZM16,21.25C16,21.25,8,21.25,8,21.25C8,21.25,8,22.75,8,22.75C8,22.75,16,22.75,16,22.75C16,22.75,16,21.25,16,21.25C16,21.25,16,21.25,16,21.25ZM8,21.25C6.39295,21.25,5.36848,20.7946,4.7371,20.1147C4.09637,19.4246,3.75,18.385,3.75,17C3.75,17,2.25,17,2.25,17C2.25,18.615,2.653634,20.0754,3.6379099999999998,21.1353C4.63152,22.2054,6.10705,22.75,8,22.75C8,22.75,8,21.25,8,21.25C8,21.25,8,21.25,8,21.25ZM3.75,17C3.75,17,3.75,7,3.75,7C3.75,7,2.25,7,2.25,7C2.25,7,2.25,17,2.25,17C2.25,17,3.75,17,3.75,17C3.75,17,3.75,17,3.75,17ZM3.75,7C3.75,5.61497,4.09637,4.57535,4.7371,3.88534C5.36848,3.20538,6.39295,2.75,8,2.75C8,2.75,8,1.25,8,1.25C6.10705,1.25,4.63152,1.7946149999999998,3.6379099999999998,2.8646599999999998C2.653634,3.92465,2.25,5.38503,2.25,7C2.25,7,3.75,7,3.75,7C3.75,7,3.75,7,3.75,7ZM8,2.75C8,2.75,16,2.75,16,2.75C16,2.75,16,1.25,16,1.25C16,1.25,8,1.25,8,1.25C8,1.25,8,2.75,8,2.75C8,2.75,8,2.75,8,2.75ZM16,2.75C17.607,2.75,18.6315,3.20538,19.2629,3.88534C19.9036,4.57535,20.25,5.61497,20.25,7C20.25,7,21.75,7,21.75,7C21.75,5.38503,21.3464,3.92465,20.3621,2.8646599999999998C19.3685,1.7946149999999998,17.893,1.25,16,1.25C16,1.25,16,2.75,16,2.75C16,2.75,16,2.75,16,2.75Z" fill="#414D73" fill-opacity="1"/></g><g><path d="M15.5,2C15.5,2,16.25,2,16.25,2C16.25,1.585786,15.91421,1.25,15.5,1.25C15.5,1.25,15.5,2,15.5,2C15.5,2,15.5,2,15.5,2ZM14.659970000000001,10.22998C14.659970000000001,10.22998,14.151440000000001,10.78129,14.151440000000001,10.78129C14.151440000000001,10.78129,14.15633,10.78572,14.15633,10.78572C14.15633,10.78572,14.659970000000001,10.22998,14.659970000000001,10.22998C14.659970000000001,10.22998,14.659970000000001,10.22998,14.659970000000001,10.22998ZM12.340029999999999,8.090029999999999C12.340029999999999,8.090029999999999,11.824169999999999,8.634540000000001,11.824169999999999,8.634540000000001C11.824169999999999,8.634540000000001,11.83151,8.64131,11.83151,8.64131C11.83151,8.64131,12.340029999999999,8.090029999999999,12.340029999999999,8.090029999999999C12.340029999999999,8.090029999999999,12.340029999999999,8.090029999999999,12.340029999999999,8.090029999999999ZM11.65997,8.090029999999999C11.65997,8.090029999999999,12.16853,8.641359999999999,12.16853,8.641359999999999C12.16853,8.641359999999999,12.17578,8.63449,12.17578,8.63449C12.17578,8.63449,11.65997,8.090029999999999,11.65997,8.090029999999999C11.65997,8.090029999999999,11.65997,8.090029999999999,11.65997,8.090029999999999ZM9.34003,10.22998C9.34003,10.22998,9.84369,10.78574,9.84369,10.78574C9.84369,10.78574,9.84854,10.78127,9.84854,10.78127C9.84854,10.78127,9.34003,10.22998,9.34003,10.22998C9.34003,10.22998,9.34003,10.22998,9.34003,10.22998ZM8.5,2C8.5,2,8.5,1.25,8.5,1.25C8.085786,1.25,7.75,1.585786,7.75,2C7.75,2,8.5,2,8.5,2C8.5,2,8.5,2,8.5,2ZM14.75,2C14.75,2,14.75,9.85999,14.75,9.85999C14.75,9.85999,16.25,9.85999,16.25,9.85999C16.25,9.85999,16.25,2,16.25,2C16.25,2,14.75,2,14.75,2C14.75,2,14.75,2,14.75,2ZM14.75,9.85999C14.75,9.6298,15.01616,9.54061,15.16361,9.67424C15.16361,9.67424,14.15633,10.78572,14.15633,10.78572C14.94379,11.4993,16.25,10.97017,16.25,9.85999C16.25,9.85999,14.75,9.85999,14.75,9.85999C14.75,9.85999,14.75,9.85999,14.75,9.85999ZM15.16849,9.6787C15.16849,9.6787,12.84854,7.53874,12.84854,7.53874C12.84854,7.53874,11.83151,8.64131,11.83151,8.64131C11.83151,8.64131,14.15146,10.78127,14.15146,10.78127C14.15146,10.78127,15.16849,9.6787,15.16849,9.6787C15.16849,9.6787,15.16849,9.6787,15.16849,9.6787ZM12.85584,7.54556C12.37656,7.09152,11.62344,7.09152,11.14416,7.54556C11.14416,7.54556,12.17578,8.63449,12.17578,8.63449C12.076509999999999,8.728539999999999,11.923490000000001,8.728539999999999,11.82422,8.63449C11.82422,8.63449,12.85584,7.54556,12.85584,7.54556C12.85584,7.54556,12.85584,7.54556,12.85584,7.54556ZM11.15146,7.53874C11.15146,7.53874,8.83151,9.6787,8.83151,9.6787C8.83151,9.6787,9.84854,10.78127,9.84854,10.78127C9.84854,10.78127,12.16849,8.64131,12.16849,8.64131C12.16849,8.64131,11.15146,7.53874,11.15146,7.53874C11.15146,7.53874,11.15146,7.53874,11.15146,7.53874ZM8.83639,9.67424C8.98384,9.54061,9.25,9.6298,9.25,9.85999C9.25,9.85999,7.75,9.85999,7.75,9.85999C7.75,10.97017,9.05621,11.4993,9.84367,10.78572C9.84367,10.78572,8.83639,9.67424,8.83639,9.67424C8.83639,9.67424,8.83639,9.67424,8.83639,9.67424ZM9.25,9.85999C9.25,9.85999,9.25,2,9.25,2C9.25,2,7.75,2,7.75,2C7.75,2,7.75,9.85999,7.75,9.85999C7.75,9.85999,9.25,9.85999,9.25,9.85999C9.25,9.85999,9.25,9.85999,9.25,9.85999ZM8.5,2.75C8.5,2.75,15.5,2.75,15.5,2.75C15.5,2.75,15.5,1.25,15.5,1.25C15.5,1.25,8.5,1.25,8.5,1.25C8.5,1.25,8.5,2.75,8.5,2.75C8.5,2.75,8.5,2.75,8.5,2.75Z" fill="#6175AE" fill-opacity="1"/></g><g><path d="M13.25,13.25C12.835786,13.25,12.5,13.585786,12.5,14C12.5,14.41421,12.835786,14.75,13.25,14.75C13.25,14.75,13.25,13.25,13.25,13.25C13.25,13.25,13.25,13.25,13.25,13.25ZM17.5,14.75C17.91421,14.75,18.25,14.41421,18.25,14C18.25,13.585786,17.91421,13.25,17.5,13.25C17.5,13.25,17.5,14.75,17.5,14.75C17.5,14.75,17.5,14.75,17.5,14.75ZM13.25,14.75C13.25,14.75,17.5,14.75,17.5,14.75C17.5,14.75,17.5,13.25,17.5,13.25C17.5,13.25,13.25,13.25,13.25,13.25C13.25,13.25,13.25,14.75,13.25,14.75C13.25,14.75,13.25,14.75,13.25,14.75Z" fill="#6175AE" fill-opacity="1"/></g><g><path d="M9,17.25C8.585786,17.25,8.25,17.585786,8.25,18C8.25,18.41421,8.585786,18.75,9,18.75C9,18.75,9,17.25,9,17.25C9,17.25,9,17.25,9,17.25ZM17.5,18.75C17.91421,18.75,18.25,18.41421,18.25,18C18.25,17.585786,17.91421,17.25,17.5,17.25C17.5,17.25,17.5,18.75,17.5,18.75C17.5,18.75,17.5,18.75,17.5,18.75ZM9,18.75C9,18.75,17.5,18.75,17.5,18.75C17.5,18.75,17.5,17.25,17.5,17.25C17.5,17.25,9,17.25,9,17.25C9,17.25,9,18.75,9,18.75C9,18.75,9,18.75,9,18.75Z" fill="#6175AE" fill-opacity="1"/></g><g transform="matrix(-1,-1.2246469849340659e-16,1.2246469849340659e-16,-1,48,48)" style="opacity:0;"></g></g></svg>