<svg xmlns="http://www.w3.org/2000/svg" xmlns:xlink="http://www.w3.org/1999/xlink" fill="none" version="1.1" width="24" height="24" viewBox="0 0 24 24"><g><g><path d="M12,22C17.5228,22,22,17.5228,22,12C22,6.47715,17.5228,2,12,2C6.47715,2,2,6.47715,2,12C2,17.5228,6.47715,22,12,22C12,22,12,22,12,22Z" fill="#6175AE" fill-opacity="1"/></g><g><path d="M10.579999580383301,15.580000381469727C10.3799995803833,15.580000381469727,10.1899995803833,15.500000381469727,10.0499995803833,15.360000381469726C10.0499995803833,15.360000381469726,7.219999580383301,12.530000381469726,7.219999580383301,12.530000381469726C6.929999580383301,12.240000381469727,6.929999580383301,11.760000381469727,7.219999580383301,11.470000381469728C7.509999580383301,11.180000381469727,7.989999580383301,11.180000381469727,8.2799995803833,11.470000381469728C8.2799995803833,11.470000381469728,10.579999580383301,13.770000381469726,10.579999580383301,13.770000381469726C10.579999580383301,13.770000381469726,15.7199995803833,8.630000381469726,15.7199995803833,8.630000381469726C16.0099995803833,8.340000381469727,16.4899995803833,8.340000381469727,16.7799995803833,8.630000381469726C17.069999580383303,8.920000381469727,17.069999580383303,9.399999381469726,16.7799995803833,9.690000381469726C16.7799995803833,9.690000381469726,11.1099995803833,15.360000381469726,11.1099995803833,15.360000381469726C10.9699995803833,15.500000381469727,10.7799995803833,15.580000381469727,10.579999580383301,15.580000381469727C10.579999580383301,15.580000381469727,10.579999580383301,15.580000381469727,10.579999580383301,15.580000381469727Z" fill="#FFFFFF" fill-opacity="1"/></g><g style="opacity:0;"></g></g></svg>