<svg xmlns="http://www.w3.org/2000/svg" xmlns:xlink="http://www.w3.org/1999/xlink" fill="none" version="1.1" width="24" height="24" viewBox="0 0 24 24"><defs><linearGradient x1="-0.002345782471820712" y1="0.5003015995025635" x2="1.0001798868179321" y2="0.5003015995025635" id="master_svg0_122_7602"><stop offset="0.28901700861752033%" stop-color="#FFD44F" stop-opacity="1"/><stop offset="100%" stop-color="#FFA607" stop-opacity="1"/></linearGradient></defs><g><g><path d="M12,22C17.5228,22,22,17.5228,22,12C22,6.47715,17.5228,2,12,2C6.47715,2,2,6.47715,2,12C2,17.5228,6.47715,22,12,22C12,22,12,22,12,22Z" fill="url(#master_svg0_122_7602)" fill-opacity="1"/></g><g><path d="M12,13.75C12.41,13.75,12.75,13.41,12.75,13C12.75,13,12.75,8,12.75,8C12.75,7.59,12.41,7.25,12,7.25C11.59,7.25,11.25,7.59,11.25,8C11.25,8,11.25,13,11.25,13C11.25,13.41,11.59,13.75,12,13.75C12,13.75,12,13.75,12,13.75Z" fill="#FFFFFF" fill-opacity="1"/></g><g><path d="M12.92,15.619999160766602C12.870000000000001,15.4999991607666,12.8,15.389999160766601,12.71,15.289999160766602C12.61,15.199999160766602,12.5,15.129999160766602,12.379999999999999,15.0799991607666C12.14,14.979999160766601,11.86,14.979999160766601,11.62,15.0799991607666C11.5,15.129999160766602,11.39,15.199999160766602,11.29,15.289999160766602C11.2,15.389999160766601,11.13,15.4999991607666,11.0799999,15.619999160766602C11.0299999,15.739999160766601,11,15.869999160766602,11,15.9999991607666C11,16.1299991607666,11.0299999,16.2599991607666,11.0799999,16.3799991607666C11.13,16.5099991607666,11.2,16.609999160766602,11.29,16.7099991607666C11.39,16.799999160766603,11.5,16.8699991607666,11.62,16.9199991607666C11.74,16.9699991607666,11.87,16.999999160766603,12,16.999999160766603C12.129999999999999,16.999999160766603,12.26,16.9699991607666,12.379999999999999,16.9199991607666C12.5,16.8699991607666,12.61,16.799999160766603,12.71,16.7099991607666C12.8,16.609999160766602,12.870000000000001,16.5099991607666,12.92,16.3799991607666C12.97,16.2599991607666,13,16.1299991607666,13,15.9999991607666C13,15.869999160766602,12.97,15.739999160766601,12.92,15.619999160766602C12.92,15.619999160766602,12.92,15.619999160766602,12.92,15.619999160766602Z" fill="#FFFFFF" fill-opacity="1"/></g><g style="opacity:0;"></g></g></svg>