<svg xmlns="http://www.w3.org/2000/svg" xmlns:xlink="http://www.w3.org/1999/xlink" fill="none" version="1.1" width="24" height="24" viewBox="0 0 24 24"><g><g><path d="M8.911430114440918,11.470769923706055C8.619141114440918,11.177269923706055,8.144268114440917,11.176289923706054,7.850769114440918,11.468569923706054C7.557270114440918,11.760859923706054,7.556287114440918,12.235729923706055,7.848573114440918,12.529229923706055C7.848573114440918,12.529229923706055,8.911430114440918,11.470769923706055,8.911430114440918,11.470769923706055C8.911430114440918,11.470769923706055,8.911430114440918,11.470769923706055,8.911430114440918,11.470769923706055ZM10.790000114440918,14.419999923706055C10.790000114440918,14.419999923706055,10.258570114440918,14.949229923706055,10.258570114440918,14.949229923706055C10.399220114440919,15.090459923706055,10.590300114440918,15.169899923706055,10.789610114440919,15.169999923706055C10.988930114440919,15.170099923706054,11.180090114440919,15.090859923706056,11.320880114440918,14.949779923706055C11.320880114440918,14.949779923706055,10.790000114440918,14.419999923706055,10.790000114440918,14.419999923706055C10.790000114440918,14.419999923706055,10.790000114440918,14.419999923706055,10.790000114440918,14.419999923706055ZM16.150880114440916,10.109779923706055C16.44347011444092,9.816584923706055,16.442980114440918,9.341711923706054,16.14978011444092,9.049121923706055C15.856590114440918,8.756531623706055,15.381710114440917,8.757022623706055,15.089120114440918,9.050218923706055C15.089120114440918,9.050218923706055,16.150880114440916,10.109779923706055,16.150880114440916,10.109779923706055C16.150880114440916,10.109779923706055,16.150880114440916,10.109779923706055,16.150880114440916,10.109779923706055ZM7.848573114440918,12.529229923706055C7.848573114440918,12.529229923706055,10.258570114440918,14.949229923706055,10.258570114440918,14.949229923706055C10.258570114440918,14.949229923706055,11.321430114440918,13.890769923706054,11.321430114440918,13.890769923706054C11.321430114440918,13.890769923706054,8.911430114440918,11.470769923706055,8.911430114440918,11.470769923706055C8.911430114440918,11.470769923706055,7.848573114440918,12.529229923706055,7.848573114440918,12.529229923706055C7.848573114440918,12.529229923706055,7.848573114440918,12.529229923706055,7.848573114440918,12.529229923706055ZM11.320880114440918,14.949779923706055C11.320880114440918,14.949779923706055,16.150880114440916,10.109779923706055,16.150880114440916,10.109779923706055C16.150880114440916,10.109779923706055,15.089120114440918,9.050218923706055,15.089120114440918,9.050218923706055C15.089120114440918,9.050218923706055,10.259120114440918,13.890219923706056,10.259120114440918,13.890219923706056C10.259120114440918,13.890219923706056,11.320880114440918,14.949779923706055,11.320880114440918,14.949779923706055C11.320880114440918,14.949779923706055,11.320880114440918,14.949779923706055,11.320880114440918,14.949779923706055Z" fill="#6175AE" fill-opacity="1"/></g><g><path d="M10.750000352859496,2.4500002908706664C10.750000352859496,2.4500002908706664,11.237200352859498,3.0202102908706667,11.237200352859498,3.0202102908706667C11.237200352859498,3.0202102908706667,11.237410352859497,3.0200302908706664,11.237410352859497,3.0200302908706664C11.237410352859497,3.0200302908706664,10.750000352859496,2.4500002908706664,10.750000352859496,2.4500002908706664C10.750000352859496,2.4500002908706664,10.750000352859496,2.4500002908706664,10.750000352859496,2.4500002908706664ZM13.270000352859498,2.4500002908706664C13.270000352859498,2.4500002908706664,13.759300352859498,1.8815442908706665,13.759300352859498,1.8815442908706665C13.759300352859498,1.8815442908706665,13.753400352859497,1.8765292908706666,13.753400352859497,1.8765292908706666C13.753400352859497,1.8765292908706666,13.270000352859498,2.4500002908706664,13.270000352859498,2.4500002908706664C13.270000352859498,2.4500002908706664,13.270000352859498,2.4500002908706664,13.270000352859498,2.4500002908706664ZM14.850000352859498,3.8100002908706667C14.850000352859498,3.8100002908706667,15.341200352859497,3.2432302908706667,15.341200352859497,3.2432302908706667C15.341200352859497,3.2432302908706667,15.339300352859498,3.2415702908706665,15.339300352859498,3.2415702908706665C15.339300352859498,3.2415702908706665,14.850000352859498,3.8100002908706667,14.850000352859498,3.8100002908706667C14.850000352859498,3.8100002908706667,14.850000352859498,3.8100002908706667,14.850000352859498,3.8100002908706667ZM20.210000352859495,9.170000290870666C20.210000352859495,9.170000290870666,20.778400352859496,8.680720290870667,20.778400352859496,8.680720290870667C20.778400352859496,8.680720290870667,20.776800352859496,8.678800290870665,20.776800352859496,8.678800290870665C20.776800352859496,8.678800290870665,20.210000352859495,9.170000290870666,20.210000352859495,9.170000290870666C20.210000352859495,9.170000290870666,20.210000352859495,9.170000290870666,20.210000352859495,9.170000290870666ZM21.5700003528595,10.750000290870666C21.5700003528595,10.750000290870666,22.1400003528595,10.262580290870666,22.1400003528595,10.262580290870666C22.1400003528595,10.262580290870666,22.1384003528595,10.260720290870667,22.1384003528595,10.260720290870667C22.1384003528595,10.260720290870667,21.5700003528595,10.750000290870666,21.5700003528595,10.750000290870666C21.5700003528595,10.750000290870666,21.5700003528595,10.750000290870666,21.5700003528595,10.750000290870666ZM21.5700003528595,13.270000290870666C21.5700003528595,13.270000290870666,22.1385003528595,13.759300290870666,22.1385003528595,13.759300290870666C22.1385003528595,13.759300290870666,22.143500352859498,13.753400290870667,22.143500352859498,13.753400290870667C22.143500352859498,13.753400290870667,21.5700003528595,13.270000290870666,21.5700003528595,13.270000290870666C21.5700003528595,13.270000290870666,21.5700003528595,13.270000290870666,21.5700003528595,13.270000290870666ZM20.210000352859495,14.850000290870666C20.210000352859495,14.850000290870666,20.776800352859496,15.341200290870667,20.776800352859496,15.341200290870667C20.776800352859496,15.341200290870667,20.778400352859496,15.339300290870666,20.778400352859496,15.339300290870666C20.778400352859496,15.339300290870666,20.210000352859495,14.850000290870666,20.210000352859495,14.850000290870666C20.210000352859495,14.850000290870666,20.210000352859495,14.850000290870666,20.210000352859495,14.850000290870666ZM14.850000352859498,20.210000290870667C14.850000352859498,20.210000290870667,15.339300352859498,20.778400290870668,15.339300352859498,20.778400290870668C15.339300352859498,20.778400290870668,15.341200352859497,20.776800290870668,15.341200352859497,20.776800290870668C15.341200352859497,20.776800290870668,14.850000352859498,20.210000290870667,14.850000352859498,20.210000290870667C14.850000352859498,20.210000290870667,14.850000352859498,20.210000290870667,14.850000352859498,20.210000290870667ZM13.270000352859498,21.570000290870667C13.270000352859498,21.570000290870667,13.757400352859497,22.140000290870667,13.757400352859497,22.140000290870667C13.757400352859497,22.140000290870667,13.759300352859498,22.138400290870667,13.759300352859498,22.138400290870667C13.759300352859498,22.138400290870667,13.270000352859498,21.570000290870667,13.270000352859498,21.570000290870667C13.270000352859498,21.570000290870667,13.270000352859498,21.570000290870667,13.270000352859498,21.570000290870667ZM10.750000352859496,21.570000290870667C10.750000352859496,21.570000290870667,10.260700352859496,22.138500290870667,10.260700352859496,22.138500290870667C10.260700352859496,22.138500290870667,10.266650352859497,22.143500290870666,10.266650352859497,22.143500290870666C10.266650352859497,22.143500290870666,10.750000352859496,21.570000290870667,10.750000352859496,21.570000290870667C10.750000352859496,21.570000290870667,10.750000352859496,21.570000290870667,10.750000352859496,21.570000290870667ZM9.170000352859496,20.210000290870667C9.170000352859496,20.210000290870667,8.678800352859497,20.776800290870668,8.678800352859497,20.776800290870668C8.678800352859497,20.776800290870668,8.680720352859497,20.778400290870668,8.680720352859497,20.778400290870668C8.680720352859497,20.778400290870668,9.170000352859496,20.210000290870667,9.170000352859496,20.210000290870667C9.170000352859496,20.210000290870667,9.170000352859496,20.210000290870667,9.170000352859496,20.210000290870667ZM3.790000352859497,14.850000290870666C3.790000352859497,14.850000290870666,4.366190352859498,14.369800290870666,4.366190352859498,14.369800290870666C4.366190352859498,14.369800290870666,4.361720352859497,14.364600290870667,4.361720352859497,14.364600290870667C4.361720352859497,14.364600290870667,3.790000352859497,14.850000290870666,3.790000352859497,14.850000290870666C3.790000352859497,14.850000290870666,3.790000352859497,14.850000290870666,3.790000352859497,14.850000290870666ZM2.440000352859497,13.260000290870666C2.440000352859497,13.260000290870666,1.865878352859497,13.742600290870666,1.865878352859497,13.742600290870666C1.865878352859497,13.742600290870666,1.868279352859497,13.745400290870666,1.868279352859497,13.745400290870666C1.868279352859497,13.745400290870666,2.440000352859497,13.260000290870666,2.440000352859497,13.260000290870666C2.440000352859497,13.260000290870666,2.440000352859497,13.260000290870666,2.440000352859497,13.260000290870666ZM2.440000352859497,10.760000290870666C2.440000352859497,10.760000290870666,1.868272352859497,10.274570290870667,1.868272352859497,10.274570290870667C1.868272352859497,10.274570290870667,1.8658853528594972,10.277410290870666,1.8658853528594972,10.277410290870666C1.8658853528594972,10.277410290870666,2.440000352859497,10.760000290870666,2.440000352859497,10.760000290870666C2.440000352859497,10.760000290870666,2.440000352859497,10.760000290870666,2.440000352859497,10.760000290870666ZM3.790000352859497,9.170000290870666C3.790000352859497,9.170000290870666,4.361740352859497,9.655440290870667,4.361740352859497,9.655440290870667C4.361740352859497,9.655440290870667,4.366170352859497,9.650140290870667,4.366170352859497,9.650140290870667C4.366170352859497,9.650140290870667,3.790000352859497,9.170000290870666,3.790000352859497,9.170000290870666C3.790000352859497,9.170000290870666,3.790000352859497,9.170000290870666,3.790000352859497,9.170000290870666ZM9.170000352859496,3.8000002908706665C9.170000352859496,3.8000002908706665,8.682790352859497,3.2297802908706665,8.682790352859497,3.2297802908706665C8.682790352859497,3.2297802908706665,8.678800352859497,3.2332302908706665,8.678800352859497,3.2332302908706665C8.678800352859497,3.2332302908706665,9.170000352859496,3.8000002908706665,9.170000352859496,3.8000002908706665C9.170000352859496,3.8000002908706665,9.170000352859496,3.8000002908706665,9.170000352859496,3.8000002908706665ZM11.237410352859497,3.0200302908706664C11.644800352859496,2.6717002908706666,12.363900352859497,2.6671302908706664,12.786600352859496,3.0234702908706668C12.786600352859496,3.0234702908706668,13.753400352859497,1.8765292908706666,13.753400352859497,1.8765292908706666C12.776100352859498,1.0528672908706664,11.235230352859498,1.0482992908706665,10.262590352859498,1.8799752908706666C10.262590352859498,1.8799752908706666,11.237410352859497,3.0200302908706664,11.237410352859497,3.0200302908706664C11.237410352859497,3.0200302908706664,11.237410352859497,3.0200302908706664,11.237410352859497,3.0200302908706664ZM12.780700352859498,3.0184302908706666C12.780700352859498,3.0184302908706666,14.360700352859498,4.378430290870666,14.360700352859498,4.378430290870666C14.360700352859498,4.378430290870666,15.339300352859498,3.2415702908706665,15.339300352859498,3.2415702908706665C15.339300352859498,3.2415702908706665,13.759300352859498,1.8815752908706664,13.759300352859498,1.8815752908706664C13.759300352859498,1.8815752908706664,12.780700352859498,3.0184302908706666,12.780700352859498,3.0184302908706666C12.780700352859498,3.0184302908706666,12.780700352859498,3.0184302908706666,12.780700352859498,3.0184302908706666ZM14.358800352859497,4.376770290870667C14.595800352859497,4.582150290870667,14.896900352859497,4.739280290870667,15.180000352859498,4.845060290870666C15.463200352859497,4.950870290870666,15.794500352859497,5.0300002908706665,16.110000352859497,5.0300002908706665C16.110000352859497,5.0300002908706665,16.110000352859497,3.5300002908706665,16.110000352859497,3.5300002908706665C16.025500352859495,3.5300002908706665,15.876800352859497,3.5041302908706666,15.705000352859496,3.4399402908706667C15.533100352859497,3.3757202908706665,15.404200352859498,3.2978502908706666,15.341200352859497,3.2432302908706667C15.341200352859497,3.2432302908706667,14.358800352859497,4.376770290870667,14.358800352859497,4.376770290870667C14.358800352859497,4.376770290870667,14.358800352859497,4.376770290870667,14.358800352859497,4.376770290870667ZM16.110000352859497,5.0300002908706665C16.110000352859497,5.0300002908706665,17.810000352859497,5.0300002908706665,17.810000352859497,5.0300002908706665C17.810000352859497,5.0300002908706665,17.810000352859497,3.5300002908706665,17.810000352859497,3.5300002908706665C17.810000352859497,3.5300002908706665,16.110000352859497,3.5300002908706665,16.110000352859497,3.5300002908706665C16.110000352859497,3.5300002908706665,16.110000352859497,5.0300002908706665,16.110000352859497,5.0300002908706665C16.110000352859497,5.0300002908706665,16.110000352859497,5.0300002908706665,16.110000352859497,5.0300002908706665ZM17.810000352859497,5.0300002908706665C18.455800352859498,5.0300002908706665,18.990000352859497,5.564210290870666,18.990000352859497,6.210000290870666C18.990000352859497,6.210000290870666,20.490000352859497,6.210000290870666,20.490000352859497,6.210000290870666C20.490000352859497,4.735790290870666,19.284200352859497,3.5300002908706665,17.810000352859497,3.5300002908706665C17.810000352859497,3.5300002908706665,17.810000352859497,5.0300002908706665,17.810000352859497,5.0300002908706665C17.810000352859497,5.0300002908706665,17.810000352859497,5.0300002908706665,17.810000352859497,5.0300002908706665ZM18.990000352859497,6.210000290870666C18.990000352859497,6.210000290870666,18.990000352859497,7.910000290870666,18.990000352859497,7.910000290870666C18.990000352859497,7.910000290870666,20.490000352859497,7.910000290870666,20.490000352859497,7.910000290870666C20.490000352859497,7.910000290870666,20.490000352859497,6.210000290870666,20.490000352859497,6.210000290870666C20.490000352859497,6.210000290870666,18.990000352859497,6.210000290870666,18.990000352859497,6.210000290870666C18.990000352859497,6.210000290870666,18.990000352859497,6.210000290870666,18.990000352859497,6.210000290870666ZM18.990000352859497,7.910000290870666C18.990000352859497,8.221540290870667,19.069600352859496,8.552850290870666,19.174500352859496,8.834990290870667C19.279300352859497,9.117220290870666,19.436200352859498,9.422330290870667,19.6432003528595,9.661200290870667C19.6432003528595,9.661200290870667,20.776800352859496,8.678800290870665,20.776800352859496,8.678800290870665C20.7238003528595,8.617670290870667,20.645700352859496,8.487780290870667,20.5805003528595,8.312510290870666C20.515400352859498,8.137150290870666,20.490000352859497,7.988460290870666,20.490000352859497,7.910000290870666C20.490000352859497,7.910000290870666,18.990000352859497,7.910000290870666,18.990000352859497,7.910000290870666C18.990000352859497,7.910000290870666,18.990000352859497,7.910000290870666,18.990000352859497,7.910000290870666ZM19.6416003528595,9.659280290870667C19.6416003528595,9.659280290870667,21.001600352859498,11.239280290870667,21.001600352859498,11.239280290870667C21.001600352859498,11.239280290870667,22.1384003528595,10.260720290870667,22.1384003528595,10.260720290870667C22.1384003528595,10.260720290870667,20.778400352859496,8.680720290870667,20.778400352859496,8.680720290870667C20.778400352859496,8.680720290870667,19.6416003528595,9.659280290870667,19.6416003528595,9.659280290870667C19.6416003528595,9.659280290870667,19.6416003528595,9.659280290870667,19.6416003528595,9.659280290870667ZM21.000000352859498,11.237410290870667C21.348300352859496,11.644800290870666,21.352900352859496,12.363900290870667,20.996500352859496,12.786600290870666C20.996500352859496,12.786600290870666,22.143500352859498,13.753400290870667,22.143500352859498,13.753400290870667C22.967100352859497,12.776100290870666,22.971700352859497,11.235230290870666,22.1400003528595,10.262590290870666C22.1400003528595,10.262590290870666,21.000000352859498,11.237410290870667,21.000000352859498,11.237410290870667C21.000000352859498,11.237410290870667,21.000000352859498,11.237410290870667,21.000000352859498,11.237410290870667ZM21.001600352859498,12.780700290870666C21.001600352859498,12.780700290870666,19.6416003528595,14.360700290870666,19.6416003528595,14.360700290870666C19.6416003528595,14.360700290870666,20.778400352859496,15.339300290870666,20.778400352859496,15.339300290870666C20.778400352859496,15.339300290870666,22.1384003528595,13.759300290870666,22.1384003528595,13.759300290870666C22.1384003528595,13.759300290870666,21.001600352859498,12.780700290870666,21.001600352859498,12.780700290870666C21.001600352859498,12.780700290870666,21.001600352859498,12.780700290870666,21.001600352859498,12.780700290870666ZM19.6432003528595,14.358800290870667C19.437800352859497,14.595800290870667,19.280700352859498,14.896900290870667,19.174900352859495,15.180000290870666C19.069100352859497,15.463200290870667,18.990000352859497,15.794500290870667,18.990000352859497,16.110000290870666C18.990000352859497,16.110000290870666,20.490000352859497,16.110000290870666,20.490000352859497,16.110000290870666C20.490000352859497,16.025500290870667,20.515900352859497,15.876800290870667,20.580100352859496,15.705000290870666C20.644300352859496,15.533100290870667,20.722200352859495,15.404200290870666,20.776800352859496,15.341200290870667C20.776800352859496,15.341200290870667,19.6432003528595,14.358800290870667,19.6432003528595,14.358800290870667C19.6432003528595,14.358800290870667,19.6432003528595,14.358800290870667,19.6432003528595,14.358800290870667ZM18.990000352859497,16.110000290870666C18.990000352859497,16.110000290870666,18.990000352859497,17.810000290870665,18.990000352859497,17.810000290870665C18.990000352859497,17.810000290870665,20.490000352859497,17.810000290870665,20.490000352859497,17.810000290870665C20.490000352859497,17.810000290870665,20.490000352859497,16.110000290870666,20.490000352859497,16.110000290870666C20.490000352859497,16.110000290870666,18.990000352859497,16.110000290870666,18.990000352859497,16.110000290870666C18.990000352859497,16.110000290870666,18.990000352859497,16.110000290870666,18.990000352859497,16.110000290870666ZM18.990000352859497,17.810000290870665C18.990000352859497,18.455800290870666,18.455800352859498,18.990000290870668,17.810000352859497,18.990000290870668C17.810000352859497,18.990000290870668,17.810000352859497,20.490000290870668,17.810000352859497,20.490000290870668C19.284200352859497,20.490000290870668,20.490000352859497,19.28420029087067,20.490000352859497,17.810000290870665C20.490000352859497,17.810000290870665,18.990000352859497,17.810000290870665,18.990000352859497,17.810000290870665C18.990000352859497,17.810000290870665,18.990000352859497,17.810000290870665,18.990000352859497,17.810000290870665ZM17.810000352859497,18.990000290870668C17.810000352859497,18.990000290870668,16.110000352859497,18.990000290870668,16.110000352859497,18.990000290870668C16.110000352859497,18.990000290870668,16.110000352859497,20.490000290870668,16.110000352859497,20.490000290870668C16.110000352859497,20.490000290870668,17.810000352859497,20.490000290870668,17.810000352859497,20.490000290870668C17.810000352859497,20.490000290870668,17.810000352859497,18.990000290870668,17.810000352859497,18.990000290870668C17.810000352859497,18.990000290870668,17.810000352859497,18.990000290870668,17.810000352859497,18.990000290870668ZM16.110000352859497,18.990000290870668C15.798500352859497,18.990000290870668,15.467100352859497,19.069600290870667,15.185000352859497,19.174500290870668C14.902800352859497,19.279300290870665,14.597700352859498,19.436200290870666,14.358800352859497,19.643200290870666C14.358800352859497,19.643200290870666,15.341200352859497,20.776800290870668,15.341200352859497,20.776800290870668C15.402300352859497,20.723800290870667,15.532200352859498,20.645700290870668,15.707500352859498,20.580500290870667C15.882900352859497,20.515400290870666,16.031500352859496,20.490000290870668,16.110000352859497,20.490000290870668C16.110000352859497,20.490000290870668,16.110000352859497,18.990000290870668,16.110000352859497,18.990000290870668C16.110000352859497,18.990000290870668,16.110000352859497,18.990000290870668,16.110000352859497,18.990000290870668ZM14.360700352859498,19.641600290870667C14.360700352859498,19.641600290870667,12.780700352859498,21.001600290870666,12.780700352859498,21.001600290870666C12.780700352859498,21.001600290870666,13.759300352859498,22.138400290870667,13.759300352859498,22.138400290870667C13.759300352859498,22.138400290870667,15.339300352859498,20.778400290870668,15.339300352859498,20.778400290870668C15.339300352859498,20.778400290870668,14.360700352859498,19.641600290870667,14.360700352859498,19.641600290870667C14.360700352859498,19.641600290870667,14.360700352859498,19.641600290870667,14.360700352859498,19.641600290870667ZM12.782600352859497,21.000000290870666C12.375200352859498,21.348300290870668,11.656100352859497,21.352900290870668,11.233350352859498,20.996500290870667C11.233350352859498,20.996500290870667,10.266650352859497,22.143500290870666,10.266650352859497,22.143500290870666C11.243870352859497,22.967100290870665,12.784800352859497,22.97170029087067,13.757400352859497,22.140000290870667C13.757400352859497,22.140000290870667,12.782600352859497,21.000000290870666,12.782600352859497,21.000000290870666C12.782600352859497,21.000000290870666,12.782600352859497,21.000000290870666,12.782600352859497,21.000000290870666ZM11.239280352859497,21.001600290870666C11.239280352859497,21.001600290870666,9.659280352859497,19.641600290870667,9.659280352859497,19.641600290870667C9.659280352859497,19.641600290870667,8.680720352859497,20.778400290870668,8.680720352859497,20.778400290870668C8.680720352859497,20.778400290870668,10.260720352859497,22.138400290870667,10.260720352859497,22.138400290870667C10.260720352859497,22.138400290870667,11.239280352859497,21.001600290870666,11.239280352859497,21.001600290870666C11.239280352859497,21.001600290870666,11.239280352859497,21.001600290870666,11.239280352859497,21.001600290870666ZM9.661200352859497,19.643200290870666C9.424220352859496,19.437800290870666,9.123130352859498,19.280700290870666,8.840000352859498,19.174900290870667C8.556810352859497,19.069100290870665,8.225530352859497,18.990000290870668,7.910000352859497,18.990000290870668C7.910000352859497,18.990000290870668,7.910000352859497,20.490000290870668,7.910000352859497,20.490000290870668C7.994470352859497,20.490000290870668,8.143190352859497,20.51590029087067,8.315000352859496,20.580100290870668C8.486870352859498,20.644300290870667,8.615780352859497,20.722200290870667,8.678800352859497,20.776800290870668C8.678800352859497,20.776800290870668,9.661200352859497,19.643200290870666,9.661200352859497,19.643200290870666C9.661200352859497,19.643200290870666,9.661200352859497,19.643200290870666,9.661200352859497,19.643200290870666ZM7.910000352859497,18.990000290870668C7.910000352859497,18.990000290870668,6.180000352859497,18.990000290870668,6.180000352859497,18.990000290870668C6.180000352859497,18.990000290870668,6.180000352859497,20.490000290870668,6.180000352859497,20.490000290870668C6.180000352859497,20.490000290870668,7.910000352859497,20.490000290870668,7.910000352859497,20.490000290870668C7.910000352859497,20.490000290870668,7.910000352859497,18.990000290870668,7.910000352859497,18.990000290870668C7.910000352859497,18.990000290870668,7.910000352859497,18.990000290870668,7.910000352859497,18.990000290870668ZM6.180000352859497,18.990000290870668C5.534210352859497,18.990000290870668,5.000000352859497,18.455800290870666,5.000000352859497,17.810000290870665C5.000000352859497,17.810000290870665,3.500000352859497,17.810000290870665,3.500000352859497,17.810000290870665C3.500000352859497,19.28420029087067,4.705790352859497,20.490000290870668,6.180000352859497,20.490000290870668C6.180000352859497,20.490000290870668,6.180000352859497,18.990000290870668,6.180000352859497,18.990000290870668C6.180000352859497,18.990000290870668,6.180000352859497,18.990000290870668,6.180000352859497,18.990000290870668ZM5.000000352859497,17.810000290870665C5.000000352859497,17.810000290870665,5.000000352859497,16.100000290870668,5.000000352859497,16.100000290870668C5.000000352859497,16.100000290870668,3.500000352859497,16.100000290870668,3.500000352859497,16.100000290870668C3.500000352859497,16.100000290870668,3.500000352859497,17.810000290870665,3.500000352859497,17.810000290870665C3.500000352859497,17.810000290870665,5.000000352859497,17.810000290870665,5.000000352859497,17.810000290870665C5.000000352859497,17.810000290870665,5.000000352859497,17.810000290870665,5.000000352859497,17.810000290870665ZM5.000000352859497,16.100000290870668C5.000000352859497,15.788000290870666,4.920120352859497,15.459200290870667,4.817110352859498,15.180900290870667C4.713720352859497,14.901600290870666,4.561500352859497,14.604300290870667,4.366170352859497,14.369900290870666C4.366170352859497,14.369900290870666,3.213830352859497,15.330100290870666,3.213830352859497,15.330100290870666C3.268500352859497,15.395700290870666,3.346280352859497,15.528400290870666,3.410390352859497,15.701600290870667C3.474880352859497,15.875800290870666,3.500000352859497,16.022000290870665,3.500000352859497,16.100000290870668C3.500000352859497,16.100000290870668,5.000000352859497,16.100000290870668,5.000000352859497,16.100000290870668C5.000000352859497,16.100000290870668,5.000000352859497,16.100000290870668,5.000000352859497,16.100000290870668ZM4.361720352859497,14.364600290870667C4.361720352859497,14.364600290870667,3.011720352859497,12.774600290870666,3.011720352859497,12.774600290870666C3.011720352859497,12.774600290870666,1.868279352859497,13.745400290870666,1.868279352859497,13.745400290870666C1.868279352859497,13.745400290870666,3.218280352859497,15.335400290870666,3.218280352859497,15.335400290870666C3.218280352859497,15.335400290870666,4.361720352859497,14.364600290870667,4.361720352859497,14.364600290870667C4.361720352859497,14.364600290870667,4.361720352859497,14.364600290870667,4.361720352859497,14.364600290870667ZM3.014110352859497,12.777400290870666C2.668630352859497,12.366400290870667,2.668630352859497,11.653600290870667,3.014110352859497,11.242590290870666C3.014110352859497,11.242590290870666,1.8658853528594972,10.277410290870666,1.8658853528594972,10.277410290870666C1.0513723528594972,11.246400290870666,1.0513723528594972,12.773600290870666,1.8658853528594972,13.742600290870666C1.8658853528594972,13.742600290870666,3.014110352859497,12.777400290870666,3.014110352859497,12.777400290870666C3.014110352859497,12.777400290870666,3.014110352859497,12.777400290870666,3.014110352859497,12.777400290870666ZM3.011720352859497,11.245420290870667C3.011720352859497,11.245420290870667,4.361720352859497,9.655420290870666,4.361720352859497,9.655420290870666C4.361720352859497,9.655420290870666,3.218280352859497,8.684580290870667,3.218280352859497,8.684580290870667C3.218280352859497,8.684580290870667,1.868279352859497,10.274580290870666,1.868279352859497,10.274580290870666C1.868279352859497,10.274580290870666,3.011720352859497,11.245420290870667,3.011720352859497,11.245420290870667C3.011720352859497,11.245420290870667,3.011720352859497,11.245420290870667,3.011720352859497,11.245420290870667ZM4.366170352859497,9.650140290870667C4.561500352859497,9.415740290870666,4.713720352859497,9.118420290870667,4.817110352859498,8.839110290870668C4.920120352859497,8.560830290870665,5.000000352859497,8.232040290870668,5.000000352859497,7.920000290870666C5.000000352859497,7.920000290870666,3.500000352859497,7.920000290870666,3.500000352859497,7.920000290870666C3.500000352859497,7.997960290870666,3.474880352859497,8.144170290870665,3.410390352859497,8.318390290870667C3.346280352859497,8.491580290870665,3.268500352859497,8.624260290870666,3.213830352859497,8.689860290870666C3.213830352859497,8.689860290870666,4.366170352859497,9.650140290870667,4.366170352859497,9.650140290870667C4.366170352859497,9.650140290870667,4.366170352859497,9.650140290870667,4.366170352859497,9.650140290870667ZM5.000000352859497,7.920000290870666C5.000000352859497,7.920000290870666,5.000000352859497,6.200000290870666,5.000000352859497,6.200000290870666C5.000000352859497,6.200000290870666,3.500000352859497,6.200000290870666,3.500000352859497,6.200000290870666C3.500000352859497,6.200000290870666,3.500000352859497,7.920000290870666,3.500000352859497,7.920000290870666C3.500000352859497,7.920000290870666,5.000000352859497,7.920000290870666,5.000000352859497,7.920000290870666C5.000000352859497,7.920000290870666,5.000000352859497,7.920000290870666,5.000000352859497,7.920000290870666ZM5.000000352859497,6.200000290870666C5.000000352859497,5.5542102908706665,5.534210352859497,5.020000290870667,6.180000352859497,5.020000290870667C6.180000352859497,5.020000290870667,6.180000352859497,3.5200002908706667,6.180000352859497,3.5200002908706667C4.705790352859497,3.5200002908706667,3.500000352859497,4.725790290870666,3.500000352859497,6.200000290870666C3.500000352859497,6.200000290870666,5.000000352859497,6.200000290870666,5.000000352859497,6.200000290870666C5.000000352859497,6.200000290870666,5.000000352859497,6.200000290870666,5.000000352859497,6.200000290870666ZM6.180000352859497,5.020000290870667C6.180000352859497,5.020000290870667,7.910000352859497,5.020000290870667,7.910000352859497,5.020000290870667C7.910000352859497,5.020000290870667,7.910000352859497,3.5200002908706667,7.910000352859497,3.5200002908706667C7.910000352859497,3.5200002908706667,6.180000352859497,3.5200002908706667,6.180000352859497,3.5200002908706667C6.180000352859497,3.5200002908706667,6.180000352859497,5.020000290870667,6.180000352859497,5.020000290870667C6.180000352859497,5.020000290870667,6.180000352859497,5.020000290870667,6.180000352859497,5.020000290870667ZM7.910000352859497,5.020000290870667C8.221540352859497,5.020000290870667,8.552850352859497,4.940370290870666,8.834990352859496,4.8355302908706665C9.117220352859498,4.7306602908706665,9.422330352859497,4.573790290870667,9.661200352859497,4.366770290870667C9.661200352859497,4.366770290870667,8.678800352859497,3.2332302908706665,8.678800352859497,3.2332302908706665C8.617670352859497,3.2862102908706663,8.487780352859497,3.3643402908706665,8.312510352859498,3.4294702908706665C8.137150352859496,3.4946302908706666,7.988460352859497,3.5200002908706667,7.910000352859497,3.5200002908706667C7.910000352859497,3.5200002908706667,7.910000352859497,5.020000290870667,7.910000352859497,5.020000290870667C7.910000352859497,5.020000290870667,7.910000352859497,5.020000290870667,7.910000352859497,5.020000290870667ZM9.657200352859498,4.370210290870666C9.657200352859498,4.370210290870666,11.237200352859498,3.0202102908706667,11.237200352859498,3.0202102908706667C11.237200352859498,3.0202102908706667,10.262800352859497,1.8797942908706666,10.262800352859497,1.8797942908706666C10.262800352859497,1.8797942908706666,8.682800352859498,3.2297902908706666,8.682800352859498,3.2297902908706666C8.682800352859498,3.2297902908706666,9.657200352859498,4.370210290870666,9.657200352859498,4.370210290870666C9.657200352859498,4.370210290870666,9.657200352859498,4.370210290870666,9.657200352859498,4.370210290870666Z" fill="#414D73" fill-opacity="1"/></g><g style="opacity:0;"></g></g></svg>