<svg xmlns="http://www.w3.org/2000/svg" xmlns:xlink="http://www.w3.org/1999/xlink" fill="none" version="1.1" width="54" height="54" viewBox="0 0 54 54"><defs><clipPath id="master_svg0_130_10706"><rect x="0" y="0" width="54" height="54" rx="0"/></clipPath><linearGradient x1="-0.002345782471820712" y1="0.5003015995025635" x2="1.0001798868179321" y2="0.5003015995025635" id="master_svg1_122_7602"><stop offset="0.28901700861752033%" stop-color="#FFD44F" stop-opacity="1"/><stop offset="100%" stop-color="#FFA607" stop-opacity="1"/></linearGradient><linearGradient x1="0.8480581641197205" y1="0.8884462118148804" x2="0.18487395346164703" y2="0.13614115118980408" id="master_svg2_122_7366"><stop offset="1.1320799589157104%" stop-color="#C2D1FF" stop-opacity="1"/><stop offset="100%" stop-color="#FFFFFF" stop-opacity="1"/></linearGradient></defs><g clip-path="url(#master_svg0_130_10706)"><g><g><path d="M6.230059327774048,14.604143372802735C6.818149327774048,14.416833372802735,7.139659327774048,13.798103372802734,6.948569327774048,13.221625372802734C6.757479327774048,12.645616372802735,6.1263893277740475,12.330619372802735,5.538778327774048,12.517927972802735C4.950689327774048,12.704766372802734,4.629174327774048,13.323964372802735,4.820267927774048,13.899973372802734C5.011361327774048,14.475983372802734,5.6424463277740475,14.790973372802734,6.230059327774048,14.604143372802735Z" fill="#EAEEF9" fill-opacity="1"/></g><g><path d="M8.67256153125,11.025094627685547C9.07194953125,10.897874627685546,9.29074953125,10.477253627685547,9.16079953125,10.085267627685546C9.03085953125,9.693750627685548,8.60185653125,9.479214627685547,8.20199353125,9.606434127685548C7.80260853125,9.734122627685547,7.58380703125,10.154745627685546,7.71375053125,10.546261627685547C7.84369353125,10.938244627685547,8.27269853125,11.152314627685547,8.67256153125,11.025094627685547Z" fill="#EAEEF9" fill-opacity="1"/></g><g><path d="M45.33491103881836,14.751074399719238C46.02810103881836,14.129994399719237,46.07683103881836,13.075624399719239,45.442881038818356,12.395870399719238C44.80940103881836,11.716114399719238,43.73355103881836,11.668701399719238,43.04035603881836,12.289776399719239C42.34668703881836,12.910854399719238,42.29843603881836,13.965224399719238,42.93191003881836,14.644974399719239C43.56586103881836,15.324734399719238,44.64124103881836,15.372144399719238,45.33491103881836,14.751074399719238Z" fill="#EAEEF9" fill-opacity="1"/></g><g><path d="M50.76687109375,11.711425215454101C51.05925109375,11.4499422154541,51.07931109375,11.005848215454101,50.81274109375,10.719487215454102C50.54568309375,10.433595115454102,50.09279209375,10.413409015454102,49.80089709375,10.674889215454101C49.50900249375,10.936370215454101,49.48845989375,11.3804642154541,49.75551309375,11.666825215454102C50.02208809375,11.952715215454102,50.47497909375,11.972905215454102,50.76687109375,11.711425215454101Z" fill="#EAEEF9" fill-opacity="1"/></g><g><path d="M8.208825849838258,50.715686395263674C8.500725849838258,50.45420539526367,8.521265849838256,50.01011039526367,8.254215849838257,49.72421839526367C7.987638849838257,49.43785769526367,7.534747849838257,49.41767159526367,7.242852849838257,49.67962139526367C6.950958149838256,49.94110239526367,6.930415649838257,50.38519639526367,7.196990849838257,50.67108639526367C7.464043849838257,50.95744639526367,7.916934849838257,50.97716639526367,8.208825849838258,50.715686395263674Z" fill="#EAEEF9" fill-opacity="1"/></g><g><path d="M48.4865,31.19501941680908Q48.4865,31.73031941680908,48.4597,32.26491941680908Q48.4329,32.79951941680908,48.3794,33.332319416809085Q48.3259,33.86501941680908,48.2458,34.394419416809086Q48.1656,34.923919416809085,48.0591,35.44891941680908Q47.9526,35.97391941680908,47.8199,36.49321941680908Q47.6872,37.01241941680908,47.5287,37.52461941680908Q47.3702,38.036919416809084,47.1863,38.54091941680908Q47.0023,39.04491941680908,46.7933,39.53941941680908Q46.5844,40.033919416809084,46.3509,40.51781941680908Q46.1175,41.00171941680908,45.8601,41.47381941680908Q45.6027,41.94591941680908,45.3219,42.40501941680908Q45.0412,42.86411941680908,44.7378,43.30921941680908Q44.4345,43.75431941680908,44.1092,44.18421941680908Q43.7839,44.614219416809085,43.4375,45.027919416809084Q43.0911,45.44171941680908,42.7244,45.838319416809085Q42.3577,46.234919416809085,41.9716,46.61341941680908Q41.5855,46.99191941680908,41.1809,47.35141941680908Q40.7763,47.710919416809084,40.3542,48.05051941680908Q39.9321,48.390119416809085,39.4935,48.70891941680908Q39.055,49.02781941680908,38.6009,49.325219416809084Q38.1469,49.62261941680908,37.6786,49.897819416809085Q37.2102,50.17291941680908,36.7287,50.42531941680908Q36.2471,50.67761941680908,35.7535,50.90651941680908Q35.2599,51.13531941680908,34.7554,51.340219416809084Q34.2509,51.54501941680908,33.7368,51.72541941680908Q33.2227,51.905719416809085,32.7001,52.061119416809085Q32.1776,52.216519416809085,31.6479,52.34651941680908Q31.1182,52.47661941680908,30.5827,52.581019416809085Q30.0471,52.68541941680908,29.507,52.764019416809084Q28.9669,52.84251941680908,28.4235,52.895019416809085Q27.8801,52.94751941680908,27.3347,52.97371941680908Q26.7893,53.00001941680908,26.2433,53.00001941680908Q25.6972,53.00001941680908,25.1518,52.97371941680908Q24.6064,52.94751941680908,24.063,52.895019416809085Q23.5196,52.84251941680908,22.9795,52.764019416809084Q22.4394,52.68541941680908,21.9038,52.581019416809085Q21.3683,52.47661941680908,20.8386,52.34651941680908Q20.3089,52.216519416809085,19.7864,52.061119416809085Q19.2639,51.905719416809085,18.7497,51.72541941680908Q18.235599999999998,51.54501941680908,17.731099999999998,51.340219416809084Q17.2267,51.13531941680908,16.733,50.90651941680908Q16.2394,50.67761941680908,15.7579,50.42531941680908Q15.2763,50.17291941680908,14.8079,49.897819416809085Q14.3396,49.62261941680908,13.88556,49.325219416809084Q13.43155,49.02781941680908,12.99296,48.70891941680908Q12.55438,48.390119416809085,12.13228,48.05051941680908Q11.71019,47.710919416809084,11.3056,47.35141941680908Q10.90101,46.99191941680908,10.5149,46.61341941680908Q10.12879,46.234919416809085,9.76209,45.838319416809085Q9.395389999999999,45.44171941680908,9.04899,45.027919416809084Q8.702580000000001,44.61411941680908,8.37731,44.18421941680908Q8.05203,43.75431941680908,7.74866,43.30921941680908Q7.4453,42.86411941680908,7.16458,42.40501941680908Q6.88386,41.94591941680908,6.62646,41.47381941680908Q6.36905,41.00171941680908,6.1355900000000005,40.51781941680908Q5.90213,40.033919416809084,5.69317,39.53941941680908Q5.48421,39.04491941680908,5.30025,38.54091941680908Q5.11629,38.036919416809084,4.957787,37.52461941680908Q4.7992799999999995,37.01241941680908,4.666602,36.49321941680908Q4.533925,35.97391941680908,4.427398,35.44891941680908Q4.320871,34.923919416809085,4.24075,34.394419416809086Q4.160629,33.86501941680908,4.107107,33.332319416809085Q4.0535859,32.79951941680908,4.026793,32.26491941680908Q4,31.73031941680908,4,31.19501941680908Q4,30.659719416809082,4.026793,30.12511941680908Q4.0535859,29.59041941680908,4.107107,29.057719416809082Q4.160629,28.525019416809084,4.24075,27.99551941680908Q4.320871,27.466019416809083,4.427398,26.94101941680908Q4.533925,26.416019416809082,4.666602,25.89681941680908Q4.7992799999999995,25.377619416809083,4.957787,24.865319416809083Q5.11629,24.353119416809083,5.30025,23.84911941680908Q5.48421,23.345119416809084,5.69317,22.85061941680908Q5.90213,22.356019416809083,6.1355900000000005,21.87221941680908Q6.36905,21.388319416809082,6.62646,20.91621941680908Q6.88386,20.44411941680908,7.16458,19.98501941680908Q7.4453,19.52591941680908,7.74866,19.080809416809082Q8.05203,18.63573941680908,8.37731,18.205789416809083Q8.702580000000001,17.77584941680908,9.04899,17.36206941680908Q9.395389999999999,16.948289416809082,9.76209,16.551669416809084Q10.12879,16.15505941680908,10.5149,15.776549416809083Q10.90101,15.398049416809082,11.3056,15.038579416809082Q11.71019,14.679099416809082,12.13228,14.339529416809082Q12.55438,13.999949416809082,12.99296,13.681079416809082Q13.43155,13.362209416809081,13.88556,13.064819416809081Q14.3396,12.767439416809083,14.8079,12.492249416809083Q15.2763,12.217059416809082,15.7579,11.964729416809082Q16.2394,11.712399416809081,16.733,11.483529416809082Q17.2267,11.254669416809081,17.731099999999998,11.049829416809082Q18.235599999999998,10.844979416809082,18.7497,10.664649416809082Q19.2639,10.484319416809083,19.7864,10.328935416809083Q20.3089,10.173550416809082,20.8386,10.043487416809082Q21.3683,9.913424416809082,21.9038,9.808996416809082Q22.4394,9.704567416809082,22.9795,9.626025416809082Q23.5196,9.547483416809081,24.063,9.495016416809081Q24.6064,9.442549516809082,25.1518,9.416284516809082Q25.6972,9.390019416809082,26.2433,9.390019416809082Q26.7893,9.390019416809082,27.3347,9.416284516809082Q27.8801,9.442549516809082,28.4235,9.495016416809081Q28.9669,9.547483416809081,29.507,9.626025416809082Q30.0471,9.704567416809082,30.5827,9.808996416809082Q31.1182,9.913424416809082,31.6479,10.043487416809082Q32.1776,10.173550416809082,32.7001,10.328935416809083Q33.2227,10.484319416809083,33.7368,10.664649416809082Q34.2509,10.844979416809082,34.7554,11.049829416809082Q35.2599,11.254669416809081,35.7535,11.483529416809082Q36.2471,11.712399416809081,36.7287,11.964729416809082Q37.2102,12.217059416809082,37.6786,12.492249416809083Q38.1469,12.767439416809083,38.6009,13.064819416809081Q39.055,13.362209416809081,39.4935,13.681079416809082Q39.9321,13.999949416809082,40.3542,14.339529416809082Q40.7763,14.679099416809082,41.1809,15.038579416809082Q41.5855,15.398049416809082,41.9716,15.776549416809083Q42.3577,16.15505941680908,42.7244,16.551669416809084Q43.0911,16.948289416809082,43.4375,17.36206941680908Q43.7839,17.77584941680908,44.1092,18.205789416809083Q44.4345,18.63573941680908,44.7378,19.080809416809082Q45.0412,19.52591941680908,45.3219,19.98501941680908Q45.6027,20.44411941680908,45.8601,20.91621941680908Q46.1175,21.388319416809082,46.3509,21.87221941680908Q46.5844,22.356019416809083,46.7933,22.85061941680908Q47.0023,23.345119416809084,47.1863,23.84911941680908Q47.3702,24.353119416809083,47.5287,24.865319416809083Q47.6872,25.377619416809083,47.8199,25.89681941680908Q47.9526,26.41611941680908,48.0591,26.94101941680908Q48.1656,27.466019416809083,48.2458,27.99551941680908Q48.3259,28.525019416809084,48.3794,29.057719416809082Q48.4329,29.59041941680908,48.4597,30.12511941680908Q48.4865,30.659719416809082,48.4865,31.19501941680908Z" fill="#DDDDDD" fill-opacity="1"/></g><g><path d="M42.57886146011352,19.392946121520996L42.57886146011352,21.235516121520995L42.44466146011352,21.235516121520995L40.60966146011353,21.235516121520995L12.772141460113525,21.104066121520997C12.235161460113526,21.104066121520997,11.697711460113526,21.016286121520995,11.205651460113526,20.884836121520998C11.160741460113526,20.884836121520998,11.116311460113526,20.840706121520995,11.071411460113525,20.840706121520995C10.400191460113525,20.621476121520995,9.818311460113526,20.314466121520997,9.370676460113526,19.875536121520994C8.967947460113525,19.480726121520995,8.699461460113525,18.954486121520997,8.699461460113525,18.427766121520996C8.699461460113525,17.462586121520996,9.504919460113525,16.672982121520995,10.668681460113525,16.234051121520995C11.071411460113525,16.058479121520996,11.519041460113526,15.970692821520997,12.011111460113526,15.927034421520997C12.190261460113526,15.927034421520997,12.413841460113526,15.883376121520996,12.592991460113526,15.883376121520996L38.99876146011353,15.883376121520996C39.267261460113524,15.883376121520996,39.53566146011353,15.927034421520997,39.75926146011352,15.970692821520997C39.93846146011353,16.014820121520994,40.162461460113526,16.058479121520996,40.341161460113526,16.146265121520997C41.684061460113526,16.672982121520995,42.57886146011352,17.901516121520995,42.57886146011352,19.392946121520996Z" fill="#132538" fill-opacity="1"/></g><g><path d="M42.444576517486574,21.235509357910157L40.60967651748658,21.235509357910157L12.772136517486572,21.104069357910156C12.235166517486572,21.104069357910156,11.697716517486572,21.016279357910157,11.205646517486572,20.884839357910156C11.160746517486572,20.884839357910156,11.116316517486572,20.840709357910157,11.071406517486572,20.840709357910157C10.400196517486572,20.621479357910157,9.818312517486572,20.314459357910156,9.370676517486572,19.875529357910157C9.684069517486572,19.524854357910158,10.131705517486573,19.261496357910158,10.668676517486572,19.085923357910158C11.071406517486572,18.910351357910155,11.519046517486572,18.822565457910155,12.011106517486573,18.778907157910155C12.190256517486572,18.734779357910156,12.413836517486573,18.734779357910156,12.592986517486572,18.734779357910156L38.998776517486576,18.734779357910156C39.267176517486575,18.734779357910156,39.53567651748657,18.778907157910155,39.75927651748657,18.822565457910155C39.93847651748657,18.866693357910155,40.16247651748657,18.910351357910155,40.34117651748657,18.998137357910156C41.37067651748657,19.392940357910156,42.131676517486575,20.226669357910158,42.444576517486574,21.235509357910157Z" fill="#020305" fill-opacity="1"/></g><g><path d="M26.38970265625,24.2079L18.61963565625,14.945C17.98162765625,14.1476,18.08777565625,12.9531,18.93919765625,12.3549C19.25876265625,12.0568,19.68447265625,11.9567,20.21633265625,11.9567L23.94158265625,11.9567L23.94158265625,2.89282C23.94158265625,1.8963809999999999,24.79300265625,1,25.96399265625,1L30.113872656250003,1C31.17867265625,1,32.13627265625,1.7973620000000001,32.13627265625,2.89282L32.13627265625,11.9567L35.86147265625,11.9567C36.926372656249995,11.9567,37.88387265625,12.753,37.88387265625,13.7495C37.88387265625,14.1476,37.77777265625,14.5468,37.45817265625,14.945L29.68807265625,24.1079C28.94397265625,24.9052,27.66683265625,25.1043,26.70814265625,24.407C26.601992656249998,24.407,26.49585265625,24.308,26.38970265625,24.2079Z" fill="url(#master_svg1_122_7602)" fill-opacity="1"/></g><g style="opacity:0.20000000298023224;"><path d="M36.49255007781983,19.30515480041504C36.35835007781982,19.480726800415038,36.26845007781982,19.65629880041504,36.13425007781983,19.78774380041504C36.00005007781982,19.96331580041504,35.82135007781983,20.18301580041504,35.68665007781982,20.358114800415038C34.746950077819825,21.41108480041504,33.58315007781982,22.288944800415038,32.33005007781982,22.902974800415038C32.10645007781982,23.03442480041504,31.837950077819826,23.12220480041504,31.613950077819823,23.25412480041504C31.211250077819827,23.42922480041504,30.808450077819824,23.56113480041504,30.360850077819826,23.69258480041504C28.705050077819823,24.17517480041504,26.914950077819825,24.262954800415038,25.124410077819824,23.868154800415038C22.170580077819825,23.25412480041504,19.753730077819824,21.58665480041504,18.232150077819824,19.30515480041504L36.49255007781983,19.30515480041504L36.49255007781983,19.30515480041504Z" fill="#994300" fill-opacity="1"/></g><g><path d="M45.98035484390259,24.087384102783204L45.98035484390259,47.1211241027832C45.98035484390259,48.7003241027832,44.68235484390259,49.972524102783204,43.071454843902586,49.972524102783204L14.920024843902588,49.972524102783204C12.592984843902588,49.972524102783204,10.758014843902588,48.8759241027832,9.639162843902588,47.99852410278321C9.102190843902587,47.559624102783204,8.788797843902588,46.9014241027832,8.788797843902588,46.243324102783205C8.788797843902588,45.9362241027832,8.788797843902588,45.585124102783205,8.788797843902588,45.23442410278321C8.788797843902588,44.7518241027832,8.788797843902588,44.2251241027832,8.788797843902588,43.654724102783206C8.788797843902588,41.022624102783205,8.788797843902588,37.5125241027832,8.743890943902588,33.9152241027832C8.743890943902588,33.3885241027832,8.743890943902588,32.8622241027832,8.743890943902588,32.335524102783204C8.743890943902588,30.4493241027832,8.743890943902588,28.562624102783204,8.699461743902589,26.8073541027832C8.699461743902589,26.281104102783203,8.699461743902589,25.754854102783202,8.699461743902589,25.2281341027832C8.699461743902589,21.718104102783204,8.654554843902588,19.085927102783202,8.654554843902588,18.471424102783203C8.654554843902588,19.524384102783202,9.639162843902588,20.445904102783203,10.981594843902588,20.840714102783203C11.026504843902588,20.840714102783203,11.071404843902588,20.884834102783202,11.115834843902588,20.884834102783202C11.608374843902588,21.016284102783203,12.145354843902588,21.1040641027832,12.682324843902588,21.1040641027832L40.52035484390259,21.235514102783203L42.53445484390259,21.235514102783203L43.026454843902584,21.235514102783203C44.68235484390259,21.235514102783203,45.98035484390259,22.5081741027832,45.98035484390259,24.087384102783204Z" fill="#3F70A5" fill-opacity="1"/></g><g><path d="M40.34116188354492,31.94072151184082C39.35656188354492,31.94072151184082,38.46176188354492,32.33552451184082,37.83498188354492,32.95003151184082C37.208668883544924,33.56406151184082,36.80546188354492,34.44145151184082,36.80546188354492,35.40663151184082C36.80546188354492,35.450761511840824,36.80546188354492,35.53854151184082,36.80546188354492,35.58220151184082C36.895275683544924,37.42477151184082,38.46176188354492,38.87254151184082,40.34116188354492,38.87254151184082L45.98033188354492,38.87254151184082L45.98033188354492,31.94072151184082L40.34116188354492,31.94072151184082Z" fill="#132538" fill-opacity="1"/></g><g><path d="M45.980459375,30.624401092529297L45.980459375,31.458134092529296C45.936029375000004,31.458134092529296,45.891129375,31.458134092529296,45.801309375,31.458134092529296L40.072809375,31.458134092529296C39.088209375,31.458134092529296,38.192929375,31.852941092529296,37.566629375,32.4674410925293C36.984745375,33.037811092529296,36.582016275,33.871081092529295,36.537109375,34.7484710925293C36.537109375,34.792601092529296,36.537109375,34.8803810925293,36.537109375,34.92404109252929C36.537109375,36.8544010925293,38.103599375,38.389951092529294,40.072809375,38.389951092529294L45.801309375,38.389951092529294C46.070279375,38.389951092529294,46.338759375,38.302631092529296,46.428099375,38.1707210925293C46.472999375,38.127061092529296,46.517429375,38.03928109252929,46.517429375,37.9951510925293L46.517429375,31.019673092529295C46.517429375,30.799973092529296,46.293849375,30.668528892529295,45.980459375,30.624401092529297Z" fill="#3E6A9C" fill-opacity="1"/></g><g><path d="M41.90765318481445,34.92427365234375Q41.90765318481445,35.02558365234375,41.89752318481445,35.12639365234375Q41.88739318481446,35.227203652343746,41.86723318481445,35.32656365234375Q41.847073184814455,35.42591365234375,41.817073184814454,35.52285365234375Q41.787083184814456,35.61979365234375,41.74753318481445,35.71338365234375Q41.707993184814455,35.80697365234375,41.65927318481445,35.89631365234375Q41.61056318481445,35.98565365234375,41.553153184814455,36.06988365234375Q41.49574318481445,36.15411365234375,41.43018318481445,36.23242365234375Q41.36463318481445,36.31072365234375,41.29156318481445,36.38235365234375Q41.218493184814456,36.45398365234375,41.13861318481445,36.51825365234375Q41.05873318481445,36.58251365234375,40.972813184814456,36.63879365234375Q40.886893184814454,36.69507365234375,40.79575318481445,36.74283365234375Q40.70462318481445,36.79058365234375,40.60915318481445,36.82935365234375Q40.513683184814454,36.86811365234375,40.41479318481446,36.89752365234375Q40.31590318481445,36.92692365234375,40.214553184814456,36.946693652343754Q40.11320318481445,36.96645365234375,40.01036318481445,36.97638365234375Q39.907533184814454,36.98631365234375,39.80419318481445,36.98631365234375Q39.700853184814456,36.98631365234375,39.598013184814455,36.97638365234375Q39.49518318481445,36.96645365234375,39.39382318481445,36.946693652343754Q39.292473184814455,36.92692365234375,39.19359318481445,36.89752365234375Q39.094703184814456,36.86811365234375,38.99923318481445,36.82935365234375Q38.90376318481445,36.79058365234375,38.81263318481445,36.74283365234375Q38.721493184814456,36.69507365234375,38.635573184814454,36.63879365234375Q38.549652184814455,36.58251365234375,38.46977218481445,36.51825365234375Q38.38989218481445,36.45398365234375,38.316822184814455,36.38235365234375Q38.243752184814454,36.31072365234375,38.17819618481445,36.23242365234375Q38.11264018481445,36.15411365234375,38.055230184814455,36.06988365234375Q37.99781918481445,35.98565365234375,37.94910718481445,35.89631365234375Q37.90039418481445,35.80697365234375,37.860849184814455,35.71338365234375Q37.82130418481445,35.61979365234375,37.79130738481445,35.52285365234375Q37.76131048481445,35.42591365234375,37.741150584814456,35.32656365234375Q37.72099068481445,35.227203652343746,37.710861884814456,35.12639365234375Q37.70073318481445,35.02558365234375,37.70073318481445,34.92427365234375Q37.70073318481445,34.82297365234375,37.710861884814456,34.72216365234375Q37.72099068481445,34.62135365234375,37.741150584814456,34.52199365234375Q37.76131048481445,34.42264365234375,37.79130738481445,34.32570365234375Q37.82130418481445,34.22876365234375,37.860849184814455,34.13517365234375Q37.90039418481445,34.04158365234375,37.94910718481445,33.95224365234375Q37.99781918481445,33.86290365234375,38.055230184814455,33.77867365234375Q38.11264018481445,33.69444465234375,38.17819618481445,33.61613765234375Q38.243752184814454,33.53783065234375,38.316822184814455,33.46619965234375Q38.38989218481445,33.39456865234375,38.46977218481445,33.33030365234375Q38.549652184814455,33.26603865234375,38.635573184814454,33.20975865234375Q38.721493184814456,33.15347965234375,38.81263318481445,33.10572565234375Q38.90376318481445,33.05797265234375,38.99923318481445,33.01920665234375Q39.094703184814456,32.98044065234375,39.19359318481445,32.95103415234375Q39.292473184814455,32.92162795234375,39.39382318481445,32.90186505234375Q39.49518318481445,32.88210215234375,39.598013184814455,32.87217291234375Q39.700853184814456,32.86224365234375,39.80419318481445,32.86224365234375Q39.907533184814454,32.86224365234375,40.01036318481445,32.87217291234375Q40.11320318481445,32.88210215234375,40.214553184814456,32.90186505234375Q40.31590318481445,32.92162795234375,40.41479318481446,32.95103415234375Q40.513683184814454,32.98044065234375,40.60915318481445,33.01920665234375Q40.70462318481445,33.05797265234375,40.79575318481445,33.10572565234375Q40.886893184814454,33.15347965234375,40.972813184814456,33.20975865234375Q41.05873318481445,33.26603865234375,41.13861318481445,33.33030365234375Q41.218493184814456,33.39456865234375,41.29156318481445,33.46619965234375Q41.36463318481445,33.53783065234375,41.43018318481445,33.61613765234375Q41.49574318481445,33.69444465234375,41.553153184814455,33.77867365234375Q41.61056318481445,33.86290365234375,41.65927318481445,33.95224365234375Q41.707993184814455,34.04158365234375,41.74753318481445,34.13517365234375Q41.787083184814456,34.22876365234375,41.817073184814454,34.32570365234375Q41.847073184814455,34.42264365234375,41.86723318481445,34.52199365234375Q41.88739318481446,34.62135365234375,41.89752318481445,34.72216365234375Q41.90765318481445,34.82297365234375,41.90765318481445,34.92427365234375Z" fill="url(#master_svg2_122_7366)" fill-opacity="1"/></g><g><path d="M28.570768806152344,46.41886184692383C28.660108806152344,46.46299184692383,28.749918806152344,46.50664184692383,28.884168806152346,46.50664184692383L45.75673880615234,46.50664184692383L45.75673880615234,45.36589184692383L29.062838806152342,45.36589184692383L26.198828806152342,43.304091846923825L26.243258806152344,43.12852184692383C26.377498806152346,42.90929184692383,26.422408806152344,42.60180184692383,26.422408806152344,42.338921846923824C26.422408806152344,41.15403984692383,25.437798806152344,40.18886184692383,24.229608806152342,40.18886184692383C23.020946806152345,40.18886184692383,22.036338806152344,41.15403984692383,22.036338806152344,42.338921846923824C22.036338806152344,43.52332184692383,23.020946806152345,44.488501846923825,24.229608806152342,44.488501846923825C24.587438806152342,44.488501846923825,24.945738806152345,44.40072184692383,25.258648806152344,44.225141846923826L25.392888806152342,44.18149184692383L28.570768806152344,46.41886184692383ZM23.155238806152344,42.33891184692383C23.155238806152344,41.76854184692383,23.602868806152344,41.329611846923825,24.184748806152342,41.329611846923825C24.766628806152344,41.329611846923825,25.214268806152344,41.76854184692383,25.214268806152344,42.33891184692383C25.214268806152344,42.60180184692383,25.080018806152346,42.82150184692383,24.900868806152342,43.040731846923826C24.721718806152342,43.25996184692383,24.453238806152342,43.34775184692383,24.184748806152342,43.34775184692383C23.602868806152344,43.34775184692383,23.155238806152344,42.90929184692383,23.155238806152344,42.33891184692383Z" fill-rule="evenodd" fill="#2D5887" fill-opacity="1"/></g><g><path d="M9.057040214163575,43.83034360717774L9.057040214163575,45.01525360717773L12.190014355163575,45.01525360717773C12.324254355163575,45.01525360717773,12.503404355163575,44.92745360717773,12.592744355163575,44.83965360717774L20.827884355163576,36.986313607177735L27.093384355163575,36.986313607177735L27.138284355163574,37.117763607177736C27.451684355163575,37.995153607177734,28.257184355163574,38.56552360717774,29.196884355163576,38.56552360717774C30.405484355163573,38.56552360717774,31.390084355163573,37.600343607177734,31.390084355163573,36.41594360717774C31.390084355163573,35.231531607177736,30.405484355163573,34.266353607177734,29.196884355163576,34.266353607177734C28.302084355163576,34.266353607177734,27.496084355163575,34.83625960717774,27.183184355163576,35.66999360717774L27.138284355163574,35.801903607177735L20.648784355163574,35.801903607177735C20.514484355163574,35.801903607177735,20.335384355163576,35.88922360717773,20.245984355163575,35.97701360717773L12.010864355163575,43.83034360717774L9.057040214163575,43.83034360717774ZM28.212284355163575,36.415913607177735C28.212284355163575,35.84554360717773,28.659984355163573,35.40661360717773,29.241784355163574,35.40661360717773C29.778784355163573,35.40661360717773,30.271384355163573,35.889203607177734,30.271384355163573,36.415913607177735C30.271384355163573,36.986293607177736,29.823684355163575,37.424753607177735,29.241784355163574,37.424753607177735C28.659984355163573,37.424753607177735,28.212284355163575,36.986293607177736,28.212284355163575,36.415913607177735Z" fill-rule="evenodd" fill="#2D5887" fill-opacity="1"/></g><g><path d="M15.054507959899903,26.720032943725585C15.367417959899903,27.597422943725586,16.173357959899903,28.167792943725587,17.113057959899905,28.167792943725587C18.321237959899904,28.167792943725587,19.3058479598999,27.202622943725586,19.350747959899902,26.061872943725586C19.350747959899902,24.877460943725588,18.3661479598999,23.912282943725586,17.157957959899903,23.912282943725586C16.2177879598999,23.912282943725586,15.412327959899901,24.482657943725584,15.098927959899903,25.315922943725585L15.054507959899903,25.447832943725587L8.967703818899903,25.447832943725587L8.967703818899903,26.588582943725587L15.009597959899903,26.588582943725587L15.054507959899903,26.720032943725585ZM16.083667959899902,26.061862943725586C16.083667959899902,25.491492943725586,16.5313079598999,25.053032943725587,17.113187959899903,25.053032943725587C17.6950679598999,25.053032943725587,18.142697959899902,25.491492943725586,18.142697959899902,26.061862943725586C18.142697959899902,26.632242943725586,17.6950679598999,27.071172943725585,17.113187959899903,27.071172943725585C16.5313079598999,27.071172943725585,16.083667959899902,26.632242943725586,16.083667959899902,26.061862943725586Z" fill-rule="evenodd" fill="#2D5887" fill-opacity="1"/></g><g><path d="M10.712864355163575,33.78329397583008C11.026254355163575,34.660683975830075,11.832194355163574,35.23105397583008,12.771894355163575,35.23105397583008C13.935654355163575,35.23105397583008,14.920264355163575,34.31000397583008,14.920264355163575,33.12513397583008C14.920264355163575,31.94072197583008,13.980084355163573,30.975543975830078,12.771894355163575,30.975543975830078C11.876624355163575,30.975543975830078,11.071164355163575,31.545918975830077,10.757774355163574,32.37965397583008L10.712864355163575,32.51109397583008L9.057040214163575,32.51109397583008L9.057040214163575,33.651843975830076L10.668434355163575,33.651843975830076L10.712864355163575,33.78329397583008ZM11.742584355163574,33.12512397583008C11.742584355163574,32.55475397583008,12.190224355163574,32.116293975830075,12.772104355163574,32.116293975830075C13.309074355163574,32.116293975830075,13.756714355163574,32.55475397583008,13.801614355163574,33.12512397583008C13.801614355163574,33.69550397583008,13.353984355163576,34.13443397583008,12.772104355163574,34.13443397583008C12.190224355163574,34.13443397583008,11.742584355163574,33.69550397583008,11.742584355163574,33.12512397583008Z" fill-rule="evenodd" fill="#2D5887" fill-opacity="1"/></g><g><path d="M21.678518295288086,29.96671192077637C21.678518295288086,31.15112192077637,22.663126295288087,32.11629192077637,23.871318295288084,32.11629192077637C25.079978295288086,32.11629192077637,26.019678295288088,31.15112192077637,26.019678295288088,29.922581920776366C26.019678295288088,29.703351920776367,25.974768295288087,29.484121920776367,25.929868295288088,29.308551920776367L25.885438295288086,29.176631920776366L30.897818295288086,25.622941920776366L38.685318295288084,25.622941920776366L38.81961829528809,25.754851920776368C39.08811829528808,26.67590192077637,39.93841829528809,27.290401920776368,40.92301829528809,27.290401920776368C42.08681829528808,27.290401920776368,43.07141829528808,26.325231920776368,43.07141829528808,25.140351920776368C43.07141829528808,23.99959992077637,42.13171829528808,23.034421920776367,40.92301829528809,23.034421920776367C40.027818295288085,23.034421920776367,39.26721829528809,23.517010920776368,38.90891829528809,24.306611920776366L38.90891829528809,24.482191920776366L30.76356829528809,24.482191920776366C30.629328295288087,24.482191920776366,30.495088295288085,24.482191920776366,30.405748295288085,24.569971920776368L25.214218295288084,28.25558192077637L25.079978295288086,28.167801920776366C24.721678295288086,27.948561920776367,24.318948295288084,27.816651920776366,23.871318295288084,27.816651920776366C22.663126295288087,27.816651920776366,21.678518295288086,28.78183192077637,21.678518295288086,29.96671192077637ZM40.83371829528809,24.175171920776368C40.251918295288085,24.175171920776368,39.80421829528808,24.614101920776367,39.80421829528808,25.184471920776367C39.80421829528808,25.754851920776368,40.251918295288085,26.193311920776367,40.83371829528809,26.193311920776367C41.415618295288084,26.193311920776367,41.862818295288086,25.754851920776368,41.862818295288086,25.184471920776367C41.862818295288086,24.614101920776367,41.415618295288084,24.175171920776368,40.83371829528809,24.175171920776368ZM23.871368295288086,28.957391920776367C23.289488295288088,28.957391920776367,22.841848295288084,29.396321920776366,22.841848295288084,29.966701920776366C22.841848295288084,30.537071920776366,23.289488295288088,30.975541920776365,23.871368295288086,30.975541920776365C24.453238295288084,30.975541920776365,24.900878295288088,30.537071920776366,24.900878295288088,29.966701920776366C24.900878295288088,29.43998192077637,24.408338295288086,28.957391920776367,23.871368295288086,28.957391920776367Z" fill-rule="evenodd" fill="#2D5887" fill-opacity="1"/></g></g></g></svg>