<svg id="vector" xmlns="http://www.w3.org/2000/svg" width="50" height="50" viewBox="0 0 50.287 50.287"><path fill="#eff1f7" d="M12.22,2.22L38.22,2.22A10,10 0,0 1,48.22 12.22L48.22,38.22A10,10 0,0 1,38.22 48.22L12.22,48.22A10,10 0,0 1,2.22 38.22L2.22,12.22A10,10 0,0 1,12.22 2.22z" id="path_0"/><path fill="#eff1f7" d="M31.59,6.45l0,0A19.79,19.79 73.73,0 1,43.86 31.61l0,0A19.79,19.79 62.82,0 1,18.7 43.88l0,0A19.79,19.79 51.31,0 1,6.43 18.71L6.43,18.71A19.79,19.79 100.2,0 1,31.59 6.45Z" id="path_1"/><path fill="#6175ae" d="M30.43,9.6s-0.14,0.07 -0.36,0.21a0.57,0.57 117.82,0 1,0.36 -0.21ZM29.1,12.53a10.77,10.77 0,0 0,-0.32 3.04A24.94,24.94 0,0 0,28.99 18.43L31.29,18.43L28.26,23.75 25.22,18.43l1.9,0a25.56,25.56 0,0 1,-0.18 -2.86,6.29 6.29,66.7 0,1 0.87,-3.59 6.9,6.9 109.5,0 1,2.26 -2.18A5.08,5.08 111.78,0 0,29.1 12.53Z" id="path_2"/><path fill="#6175ae" d="M31.6,22.37s0.14,-0.07 0.36,-0.21a0.57,0.57 0,0 1,-0.36 0.21ZM32.93,19.44a10.77,10.77 0,0 0,0.32 -3.04A24.94,24.94 0,0 0,33.03 13.54L30.73,13.54L33.77,8.22 36.81,13.54h-1.9a25.56,25.56 0,0 1,0.18 2.86,6.29 6.29,0 0,1 -0.87,3.59 6.9,6.9 0,0 1,-2.26 2.18A5.08,5.08 0,0 0,32.93 19.44Z" id="path_3"/><path fill="#00000000" d="M19.65,30.81L27.64,30.39" stroke-linecap="round" stroke="#6175ae" stroke-width="2" id="path_4"/><path fill="#00000000" d="M21.44,26.71L25.44,26.5" stroke-linecap="round" stroke="#6175ae" stroke-width="2" id="path_5"/><path fill="#6175ae" d="M20.93,36.9A12.09,12.09 50.26,0 1,16.66 16.14,12.46 12.46,0 0,1 22.4,13.45c1.83,-0.39 1.56,1.23 0.34,1.43a10.64,10.64 102.87,0 0,-8.08 7.07,10.81 10.81,0 1,0 20.43,7.05 10.56,10.56 56.87,0 0,0.59 -4.05,0.63 0.63,88.96 0,1 0.61,-0.67 0.66,0.66 59.68,0 1,0.67 0.61A12.1,12.1 99.24,0 1,20.93 36.89Z" stroke="#6175ae" stroke-width="0.8" id="path_6"/></svg>