<svg
    xmlns="http://www.w3.org/2000/svg"
    viewBox="0 0 40 40"
    id="vector">
    <path
        id="path_3"
        d="M 20 20 M 1 20 C 1 14.963 3.003 10.127 6.565 6.565 C 10.127 3.003 14.963 1 20 1 C 25.037 1 29.873 3.003 33.435 6.565 C 36.997 10.127 39 14.963 39 20 C 39 25.037 36.997 29.873 33.435 33.435 C 29.873 36.997 25.037 39 20 39 C 14.963 39 10.127 36.997 6.565 33.435 C 3.003 29.873 1 25.037 1 20"
        fill="#00000000"
        stroke="#6175ae"
        stroke-width="2"/>
    <path
        id="path_4"
        d="M 10.71 16.71 L 10.71 16.71 C 10.897 16.524 11.151 16.419 11.415 16.419 C 11.679 16.419 11.933 16.524 12.12 16.71 L 19.19 23.78 C 19.376 23.967 19.481 24.221 19.481 24.485 C 19.481 24.749 19.376 25.003 19.19 25.19 L 19.19 25.19 C 19.003 25.376 18.749 25.481 18.485 25.481 C 18.221 25.481 17.967 25.376 17.78 25.19 L 10.71 18.12 C 10.524 17.933 10.419 17.679 10.419 17.415 C 10.419 17.151 10.524 16.897 10.71 16.71 Z"
        fill="#6175ae"/>
    <path
        id="path_5"
        d="M 31.85 11.05 L 31.85 11.05 C 32.036 11.237 32.141 11.491 32.141 11.755 C 32.141 12.019 32.036 12.273 31.85 12.46 L 19.13 25.19 C 18.943 25.376 18.689 25.481 18.425 25.481 C 18.161 25.481 17.907 25.376 17.72 25.19 L 17.72 25.19 C 17.534 25.003 17.429 24.749 17.429 24.485 C 17.429 24.221 17.534 23.967 17.72 23.78 L 30.45 11.05 C 30.637 10.867 30.888 10.764 31.15 10.764 C 31.412 10.764 31.663 10.867 31.85 11.05 Z"
        fill="#6175ae"/>
</svg>
