<svg
    xmlns="http://www.w3.org/2000/svg"
    viewBox="0 0 22 22"
    id="vector">
    <path
        id="path_3"
        d="M 8.191 10.333 C 7.707 9.937 7.378 9.383 7.263 8.768 C 7.147 8.154 7.252 7.518 7.56 6.974 C 7.867 6.429 8.357 6.01 8.942 5.791 C 9.528 5.572 10.172 5.567 10.761 5.776 C 11.35 5.986 11.847 6.397 12.163 6.936 C 12.479 7.475 12.594 8.11 12.489 8.726 C 12.384 9.342 12.064 9.902 11.586 10.305 C 11.109 10.709 10.504 10.931 9.879 10.933 C 9.328 10.933 8.787 11.078 8.31 11.353 C 7.833 11.628 7.436 12.024 7.161 12.501 C 6.885 12.978 6.74 13.519 6.74 14.07 C 6.74 14.151 6.74 14.232 6.749 14.312 L 5.781 14.312 C 5.732 13.482 5.936 12.656 6.366 11.945 C 6.797 11.234 7.434 10.67 8.192 10.329 Z M 9.878 9.972 C 10.326 9.972 10.756 9.794 11.073 9.477 C 11.39 9.16 11.568 8.73 11.568 8.282 C 11.568 7.834 11.39 7.404 11.073 7.087 C 10.756 6.77 10.326 6.592 9.878 6.592 L 9.878 6.592 C 9.43 6.592 9 6.77 8.683 7.087 C 8.366 7.404 8.188 7.834 8.188 8.282 C 8.188 8.73 8.366 9.16 8.683 9.477 C 9 9.794 9.43 9.972 9.878 9.972 Z"
        fill="#000000"/>
    <path
        id="path_4"
        d="M 18.191 12.001 L 12.742 12.001 C 12.465 11.994 12.196 12.098 11.995 12.289 C 11.794 12.48 11.677 12.743 11.67 13.02 L 11.67 17.56 L 15.097 20.66 C 15.199 20.75 15.33 20.8 15.466 20.8 C 15.603 20.8 15.734 20.75 15.836 20.66 L 19.263 17.56 L 19.263 13.02 C 19.256 12.743 19.139 12.48 18.938 12.289 C 18.737 12.098 18.468 11.994 18.191 12.001 Z M 17.483 14.139 L 15.949 16.961 C 15.911 17.056 15.845 17.138 15.76 17.195 C 15.675 17.253 15.575 17.284 15.472 17.284 C 15.369 17.284 15.269 17.253 15.184 17.195 C 15.099 17.138 15.033 17.056 14.995 16.961 L 13.457 14.066 L 13.443 14.039 C 13.424 13.997 13.418 13.951 13.423 13.905 C 13.429 13.86 13.447 13.816 13.475 13.78 C 13.503 13.744 13.541 13.716 13.584 13.7 C 13.649 13.672 13.723 13.67 13.789 13.695 C 13.856 13.72 13.91 13.77 13.941 13.834 L 15.475 16.721 L 17.004 13.907 C 17.039 13.845 17.097 13.8 17.165 13.779 C 17.233 13.758 17.306 13.764 17.37 13.796 C 17.41 13.816 17.444 13.846 17.468 13.883 C 17.493 13.92 17.507 13.963 17.509 14.007 C 17.512 14.051 17.503 14.095 17.483 14.135 Z"
        fill="#000000"/>
    <path
        id="path_5"
        d="M 9.782 18.101 L 5.082 18.101 C 4.811 18.107 4.548 18.005 4.352 17.817 C 4.156 17.63 4.042 17.372 4.036 17.101 L 4.036 4.101 C 4.042 3.83 4.156 3.572 4.352 3.385 C 4.548 3.197 4.811 3.095 5.082 3.101 L 14.491 3.101 C 14.762 3.095 15.024 3.198 15.22 3.385 C 15.416 3.572 15.53 3.83 15.536 4.101 L 15.536 10.601"
        fill="#00000000"
        stroke="#000000"
        stroke-width="1"
        stroke-linecap="round"/>
</svg>
