<svg xmlns="http://www.w3.org/2000/svg" xmlns:xlink="http://www.w3.org/1999/xlink" fill="none" version="1.1" width="24" height="24" viewBox="0 0 24 24"><g><g><path d="M14.7,19.4C14.7,19.4,14.1029,18.9462,14.1029,18.9462C14.1029,18.9462,14.1,18.95,14.1,18.95C14.1,18.95,14.7,19.4,14.7,19.4C14.7,19.4,14.7,19.4,14.7,19.4ZM13.2,21.4C13.2,21.4,13.8,21.85,13.8,21.85C13.8,21.85,13.2,21.4,13.2,21.4C13.2,21.4,13.2,21.4,13.2,21.4ZM10.8,21.4C10.8,21.4,10.2,21.85,10.2,21.85C10.2,21.85,10.8,21.4,10.8,21.4C10.8,21.4,10.8,21.4,10.8,21.4ZM9.3,19.4C9.3,19.4,8.693380000000001,19.8412,8.693380000000001,19.8412C8.693380000000001,19.8412,8.7,19.85,8.7,19.85C8.7,19.85,9.3,19.4,9.3,19.4C9.3,19.4,9.3,19.4,9.3,19.4ZM8.5,18.25C8.5,18.25,8,18.25,8,18.25C8,18.25,8,19.75,8,19.75C8,19.75,8.5,19.75,8.5,19.75C8.5,19.75,8.5,18.25,8.5,18.25C8.5,18.25,8.5,18.25,8.5,18.25ZM8,18.25C6.01326,18.25,4.76886,17.9887,3.99388,17.3106C3.24367,16.6541,2.75,15.4353,2.75,13C2.75,13,1.25,13,1.25,13C1.25,15.5647,1.7563330000000001,17.3459,3.00612,18.4394C4.23114,19.5113,5.98674,19.75,8,19.75C8,19.75,8,18.25,8,18.25C8,18.25,8,18.25,8,18.25ZM2.75,13C2.75,13,2.75,8,2.75,8C2.75,8,1.25,8,1.25,8C1.25,8,1.25,13,1.25,13C1.25,13,2.75,13,2.75,13C2.75,13,2.75,13,2.75,13ZM2.75,8C2.75,6.11561,3.22059,4.84007,4.03033,4.03033C4.84007,3.22059,6.11561,2.75,8,2.75C8,2.75,8,1.25,8,1.25C5.88439,1.25,4.15993,1.77941,2.96967,2.96967C1.77941,4.15993,1.25,5.88439,1.25,8C1.25,8,2.75,8,2.75,8C2.75,8,2.75,8,2.75,8ZM8,2.75C8,2.75,16,2.75,16,2.75C16,2.75,16,1.25,16,1.25C16,1.25,8,1.25,8,1.25C8,1.25,8,2.75,8,2.75C8,2.75,8,2.75,8,2.75ZM16,2.75C17.8844,2.75,19.1599,3.22059,19.9697,4.03033C20.7794,4.84007,21.25,6.11561,21.25,8C21.25,8,22.75,8,22.75,8C22.75,5.88439,22.2206,4.15993,21.0303,2.96967C19.8401,1.77941,18.1156,1.25,16,1.25C16,1.25,16,2.75,16,2.75C16,2.75,16,2.75,16,2.75ZM21.25,8C21.25,8,21.25,13,21.25,13C21.25,13,22.75,13,22.75,13C22.75,13,22.75,8,22.75,8C22.75,8,21.25,8,21.25,8C21.25,8,21.25,8,21.25,8ZM21.25,13C21.25,14.8844,20.7794,16.1599,19.9697,16.9697C19.1599,17.7794,17.8844,18.25,16,18.25C16,18.25,16,19.75,16,19.75C18.1156,19.75,19.8401,19.2206,21.0303,18.0303C22.2206,16.8401,22.75,15.1156,22.75,13C22.75,13,21.25,13,21.25,13C21.25,13,21.25,13,21.25,13ZM16,18.25C16,18.25,15.5,18.25,15.5,18.25C15.5,18.25,15.5,19.75,15.5,19.75C15.5,19.75,16,19.75,16,19.75C16,19.75,16,18.25,16,18.25C16,18.25,16,18.25,16,18.25ZM15.5,18.25C14.9521,18.25,14.4325,18.5124,14.1029,18.9462C14.1029,18.9462,15.2971,19.8538,15.2971,19.8538C15.3475,19.7876,15.4279,19.75,15.5,19.75C15.5,19.75,15.5,18.25,15.5,18.25C15.5,18.25,15.5,18.25,15.5,18.25ZM14.1,18.95C14.1,18.95,12.6,20.95,12.6,20.95C12.6,20.95,13.8,21.85,13.8,21.85C13.8,21.85,15.3,19.85,15.3,19.85C15.3,19.85,14.1,18.95,14.1,18.95C14.1,18.95,14.1,18.95,14.1,18.95ZM12.6,20.95C12.3908,21.2289,12.1663,21.31,12,21.31C11.8337,21.31,11.6092,21.2289,11.4,20.95C11.4,20.95,10.2,21.85,10.2,21.85C10.65084,22.4511,11.2963,22.81,12,22.81C12.7037,22.81,13.3492,22.4511,13.8,21.85C13.8,21.85,12.6,20.95,12.6,20.95C12.6,20.95,12.6,20.95,12.6,20.95ZM11.4,20.95C11.4,20.95,9.9,18.95,9.9,18.95C9.9,18.95,8.7,19.85,8.7,19.85C8.7,19.85,10.2,21.85,10.2,21.85C10.2,21.85,11.4,20.95,11.4,20.95C11.4,20.95,11.4,20.95,11.4,20.95ZM9.90655,18.9589C9.73335,18.7207,9.48964,18.5523,9.27436,18.4455C9.05796,18.3383,8.782820000000001,18.25,8.5,18.25C8.5,18.25,8.5,19.75,8.5,19.75C8.487580000000001,19.75,8.49446,19.7485,8.52072,19.7556C8.54532,19.7622,8.575980000000001,19.7735,8.608139999999999,19.7895C8.64037,19.8054,8.66662,19.8224,8.6847,19.8365C8.704180000000001,19.8516,8.70372,19.8553,8.69345,19.8411C8.69345,19.8411,9.90655,18.9589,9.90655,18.9589C9.90655,18.9589,9.90655,18.9589,9.90655,18.9589Z" fill="#414D73" fill-opacity="1"/></g><g><path d="M7,7.25C6.585786,7.25,6.25,7.585786,6.25,8C6.25,8.41421,6.585786,8.75,7,8.75C7,8.75,7,7.25,7,7.25C7,7.25,7,7.25,7,7.25ZM17,8.75C17.4142,8.75,17.75,8.41421,17.75,8C17.75,7.585786,17.4142,7.25,17,7.25C17,7.25,17,8.75,17,8.75C17,8.75,17,8.75,17,8.75ZM7,8.75C7,8.75,17,8.75,17,8.75C17,8.75,17,7.25,17,7.25C17,7.25,7,7.25,7,7.25C7,7.25,7,8.75,7,8.75C7,8.75,7,8.75,7,8.75Z" fill="#6175AE" fill-opacity="1"/></g><g><path d="M7,12.25C6.585786,12.25,6.25,12.585786,6.25,13C6.25,13.41421,6.585786,13.75,7,13.75C7,13.75,7,12.25,7,12.25C7,12.25,7,12.25,7,12.25ZM13,13.75C13.41421,13.75,13.75,13.41421,13.75,13C13.75,12.585786,13.41421,12.25,13,12.25C13,12.25,13,13.75,13,13.75C13,13.75,13,13.75,13,13.75ZM7,13.75C7,13.75,13,13.75,13,13.75C13,13.75,13,12.25,13,12.25C13,12.25,7,12.25,7,12.25C7,12.25,7,13.75,7,13.75C7,13.75,7,13.75,7,13.75Z" fill="#6175AE" fill-opacity="1"/></g><g style="opacity:0;"></g></g></svg>