<svg xmlns="http://www.w3.org/2000/svg" xmlns:xlink="http://www.w3.org/1999/xlink" fill="none" version="1.1" width="24" height="24" viewBox="0 0 24 24"><g><g><path d="M8.75,2C8.75,1.585786,8.41421,1.25,8,1.25C7.585786,1.25,7.25,1.585786,7.25,2C7.25,2,8.75,2,8.75,2C8.75,2,8.75,2,8.75,2ZM7.25,5C7.25,5.41421,7.585786,5.75,8,5.75C8.41421,5.75,8.75,5.41421,8.75,5C8.75,5,7.25,5,7.25,5C7.25,5,7.25,5,7.25,5ZM7.25,2C7.25,2,7.25,5,7.25,5C7.25,5,8.75,5,8.75,5C8.75,5,8.75,2,8.75,2C8.75,2,7.25,2,7.25,2C7.25,2,7.25,2,7.25,2Z" fill="#FFFFFF" fill-opacity="1"/></g><g><path d="M16.75,2C16.75,1.585786,16.41421,1.25,16,1.25C15.585786,1.25,15.25,1.585786,15.25,2C15.25,2,16.75,2,16.75,2C16.75,2,16.75,2,16.75,2ZM15.25,5C15.25,5.41421,15.585786,5.75,16,5.75C16.41421,5.75,16.75,5.41421,16.75,5C16.75,5,15.25,5,15.25,5C15.25,5,15.25,5,15.25,5ZM15.25,2C15.25,2,15.25,5,15.25,5C15.25,5,16.75,5,16.75,5C16.75,5,16.75,2,16.75,2C16.75,2,15.25,2,15.25,2C15.25,2,15.25,2,15.25,2Z" fill="#FFFFFF" fill-opacity="1"/></g><g><path d="M20.25,8.5C20.25,8.5,20.25,17,20.25,17C20.25,17,21.75,17,21.75,17C21.75,17,21.75,8.5,21.75,8.5C21.75,8.5,20.25,8.5,20.25,8.5C20.25,8.5,20.25,8.5,20.25,8.5ZM20.25,17C20.25,18.384999999999998,19.9036,19.4246,19.2629,20.1147C18.6315,20.7946,17.607,21.25,16,21.25C16,21.25,16,22.75,16,22.75C17.893,22.75,19.3685,22.2054,20.3621,21.1353C21.3464,20.0754,21.75,18.615000000000002,21.75,17C21.75,17,20.25,17,20.25,17C20.25,17,20.25,17,20.25,17ZM16,21.25C16,21.25,8,21.25,8,21.25C8,21.25,8,22.75,8,22.75C8,22.75,16,22.75,16,22.75C16,22.75,16,21.25,16,21.25C16,21.25,16,21.25,16,21.25ZM8,21.25C6.39295,21.25,5.36848,20.7946,4.7371,20.1147C4.09637,19.4246,3.75,18.384999999999998,3.75,17C3.75,17,2.25,17,2.25,17C2.25,18.615000000000002,2.653634,20.0754,3.6379099999999998,21.1353C4.63152,22.2054,6.10705,22.75,8,22.75C8,22.75,8,21.25,8,21.25C8,21.25,8,21.25,8,21.25ZM3.75,17C3.75,17,3.75,8.5,3.75,8.5C3.75,8.5,2.25,8.5,2.25,8.5C2.25,8.5,2.25,17,2.25,17C2.25,17,3.75,17,3.75,17C3.75,17,3.75,17,3.75,17ZM3.75,8.5C3.75,7.11497,4.09637,6.07535,4.7371,5.385339999999999C5.36848,4.70538,6.39295,4.25,8,4.25C8,4.25,8,2.75,8,2.75C6.10705,2.75,4.63152,3.294615,3.6379099999999998,4.36466C2.653634,5.42465,2.25,6.88503,2.25,8.5C2.25,8.5,3.75,8.5,3.75,8.5C3.75,8.5,3.75,8.5,3.75,8.5ZM8,4.25C8,4.25,16,4.25,16,4.25C16,4.25,16,2.75,16,2.75C16,2.75,8,2.75,8,2.75C8,2.75,8,4.25,8,4.25C8,4.25,8,4.25,8,4.25ZM16,4.25C17.607,4.25,18.6315,4.70538,19.2629,5.385339999999999C19.9036,6.07535,20.25,7.11497,20.25,8.5C20.25,8.5,21.75,8.5,21.75,8.5C21.75,6.88503,21.3464,5.42465,20.3621,4.36466C19.3685,3.294615,17.893,2.75,16,2.75C16,2.75,16,4.25,16,4.25C16,4.25,16,4.25,16,4.25Z" fill="#FFFFFF" fill-opacity="1"/></g><g style="opacity:0.4000000059604645;"><path d="M8,10.25C7.585786,10.25,7.25,10.585786,7.25,11C7.25,11.41421,7.585786,11.75,8,11.75C8,11.75,8,10.25,8,10.25C8,10.25,8,10.25,8,10.25ZM16,11.75C16.41421,11.75,16.75,11.41421,16.75,11C16.75,10.585786,16.41421,10.25,16,10.25C16,10.25,16,11.75,16,11.75C16,11.75,16,11.75,16,11.75ZM8,11.75C8,11.75,16,11.75,16,11.75C16,11.75,16,10.25,16,10.25C16,10.25,8,10.25,8,10.25C8,10.25,8,11.75,8,11.75C8,11.75,8,11.75,8,11.75Z" fill="#FFFFFF" fill-opacity="1"/></g><g style="opacity:0.4000000059604645;"><path d="M8,15.25C7.585786,15.25,7.25,15.585786,7.25,16C7.25,16.41421,7.585786,16.75,8,16.75C8,16.75,8,15.25,8,15.25C8,15.25,8,15.25,8,15.25ZM12,16.75C12.41421,16.75,12.75,16.41421,12.75,16C12.75,15.585786,12.41421,15.25,12,15.25C12,15.25,12,16.75,12,16.75C12,16.75,12,16.75,12,16.75ZM8,16.75C8,16.75,12,16.75,12,16.75C12,16.75,12,15.25,12,15.25C12,15.25,8,15.25,8,15.25C8,15.25,8,16.75,8,16.75C8,16.75,8,16.75,8,16.75Z" fill="#FFFFFF" fill-opacity="1"/></g><g style="opacity:0;"></g></g></svg>