<svg xmlns="http://www.w3.org/2000/svg" xmlns:xlink="http://www.w3.org/1999/xlink" fill="none" version="1.1" width="24" height="24" viewBox="0 0 24 24"><g><g><path d="M6.98,2.88001C6.98,2.88001,6.44967,2.34968,6.44967,2.34968C6.44967,2.34968,6.44966,2.34968,6.44966,2.34968C6.44966,2.34968,6.98,2.88001,6.98,2.88001C6.98,2.88001,6.98,2.88001,6.98,2.88001ZM2.88001,6.98001C2.88001,6.98001,3.41033,7.51034,3.41033,7.51034C3.41033,7.51034,3.41034,7.51034,3.41034,7.51034C3.41034,7.51034,2.88001,6.98001,2.88001,6.98001C2.88001,6.98001,2.88001,6.98001,2.88001,6.98001ZM2.88001,17.02C2.88001,17.02,3.41034,16.4897,3.41034,16.4897C3.41034,16.4897,3.41033,16.4897,3.41033,16.4897C3.41033,16.4897,2.88001,17.02,2.88001,17.02C2.88001,17.02,2.88001,17.02,2.88001,17.02ZM6.98,21.12C6.98,21.12,6.44966,21.6503,6.44966,21.6503C6.44966,21.6503,6.44967,21.6503,6.44967,21.6503C6.44967,21.6503,6.98,21.12,6.98,21.12C6.98,21.12,6.98,21.12,6.98,21.12ZM17.02,21.12C17.02,21.12,17.5503,21.6503,17.5503,21.6503C17.5503,21.6503,17.5503,21.6503,17.5503,21.6503C17.5503,21.6503,17.02,21.12,17.02,21.12C17.02,21.12,17.02,21.12,17.02,21.12ZM21.12,17.02C21.12,17.02,20.5897,16.4897,20.5897,16.4897C20.5897,16.4897,20.5897,16.4897,20.5897,16.4897C20.5897,16.4897,21.12,17.02,21.12,17.02C21.12,17.02,21.12,17.02,21.12,17.02ZM21.12,6.98001C21.12,6.98001,20.5897,7.51034,20.5897,7.51034C20.5897,7.51034,20.5897,7.51034,20.5897,7.51034C20.5897,7.51034,21.12,6.98001,21.12,6.98001C21.12,6.98001,21.12,6.98001,21.12,6.98001ZM17.02,2.88001C17.02,2.88001,17.5503,2.34968,17.5503,2.34968C17.5503,2.34968,17.5503,2.34968,17.5503,2.34968C17.5503,2.34968,17.02,2.88001,17.02,2.88001C17.02,2.88001,17.02,2.88001,17.02,2.88001ZM14.9,1.25C14.9,1.25,9.100010000000001,1.25,9.100010000000001,1.25C9.100010000000001,1.25,9.100010000000001,2.75,9.100010000000001,2.75C9.100010000000001,2.75,14.9,2.75,14.9,2.75C14.9,2.75,14.9,1.25,14.9,1.25C14.9,1.25,14.9,1.25,14.9,1.25ZM9.100010000000001,1.25C8.631219999999999,1.25,8.12087,1.383038,7.67718,1.567429C7.23336,1.751873,6.77992,2.019419,6.44967,2.34968C6.44967,2.34968,7.51033,3.41033,7.51033,3.41033C7.66007,3.26059,7.92664,3.08813,8.25282,2.95258C8.579139999999999,2.81696,8.88879,2.75,9.100010000000001,2.75C9.100010000000001,2.75,9.100010000000001,1.25,9.100010000000001,1.25C9.100010000000001,1.25,9.100010000000001,1.25,9.100010000000001,1.25ZM6.44966,2.34968C6.44966,2.34968,2.3496699999999997,6.44968,2.3496699999999997,6.44968C2.3496699999999997,6.44968,3.41034,7.51034,3.41034,7.51034C3.41034,7.51034,7.51033,3.41033,7.51033,3.41033C7.51033,3.41033,6.44966,2.34968,6.44966,2.34968C6.44966,2.34968,6.44966,2.34968,6.44966,2.34968ZM2.34968,6.44968C2.019421,6.77994,1.751875,7.23337,1.5674299999999999,7.67718C1.383038,8.12087,1.25,8.631219999999999,1.25,9.100010000000001C1.25,9.100010000000001,2.75,9.100010000000001,2.75,9.100010000000001C2.75,8.8888,2.81696,8.579139999999999,2.9525699999999997,8.25283C3.08813,7.92665,3.26059,7.66009,3.41033,7.51034C3.41033,7.51034,2.34968,6.44968,2.34968,6.44968C2.34968,6.44968,2.34968,6.44968,2.34968,6.44968ZM1.25,9.100010000000001C1.25,9.100010000000001,1.25,14.9,1.25,14.9C1.25,14.9,2.75,14.9,2.75,14.9C2.75,14.9,2.75,9.100010000000001,2.75,9.100010000000001C2.75,9.100010000000001,1.25,9.100010000000001,1.25,9.100010000000001C1.25,9.100010000000001,1.25,9.100010000000001,1.25,9.100010000000001ZM1.25,14.9C1.25,15.3688,1.383038,15.8791,1.5674299999999999,16.3228C1.751875,16.7666,2.019421,17.220100000000002,2.34968,17.5503C2.34968,17.5503,3.41033,16.4897,3.41033,16.4897C3.26059,16.3399,3.08813,16.0733,2.9525699999999997,15.7472C2.81696,15.4209,2.75,15.1112,2.75,14.9C2.75,14.9,1.25,14.9,1.25,14.9C1.25,14.9,1.25,14.9,1.25,14.9ZM2.3496699999999997,17.5503C2.3496699999999997,17.5503,6.44966,21.6503,6.44966,21.6503C6.44966,21.6503,7.51033,20.5897,7.51033,20.5897C7.51033,20.5897,3.41034,16.4897,3.41034,16.4897C3.41034,16.4897,2.3496699999999997,17.5503,2.3496699999999997,17.5503C2.3496699999999997,17.5503,2.3496699999999997,17.5503,2.3496699999999997,17.5503ZM6.44967,21.6503C6.77992,21.9806,7.23336,22.2481,7.67718,22.4326C8.12087,22.617,8.631219999999999,22.75,9.100010000000001,22.75C9.100010000000001,22.75,9.100010000000001,21.25,9.100010000000001,21.25C8.88879,21.25,8.579139999999999,21.183,8.25282,21.0474C7.92664,20.9119,7.66007,20.7394,7.51033,20.5897C7.51033,20.5897,6.44967,21.6503,6.44967,21.6503C6.44967,21.6503,6.44967,21.6503,6.44967,21.6503ZM9.100010000000001,22.75C9.100010000000001,22.75,14.9,22.75,14.9,22.75C14.9,22.75,14.9,21.25,14.9,21.25C14.9,21.25,9.100010000000001,21.25,9.100010000000001,21.25C9.100010000000001,21.25,9.100010000000001,22.75,9.100010000000001,22.75C9.100010000000001,22.75,9.100010000000001,22.75,9.100010000000001,22.75ZM14.9,22.75C15.3688,22.75,15.8791,22.617,16.3228,22.4326C16.7666,22.2481,17.220100000000002,21.9806,17.5503,21.6503C17.5503,21.6503,16.4897,20.5897,16.4897,20.5897C16.3399,20.7394,16.0734,20.9119,15.7472,21.0474C15.4209,21.183,15.1112,21.25,14.9,21.25C14.9,21.25,14.9,22.75,14.9,22.75C14.9,22.75,14.9,22.75,14.9,22.75ZM17.5503,21.6503C17.5503,21.6503,21.6503,17.5503,21.6503,17.5503C21.6503,17.5503,20.5897,16.4897,20.5897,16.4897C20.5897,16.4897,16.4897,20.5897,16.4897,20.5897C16.4897,20.5897,17.5503,21.6503,17.5503,21.6503C17.5503,21.6503,17.5503,21.6503,17.5503,21.6503ZM21.6503,17.5503C21.9806,17.220100000000002,22.2481,16.7666,22.4326,16.3228C22.617,15.8791,22.75,15.3688,22.75,14.9C22.75,14.9,21.25,14.9,21.25,14.9C21.25,15.1112,21.183,15.4209,21.0474,15.7472C20.9119,16.0733,20.7394,16.3399,20.5897,16.4897C20.5897,16.4897,21.6503,17.5503,21.6503,17.5503C21.6503,17.5503,21.6503,17.5503,21.6503,17.5503ZM22.75,14.9C22.75,14.9,22.75,9.100010000000001,22.75,9.100010000000001C22.75,9.100010000000001,21.25,9.100010000000001,21.25,9.100010000000001C21.25,9.100010000000001,21.25,14.9,21.25,14.9C21.25,14.9,22.75,14.9,22.75,14.9C22.75,14.9,22.75,14.9,22.75,14.9ZM22.75,9.100010000000001C22.75,8.631219999999999,22.617,8.12087,22.4326,7.67718C22.2481,7.23337,21.9806,6.77994,21.6503,6.44968C21.6503,6.44968,20.5897,7.51034,20.5897,7.51034C20.7394,7.66009,20.9119,7.92665,21.0474,8.25283C21.183,8.579139999999999,21.25,8.8888,21.25,9.100010000000001C21.25,9.100010000000001,22.75,9.100010000000001,22.75,9.100010000000001C22.75,9.100010000000001,22.75,9.100010000000001,22.75,9.100010000000001ZM21.6503,6.44968C21.6503,6.44968,17.5503,2.34968,17.5503,2.34968C17.5503,2.34968,16.4897,3.41033,16.4897,3.41033C16.4897,3.41033,20.5897,7.51034,20.5897,7.51034C20.5897,7.51034,21.6503,6.44968,21.6503,6.44968C21.6503,6.44968,21.6503,6.44968,21.6503,6.44968ZM17.5503,2.34968C17.220100000000002,2.019419,16.7666,1.751873,16.3228,1.567429C15.8791,1.383038,15.3688,1.25,14.9,1.25C14.9,1.25,14.9,2.75,14.9,2.75C15.1112,2.75,15.4209,2.81696,15.7472,2.95258C16.0734,3.08813,16.3399,3.26059,16.4897,3.41033C16.4897,3.41033,17.5503,2.34968,17.5503,2.34968C17.5503,2.34968,17.5503,2.34968,17.5503,2.34968Z" fill="#414D73" fill-opacity="1"/></g><g><g><path d="M7.96967,14.96967C7.6767768,15.26256,7.6767768,15.73744,7.96967,16.03033C8.262563,16.32322,8.737437,16.32322,9.03033,16.03033C9.03033,16.03033,7.96967,14.96967,7.96967,14.96967C7.96967,14.96967,7.96967,14.96967,7.96967,14.96967ZM16.03033,9.03033C16.32322,8.737437,16.32322,8.262563,16.03033,7.96967C15.73744,7.6767768,15.26256,7.6767768,14.96967,7.96967C14.96967,7.96967,16.03033,9.03033,16.03033,9.03033C16.03033,9.03033,16.03033,9.03033,16.03033,9.03033ZM9.03033,16.03033C9.03033,16.03033,16.03033,9.03033,16.03033,9.03033C16.03033,9.03033,14.96967,7.96967,14.96967,7.96967C14.96967,7.96967,7.96967,14.96967,7.96967,14.96967C7.96967,14.96967,9.03033,16.03033,9.03033,16.03033C9.03033,16.03033,9.03033,16.03033,9.03033,16.03033Z" fill="#6175AE" fill-opacity="1"/></g><g><path d="M14.96967,16.03033C15.26256,16.32322,15.73744,16.32322,16.03033,16.03033C16.32322,15.73744,16.32322,15.26256,16.03033,14.96967C16.03033,14.96967,14.96967,16.03033,14.96967,16.03033C14.96967,16.03033,14.96967,16.03033,14.96967,16.03033ZM9.03033,7.96967C8.737437,7.6767768,8.262563,7.6767768,7.96967,7.96967C7.6767768,8.262563,7.6767768,8.737437,7.96967,9.03033C7.96967,9.03033,9.03033,7.96967,9.03033,7.96967C9.03033,7.96967,9.03033,7.96967,9.03033,7.96967ZM16.03033,14.96967C16.03033,14.96967,9.03033,7.96967,9.03033,7.96967C9.03033,7.96967,7.96967,9.03033,7.96967,9.03033C7.96967,9.03033,14.96967,16.03033,14.96967,16.03033C14.96967,16.03033,16.03033,14.96967,16.03033,14.96967C16.03033,14.96967,16.03033,14.96967,16.03033,14.96967Z" fill="#6175AE" fill-opacity="1"/></g></g><g style="opacity:0;"></g></g></svg>