<svg xmlns="http://www.w3.org/2000/svg" xmlns:xlink="http://www.w3.org/1999/xlink" fill="none" version="1.1" width="24" height="24" viewBox="0 0 24 24"><g><g><path d="M21.759981005096435,15.92C21.759981005096435,15.92,15.359981005096435,4.4,15.359981005096435,4.4C14.499981005096435,2.85,13.309981005096436,2,11.999981005096435,2C10.690001005096436,2,9.500001005096436,2.85,8.640001005096437,4.4C8.640001005096437,4.4,2.2400000050964355,15.92,2.2400000050964355,15.92C1.4300000050964354,17.39,1.3400000050964356,18.8,1.9900000050964355,19.91C2.6400010050964355,21.02,3.9200010050964353,21.63,5.600001005096436,21.63C5.600001005096436,21.63,18.399981005096436,21.63,18.399981005096436,21.63C20.079981005096435,21.63,21.359981005096436,21.02,22.009981005096435,19.91C22.659981005096437,18.8,22.569981005096434,17.380000000000003,21.759981005096435,15.92C21.759981005096435,15.92,21.759981005096435,15.92,21.759981005096435,15.92Z" fill="#6175AE" fill-opacity="1"/></g><g><path d="M12,14.75C11.59,14.75,11.25,14.41,11.25,14C11.25,14,11.25,9,11.25,9C11.25,8.59,11.59,8.25,12,8.25C12.41,8.25,12.75,8.59,12.75,9C12.75,9,12.75,14,12.75,14C12.75,14.41,12.41,14.75,12,14.75C12,14.75,12,14.75,12,14.75Z" fill="#FFFFFF" fill-opacity="1"/></g><g><path d="M12,18.0000004196167C11.94,18.0000004196167,11.87,17.9900004196167,11.8,17.9800004196167C11.74,17.9700004196167,11.68,17.9500004196167,11.62,17.9200004196167C11.56,17.9000004196167,11.5,17.870000419616698,11.44,17.8300004196167C11.39,17.7900004196167,11.34,17.7500004196167,11.29,17.710000419616698C11.11,17.5200004196167,11,17.2600004196167,11,17.0000004196167C11,16.7400004196167,11.11,16.4800004196167,11.29,16.2900004196167C11.34,16.2500004196167,11.39,16.210000419616698,11.44,16.1700004196167C11.5,16.1300004196167,11.56,16.0999994196167,11.62,16.0799999196167C11.68,16.0499999196167,11.74,16.030000419616698,11.8,16.0200004196167C11.93,15.990000419616699,12.07,15.990000419616699,12.19,16.0200004196167C12.26,16.030000419616698,12.32,16.0499999196167,12.379999999999999,16.0799999196167C12.44,16.0999994196167,12.5,16.1300004196167,12.56,16.1700004196167C12.61,16.210000419616698,12.66,16.2500004196167,12.71,16.2900004196167C12.89,16.4800004196167,13,16.7400004196167,13,17.0000004196167C13,17.2600004196167,12.89,17.5200004196167,12.71,17.710000419616698C12.66,17.7500004196167,12.61,17.7900004196167,12.56,17.8300004196167C12.5,17.870000419616698,12.44,17.9000004196167,12.379999999999999,17.9200004196167C12.32,17.9500004196167,12.26,17.9700004196167,12.19,17.9800004196167C12.129999999999999,17.9900004196167,12.06,18.0000004196167,12,18.0000004196167C12,18.0000004196167,12,18.0000004196167,12,18.0000004196167Z" fill="#FFFFFF" fill-opacity="1"/></g><g style="opacity:0;"></g></g></svg>