<svg xmlns="http://www.w3.org/2000/svg" xmlns:xlink="http://www.w3.org/1999/xlink" fill="none" version="1.1" width="24" height="24" viewBox="0 0 24 24"><g><g><path d="M9,22.75C9,22.75,15,22.75,15,22.75C15,22.75,15,21.25,15,21.25C15,21.25,9,21.25,9,21.25C9,21.25,9,22.75,9,22.75C9,22.75,9,22.75,9,22.75ZM15,22.75C17.574,22.75,19.5709,22.2398,20.9053,20.9053C22.2398,19.5709,22.75,17.574,22.75,15C22.75,15,21.25,15,21.25,15C21.25,17.426,20.7602,18.9291,19.8447,19.8447C18.9291,20.7602,17.426,21.25,15,21.25C15,21.25,15,22.75,15,22.75C15,22.75,15,22.75,15,22.75ZM22.75,15C22.75,15,22.75,9,22.75,9C22.75,9,21.25,9,21.25,9C21.25,9,21.25,15,21.25,15C21.25,15,22.75,15,22.75,15C22.75,15,22.75,15,22.75,15ZM22.75,9C22.75,6.42603,22.2398,4.42914,20.9053,3.09467C19.5709,1.760201,17.574,1.25,15,1.25C15,1.25,15,2.75,15,2.75C17.426,2.75,18.9291,3.2398,19.8447,4.15533C20.7602,5.07086,21.25,6.57397,21.25,9C21.25,9,22.75,9,22.75,9C22.75,9,22.75,9,22.75,9ZM15,1.25C15,1.25,9,1.25,9,1.25C9,1.25,9,2.75,9,2.75C9,2.75,15,2.75,15,2.75C15,2.75,15,1.25,15,1.25C15,1.25,15,1.25,15,1.25ZM9,1.25C6.42603,1.25,4.42914,1.760201,3.09467,3.09467C1.760201,4.42914,1.25,6.42603,1.25,9C1.25,9,2.75,9,2.75,9C2.75,6.57397,3.2398,5.07086,4.15533,4.15533C5.07086,3.2398,6.57397,2.75,9,2.75C9,2.75,9,1.25,9,1.25C9,1.25,9,1.25,9,1.25ZM1.25,9C1.25,9,1.25,15,1.25,15C1.25,15,2.75,15,2.75,15C2.75,15,2.75,9,2.75,9C2.75,9,1.25,9,1.25,9C1.25,9,1.25,9,1.25,9ZM1.25,15C1.25,17.574,1.760201,19.5709,3.09467,20.9053C4.42914,22.2398,6.42603,22.75,9,22.75C9,22.75,9,21.25,9,21.25C6.57397,21.25,5.07086,20.7602,4.15533,19.8447C3.2398,18.9291,2.75,17.426,2.75,15C2.75,15,1.25,15,1.25,15C1.25,15,1.25,15,1.25,15Z" fill="#414D73" fill-opacity="1"/></g><g><g><path d="M17.25,14.5C17.25,14.91421,17.5858,15.25,18,15.25C18.4142,15.25,18.75,14.91421,18.75,14.5C18.75,14.5,17.25,14.5,17.25,14.5C17.25,14.5,17.25,14.5,17.25,14.5ZM5.25,14.5C5.25,14.91421,5.585786,15.25,6,15.25C6.41421,15.25,6.75,14.91421,6.75,14.5C6.75,14.5,5.25,14.5,5.25,14.5C5.25,14.5,5.25,14.5,5.25,14.5ZM17.25,7.75C17.25,7.75,17.25,14.5,17.25,14.5C17.25,14.5,18.75,14.5,18.75,14.5C18.75,14.5,18.75,7.75,18.75,7.75C18.75,7.75,17.25,7.75,17.25,7.75C17.25,7.75,17.25,7.75,17.25,7.75ZM18.75,14.5C18.75,12.98579,17.514200000000002,11.75,16,11.75C16,11.75,16,13.25,16,13.25C16.6858,13.25,17.25,13.81421,17.25,14.5C17.25,14.5,18.75,14.5,18.75,14.5C18.75,14.5,18.75,14.5,18.75,14.5ZM16,11.75C16,11.75,8,11.75,8,11.75C8,11.75,8,13.25,8,13.25C8,13.25,16,13.25,16,13.25C16,13.25,16,11.75,16,11.75C16,11.75,16,11.75,16,11.75ZM8,11.75C6.48579,11.75,5.25,12.98579,5.25,14.5C5.25,14.5,6.75,14.5,6.75,14.5C6.75,13.81421,7.31421,13.25,8,13.25C8,13.25,8,11.75,8,11.75C8,11.75,8,11.75,8,11.75ZM6.75,14.5C6.75,14.5,6.75,7.75,6.75,7.75C6.75,7.75,5.25,7.75,5.25,7.75C5.25,7.75,5.25,14.5,5.25,14.5C5.25,14.5,6.75,14.5,6.75,14.5C6.75,14.5,6.75,14.5,6.75,14.5ZM6.75,7.75C6.75,7.06421,7.31421,6.5,8,6.5C8,6.5,8,5,8,5C6.48579,5,5.25,6.23579,5.25,7.75C5.25,7.75,6.75,7.75,6.75,7.75C6.75,7.75,6.75,7.75,6.75,7.75ZM8,6.5C8,6.5,16,6.5,16,6.5C16,6.5,16,5,16,5C16,5,8,5,8,5C8,5,8,6.5,8,6.5C8,6.5,8,6.5,8,6.5ZM16,6.5C16.6858,6.5,17.25,7.06421,17.25,7.75C17.25,7.75,18.75,7.75,18.75,7.75C18.75,6.23579,17.514200000000002,5,16,5C16,5,16,6.5,16,6.5C16,6.5,16,6.5,16,6.5Z" fill="#6175AE" fill-opacity="1"/></g><g><path d="M19,16.5C19.41421,16.5,19.75,16.16421,19.75,15.75C19.75,15.335786,19.41421,15,19,15C19,15,19,16.5,19,16.5C19,16.5,19,16.5,19,16.5ZM18,15C17.585786,15,17.25,15.335786,17.25,15.75C17.25,16.16421,17.585786,16.5,18,16.5C18,16.5,18,15,18,15C18,15,18,15,18,15ZM19,15C19,15,18,15,18,15C18,15,18,16.5,18,16.5C18,16.5,19,16.5,19,16.5C19,16.5,19,15,19,15C19,15,19,15,19,15Z" fill="#6175AE" fill-opacity="1"/></g><g><path d="M6,16.5C6.414210000000001,16.5,6.75,16.16421,6.75,15.75C6.75,15.335786,6.414210000000001,15,6,15C6,15,6,16.5,6,16.5C6,16.5,6,16.5,6,16.5ZM5,15C4.585786,15,4.25,15.335786,4.25,15.75C4.25,16.16421,4.585786,16.5,5,16.5C5,16.5,5,15,5,15C5,15,5,15,5,15ZM6,15C6,15,5,15,5,15C5,15,5,16.5,5,16.5C5,16.5,6,16.5,6,16.5C6,16.5,6,15,6,15C6,15,6,15,6,15Z" fill="#6175AE" fill-opacity="1"/></g><g><path d="M17.25,14C17.25,14.41421,17.5858,14.75,18,14.75C18.4142,14.75,18.75,14.41421,18.75,14C18.75,14,17.25,14,17.25,14C17.25,14,17.25,14,17.25,14ZM5.25,14C5.25,14.41421,5.585786,14.75,6,14.75C6.41421,14.75,6.75,14.41421,6.75,14C6.75,14,5.25,14,5.25,14C5.25,14,5.25,14,5.25,14ZM18.75,14C18.75,14,18.75,11,18.75,11C18.75,11,17.25,11,17.25,11C17.25,11,17.25,14,17.25,14C17.25,14,18.75,14,18.75,14C18.75,14,18.75,14,18.75,14ZM18.75,11C18.75,9.48579,17.514200000000002,8.25,16,8.25C16,8.25,16,9.75,16,9.75C16.6858,9.75,17.25,10.31421,17.25,11C17.25,11,18.75,11,18.75,11C18.75,11,18.75,11,18.75,11ZM16,8.25C16,8.25,8,8.25,8,8.25C8,8.25,8,9.75,8,9.75C8,9.75,16,9.75,16,9.75C16,9.75,16,8.25,16,8.25C16,8.25,16,8.25,16,8.25ZM8,8.25C6.48579,8.25,5.25,9.48579,5.25,11C5.25,11,6.75,11,6.75,11C6.75,10.31421,7.31421,9.75,8,9.75C8,9.75,8,8.25,8,8.25C8,8.25,8,8.25,8,8.25ZM5.25,11C5.25,11,5.25,14,5.25,14C5.25,14,6.75,14,6.75,14C6.75,14,6.75,11,6.75,11C6.75,11,5.25,11,5.25,11C5.25,11,5.25,11,5.25,11Z" fill="#6175AE" fill-opacity="1"/></g><g><path d="M18,15.75C18,15.75,18,16.5,18,16.5C18.4142,16.5,18.75,16.16421,18.75,15.75C18.75,15.75,18,15.75,18,15.75C18,15.75,18,15.75,18,15.75ZM14.5,15.75C14.5,15.75,14.5,15,14.5,15C14.08579,15,13.75,15.33579,13.75,15.75C13.75,15.75,14.5,15.75,14.5,15.75C14.5,15.75,14.5,15.75,14.5,15.75ZM9.5,15.75C9.5,15.75,10.25,15.75,10.25,15.75C10.25,15.33579,9.91421,15,9.5,15C9.5,15,9.5,15.75,9.5,15.75C9.5,15.75,9.5,15.75,9.5,15.75ZM6,15.75C6,15.75,5.25,15.75,5.25,15.75C5.25,16.16421,5.585786,16.5,6,16.5C6,16.5,6,15.75,6,15.75C6,15.75,6,15.75,6,15.75ZM17.25,14.5C17.25,14.5,17.25,15.75,17.25,15.75C17.25,15.75,18.75,15.75,18.75,15.75C18.75,15.75,18.75,14.5,18.75,14.5C18.75,14.5,17.25,14.5,17.25,14.5C17.25,14.5,17.25,14.5,17.25,14.5ZM18,15C18,15,14.5,15,14.5,15C14.5,15,14.5,16.5,14.5,16.5C14.5,16.5,18,16.5,18,16.5C18,16.5,18,15,18,15C18,15,18,15,18,15ZM13.75,15.75C13.75,16.71579,12.96579,17.5,12,17.5C12,17.5,12,19,12,19C13.79421,19,15.25,17.54421,15.25,15.75C15.25,15.75,13.75,15.75,13.75,15.75C13.75,15.75,13.75,15.75,13.75,15.75ZM12,17.5C11.03421,17.5,10.25,16.71579,10.25,15.75C10.25,15.75,8.75,15.75,8.75,15.75C8.75,17.54421,10.20579,19,12,19C12,19,12,17.5,12,17.5C12,17.5,12,17.5,12,17.5ZM9.5,15C9.5,15,6,15,6,15C6,15,6,16.5,6,16.5C6,16.5,9.5,16.5,9.5,16.5C9.5,16.5,9.5,15,9.5,15C9.5,15,9.5,15,9.5,15ZM6.75,15.75C6.75,15.75,6.75,14.5,6.75,14.5C6.75,14.5,5.25,14.5,5.25,14.5C5.25,14.5,5.25,15.75,5.25,15.75C5.25,15.75,6.75,15.75,6.75,15.75C6.75,15.75,6.75,15.75,6.75,15.75ZM6.75,14.5C6.75,13.81421,7.31421,13.25,8,13.25C8,13.25,8,11.75,8,11.75C6.48579,11.75,5.25,12.98579,5.25,14.5C5.25,14.5,6.75,14.5,6.75,14.5C6.75,14.5,6.75,14.5,6.75,14.5ZM8,13.25C8,13.25,16,13.25,16,13.25C16,13.25,16,11.75,16,11.75C16,11.75,8,11.75,8,11.75C8,11.75,8,13.25,8,13.25C8,13.25,8,13.25,8,13.25ZM16,13.25C16.6858,13.25,17.25,13.81421,17.25,14.5C17.25,14.5,18.75,14.5,18.75,14.5C18.75,12.98579,17.514200000000002,11.75,16,11.75C16,11.75,16,13.25,16,13.25C16,13.25,16,13.25,16,13.25Z" fill="#6175AE" fill-opacity="1"/></g></g><g style="opacity:0;"></g></g></svg>