<svg xmlns="http://www.w3.org/2000/svg" xmlns:xlink="http://www.w3.org/1999/xlink" fill="none" version="1.1" width="54" height="54" viewBox="0 0 54 54"><defs><clipPath id="master_svg0_130_10656"><rect x="0" y="0" width="54" height="54" rx="0"/></clipPath><linearGradient x1="-0.00011685011850204319" y1="0.5007794499397278" x2="0.9997547268867493" y2="0.5007794499397278" id="master_svg1_122_7320"><stop offset="0.28901700861752033%" stop-color="#FFD44F" stop-opacity="1"/><stop offset="100%" stop-color="#FFA607" stop-opacity="1"/></linearGradient><linearGradient x1="0.23627904057502747" y1="0.3522275686264038" x2="0.592194139957428" y2="0.6677212119102478" id="master_svg2_122_7316"><stop offset="0%" stop-color="#FAA404" stop-opacity="1"/><stop offset="100%" stop-color="#FF7904" stop-opacity="0"/></linearGradient><linearGradient x1="0.953190803527832" y1="0.9848911762237549" x2="0.0839153379201889" y2="0.20181915163993835" id="master_svg3_122_1469"><stop offset="0%" stop-color="#FFE491" stop-opacity="1"/><stop offset="100%" stop-color="#FFFFFF" stop-opacity="1"/></linearGradient><linearGradient x1="0.0007597955991514027" y1="0.5019533038139343" x2="1.0004335641860962" y2="0.5019533038139343" id="master_svg4_122_1495"><stop offset="0.28901700861752033%" stop-color="#FFD44F" stop-opacity="1"/><stop offset="100%" stop-color="#FFA607" stop-opacity="1"/></linearGradient><linearGradient x1="0.25720277428627014" y1="0.37520915269851685" x2="0.603676974773407" y2="0.6702834367752075" id="master_svg5_122_1460"><stop offset="0%" stop-color="#FAA404" stop-opacity="1"/><stop offset="100%" stop-color="#FF7904" stop-opacity="0"/></linearGradient><linearGradient x1="0.9200341105461121" y1="0.8188563585281372" x2="0.13919393718242645" y2="0.20620916783809662" id="master_svg6_122_7298"><stop offset="0%" stop-color="#FFE491" stop-opacity="1"/><stop offset="100%" stop-color="#FFFFFF" stop-opacity="1"/></linearGradient></defs><g clip-path="url(#master_svg0_130_10656)"><g><g><path d="M48.9897158493042,28.412041271209716Q48.9897158493042,28.953341271209716,48.9632158493042,29.493941271209717Q48.9367158493042,30.03464127120972,48.8838158493042,30.573341271209717Q48.8309158493042,31.112041271209716,48.7517158493042,31.64744127120972Q48.6725158493042,32.182941271209714,48.5672158493042,32.713841271209716Q48.4619158493042,33.24474127120972,48.3308158493042,33.769841271209714Q48.1997158493042,34.294941271209716,48.0430158493042,34.812941271209716Q47.8864158493042,35.33094127120972,47.7045158493042,35.840541271209716Q47.5227158493042,36.35024127120972,47.3162158493042,36.850341271209714Q47.1097158493042,37.35044127120972,46.8789158493042,37.83974127120972Q46.6482158493042,38.32914127120972,46.3938158493042,38.80654127120972Q46.1394158493042,39.28394127120972,45.8619158493042,39.748241271209714Q45.584515849304196,40.21244127120972,45.2846158493042,40.66254127120972Q44.9848158493042,41.11264127120972,44.6633158493042,41.54744127120971Q44.3418158493042,41.982241271209716,43.9994158493042,42.400641271209714Q43.6571158493042,42.819141271209716,43.2946158493042,43.22014127120972Q42.9322158493042,43.62124127120972,42.5506158493042,44.004041271209715Q42.1690158493042,44.386741271209715,41.7691158493042,44.75034127120972Q41.3692158493042,45.113841271209715,40.952015849304196,45.45724127120972Q40.5348158493042,45.80064127120972,40.1013158493042,46.123041271209715Q39.6679158493042,46.44554127120972,39.2191158493042,46.74624127120972Q38.7704158493042,47.047041271209714,38.3075158493042,47.325341271209716Q37.8446158493042,47.603541271209714,37.3686158493042,47.858741271209716Q36.892715849304196,48.11394127120972,36.4048158493042,48.34534127120972Q35.9169158493042,48.576841271209716,35.4183158493042,48.78394127120972Q34.9197158493042,48.99114127120972,34.4116158493042,49.17344127120972Q33.903415849304196,49.35584127120972,33.3870158493042,49.51294127120972Q32.8705158493042,49.670141271209715,32.3470158493042,49.80164127120972Q31.8235158493042,49.93314127120971,31.294215849304198,50.038741271209716Q30.7649158493042,50.14434127120972,30.2310158493042,50.223841271209714Q29.6972158493042,50.303241271209714,29.160115849304198,50.35624127120972Q28.6230158493042,50.40934127120972,28.084015849304198,50.43584127120972Q27.5449158493042,50.46244127120972,27.0052158493042,50.46244127120972Q26.4655158493042,50.46244127120972,25.9265158493042,50.435941271209714Q25.3875158493042,50.40934127120972,24.8504158493042,50.35624127120972Q24.3133158493042,50.303241271209714,23.7794158493042,50.223841271209714Q23.245615849304198,50.14434127120972,22.7163158493042,50.038741271209716Q22.1870158493042,49.93314127120971,21.6634158493042,49.80164127120972Q21.1399158493042,49.670141271209715,20.623515849304198,49.51294127120972Q20.107015849304197,49.35584127120972,19.5989158493042,49.17344127120972Q19.0908158493042,48.99114127120972,18.5922158493042,48.78394127120972Q18.093515849304197,48.576841271209716,17.605715849304197,48.34534127120972Q17.1178158493042,48.11394127120972,16.6418158493042,47.858741271209716Q16.1659158493042,47.60364127120972,15.7030158493042,47.325341271209716Q15.2401158493042,47.047041271209714,14.7913458493042,46.74624127120972Q14.342615849304199,46.44554127120972,13.9091358493042,46.123041271209715Q13.4756558493042,45.80064127120972,13.058465849304199,45.45724127120972Q12.6412858493042,45.113841271209715,12.241405849304199,44.75034127120972Q11.8415258493042,44.386741271209715,11.4599058493042,44.004041271209715Q11.0782858493042,43.62124127120972,10.715855849304198,43.22014127120972Q10.353425849304198,42.819141271209716,10.0110558493042,42.400641271209714Q9.668675849304199,41.982241271209716,9.3471858493042,41.54744127120971Q9.0256958493042,41.11264127120972,8.7258558493042,40.66254127120972Q8.4260258493042,40.21244127120972,8.1485758493042,39.748241271209714Q7.871115849304199,39.28394127120972,7.616705849304199,38.80654127120972Q7.3623058493041995,38.32914127120972,7.131555849304199,37.83974127120972Q6.9008058493041995,37.35044127120972,6.6942758493042,36.850341271209714Q6.487755849304199,36.35024127120972,6.305935849304199,35.840541271209716Q6.1241258493042,35.33094127120972,5.967457849304199,34.812941271209716Q5.810794849304199,34.294941271209716,5.6796618493042,33.769841271209714Q5.548527849304199,33.24474127120972,5.443240849304199,32.713841271209716Q5.337952849304199,32.182941271209714,5.2587638493041995,31.64744127120972Q5.179575849304199,31.112041271209716,5.126676849304199,30.573341271209717Q5.073778249304199,30.03464127120972,5.047297049304199,29.493941271209717Q5.020815849304199,28.953341271209716,5.020815849304199,28.412041271209716Q5.020815849304199,27.870641271209717,5.047297049304199,27.330041271209716Q5.073778249304199,26.789341271209718,5.126676849304199,26.250641271209716Q5.179575849304199,25.711941271209717,5.2587638493041995,25.176541271209718Q5.337952849304199,24.641041271209716,5.443240849304199,24.110141271209717Q5.548527849304199,23.579241271209717,5.6796618493042,23.054141271209716Q5.810794849304199,22.529041271209717,5.967457849304199,22.011041271209717Q6.1241258493042,21.49304127120972,6.305935849304199,20.983441271209717Q6.487755849304199,20.473741271209718,6.6942758493042,19.973641271209715Q6.9008058493041995,19.47354127120972,7.131555849304199,18.98424127120972Q7.3623058493041995,18.494841271209715,7.616705849304199,18.01744127120972Q7.871115849304199,17.540041271209716,8.148565849304198,17.07584127120972Q8.4260258493042,16.611541271209717,8.7258558493042,16.16142127120972Q9.0256958493042,15.711341271209717,9.3471858493042,15.276551271209717Q9.668675849304199,14.841771271209717,10.0110558493042,14.423331271209717Q10.353425849304198,14.004901271209718,10.715855849304198,13.603811271209718Q11.0782858493042,13.202731271209718,11.4599058493042,12.819971271209717Q11.8415258493042,12.437211271209716,12.241405849304199,12.073691271209718Q12.6412858493042,11.710161271209717,13.058465849304199,11.366761271209716Q13.4756558493042,11.023361271209716,13.9091358493042,10.700901271209716Q14.342615849304199,10.378451271209716,14.7913558493042,10.077711271209717Q15.2401158493042,9.776981271209717,15.7030158493042,9.498691271209717Q16.1659158493042,9.220401271209717,16.6418158493042,8.965231271209717Q17.1178158493042,8.710061271209717,17.605715849304197,8.478621271209716Q18.093515849304197,8.247181271209717,18.5922158493042,8.040031271209717Q19.0908158493042,7.8328812712097164,19.5989158493042,7.650521271209717Q20.107015849304197,7.468161271209716,20.623515849304198,7.311026271209717Q21.1399158493042,7.153893271209717,21.6634158493042,7.022365271209717Q22.1870158493042,6.8908382712097165,22.7163158493042,6.785234271209717Q23.245615849304198,6.679630271209716,23.7794158493042,6.600204271209717Q24.3133158493042,6.520777271209717,24.8504158493042,6.467720271209717Q25.3875158493042,6.414662771209716,25.9265158493042,6.388101971209717Q26.4655158493042,6.361541271209717,27.0052158493042,6.361541271209717Q27.5449158493042,6.361541271209717,28.084015849304198,6.388101971209717Q28.6230158493042,6.414662771209716,29.160115849304198,6.467720271209717Q29.6972158493042,6.520777271209717,30.2310158493042,6.600204271209717Q30.7649158493042,6.679630271209716,31.294215849304198,6.785234271209717Q31.8235158493042,6.8908382712097165,32.3470158493042,7.022366271209717Q32.8705158493042,7.153893271209717,33.3870158493042,7.311026271209717Q33.903415849304196,7.468161271209716,34.4116158493042,7.650521271209717Q34.9197158493042,7.8328812712097164,35.4183158493042,8.040031271209717Q35.9169158493042,8.247181271209717,36.4048158493042,8.478621271209716Q36.892715849304196,8.710061271209717,37.3686158493042,8.965231271209717Q37.8446158493042,9.220401271209717,38.3075158493042,9.498691271209717Q38.7704158493042,9.776981271209717,39.2191158493042,10.077711271209717Q39.6679158493042,10.378451271209716,40.1013158493042,10.700901271209716Q40.5348158493042,11.023361271209716,40.952015849304196,11.366761271209716Q41.3692158493042,11.710161271209717,41.7691158493042,12.073691271209718Q42.1690158493042,12.437211271209716,42.5506158493042,12.819971271209717Q42.9322158493042,13.202731271209718,43.2946158493042,13.603811271209718Q43.6570158493042,14.004901271209718,43.9994158493042,14.423331271209717Q44.3418158493042,14.841771271209717,44.6633158493042,15.276551271209717Q44.9848158493042,15.711341271209717,45.2846158493042,16.16142127120972Q45.5844158493042,16.611541271209717,45.8619158493042,17.07584127120972Q46.1394158493042,17.540141271209716,46.3938158493042,18.01744127120972Q46.6482158493042,18.494841271209715,46.8789158493042,18.98424127120972Q47.1097158493042,19.47354127120972,47.3162158493042,19.973641271209715Q47.5227158493042,20.473741271209718,47.7045158493042,20.983441271209717Q47.8863158493042,21.49304127120972,48.0430158493042,22.011041271209717Q48.1997158493042,22.529041271209717,48.3308158493042,23.054141271209716Q48.4619158493042,23.579241271209717,48.5672158493042,24.110141271209717Q48.6725158493042,24.641041271209716,48.7517158493042,25.176541271209718Q48.8309158493042,25.711941271209717,48.8838158493042,26.250641271209716Q48.9367158493042,26.789341271209718,48.9632158493042,27.330041271209716Q48.9897158493042,27.870641271209717,48.9897158493042,28.412041271209716Z" fill="#2D5887" fill-opacity="1"/></g><g><path d="M36.08670523681641,28.411991947021484Q36.08670523681641,28.635601947021485,36.075705236816404,28.858931947021482Q36.064805236816404,29.082271947021482,36.043005236816406,29.304801947021485Q36.02110523681641,29.527301947021485,35.988405236816405,29.748501947021484Q35.95570523681641,29.969701947021484,35.912205236816405,30.189001947021485Q35.86870523681641,30.408301947021485,35.8145052368164,30.625201947021484Q35.76040523681641,30.842101947021483,35.695605236816405,31.056101947021485Q35.6309052368164,31.270101947021484,35.55580523681641,31.480601947021484Q35.480705236816405,31.691101947021487,35.3954052368164,31.897701947021485Q35.310105236816405,32.10430194702148,35.2148052368164,32.306401947021484Q35.119405236816405,32.50860194702148,35.0144052368164,32.705801947021484Q34.90930523681641,32.90300194702149,34.794705236816405,33.094701947021484Q34.680005236816406,33.286501947021485,34.55620523681641,33.472501947021485Q34.432305236816404,33.65840194702149,34.2995052368164,33.83800194702148Q34.166705236816405,34.01760194702148,34.02530523681641,34.190401947021485Q33.8839052368164,34.36330194702148,33.734105236816404,34.529001947021484Q33.58440523681641,34.69460194702148,33.426805236816406,34.85270194702149Q33.26910523681641,35.01090194702148,33.104005236816405,35.16100194702148Q32.93880523681641,35.31120194702149,32.766405236816404,35.453001947021484Q32.594105236816404,35.594901947021484,32.415005236816405,35.728101947021486Q32.23600523681641,35.86130194702149,32.05060523681641,35.98550194702148Q31.865305236816404,36.109701947021485,31.674005236816406,36.22470194702149Q31.482805236816404,36.339601947021485,31.286205236816407,36.445101947021485Q31.089605236816407,36.55050194702149,30.888105236816408,36.646101947021485Q30.68650523681641,36.74170194702148,30.48060523681641,36.827201947021486Q30.274605236816406,36.912801947021485,30.06470523681641,36.988101947021484Q29.854805236816404,37.063501947021486,29.641405236816404,37.12840194702149Q29.428105236816407,37.19330194702148,29.211805236816407,37.24760194702148Q28.995605236816406,37.301901947021484,28.776905236816404,37.345601947021486Q28.558305236816405,37.38920194702148,28.337805236816408,37.422001947021485Q28.117205236816407,37.45480194702148,27.895385236816406,37.47670194702148Q27.673515236816407,37.498601947021484,27.450855236816405,37.50960194702148Q27.228185236816408,37.52060194702148,27.005245236816407,37.52060194702148Q26.782305236816406,37.52060194702148,26.559635236816405,37.50960194702148Q26.336975236816407,37.498601947021484,26.115105236816404,37.47670194702148Q25.893245236816405,37.45480194702148,25.672725236816405,37.422001947021485Q25.452195236816408,37.38920194702148,25.233545236816404,37.345601947021486Q25.014895236816407,37.301901947021484,24.798635236816406,37.24760194702148Q24.582385236816407,37.19330194702148,24.369045236816405,37.12840194702149Q24.155705236816406,37.063501947021486,23.945805236816405,36.988101947021484Q23.735895236816408,36.912801947021485,23.529925236816407,36.827201947021486Q23.323965236816406,36.74170194702148,23.122425236816404,36.646101947021485Q22.920895236816406,36.55050194702149,22.724285236816407,36.445101947021485Q22.527675236816407,36.33970194702148,22.336455236816406,36.22470194702149Q22.145235236816404,36.109701947021485,21.959865236816405,35.98550194702148Q21.774505236816406,35.86130194702149,21.595435236816407,35.728101947021486Q21.416375236816407,35.594901947021484,21.244045236816405,35.453001947021484Q21.071705236816406,35.31120194702149,20.906525236816407,35.16100194702148Q20.741335236816408,35.01090194702148,20.583695236816407,34.85270194702149Q20.426055236816406,34.69460194702148,20.276345236816407,34.529001947021484Q20.126625236816405,34.36330194702148,19.985195236816406,34.190401947021485Q19.843765236816406,34.01760194702148,19.710965236816406,33.83800194702148Q19.578165236816407,33.65840194702149,19.454305236816406,33.472501947021485Q19.330445236816406,33.286501947021485,19.215835236816407,33.094701947021484Q19.101225236816408,32.90300194702149,18.996125236816408,32.705801947021484Q18.891038236816406,32.50860194702148,18.795720236816408,32.306401947021484Q18.700403236816406,32.10430194702148,18.615088236816405,31.897701947021485Q18.529774236816408,31.691101947021487,18.454669236816407,31.480601947021484Q18.379564236816407,31.270101947021484,18.314849236816407,31.056101947021485Q18.250134236816407,30.842101947021483,18.195964236816405,30.625201947021484Q18.141795236816407,30.408301947021485,18.098302236816405,30.189001947021485Q18.054809236816407,29.969701947021484,18.022098136816407,29.748501947021484Q17.989386436816407,29.527301947021485,17.967534836816405,29.304801947021485Q17.945683236816407,29.082271947021482,17.934744236816407,28.858931947021482Q17.923805236816406,28.635601947021485,17.923805236816406,28.411991947021484Q17.923805236816406,28.188391947021486,17.934744236816407,27.965061947021482Q17.945683236816407,27.74172194702148,17.967534836816405,27.519201947021486Q17.989386436816407,27.296671947021483,18.022098136816407,27.075491947021483Q18.054809236816407,26.854301947021483,18.098302236816405,26.635001947021486Q18.141795236816407,26.415691947021486,18.195964236816405,26.198791947021483Q18.250134236816407,25.981881947021485,18.314849236816407,25.767911947021485Q18.379564236816407,25.553931947021486,18.454669236816407,25.343401947021484Q18.529774236816408,25.132871947021485,18.615088236816405,24.926291947021483Q18.700403236816406,24.719701947021484,18.795720236816408,24.517571947021484Q18.891038236816406,24.315431947021484,18.996125236816408,24.118231947021485Q19.101225236816408,23.921031947021483,19.215835236816407,23.729241947021485Q19.330445236816406,23.537451947021484,19.454305236816406,23.351531947021485Q19.578165236816407,23.165611947021485,19.710965236816406,22.986011947021485Q19.843765236816406,22.806411947021484,19.985195236816406,22.633561947021484Q20.126625236816405,22.460721947021483,20.276345236816407,22.295041947021485Q20.426055236816406,22.129361947021483,20.583695236816407,21.971251947021486Q20.741335236816408,21.813131947021486,20.906525236816407,21.662971947021486Q21.071705236816406,21.512811947021483,21.244045236816405,21.370961947021485Q21.416375236816407,21.229101947021483,21.595435236816407,21.095901947021485Q21.774505236816406,20.962701947021486,21.959865236816405,20.838471947021485Q22.145235236816404,20.714251947021484,22.336455236816406,20.599291947021484Q22.527675236816407,20.484341947021484,22.724285236816407,20.378931947021485Q22.920895236816406,20.273526947021484,23.122425236816404,20.177923947021483Q23.323965236816406,20.082321947021484,23.529925236816407,19.996751947021483Q23.735895236816408,19.911182947021484,23.945805236816405,19.835852947021486Q24.155705236816406,19.760523947021483,24.369045236816405,19.695614947021486Q24.582385236816407,19.630705947021486,24.798635236816406,19.576374947021485Q25.014895236816407,19.522043947021483,25.233545236816404,19.478420947021483Q25.452195236816408,19.434797947021483,25.672725236816405,19.401988747021484Q25.893245236816405,19.369179247021485,26.115105236816404,19.347262347021484Q26.336975236816407,19.325345347021486,26.559635236816405,19.314373647021483Q26.782305236816406,19.303401947021484,27.005245236816407,19.303401947021484Q27.228185236816408,19.303401947021484,27.450855236816405,19.314373647021483Q27.673515236816407,19.325345347021486,27.895385236816406,19.347262347021484Q28.117205236816407,19.369179247021485,28.337805236816408,19.401988747021484Q28.558305236816405,19.434797947021483,28.776905236816404,19.478420947021483Q28.995605236816406,19.522043947021483,29.211805236816407,19.576374947021485Q29.428105236816407,19.630705947021486,29.641405236816404,19.695614947021486Q29.854805236816404,19.760523947021483,30.06470523681641,19.835852947021486Q30.274605236816406,19.911182947021484,30.48060523681641,19.996751947021483Q30.68650523681641,20.082321947021484,30.888105236816408,20.177923947021483Q31.089605236816407,20.273526947021484,31.286205236816407,20.378931947021485Q31.482805236816404,20.484341947021484,31.674005236816406,20.599291947021484Q31.865305236816404,20.714251947021484,32.05060523681641,20.838471947021485Q32.23600523681641,20.962701947021486,32.415005236816405,21.095901947021485Q32.594105236816404,21.229101947021483,32.766405236816404,21.370961947021485Q32.93880523681641,21.512811947021483,33.104005236816405,21.662971947021486Q33.26910523681641,21.813131947021486,33.426805236816406,21.971251947021486Q33.58440523681641,22.129361947021483,33.734105236816404,22.295041947021485Q33.8839052368164,22.460721947021483,34.02530523681641,22.633561947021484Q34.166705236816405,22.806411947021484,34.2995052368164,22.986011947021485Q34.432305236816404,23.165611947021485,34.55620523681641,23.351531947021485Q34.680005236816406,23.537451947021484,34.794705236816405,23.729241947021485Q34.90930523681641,23.921031947021483,35.0144052368164,24.118231947021485Q35.119405236816405,24.315431947021484,35.2148052368164,24.517571947021484Q35.310105236816405,24.719701947021484,35.3954052368164,24.926291947021483Q35.480705236816405,25.132871947021485,35.55580523681641,25.343401947021484Q35.6309052368164,25.553931947021486,35.695605236816405,25.767911947021485Q35.76040523681641,25.981881947021485,35.8145052368164,26.198791947021483Q35.86870523681641,26.415691947021486,35.912205236816405,26.635001947021486Q35.95570523681641,26.854301947021483,35.988405236816405,27.075491947021483Q36.02110523681641,27.296671947021483,36.043005236816406,27.519201947021486Q36.064805236816404,27.74172194702148,36.075705236816404,27.965061947021482Q36.08670523681641,28.188391947021486,36.08670523681641,28.411991947021484Z" fill="#FFFFFF" fill-opacity="1"/></g><g><path d="M40.278068333496094,24.49514195239258Q40.26566933349609,24.428681952392576,40.26566933349609,24.353834952392578Q40.26566933349609,24.42503195239258,40.278068333496094,24.49514195239258ZM40.29954533349609,24.585844952392577Q40.220687333496095,24.401462952392578,40.220687333496095,24.218717952392577Q40.220687333496095,24.138796852392577,40.23627933349609,24.06041124239258Q40.25187033349609,23.982025552392578,40.282455333496095,23.908187952392577Q40.31304033349609,23.83434995239258,40.35744133349609,23.767897952392577Q40.401843333496096,23.70144595239258,40.45835633349609,23.64493295239258Q40.514869333496094,23.588419952392577,40.58132133349609,23.54401795239258Q40.64777333349609,23.499615952392578,40.72161133349609,23.469031952392577Q40.79544903349609,23.438446952392578,40.873834633496095,23.422854952392576Q40.95222033349609,23.40726395239258,41.03214133349609,23.40726295239258Q41.09717733349609,23.40726295239258,41.16138233349609,23.41762195239258Q41.225587333496094,23.42797995239258,41.2873233334961,23.44843195239258Q41.34905933349609,23.468883952392577,41.406749333496094,23.498907952392578Q41.46444033349609,23.528930952392578,41.51661233349609,23.567759952392578Q41.56878433349609,23.606588952392578,41.614106333496096,23.65323095239258Q41.659428333496095,23.69987395239258,41.6967423334961,23.75313895239258Q41.7340573334961,23.80640495239258,41.762412333496094,23.86493395239258Q41.790766333496094,23.92346195239258,41.80943733349609,23.98576005239258Q41.8885793334961,24.17061795239258,41.8885793334961,24.353834952392578Q41.8885793334961,24.433755952392577,41.87298933349609,24.512140952392578Q41.85739933349609,24.59052695239258,41.82681033349609,24.664364952392578Q41.796225333496096,24.73820195239258,41.751824333496096,24.80465495239258Q41.70742233349609,24.871106952392577,41.650909333496095,24.92761995239258Q41.59439633349609,24.984131952392577,41.527944333496094,25.02853395239258Q41.461492333496096,25.07293495239258,41.387654333496094,25.10352495239258Q41.31381633349609,25.13410495239258,41.235431333496095,25.14969495239258Q41.15704533349609,25.16528495239258,41.077124333496094,25.16528495239258Q41.012026333496095,25.16528495239258,40.947761333496096,25.154914952392577Q40.88349653349609,25.14453495239258,40.82170783349609,25.124044952392577Q40.75991913349609,25.103554952392578,40.70218733349609,25.07347495239258Q40.6444553334961,25.04339495239258,40.59225733349609,25.00449795239258Q40.54005833349609,24.965599952392576,40.494729333496096,24.918877952392577Q40.449399333496096,24.87215595239258,40.41209733349609,24.818805952392577Q40.37479633349609,24.765454952392577,40.3464773334961,24.706839952392578Q40.318157333496096,24.648224952392578,40.29954533349609,24.585844952392577ZM41.83078733349609,24.07510895239258Q41.843599333496094,24.146336652392577,41.843599333496094,24.218706952392576Q41.843599333496094,24.14258685239258,41.83078733349609,24.07510895239258Z" fill-rule="evenodd" fill="#D1DCFF" fill-opacity="1"/></g><g><path d="M36.0524420123291,17.81069303039551Q37.9622420123291,19.452573030395506,39.1478820123291,21.670093030395506Q39.1855620123291,21.74057303039551,39.2362720123291,21.80234303039551Q39.286982012329105,21.864113030395508,39.3487720123291,21.914813030395507Q39.4105520123291,21.965503030395507,39.4810420123291,22.00317303039551Q39.551532012329105,22.040833030395508,39.6280120123291,22.064023030395507Q39.7044920123291,22.087213030395507,39.7840320123291,22.09504303039551Q39.8635720123291,22.102863030395508,39.9431120123291,22.09502303039551Q40.0226420123291,22.087183030395508,40.099122012329104,22.06397303039551Q40.1756020123291,22.040763030395507,40.2460820123291,22.00307303039551Q40.3884220123291,21.92697303039551,40.4908020123291,21.802193030395507Q40.5931820123291,21.677403030395507,40.6400120123291,21.52294303039551Q40.6868520123291,21.36848303039551,40.6710120123291,21.20785303039551Q40.6551720123291,21.047223030395507,40.5790620123291,20.90488303039551Q39.2503520123291,18.41975303039551,37.1104420123291,16.580053030395508Q34.9412220123291,14.715152030395508,32.2201430123291,13.758160030395508Q32.1447490123291,13.731644030395508,32.0656300123291,13.720346030395508Q31.986511012329103,13.709049030395509,31.906708412329102,13.713403030395508Q31.8269060123291,13.717758030395508,31.7494860123291,13.737598030395509Q31.6720660123291,13.757438030395507,31.600005012329103,13.792000030395508Q31.5279430123291,13.826563030395508,31.4640090123291,13.874519030395508Q31.4000750123291,13.922476030395508,31.3467260123291,13.981984030395507Q31.2933760123291,14.041493030395507,31.252661012329103,14.110265030395508Q31.211945012329103,14.179038030395509,31.185430012329103,14.254432030395508Q31.1318780123291,14.406698030395507,31.140673012329103,14.567866930395509Q31.149468012329102,14.729035030395508,31.2192700123291,14.874570030395509Q31.289071012329103,15.020105030395507,31.4092540123291,15.127849030395508Q31.5294360123291,15.235593030395508,31.6817020123291,15.289144030395509Q34.1147520123291,16.144843030395506,36.0524420123291,17.81069303039551Z" fill-rule="evenodd" fill="#D1DCFF" fill-opacity="1"/></g><g><path d="M32.13614822143555,14.604283032836914L33.95200822143555,13.773484032836913Q34.02467822143555,13.740233032836914,34.089468221435546,13.693443032836914Q34.154268221435544,13.646652032836915,34.20867822143555,13.588120032836914Q34.26309822143555,13.529589032836913,34.305058221435544,13.461565032836914Q34.347008221435544,13.393541032836914,34.37488822143555,13.318640032836914Q34.402768221435544,13.243738032836914,34.41549822143555,13.164837032836914Q34.428228221435546,13.085936032836914,34.425318221435546,13.006067632836913Q34.422408221435546,12.926199032836914,34.403978221435544,12.848433032836914Q34.385538221435546,12.770666032836914,34.35228822143554,12.697991032836914Q34.285138221435545,12.551215032836915,34.16692822143555,12.441310032836913Q34.04871822143555,12.331406032836915,33.897448221435546,12.275104032836914Q33.74617822143555,12.218803032836915,33.584878221435545,12.224676032836914Q33.42357822143555,12.230549032836914,33.27679822143555,12.297702032836915L30.714106221435546,13.470194032836915L30.317939221435548,14.554553032836914L31.531591221435548,17.124883032836912Q31.600508221435547,17.270833032836915,31.720034221435547,17.379313032836915Q31.839560221435548,17.487783032836916,31.991498221435545,17.542253032836914Q32.143438221435545,17.596733032836916,32.304658221435545,17.588913032836913Q32.465878221435545,17.581103032836914,32.611828221435545,17.512183032836916Q32.68409822143555,17.478053032836915,32.74832822143555,17.430493032836914Q32.81254822143555,17.382923032836914,32.866258221435544,17.323733032836913Q32.919968221435546,17.264553032836915,32.96109822143555,17.196033032836915Q33.002228221435544,17.127503032836913,33.029208221435546,17.052273032836915Q33.056178221435545,16.977043032836914,33.067958221435546,16.897993032836915Q33.079728221435545,16.818943032836913,33.075858221435546,16.739113032836915Q33.07198822143555,16.659293032836914,33.052618221435544,16.581753032836914Q33.033258221435545,16.504213032836915,32.99912822143555,16.431943032836912L32.13614822143555,14.604283032836914Z" fill-rule="evenodd" fill="#D1DCFF" fill-opacity="1"/></g><g><path d="M11.447612728332519,31.343008841552734L11.447612728332519,31.275776841552734L11.447612728332519,31.207891841552733Q11.447612728332519,31.127970541552735,11.463204728332519,31.049584901552734Q11.478796728332519,30.971199241552736,11.50938072833252,30.897361841552733Q11.53996572833252,30.823523841552735,11.58436772833252,30.757071841552733Q11.62876972833252,30.690619841552735,11.685282728332519,30.634106841552736Q11.74179572833252,30.577593841552734,11.80824772833252,30.533191841552735Q11.87469972833252,30.488789841552734,11.94853712833252,30.458205841552733Q12.022374728332519,30.427620841552734,12.100760428332519,30.412028841552733Q12.17914572833252,30.396437841552736,12.25906772833252,30.396436841552735Q12.33898872833252,30.396437841552736,12.41737372833252,30.412028841552733Q12.49575972833252,30.427620841552734,12.56959772833252,30.458205841552733Q12.643434728332519,30.488789841552734,12.709886728332519,30.533191841552735Q12.77633972833252,30.577593841552734,12.83285172833252,30.634106841552736Q12.88936472833252,30.690619841552735,12.93376672833252,30.757071841552733Q12.97816872833252,30.823523841552735,13.00875372833252,30.897361841552733Q13.039333728332519,30.971199241552736,13.05493372833252,31.049584911552735Q13.07052372833252,31.127970541552735,13.07052372833252,31.207891841552733L13.07052372833252,31.275776841552734L13.07052372833252,31.343008841552734Q13.07052372833252,31.422929841552733,13.05493372833252,31.501314841552734Q13.039333728332519,31.579700841552736,13.00875372833252,31.653538841552734Q12.97816872833252,31.727375841552735,12.93376672833252,31.793828841552735Q12.88936472833252,31.860280841552733,12.832852728332519,31.916793841552735Q12.77633972833252,31.973305841552733,12.70988772833252,32.017707841552735Q12.643434728332519,32.062108841552735,12.56959772833252,32.09269884155273Q12.49575972833252,32.12327884155273,12.41737372833252,32.138868841552735Q12.33898872833252,32.15445884155273,12.25906772833252,32.15445884155273Q12.17914572833252,32.15445884155273,12.100760428332519,32.138868841552735Q12.022374728332519,32.12327884155273,11.94853712833252,32.09269884155273Q11.87469972833252,32.062108841552735,11.80824772833252,32.017707841552735Q11.74179572833252,31.973305841552733,11.685282728332519,31.916793841552735Q11.62876972833252,31.860280841552733,11.58436772833252,31.793828841552735Q11.53996572833252,31.727375841552735,11.50938072833252,31.653538841552734Q11.478796728332519,31.579700841552736,11.463204728332519,31.501315841552735Q11.447612728332519,31.422929841552733,11.447612728332519,31.343008841552734Z" fill-rule="evenodd" fill="#D1DCFF" fill-opacity="1"/></g><g><path d="M15.186995505981445,39.40630762084961Q17.114305505981445,41.57971762084961,19.677295505981444,42.84765762084961Q19.748935505981446,42.88309762084961,19.826105505981445,42.90387762084961Q19.903275505981444,42.92465762084961,19.983025505981445,42.92998762084961Q20.062765505981446,42.93531762084961,20.142015505981444,42.924987620849606Q20.221265505981446,42.91465762084961,20.296975505981443,42.88905762084961Q20.372695505981447,42.86346762084961,20.441955505981447,42.82358762084961Q20.511215505981447,42.78371762084961,20.571375505981443,42.73109762084961Q20.631525505981443,42.678477620849606,20.680255505981446,42.615127620849606Q20.728995505981445,42.55178762084961,20.764435505981446,42.48014762084961Q20.799865505981444,42.40851762084961,20.820655505981446,42.33134762084961Q20.841435505981444,42.25417762084961,20.846755505981445,42.17442762084961Q20.852085505981446,42.09468762084961,20.841755505981446,42.01543762084961Q20.831425505981446,41.93618762084961,20.805825505981446,41.86047762084961Q20.780235505981445,41.78475762084961,20.740355505981444,41.71549762084961Q20.700485505981447,41.64622762084961,20.647865505981446,41.58607762084961Q20.595245505981445,41.52592762084961,20.531905505981445,41.47718762084961Q20.468555505981445,41.42845762084961,20.396925505981446,41.39301762084961Q18.118165505981445,40.26569762084961,16.401255505981446,38.32954762084961Q14.735045505981445,36.45056762084961,13.826219505981445,34.07456962084961Q13.797666505981445,33.99992262084961,13.755099505981445,33.93228062084961Q13.712532505981445,33.86463762084961,13.657587505981445,33.80659962084961Q13.602642505981445,33.74856162084961,13.537429505981445,33.70235762084961Q13.472217505981446,33.65615362084961,13.399244505981445,33.62355962084961Q13.326271505981445,33.590966620849606,13.248341505981445,33.57323562084961Q13.170412505981446,33.55550462084961,13.090520905981446,33.55331762084961Q13.010629505981445,33.55112962084961,12.931846505981445,33.56457062084961Q12.853063505981446,33.57801162084961,12.778416505981445,33.60656462084961Q12.627660505981446,33.664228620849606,12.510447505981446,33.77519562084961Q12.393234505981445,33.88616262084961,12.327408505981445,34.03353862084961Q12.261582505981446,34.180914620849606,12.257165505981446,34.34226242084961Q12.252748505981446,34.50361062084961,12.310412505981445,34.65436762084961Q13.324778505981445,37.30629762084961,15.186995505981445,39.40630762084961Z" fill-rule="evenodd" fill="#D1DCFF" fill-opacity="1"/></g><g><path d="M21.663543700561522,42.27818769775391L20.809753700561522,39.6176306977539Q20.760433700561524,39.4639416977539,20.65605370056152,39.34082569775391Q20.551673700561523,39.217709697753904,20.408133700561525,39.143909697753905Q20.264583700561523,39.07010969775391,20.103713700561524,39.05686169775391Q19.942853700561525,39.04361269775391,19.789163700561524,39.09293269775391Q19.713063700561523,39.117353697753906,19.643193700561522,39.15615069775391Q19.573323700561524,39.19494869775391,19.512363700561522,39.246631697753905Q19.451393700561525,39.29831569775391,19.401693700561523,39.3608986977539Q19.351983700561522,39.42348169775391,19.315443700561524,39.49455969775391Q19.278903700561525,39.565638697753904,19.256923700561522,39.642479697753906Q19.234954700561524,39.71932069775391,19.228394700561523,39.79897249775391Q19.221834700561523,39.87862409775391,19.230939700561525,39.95802499775391Q19.24004370056152,40.0374256977539,19.264463700561524,40.11352469775391L19.870803700561524,42.0029676977539L17.989203700561525,42.61090769775391Q17.835612700561523,42.660527697753906,17.712704700561524,42.7651476977539Q17.589795700561524,42.869777697753904,17.516280700561524,43.0134676977539Q17.442765700561523,43.157167697753906,17.429836700561523,43.31805769775391Q17.416907700561524,43.47894769775391,17.466531700561525,43.632537697753904Q17.491103700561524,43.708587697753906,17.530039700561524,43.7783776977539Q17.568975700561523,43.848177697753904,17.620780700561525,43.9090376977539Q17.672584700561522,43.969887697753904,17.735266700561525,44.019477697753906Q17.797948700561523,44.069057697753905,17.869098700561523,44.105457697753906Q17.940249700561523,44.141857697753906,18.017134700561524,44.163677697753904Q18.094018700561524,44.1854976977539,18.173683600561525,44.19189769775391Q18.253348100561524,44.198307697753904,18.332730800561524,44.1890376977539Q18.412113700561523,44.179777697753906,18.488163700561522,44.15520769775391L21.14038370056152,43.2982776977539L21.663543700561522,42.27818769775391Z" fill-rule="evenodd" fill="#D1DCFF" fill-opacity="1"/></g><g><path d="M26.741763129234315,15.970804779624938C26.561863129234315,16.827704779624938,26.292363129234314,17.63980477962494,25.932463129234314,18.40600477962494C25.887563129234312,18.58650477962494,25.797563129234312,18.72160477962494,25.707563129234313,18.90200477962494C25.393163129234313,19.48830477962494,25.078263129234315,20.02970477962494,24.673863129234313,20.57060477962494C24.493963129234313,20.795904779624937,24.358963129234315,20.97640477962494,24.179063129234315,21.156804779624938C23.190263129234314,22.28400477962494,21.976263129234315,23.23110477962494,20.672563129234312,23.907104779624937C20.447663129234314,24.042704779624938,20.177763129234314,24.13290477962494,19.908363129234314,24.26800477962494C19.458463129234314,24.44850477962494,19.054063129234315,24.58410477962494,18.604763129234314,24.71920477962494C16.85126312923431,25.21520477962494,15.007863129234314,25.30540477962494,13.074493129234314,24.94450477962494C6.825413129234314,23.63690477962494,2.824163129234314,17.50420477962494,4.083234129234314,11.236404779624939C5.386853129234314,4.968594779624938,11.500973129234314,0.9550947796249389,17.750063129234313,2.217816779624939C19.953363129234315,2.668501779624939,21.976263129234315,3.796104779624939,23.594763129234313,5.374394779624939C26.337363129234316,8.17005477962494,27.550963129234315,12.138204779624939,26.741763129234315,15.970804779624938Z" fill="url(#master_svg1_122_7320)" fill-opacity="1"/></g><g><path d="M13.434354112930297,23.140935092163087C14.063664112930297,23.276435092163087,14.737964112930298,23.366235092163087,15.412704112930298,23.366235092163087C16.3114341129303,23.366235092163087,17.210734112930297,23.276035092163085,18.064934112930295,23.005335092163087C18.4248341129303,22.915535092163086,18.7842341129303,22.780035092163086,19.189034112930297,22.600035092163086C19.4139341129303,22.509735092163087,19.593434112930296,22.374235092163087,19.818334112930298,22.283935092163087C20.942534112930296,21.697735092163086,21.931234112930298,20.931435092163085,22.785434112930297,19.939435092163087C22.920434112930298,19.803835092163087,23.055334112930296,19.623835092163084,23.190334112930298,19.443435092163085C23.5497341129303,18.992235092163085,23.8196341129303,18.541635092163084,24.0895341129303,18.045535092163085C24.134534112930297,17.910035092163085,24.224434112930297,17.774935092163084,24.2690341129303,17.639735092163086C24.583934112930297,17.008235092163083,24.8088341129303,16.286835092163088,24.943734112930297,15.565435092163085C25.6180341129303,12.318675092163087,24.6288341129303,8.981645092163086,22.291134112930298,6.637105092163086C20.942534112930296,5.284165092163086,19.234034112930296,4.382350092163086,17.3906341129303,3.976555092163086C14.827934112930297,3.435644092163086,12.220694112930298,3.9312200921630858,10.062414112930298,5.374395092163086C7.904564112930298,6.772225092163086,6.421013112930298,8.981645092163086,5.881661112930298,11.551975092163087C4.757534112930298,16.82773509216309,8.174454112930299,22.058635092163087,13.434354112930297,23.140935092163087ZM10.557254112930298,6.0957350921630855C12.040804112930298,5.149025092163086,13.704284112930297,4.653006092163086,15.412744112930298,4.653006092163086C15.997034112930297,4.653006092163086,16.626434112930298,4.743231092163086,17.2557341129303,4.8783450921630855C18.964134112930296,5.239255092163086,20.5377341129303,6.0957350921630855,21.751734112930297,7.313555092163086C23.9096341129303,9.432755092163086,24.8088341129303,12.453765092163087,24.1795341129303,15.429935092163086C24.044534112930297,16.061435092163087,23.8196341129303,16.692635092163087,23.550234112930298,17.323735092163083C23.5052341129303,17.459335092163087,23.415234112930296,17.549535092163087,23.370234112930298,17.684635092163084C23.145334112930296,18.135735092163088,22.875434112930296,18.541535092163087,22.561034112930297,18.947335092163087C22.471034112930298,19.082535092163084,22.3361341129303,19.262935092163087,22.201134112930298,19.398035092163084C21.436934112930295,20.254935092163088,20.5377341129303,20.976335092163087,19.503934112930295,21.517735092163086C19.3240341129303,21.607935092163085,19.099134112930297,21.698135092163085,18.919234112930297,21.788335092163084C18.5148341129303,21.968335092163088,18.1999341129303,22.058635092163087,17.885434112930298,22.148835092163086C16.536434112930298,22.509735092163087,15.052884112930299,22.599535092163087,13.659304112930297,22.283935092163087C8.848794112930298,21.291935092163087,5.746749812930298,16.557535092163086,6.735484112930298,11.732405092163086C7.230294112930298,9.387425092163085,8.578894112930298,7.403345092163086,10.557254112930298,6.0957350921630855Z" fill-rule="evenodd" fill="#F9B400" fill-opacity="1"/></g><g><path d="M25.61143570098877,18.98778564529419C25.34203570098877,19.52878564529419,25.02713570098877,20.070085645294192,24.667635700988768,20.566085645294187C24.48773570098877,20.791485645294188,24.35283570098877,20.97188564529419,24.17283570098877,21.15238564529419C23.18373570098877,22.279485645294187,21.97003570098877,23.226185645294187,20.666425700988768,23.902685645294188C20.44151570098877,24.038285645294188,20.17161570098877,24.12808564529419,19.902165700988768,24.26358564529419C19.45233570098877,24.44408564529419,19.04793570098877,24.57918564529419,18.598105700988768,24.71428564529419L11.40483570098877,17.49977564529419L13.69763570098877,16.28194564529419L13.96752570098877,15.74103564529419L14.01251570098877,14.61387564529419C14.01251570098877,14.61387564529419,13.92254570098877,10.510155645294189,13.83257570098877,10.37503564529419C13.78759570098877,10.33014564529419,14.55186570098877,7.7144856452941895,14.55186570098877,7.7144856452941895L15.361115700988769,9.56344564529419L16.39527570098877,7.7144856452941895L26.28613570098877,17.63488564529419C26.19623570098877,17.860185645294187,25.701435700988768,18.852285645294188,25.61143570098877,18.98778564529419Z" fill="url(#master_svg2_122_7316)" fill-opacity="1"/></g><g><path d="M13.383198521728517,19.438546634674072L14.506878521728515,19.438546634674072C14.506878521728515,18.807346634674072,14.506878521728515,18.22114663467407,14.551858521728516,17.725116634674073L15.361108521728514,17.725116634674073L15.361108521728514,19.52874663467407L16.395278521728514,19.52874663467407L16.395278521728514,17.770456634674073C16.395278521728514,17.68022663467407,16.395278521728514,17.634886634674075,16.485238521728515,17.634886634674075C17.024588521728518,17.589996634674073,17.564388521728517,17.49977663467407,18.058748521728518,17.31932663467407C18.463598521728514,17.184206634674073,18.823018521728514,16.958416634674073,19.092918521728514,16.55262663467407C19.317388521728518,16.237056634674072,19.452338521728514,15.876156634674071,19.497318521728516,15.515696634674072C19.542298521728515,15.200126634674072,19.587288521728517,14.839216634674072,19.452338521728514,14.478316634674073C19.137898521728516,13.621836634674072,18.328648521728518,13.441386634674071,18.013768521728515,13.306266634674072C18.193698521728514,13.216046634674072,18.418618521728515,13.080486634674072,18.598108521728516,12.810246634674073C18.867998521728516,12.449346634674072,18.912978521728515,12.043546634674072,18.867998521728516,11.592426634674073C18.733048521728517,10.330146634674072,17.698888521728517,9.924356634674073,16.440258521728516,9.788796634674073C16.350288521728515,9.743906634674072,16.350288521728515,9.743906634674072,16.350288521728515,9.653676634674072L16.350288521728515,7.850046634674072L15.316128521728515,7.850046634674072L15.316128521728515,9.698566634674073L14.506878521728515,9.698566634674073L14.506878521728515,7.850046634674072L13.383198521728517,7.850046634674072L13.383198521728517,9.608336634674073C13.383198521728517,9.743906634674072,13.383198521728517,9.743906634674072,13.248248521728515,9.743906634674072L11.314870221728516,9.743906634674072L11.314870221728516,10.826166634674072L12.034594521728515,10.826166634674072C12.349028521728515,10.826166634674072,12.618928521728515,10.961286634674073,12.618928521728515,11.412416634674072L12.618928521728515,15.921486634674073C12.618928521728515,16.192166634674074,12.573948521728516,16.282386634674072,12.214084521728516,16.282386634674072L11.584766521728515,16.282386634674072C11.539783521728516,16.282386634674072,11.494801521728515,16.32727663467407,11.494801521728515,16.372176634674073C11.449818521728515,16.59795663467407,11.404835521728515,16.68818663467407,11.270328521728516,17.544666634674073C11.451129521728516,17.544666634674073,11.629088521728516,17.541826634674074,11.805634521728516,17.53901663467407C12.331438521728515,17.530636634674075,12.844708521728515,17.52245663467407,13.383198521728517,17.589996634674073L13.383198521728517,19.438546634674072ZM14.551818521728515,10.871076634674072L14.551818521728515,12.945386634674072C14.956668521728515,12.990276634674071,15.765918521728516,12.945386634674072,16.170318521728515,12.810266634674072C17.294448521728516,12.494256634674073,17.114518521728517,11.367096634674072,16.440218521728514,11.051526634674072C15.860308521728516,10.833296634674072,15.338878521728516,10.849656634674073,14.875688521728517,10.864196634674073C14.764368521728516,10.867686634674072,14.656418521728515,10.871076634674072,14.551818521728515,10.871076634674072ZM14.551818521728515,14.027606634674072L14.551818521728515,16.32725663467407C15.675948521728515,16.282366634674073,16.260288521728516,16.32725663467407,16.890038521728517,16.01168663467407C17.204478521728515,15.831236634674072,17.384408521728517,15.605896634674071,17.429398521728515,15.244996634674072C17.474378521728514,14.839196634674073,17.294448521728516,14.568516634674072,16.979568521728517,14.343176634674073C16.350248521728517,13.937386634674073,15.226568521728517,13.982276634674072,14.551818521728515,14.027606634674072Z" fill-rule="evenodd" fill="url(#master_svg3_122_1469)" fill-opacity="1"/></g><g><path d="M51.513579025268555,42.395496850585936C51.33407902526855,43.251896850585936,51.06417902526856,44.063496850585935,50.704279025268555,44.830196850585935C50.65927902526855,45.01069685058594,50.56937902526855,45.14579685058594,50.47987902526856,45.32629685058593C50.16497902526855,45.91249685058594,49.850079025268556,46.453896850585934,49.445679025268554,46.99479685058594C49.26577902526856,47.22009685058593,49.13077902526855,47.40059685058594,48.951279025268555,47.58099685058593C47.96207902526855,48.708196850585935,46.74807902526855,49.65529685058594,45.44437902526855,50.33179685058594C45.219479025268555,50.46689685058594,44.95007902526855,50.557096850585935,44.68017902526856,50.69219685058594C44.23077902526855,50.87269685058594,43.825879025268556,51.00779685058593,43.37607902526855,51.14339685058594C41.62307902526855,51.63939685058594,39.77967902526856,51.729196850585936,37.84630902526855,51.368696850585934C31.597229025268554,50.06109685058594,27.595979025268555,43.92839685058594,28.855050025268554,37.66059685058594C30.158669025268555,31.39278685058594,36.27278902526855,27.379286850585938,42.52227902526855,28.64200885058594C44.72517902526856,29.093137850585936,46.74807902526855,30.22029685058594,48.36657902526855,31.798586850585938C51.154179025268554,34.594256850585936,52.32277902526856,38.56239685058594,51.513579025268555,42.395496850585936Z" fill="url(#master_svg4_122_1495)" fill-opacity="1"/></g><g><path d="M38.34111885864258,49.520233984375C38.97042885864258,49.655333984375005,39.64517885864258,49.745533984375,40.31946885864258,49.745533984375C41.218698858642576,49.745533984375,42.117898858642576,49.609933984375004,42.97209885864258,49.384633984375C43.33159885864258,49.294433984375004,43.69139885864258,49.159333984374996,44.09579885864258,48.978833984375C44.32069885864258,48.888633984375005,44.50019885864258,48.753533984375,44.72509885864258,48.663233984375C45.84929885864258,48.077033984375,46.83839885864258,47.310333984375,47.69269885864258,46.318233984375C47.827198858642575,46.183133984375004,47.96209885864258,46.002733984375,48.09709885864258,45.822233984375C48.456898858642575,45.371533984375,48.72639885864258,44.920433984375,48.996298858642575,44.424433984375C49.04129885864258,44.289333984375,49.13119885864258,44.154233984375,49.17619885864258,44.018633984375C49.490698858642574,43.387533984375,49.71559885864258,42.665733984375,49.85049885864258,41.944333984375C50.52479885864258,38.697523984374996,49.53559885864258,35.360943984375,47.197898858642574,33.015963984375C45.84929885864258,31.663463984375,44.140798858642576,30.761646984375,42.29739885864258,30.355852984375C39.73513885864258,29.814497984375,37.127458858642576,30.310517984375,34.96917885864258,31.753243984375C32.811328858642575,33.151523984375,31.327777858642577,35.360943984375,30.78842585864258,37.931273984375C29.664298858642578,43.207033984375,33.08121885864258,48.437933984375,38.34111885864258,49.520233984375ZM35.46396885864258,32.475073984375C36.94751885864258,31.527923984375,38.610998858642574,31.032348984375,40.31945885864258,31.032348984375C40.903798858642574,31.032348984375,41.533098858642575,31.077238984375,42.162398858642575,31.257693984375C43.870898858642576,31.618153984375,45.44439885864258,32.475073984375,46.658498858642574,33.692453984375C48.81629885864258,35.812103984375,49.71559885864258,38.833113984375004,49.086198858642575,41.809233984375C48.95129885864257,42.440333984375,48.72639885864258,43.071533984375,48.456898858642575,43.703133984375C48.41189885864257,43.838233984375,48.32199885864257,43.928433984375,48.27699885864258,44.064033984375C48.05209885864258,44.514633984374996,47.78219885864257,44.920433984375,47.46769885864258,45.326233984375C47.37779885864258,45.461833984375,47.24279885864258,45.641833984375,47.10789885864258,45.777433984375C46.34359885864258,46.633833984375,45.44439885864258,47.355633984375004,44.410698858642576,47.896633984375C44.23079885864258,47.986833984375,44.00579885864258,48.077033984375,43.825898858642574,48.167233984375C43.42149885864258,48.347733984375,43.10659885864258,48.437933984375,42.79219885864258,48.528133984375C41.44309885864258,48.888633984375005,39.95959885864258,48.978833984375,38.56601885864258,48.663333984375C33.75550885864258,47.671233984375,30.65346365864258,42.936433984375,31.642638858642577,38.111753984375C32.13700885864258,35.766763984375004,33.48560885864258,33.782683984375,35.46396885864258,32.475073984375Z" fill-rule="evenodd" fill="#F9B400" fill-opacity="1"/></g><g><path d="M50.51869465332031,45.18667156982422C50.24879465332031,45.72757156982422,49.93389465332031,46.26897156982422,49.574494653320315,46.76497156982422C49.394494653320315,46.990271569824216,49.25959465332031,47.17077156982422,49.079594653320314,47.35077156982422C48.09089465332031,48.47837156982422,47.10169465332031,49.51527156982422,45.75312465332031,50.19177156982422C45.52821465332031,50.32687156982422,45.25831465332031,50.46247156982422,44.98841465332031,50.55267156982422C44.539034653320314,50.73267156982422,44.494044653320316,50.868271569824216,44.04466465332031,50.95847156982422L36.85139465332031,43.74351156982422L39.953434653320315,44.23957156982422L40.22289465332031,43.69862156982422L36.85139465332031,39.36956156982422C36.85139465332031,39.36956156982422,37.66064265332031,37.70104156982422,37.57067765332031,37.565931569824215C37.525694653320315,37.52059156982422,38.64938465332031,36.212981569824215,38.64938465332031,36.212981569824215L40.22289465332031,35.76230156982422L41.25705465332031,33.95867156982422L51.14799465332031,43.83374156982422C51.10299465332031,44.05907156982422,50.60819465332031,45.05117156982422,50.51869465332031,45.18667156982422Z" fill="url(#master_svg5_122_1460)" fill-opacity="1"/></g><g><path d="M39.45862227050781,46.0884504699707L39.45862227050781,44.870650469970705C37.840132270507816,44.690650469970706,36.62647827050781,43.8786304699707,36.08668497050781,42.6163604699707L36.04170227050781,42.5261304699707L37.750162270507815,41.804770469970705L37.79514227050781,41.8945504699707C38.11002227050781,42.6163604699707,39.18917227050781,43.202600469970704,40.26787227050781,43.202600469970704C40.76268227050781,43.202600469970704,42.42572227050781,43.1123804699707,42.42572227050781,41.8945504699707C42.42572227050781,41.2634104699707,41.75142227050781,40.857620469970705,40.22289227050781,40.677170469970704C38.244972270507816,40.451820469970706,36.49152927050781,40.090920469970705,36.49152927050781,37.9268304699707C36.49152927050781,36.4836604699707,37.61521227050781,35.4467304699707,39.503612270507816,35.176050469970704L39.503612270507816,34.0484504699707L41.347022270507814,34.0484504699707L41.347022270507814,35.176050469970704C42.29121227050781,35.311170469970705,43.369922270507814,35.672070469970706,43.99923227050781,36.9796804699707L44.04422227050782,37.0699104699707L42.470702270507815,37.791270469970705L42.42572227050781,37.70104046997071C42.111282270507814,37.1601304699707,41.167092270507815,36.7543404699707,40.31285227050781,36.7543404699707C39.72852227050781,36.7543404699707,38.33494227050781,36.8445604699707,38.33494227050781,37.8815004699707C38.33494227050781,38.6481904699707,39.18917227050781,38.7833104699707,40.35784227050781,38.9184304699707C42.02132227050781,39.1442104699707,44.31411227050781,39.4144504699707,44.31411227050781,41.8496604699707C44.31411227050781,43.698620469970706,42.78558227050781,44.6453504699707,41.25705227050781,44.7808504699707L41.25705227050781,46.0884504699707L39.45862227050781,46.0884504699707L39.45862227050781,46.0884504699707Z" fill="url(#master_svg6_122_7298)" fill-opacity="1"/></g><g><path d="M32.6944596270752,6.302872078933715C33.28496962707519,6.110422078933716,33.60778962707519,5.4743920789337155,33.41594962707519,4.882370078933715C33.224109627075194,4.289901078933716,32.589939627075196,3.9658880789337156,31.999874627075194,4.158340178933716C31.409366627075194,4.350792078933716,31.086548627075196,4.986818078933716,31.278387227075196,5.578842078933716C31.470225627075195,6.171312078933716,32.1043936270752,6.495322078933716,32.6944596270752,6.302872078933715Z" fill="#EAEEF9" fill-opacity="1"/></g><g><path d="M51.350391837158206,25.798784689331054C52.224021837158205,25.513884689331054,52.702081837158204,24.572514689331054,52.4180718371582,23.696474689331055C52.1340618371582,22.819994689331054,51.195591837158204,22.340419689331053,50.321961837158206,22.625319989331054C49.4483258371582,22.910220689331055,48.9702738371582,23.851594689331055,49.2542828371582,24.727624689331055C49.538291837158205,25.604104689331056,50.476751837158204,26.083684689331054,51.350391837158206,25.798784689331054Z" fill="#EAEEF9" fill-opacity="1"/></g><g><path d="M30.767696775146483,2.32004C31.121820775146485,2.20448,31.315870775146486,1.822689,31.200760775146485,1.467563C31.085660775146483,1.112438,30.705073775146484,0.9177633000000001,30.350944775146484,1.0333235C29.996815775146484,1.148884,29.802772575146484,1.5306769999999998,29.917875475146484,1.8858030000000001C30.033419775146484,2.24093,30.413567775146483,2.4356,30.767696775146483,2.32004Z" fill="#23E078" fill-opacity="1"/></g><g><path d="M31.433178048706054,52.882554208984374C31.740998048706054,52.67187420898438,31.820378048706054,52.25141720898438,31.610458048706054,51.94251620898437C31.400988048706054,51.63405890898437,30.981145048706054,51.55405560898438,30.673322048706055,51.76473120898437C30.365939848706056,51.97496220898437,30.286117448706054,52.395868208984375,30.496037048706054,52.704324208984374C30.705956048706053,53.013224208984376,31.125354048706054,53.09278420898438,31.433178048706054,52.882554208984374Z" fill="#EAEEF9" fill-opacity="1"/></g><g><path d="M3.55403,30.41719166015625C3.86185,30.20651166015625,3.94123,29.78605466015625,3.73175,29.47715366015625C3.52183,29.16869636015625,3.102434,29.08869306015625,2.794611,29.29936866015625C2.4867882,29.50959966015625,2.4074069,29.93050566015625,2.617326,30.23896166015625C2.8268050000000002,30.54786166015625,3.246644,30.62742166015625,3.55403,30.41719166015625Z" fill="#23E078" fill-opacity="1"/></g><g><path d="M5.369649527549743,28.361103795166017C5.841529527549744,28.038423795166015,5.963249527549744,27.393510795166016,5.641309527549744,26.920157795166016C5.319819527549743,26.446805095166017,4.676389527549744,26.324577795166014,4.2045115275497436,26.647257795166016C3.7326336275497436,26.969937795166015,3.6109155275497438,27.614853795166017,3.9328505275497436,28.088203795166017C4.254345527549743,28.561553795166017,4.897779527549743,28.683783795166015,5.369649527549743,28.361103795166017Z" fill="#EAEEF9" fill-opacity="1"/></g></g></g></svg>