<svg
    xmlns="http://www.w3.org/2000/svg"
    viewBox="0 0 40 40"
    id="vector">
    <path
        id="path"
        d="M 20 20 M 1 20 C 1 14.963 3.003 10.127 6.565 6.565 C 10.127 3.003 14.963 1 20 1 C 25.037 1 29.873 3.003 33.435 6.565 C 36.997 10.127 39 14.963 39 20 C 39 25.037 36.997 29.873 33.435 33.435 C 29.873 36.997 25.037 39 20 39 C 14.963 39 10.127 36.997 6.565 33.435 C 3.003 29.873 1 25.037 1 20"
        fill="#00000000"
        stroke="#6175ae"
        stroke-width="2"/>
    <path
        id="path_1"
        d="M 20 5 L 20 5 C 20.265 5 20.52 5.105 20.707 5.293 C 20.895 5.48 21 5.735 21 6 L 21 21 C 21 21.265 20.895 21.52 20.707 21.707 C 20.52 21.895 20.265 22 20 22 L 20 22 C 19.735 22 19.48 21.895 19.293 21.707 C 19.105 21.52 19 21.265 19 21 L 19 6 C 19 5.735 19.105 5.48 19.293 5.293 C 19.48 5.105 19.735 5 20 5 Z"
        fill="#6175ae"/>
    <path
        id="path_2"
        d="M 33 21 L 33 21 C 33 21.265 32.895 21.52 32.707 21.707 C 32.52 21.895 32.265 22 32 22 L 20 22 C 19.735 22 19.48 21.895 19.293 21.707 C 19.105 21.52 19 21.265 19 21 L 19 21 C 19 20.735 19.105 20.48 19.293 20.293 C 19.48 20.105 19.735 20 20 20 L 32 20 C 32.265 20 32.52 20.105 32.707 20.293 C 32.895 20.48 33 20.735 33 21 Z"
        fill="#6175ae"/>
</svg>
