<svg xmlns="http://www.w3.org/2000/svg" xmlns:xlink="http://www.w3.org/1999/xlink" fill="none" version="1.1" width="24" height="24" viewBox="0 0 24 24"><g><g><path d="M12,4.810001373291016C11.585786,4.810001373291016,11.25,5.145787373291015,11.25,5.560001373291016C11.25,5.974211373291015,11.585786,6.310001373291016,12,6.310001373291016C12,6.310001373291016,12,4.810001373291016,12,4.810001373291016C12,4.810001373291016,12,4.810001373291016,12,4.810001373291016ZM22,6.310001373291016C22.4142,6.310001373291016,22.75,5.974211373291015,22.75,5.560001373291016C22.75,5.145787373291015,22.4142,4.810001373291016,22,4.810001373291016C22,4.810001373291016,22,6.310001373291016,22,6.310001373291016C22,6.310001373291016,22,6.310001373291016,22,6.310001373291016ZM12,6.310001373291016C12,6.310001373291016,22,6.310001373291016,22,6.310001373291016C22,6.310001373291016,22,4.810001373291016,22,4.810001373291016C22,4.810001373291016,12,4.810001373291016,12,4.810001373291016C12,4.810001373291016,12,6.310001373291016,12,6.310001373291016C12,6.310001373291016,12,6.310001373291016,12,6.310001373291016Z" fill="#414D73" fill-opacity="1"/></g><g><path d="M14.22,2.75C14.22,2.75,19.78,2.75,19.78,2.75C19.78,2.75,19.78,1.25,19.78,1.25C19.78,1.25,14.22,1.25,14.22,1.25C14.22,1.25,14.22,2.75,14.22,2.75C14.22,2.75,14.22,2.75,14.22,2.75ZM19.78,2.75C20.67678,2.75,20.93531,2.8791700000000002,21.02917,2.97233C21.12097,3.0634300000000003,21.25,3.31436,21.25,4.2C21.25,4.2,22.75,4.2,22.75,4.2C22.75,3.32564,22.659,2.4765699999999997,22.0858,1.907673C21.514699999999998,1.340828,20.66321,1.25,19.78,1.25C19.78,1.25,19.78,2.75,19.78,2.75C19.78,2.75,19.78,2.75,19.78,2.75ZM21.25,4.2C21.25,4.2,21.25,8.309999999999999,21.25,8.309999999999999C21.25,8.309999999999999,22.75,8.309999999999999,22.75,8.309999999999999C22.75,8.309999999999999,22.75,4.2,22.75,4.2C22.75,4.2,21.25,4.2,21.25,4.2C21.25,4.2,21.25,4.2,21.25,4.2ZM21.25,8.309999999999999C21.25,9.195640000000001,21.12097,9.44657,21.02917,9.53767C20.93531,9.63083,20.67678,9.76,19.78,9.76C19.78,9.76,19.78,11.26,19.78,11.26C20.66321,11.26,21.514699999999998,11.16917,22.0858,10.60233C22.659,10.03343,22.75,9.18436,22.75,8.309999999999999C22.75,8.309999999999999,21.25,8.309999999999999,21.25,8.309999999999999C21.25,8.309999999999999,21.25,8.309999999999999,21.25,8.309999999999999ZM19.78,9.76C19.78,9.76,14.22,9.76,14.22,9.76C14.22,9.76,14.22,11.26,14.22,11.26C14.22,11.26,19.78,11.26,19.78,11.26C19.78,11.26,19.78,9.76,19.78,9.76C19.78,9.76,19.78,9.76,19.78,9.76ZM14.22,9.76C13.32322,9.76,13.06469,9.63083,12.97082,9.53767C12.87903,9.44657,12.75,9.195640000000001,12.75,8.309999999999999C12.75,8.309999999999999,11.25,8.309999999999999,11.25,8.309999999999999C11.25,9.18436,11.340972,10.03343,11.914176,10.60233C12.48532,11.16917,13.33679,11.26,14.22,11.26C14.22,11.26,14.22,9.76,14.22,9.76C14.22,9.76,14.22,9.76,14.22,9.76ZM12.75,8.309999999999999C12.75,8.309999999999999,12.75,4.2,12.75,4.2C12.75,4.2,11.25,4.2,11.25,4.2C11.25,4.2,11.25,8.309999999999999,11.25,8.309999999999999C11.25,8.309999999999999,12.75,8.309999999999999,12.75,8.309999999999999C12.75,8.309999999999999,12.75,8.309999999999999,12.75,8.309999999999999ZM12.75,4.2C12.75,3.31436,12.87903,3.0634300000000003,12.97083,2.97233C13.06469,2.8791700000000002,13.32322,2.75,14.22,2.75C14.22,2.75,14.22,1.25,14.22,1.25C13.33679,1.25,12.48531,1.340828,11.914176,1.907673C11.340972,2.4765699999999997,11.25,3.32564,11.25,4.2C11.25,4.2,12.75,4.2,12.75,4.2C12.75,4.2,12.75,4.2,12.75,4.2Z" fill="#414D73" fill-opacity="1"/></g><g><path d="M2,16.310001373291016C1.585786,16.310001373291016,1.25,16.645787373291014,1.25,17.060001373291016C1.25,17.474211373291016,1.585786,17.810001373291016,2,17.810001373291016C2,17.810001373291016,2,16.310001373291016,2,16.310001373291016C2,16.310001373291016,2,16.310001373291016,2,16.310001373291016ZM12,17.810001373291016C12.4142,17.810001373291016,12.75,17.474211373291016,12.75,17.060001373291016C12.75,16.645787373291014,12.4142,16.310001373291016,12,16.310001373291016C12,16.310001373291016,12,17.810001373291016,12,17.810001373291016C12,17.810001373291016,12,17.810001373291016,12,17.810001373291016ZM2,17.810001373291016C2,17.810001373291016,12,17.810001373291016,12,17.810001373291016C12,17.810001373291016,12,16.310001373291016,12,16.310001373291016C12,16.310001373291016,2,16.310001373291016,2,16.310001373291016C2,16.310001373291016,2,17.810001373291016,2,17.810001373291016C2,17.810001373291016,2,17.810001373291016,2,17.810001373291016Z" fill="#414D73" fill-opacity="1"/></g><g><path d="M4.220000000000001,14.25C4.220000000000001,14.25,9.78,14.25,9.78,14.25C9.78,14.25,9.78,12.75,9.78,12.75C9.78,12.75,4.220000000000001,12.75,4.220000000000001,12.75C4.220000000000001,12.75,4.220000000000001,14.25,4.220000000000001,14.25C4.220000000000001,14.25,4.220000000000001,14.25,4.220000000000001,14.25ZM9.78,14.25C10.67678,14.25,10.93531,14.37917,11.02917,14.47233C11.12097,14.56343,11.25,14.81436,11.25,15.7C11.25,15.7,12.75,15.7,12.75,15.7C12.75,14.82564,12.659,13.97657,12.0858,13.407672999999999C11.5147,12.840828,10.66321,12.75,9.78,12.75C9.78,12.75,9.78,14.25,9.78,14.25C9.78,14.25,9.78,14.25,9.78,14.25ZM11.25,15.7C11.25,15.7,11.25,19.81,11.25,19.81C11.25,19.81,12.75,19.81,12.75,19.81C12.75,19.81,12.75,15.7,12.75,15.7C12.75,15.7,11.25,15.7,11.25,15.7C11.25,15.7,11.25,15.7,11.25,15.7ZM11.25,19.81C11.25,20.69564,11.12097,20.94657,11.02917,21.03767C10.93531,21.13083,10.67678,21.259999999999998,9.78,21.259999999999998C9.78,21.259999999999998,9.78,22.759999999999998,9.78,22.759999999999998C10.66321,22.759999999999998,11.5147,22.66917,12.0858,22.102330000000002C12.659,21.53344,12.75,20.684359999999998,12.75,19.81C12.75,19.81,11.25,19.81,11.25,19.81C11.25,19.81,11.25,19.81,11.25,19.81ZM9.78,21.259999999999998C9.78,21.259999999999998,4.220000000000001,21.259999999999998,4.220000000000001,21.259999999999998C4.220000000000001,21.259999999999998,4.220000000000001,22.759999999999998,4.220000000000001,22.759999999999998C4.220000000000001,22.759999999999998,9.78,22.759999999999998,9.78,22.759999999999998C9.78,22.759999999999998,9.78,21.259999999999998,9.78,21.259999999999998C9.78,21.259999999999998,9.78,21.259999999999998,9.78,21.259999999999998ZM4.220000000000001,21.259999999999998C3.32322,21.259999999999998,3.0646899999999997,21.13083,2.9708300000000003,21.03767C2.87903,20.94657,2.75,20.69564,2.75,19.81C2.75,19.81,1.25,19.81,1.25,19.81C1.25,20.684359999999998,1.340972,21.53344,1.9141759999999999,22.102330000000002C2.48531,22.66917,3.33679,22.759999999999998,4.220000000000001,22.759999999999998C4.220000000000001,22.759999999999998,4.220000000000001,21.259999999999998,4.220000000000001,21.259999999999998C4.220000000000001,21.259999999999998,4.220000000000001,21.259999999999998,4.220000000000001,21.259999999999998ZM2.75,19.81C2.75,19.81,2.75,15.7,2.75,15.7C2.75,15.7,1.25,15.7,1.25,15.7C1.25,15.7,1.25,19.81,1.25,19.81C1.25,19.81,2.75,19.81,2.75,19.81C2.75,19.81,2.75,19.81,2.75,19.81ZM2.75,15.7C2.75,14.81436,2.87903,14.56343,2.9708300000000003,14.47233C3.0646899999999997,14.37917,3.32322,14.25,4.220000000000001,14.25C4.220000000000001,14.25,4.220000000000001,12.75,4.220000000000001,12.75C3.33679,12.75,2.48531,12.840828,1.9141759999999999,13.407672999999999C1.340972,13.97657,1.25,14.82564,1.25,15.7C1.25,15.7,2.75,15.7,2.75,15.7C2.75,15.7,2.75,15.7,2.75,15.7Z" fill="#414D73" fill-opacity="1"/></g><g><path d="M22.75,15C22.75,14.585786,22.41421,14.25,22,14.25C21.58579,14.25,21.25,14.585786,21.25,15C21.25,15,22.75,15,22.75,15C22.75,15,22.75,15,22.75,15ZM15,22C15,22,14.356878,21.61413,14.356878,21.61413C14.217861,21.84583,14.214222,22.1344,14.347351,22.369529999999997C14.48048,22.604660000000003,14.729797,22.75,15,22.75C15,22.75,15,22,15,22C15,22,15,22,15,22ZM16.69311,20.63587C16.90622,20.28068,16.79104,19.81999,16.435859999999998,19.60688C16.08067,19.39377,15.61997,19.50894,15.40687,19.86413C15.40687,19.86413,16.69311,20.63587,16.69311,20.63587C16.69311,20.63587,16.69311,20.63587,16.69311,20.63587ZM21.25,15C21.25,18.45579,18.45579,21.25,15,21.25C15,21.25,15,22.75,15,22.75C19.28421,22.75,22.75,19.28421,22.75,15C22.75,15,21.25,15,21.25,15C21.25,15,21.25,15,21.25,15ZM15.64312,22.38587C15.64312,22.38587,16.69311,20.63587,16.69311,20.63587C16.69311,20.63587,15.40687,19.86413,15.40687,19.86413C15.40687,19.86413,14.356878,21.61413,14.356878,21.61413C14.356878,21.61413,15.64312,22.38587,15.64312,22.38587C15.64312,22.38587,15.64312,22.38587,15.64312,22.38587Z" fill="#6175AE" fill-opacity="1"/></g><g><path d="M1.25,9C1.25,9.41421,1.585786,9.75,2,9.75C2.4142099999999997,9.75,2.75,9.41421,2.75,9C2.75,9,1.25,9,1.25,9C1.25,9,1.25,9,1.25,9ZM9,2C9,2,9.64312,2.3858699999999997,9.64312,2.3858699999999997C9.78214,2.15417,9.78578,1.865605,9.65265,1.630474C9.51952,1.395344,9.2702,1.25,9,1.25C9,1.25,9,2,9,2C9,2,9,2,9,2ZM7.30689,3.36413C7.09378,3.71932,7.20896,4.180009999999999,7.56414,4.39312C7.91933,4.60623,8.38002,4.4910499999999995,8.59313,4.135870000000001C8.59313,4.135870000000001,7.30689,3.36413,7.30689,3.36413C7.30689,3.36413,7.30689,3.36413,7.30689,3.36413ZM2.75,9C2.75,5.54421,5.54421,2.75,9,2.75C9,2.75,9,1.25,9,1.25C4.71579,1.25,1.25,4.71579,1.25,9C1.25,9,2.75,9,2.75,9C2.75,9,2.75,9,2.75,9ZM8.35688,1.614131C8.35688,1.614131,7.30689,3.36413,7.30689,3.36413C7.30689,3.36413,8.59313,4.135870000000001,8.59313,4.135870000000001C8.59313,4.135870000000001,9.64312,2.3858699999999997,9.64312,2.3858699999999997C9.64312,2.3858699999999997,8.35688,1.614131,8.35688,1.614131C8.35688,1.614131,8.35688,1.614131,8.35688,1.614131Z" fill="#6175AE" fill-opacity="1"/></g><g style="opacity:0;"></g></g></svg>