<svg xmlns="http://www.w3.org/2000/svg" xmlns:xlink="http://www.w3.org/1999/xlink" fill="none" version="1.1" width="24" height="24" viewBox="0 0 24 24"><g><g><g><g><path d="M17.75,13.4C17.75,12.98579,17.4142,12.65,17,12.65C16.5858,12.65,16.25,12.98579,16.25,13.4C16.25,13.4,17.75,13.4,17.75,13.4C17.75,13.4,17.75,13.4,17.75,13.4ZM10.6,7.75C11.01421,7.75,11.35,7.41421,11.35,7C11.35,6.585786,11.01421,6.25,10.6,6.25C10.6,6.25,10.6,7.75,10.6,7.75C10.6,7.75,10.6,7.75,10.6,7.75ZM16.25,13.4C16.25,13.4,16.25,16.4,16.25,16.4C16.25,16.4,17.75,16.4,17.75,16.4C17.75,16.4,17.75,13.4,17.75,13.4C17.75,13.4,16.25,13.4,16.25,13.4C16.25,13.4,16.25,13.4,16.25,13.4ZM16.25,16.4C16.25,18.326,15.8602,19.479100000000003,15.1697,20.1697C14.4791,20.8602,13.326,21.25,11.4,21.25C11.4,21.25,11.4,22.75,11.4,22.75C13.474,22.75,15.1209,22.3398,16.2303,21.2303C17.3398,20.1209,17.75,18.474,17.75,16.4C17.75,16.4,16.25,16.4,16.25,16.4C16.25,16.4,16.25,16.4,16.25,16.4ZM11.4,21.25C11.4,21.25,7.6,21.25,7.6,21.25C7.6,21.25,7.6,22.75,7.6,22.75C7.6,22.75,11.4,22.75,11.4,22.75C11.4,22.75,11.4,21.25,11.4,21.25C11.4,21.25,11.4,21.25,11.4,21.25ZM7.6,21.25C5.67397,21.25,4.52086,20.8602,3.83033,20.1697C3.1398,19.479100000000003,2.75,18.326,2.75,16.4C2.75,16.4,1.25,16.4,1.25,16.4C1.25,18.474,1.660201,20.1209,2.76967,21.2303C3.87914,22.3398,5.52603,22.75,7.6,22.75C7.6,22.75,7.6,21.25,7.6,21.25C7.6,21.25,7.6,21.25,7.6,21.25ZM2.75,16.4C2.75,16.4,2.75,12.6,2.75,12.6C2.75,12.6,1.25,12.6,1.25,12.6C1.25,12.6,1.25,16.4,1.25,16.4C1.25,16.4,2.75,16.4,2.75,16.4C2.75,16.4,2.75,16.4,2.75,16.4ZM2.75,12.6C2.75,10.67397,3.1398,9.520859999999999,3.83033,8.83033C4.52086,8.1398,5.67397,7.75,7.6,7.75C7.6,7.75,7.6,6.25,7.6,6.25C5.52603,6.25,3.87914,6.660201,2.76967,7.76967C1.660201,8.87914,1.25,10.52603,1.25,12.6C1.25,12.6,2.75,12.6,2.75,12.6C2.75,12.6,2.75,12.6,2.75,12.6ZM7.6,7.75C7.6,7.75,10.6,7.75,10.6,7.75C10.6,7.75,10.6,6.25,10.6,6.25C10.6,6.25,7.6,6.25,7.6,6.25C7.6,6.25,7.6,7.75,7.6,7.75C7.6,7.75,7.6,7.75,7.6,7.75Z" fill="#6175AE" fill-opacity="1"/></g><g><path d="M17.000000381469725,13.399998065490722C17.000000381469725,13.399998065490722,17.000000381469725,14.149998065490722,17.000000381469725,14.149998065490722C17.303350381469727,14.149998065490722,17.576820381469727,13.967268065490723,17.692910381469726,13.687008065490723C17.808990381469727,13.406758065490724,17.744830381469725,13.084168065490722,17.530330381469724,12.869668065490723C17.530330381469724,12.869668065490723,17.000000381469725,13.399998065490722,17.000000381469725,13.399998065490722C17.000000381469725,13.399998065490722,17.000000381469725,13.399998065490722,17.000000381469725,13.399998065490722ZM10.600000381469727,7.000000065490722C10.600000381469727,7.000000065490722,11.130330381469726,6.469670065490723,11.130330381469726,6.469670065490723C10.915830381469727,6.255171005490722,10.593243381469726,6.191004965490722,10.312987381469727,6.307089965490722C10.032732381469726,6.423176065490723,9.850000381469727,6.696653065490723,9.850000381469727,7.000000065490722C9.850000381469727,7.000000065490722,10.600000381469727,7.000000065490722,10.600000381469727,7.000000065490722C10.600000381469727,7.000000065490722,10.600000381469727,7.000000065490722,10.600000381469727,7.000000065490722ZM17.000000381469725,12.649998065490722C17.000000381469725,12.649998065490722,13.800000381469726,12.649998065490722,13.800000381469726,12.649998065490722C13.800000381469726,12.649998065490722,13.800000381469726,14.149998065490722,13.800000381469726,14.149998065490722C13.800000381469726,14.149998065490722,17.000000381469725,14.149998065490722,17.000000381469725,14.149998065490722C17.000000381469725,14.149998065490722,17.000000381469725,12.649998065490722,17.000000381469725,12.649998065490722C17.000000381469725,12.649998065490722,17.000000381469725,12.649998065490722,17.000000381469725,12.649998065490722ZM13.800000381469726,12.649998065490722C12.641550381469727,12.649998065490722,12.107910381469726,12.447248065490722,11.830330381469727,12.169668065490722C11.552750381469727,11.892088065490722,11.350000381469727,11.358448065490723,11.350000381469727,10.199998065490723C11.350000381469727,10.199998065490723,9.850000381469727,10.199998065490723,9.850000381469727,10.199998065490723C9.850000381469727,11.441548065490721,10.047249381469726,12.507908065490723,10.769670381469727,13.230328065490722C11.492090381469726,13.952748065490724,12.558450381469726,14.149998065490722,13.800000381469726,14.149998065490722C13.800000381469726,14.149998065490722,13.800000381469726,12.649998065490722,13.800000381469726,12.649998065490722C13.800000381469726,12.649998065490722,13.800000381469726,12.649998065490722,13.800000381469726,12.649998065490722ZM11.350000381469727,10.199998065490723C11.350000381469727,10.199998065490723,11.350000381469727,7.000000065490722,11.350000381469727,7.000000065490722C11.350000381469727,7.000000065490722,9.850000381469727,7.000000065490722,9.850000381469727,7.000000065490722C9.850000381469727,7.000000065490722,9.850000381469727,10.199998065490723,9.850000381469727,10.199998065490723C9.850000381469727,10.199998065490723,11.350000381469727,10.199998065490723,11.350000381469727,10.199998065490723C11.350000381469727,10.199998065490723,11.350000381469727,10.199998065490723,11.350000381469727,10.199998065490723ZM10.069670381469727,7.530328065490723C10.069670381469727,7.530328065490723,16.469670381469726,13.930328065490723,16.469670381469726,13.930328065490723C16.469670381469726,13.930328065490723,17.530330381469724,12.869668065490723,17.530330381469724,12.869668065490723C17.530330381469724,12.869668065490723,11.130330381469726,6.469670065490723,11.130330381469726,6.469670065490723C11.130330381469726,6.469670065490723,10.069670381469727,7.530328065490723,10.069670381469727,7.530328065490723C10.069670381469727,7.530328065490723,10.069670381469727,7.530328065490723,10.069670381469727,7.530328065490723Z" fill="#414D73" fill-opacity="1"/></g><g><path d="M6.25,5C6.25,5.41421,6.585786,5.75,7,5.75C7.41421,5.75,7.75,5.41421,7.75,5C7.75,5,6.25,5,6.25,5C6.25,5,6.25,5,6.25,5ZM16,2.75C16.4142,2.75,16.75,2.4142099999999997,16.75,2C16.75,1.585786,16.4142,1.25,16,1.25C16,1.25,16,2.75,16,2.75C16,2.75,16,2.75,16,2.75ZM7.75,5C7.75,3.75421,8.75421,2.75,10,2.75C10,2.75,10,1.25,10,1.25C7.92579,1.25,6.25,2.92579,6.25,5C6.25,5,7.75,5,7.75,5C7.75,5,7.75,5,7.75,5ZM10,2.75C10,2.75,16,2.75,16,2.75C16,2.75,16,1.25,16,1.25C16,1.25,10,1.25,10,1.25C10,1.25,10,2.75,10,2.75C10,2.75,10,2.75,10,2.75Z" fill="#6175AE" fill-opacity="1"/></g><g><path d="M22.750000534057616,8C22.750000534057616,7.585786,22.414210534057617,7.25,22.000000534057616,7.25C21.585790534057615,7.25,21.250000534057616,7.585786,21.250000534057616,8C21.250000534057616,8,22.750000534057616,8,22.750000534057616,8C22.750000534057616,8,22.750000534057616,8,22.750000534057616,8ZM19.190000534057617,16.25C18.775786534057616,16.25,18.440000534057617,16.58579,18.440000534057617,17C18.440000534057617,17.4142,18.775786534057616,17.75,19.190000534057617,17.75C19.190000534057617,17.75,19.190000534057617,16.25,19.190000534057617,16.25C19.190000534057617,16.25,19.190000534057617,16.25,19.190000534057617,16.25ZM21.250000534057616,8C21.250000534057616,8,21.250000534057616,14.190000000000001,21.250000534057616,14.190000000000001C21.250000534057616,14.190000000000001,22.750000534057616,14.190000000000001,22.750000534057616,14.190000000000001C22.750000534057616,14.190000000000001,22.750000534057616,8,22.750000534057616,8C22.750000534057616,8,21.250000534057616,8,21.250000534057616,8C21.250000534057616,8,21.250000534057616,8,21.250000534057616,8ZM21.250000534057616,14.190000000000001C21.250000534057616,15.32579,20.325790534057617,16.25,19.190000534057617,16.25C19.190000534057617,16.25,19.190000534057617,17.75,19.190000534057617,17.75C21.15421053405762,17.75,22.750000534057616,16.15421,22.750000534057616,14.190000000000001C22.750000534057616,14.190000000000001,21.250000534057616,14.190000000000001,21.250000534057616,14.190000000000001C21.250000534057616,14.190000000000001,21.250000534057616,14.190000000000001,21.250000534057616,14.190000000000001Z" fill="#6175AE" fill-opacity="1"/></g><g><path d="M22,7.999998065490723C22,7.999998065490723,22,8.749998065490722,22,8.749998065490722C22.303350000000002,8.749998065490722,22.576819999999998,8.567268065490723,22.69291,8.287008065490722C22.809,8.006758065490722,22.74483,7.684168065490723,22.53033,7.469668065490723C22.53033,7.469668065490723,22,7.999998065490723,22,7.999998065490723C22,7.999998065490723,22,7.999998065490723,22,7.999998065490723ZM16,2.0000000654907226C16,2.0000000654907226,16.53033,1.4696700654907227,16.53033,1.4696700654907227C16.31583,1.2551710054907226,15.993243,1.1910049654907227,15.712987,1.3070899654907226C15.432732,1.4231760654907226,15.25,1.6966530654907226,15.25,2.0000000654907226C15.25,2.0000000654907226,16,2.0000000654907226,16,2.0000000654907226C16,2.0000000654907226,16,2.0000000654907226,16,2.0000000654907226ZM22,7.249998065490723C22,7.249998065490723,19,7.249998065490723,19,7.249998065490723C19,7.249998065490723,19,8.749998065490722,19,8.749998065490722C19,8.749998065490722,22,8.749998065490722,22,8.749998065490722C22,8.749998065490722,22,7.249998065490723,22,7.249998065490723C22,7.249998065490723,22,7.249998065490723,22,7.249998065490723ZM19,7.249998065490723C17.91655,7.249998065490723,17.43291,7.059748065490723,17.18658,6.813418065490723C16.94025,6.567088065490722,16.75,6.083448065490723,16.75,4.999998065490723C16.75,4.999998065490723,15.25,4.999998065490723,15.25,4.999998065490723C15.25,6.166548065490723,15.434749,7.1829080654907225,16.12592,7.874078065490723C16.81709,8.565248065490723,17.83345,8.749998065490722,19,8.749998065490722C19,8.749998065490722,19,7.249998065490723,19,7.249998065490723C19,7.249998065490723,19,7.249998065490723,19,7.249998065490723ZM16.75,4.999998065490723C16.75,4.999998065490723,16.75,2.0000000654907226,16.75,2.0000000654907226C16.75,2.0000000654907226,15.25,2.0000000654907226,15.25,2.0000000654907226C15.25,2.0000000654907226,15.25,4.999998065490723,15.25,4.999998065490723C15.25,4.999998065490723,16.75,4.999998065490723,16.75,4.999998065490723C16.75,4.999998065490723,16.75,4.999998065490723,16.75,4.999998065490723ZM15.46967,2.530328065490723C15.46967,2.530328065490723,21.46967,8.530328065490723,21.46967,8.530328065490723C21.46967,8.530328065490723,22.53033,7.469668065490723,22.53033,7.469668065490723C22.53033,7.469668065490723,16.53033,1.4696700654907227,16.53033,1.4696700654907227C16.53033,1.4696700654907227,15.46967,2.530328065490723,15.46967,2.530328065490723C15.46967,2.530328065490723,15.46967,2.530328065490723,15.46967,2.530328065490723Z" fill="#414D73" fill-opacity="1"/></g></g></g></g></svg>