<svg xmlns="http://www.w3.org/2000/svg" xmlns:xlink="http://www.w3.org/1999/xlink" fill="none" version="1.1" width="24" height="24" viewBox="0 0 24 24"><g><g><path d="M16.75,7.63C16.75,8.04421,17.0858,8.379999999999999,17.5,8.379999999999999C17.9142,8.379999999999999,18.25,8.04421,18.25,7.63C18.25,7.63,16.75,7.63,16.75,7.63C16.75,7.63,16.75,7.63,16.75,7.63ZM5.75,7.56C5.75,7.97421,6.085786,8.309999999999999,6.5,8.309999999999999C6.91421,8.309999999999999,7.25,7.97421,7.25,7.56C7.25,7.56,5.75,7.56,5.75,7.56C5.75,7.56,5.75,7.56,5.75,7.56ZM18.25,7.63C18.25,7.63,18.25,5,18.25,5C18.25,5,16.75,5,16.75,5C16.75,5,16.75,7.63,16.75,7.63C16.75,7.63,18.25,7.63,18.25,7.63C18.25,7.63,18.25,7.63,18.25,7.63ZM18.25,5C18.25,3.88439,17.970599999999997,2.90993,17.2803,2.21967C16.5901,1.52941,15.61561,1.25,14.5,1.25C14.5,1.25,14.5,2.75,14.5,2.75C15.38439,2.75,15.9099,2.97059,16.2197,3.28033C16.529400000000003,3.59007,16.75,4.11561,16.75,5C16.75,5,18.25,5,18.25,5C18.25,5,18.25,5,18.25,5ZM14.5,1.25C14.5,1.25,9.5,1.25,9.5,1.25C9.5,1.25,9.5,2.75,9.5,2.75C9.5,2.75,14.5,2.75,14.5,2.75C14.5,2.75,14.5,1.25,14.5,1.25C14.5,1.25,14.5,1.25,14.5,1.25ZM9.5,1.25C8.38439,1.25,7.40993,1.52941,6.71967,2.21967C6.02941,2.90993,5.75,3.88439,5.75,5C5.75,5,7.25,5,7.25,5C7.25,4.11561,7.47059,3.59007,7.78033,3.28033C8.09007,2.97059,8.61561,2.75,9.5,2.75C9.5,2.75,9.5,1.25,9.5,1.25C9.5,1.25,9.5,1.25,9.5,1.25ZM5.75,5C5.75,5,5.75,7.56,5.75,7.56C5.75,7.56,7.25,7.56,7.25,7.56C7.25,7.56,7.25,5,7.25,5C7.25,5,5.75,5,5.75,5C5.75,5,5.75,5,5.75,5Z" fill="#6175AE" fill-opacity="1"/></g><g><path d="M5.980009765625001,18.96994140625C5.980009765625001,18.96994140625,5.560649765625,19.59174140625,5.560649765625,19.59174140625C5.575139765625,19.60154140625,5.589959765625,19.61074140625,5.605099765625,19.61954140625C5.605099765625,19.61954140625,5.980009765625001,18.96994140625,5.980009765625001,18.96994140625C5.980009765625001,18.96994140625,5.980009765625001,18.96994140625,5.980009765625001,18.96994140625ZM10.710009765625,21.69994140625C10.710009765625,21.69994140625,11.085069765625,21.05044140625,11.085069765625,21.05044140625C11.085069765625,21.05044140625,11.084919765625,21.05034140625,11.084919765625,21.05034140625C11.084919765625,21.05034140625,10.710009765625,21.69994140625,10.710009765625,21.69994140625C10.710009765625,21.69994140625,10.710009765625,21.69994140625,10.710009765625,21.69994140625ZM13.290009765625,21.69994140625C13.290009765625,21.69994140625,12.915099765625,21.05034140625,12.915099765625,21.05034140625C12.915099765625,21.05034140625,12.914949765625,21.05044140625,12.914949765625,21.05044140625C12.914949765625,21.05044140625,13.290009765625,21.69994140625,13.290009765625,21.69994140625C13.290009765625,21.69994140625,13.290009765625,21.69994140625,13.290009765625,21.69994140625ZM18.020009765624998,18.96994140625C18.020009765624998,18.96994140625,18.394909765625002,19.61954140625,18.394909765625002,19.61954140625C18.410009765625,19.61074140625,18.424909765625,19.60154140625,18.439409765625,19.59174140625C18.439409765625,19.59174140625,18.020009765624998,18.96994140625,18.020009765624998,18.96994140625C18.020009765624998,18.96994140625,18.020009765624998,18.96994140625,18.020009765624998,18.96994140625ZM18.020009765624998,8.03994140625C18.020009765624998,8.03994140625,18.439409765625,7.41814140625,18.439409765625,7.41814140625C18.424909765625,7.40837140625,18.410009765625,7.39910140625,18.394909765625002,7.39037140625C18.394909765625002,7.39037140625,18.020009765624998,8.03994140625,18.020009765624998,8.03994140625C18.020009765624998,8.03994140625,18.020009765624998,8.03994140625,18.020009765624998,8.03994140625ZM13.290009765625,5.30994140625C13.290009765625,5.30994140625,12.914949765625,5.95943140625,12.914949765625,5.95943140625C12.914949765625,5.95943140625,12.915099765625,5.95951140625,12.915099765625,5.95951140625C12.915099765625,5.95951140625,13.290009765625,5.30994140625,13.290009765625,5.30994140625C13.290009765625,5.30994140625,13.290009765625,5.30994140625,13.290009765625,5.30994140625ZM10.710009765625,5.30994140625C10.710009765625,5.30994140625,11.084919765625,5.95951140625,11.084919765625,5.95951140625C11.084919765625,5.95951140625,11.085069765625,5.95943140625,11.085069765625,5.95943140625C11.085069765625,5.95943140625,10.710009765625,5.30994140625,10.710009765625,5.30994140625C10.710009765625,5.30994140625,10.710009765625,5.30994140625,10.710009765625,5.30994140625ZM5.980009765625001,8.03994140625C5.980009765625001,8.03994140625,5.605099765625,7.39037140625,5.605099765625,7.39037140625C5.589959765625,7.39910140625,5.575139765625,7.40837140625,5.560649765625,7.41814140625C5.560649765625,7.41814140625,5.980009765625001,8.03994140625,5.980009765625001,8.03994140625C5.980009765625001,8.03994140625,5.980009765625001,8.03994140625,5.980009765625001,8.03994140625ZM3.510011880115,11.01994140625C3.510011880115,11.01994140625,3.510011880115,15.98994140625,3.510011880115,15.98994140625C3.510011880115,15.98994140625,5.010009765625,15.98994140625,5.010009765625,15.98994140625C5.010009765625,15.98994140625,5.010009765625,11.01994140625,5.010009765625,11.01994140625C5.010009765625,11.01994140625,3.510011880115,11.01994140625,3.510011880115,11.01994140625C3.510011880115,11.01994140625,3.510011880115,11.01994140625,3.510011880115,11.01994140625ZM3.510011880115,15.98994140625C3.510011880115,16.43044140625,3.509180879625,16.814441406249998,3.540466865625,17.13344140625C3.573329865625,17.46854140625,3.645713765625,17.79094140625,3.825444765625,18.102341406249998C4.000945765625,18.40644140625,4.245293765625,18.64124140625,4.5199897656250005,18.85884140625C4.7896497656250006,19.07234140625,5.140349765625,19.308241406249998,5.560649765625,19.59174140625C5.560649765625,19.59174140625,6.399369765625,18.34814140625,6.399369765625,18.34814140625C5.959669765625,18.05164140625,5.665369765625,17.852541406249998,5.451279765625,17.682941406250002C5.242229765625,17.51734140625,5.164079765625,17.42094140625,5.1245797656250005,17.352541406249998C5.089309765625,17.29144140625,5.054189765625,17.20004140625,5.033309765625,16.98704140625C5.0108397656250006,16.757941406249998,5.010009765625,16.45944140625,5.010009765625,15.98994140625C5.010009765625,15.98994140625,3.510011880115,15.98994140625,3.510011880115,15.98994140625C3.510011880115,15.98994140625,3.510011880115,15.98994140625,3.510011880115,15.98994140625ZM5.605099765625,19.61954140625C5.605099765625,19.61954140625,10.335099765625,22.34954140625,10.335099765625,22.34954140625C10.335099765625,22.34954140625,11.084919765625,21.05034140625,11.084919765625,21.05034140625C11.084919765625,21.05034140625,6.3549197656250005,18.32034140625,6.3549197656250005,18.32034140625C6.3549197656250005,18.32034140625,5.605099765625,19.61954140625,5.605099765625,19.61954140625C5.605099765625,19.61954140625,5.605099765625,19.61954140625,5.605099765625,19.61954140625ZM10.334949765625,22.34944140625C10.831469765625,22.63614140625,11.436699765625,22.75744140625,12.000009765625,22.75744140625C12.563319765625,22.75744140625,13.168549765625,22.63614140625,13.665109765625,22.34944140625C13.665109765625,22.34944140625,12.914949765625,21.05044140625,12.914949765625,21.05044140625C12.701469765625,21.17374140625,12.371699765625,21.25744140625,12.000009765625,21.25744140625C11.628319765625,21.25744140625,11.298549765625001,21.17374140625,11.085069765625,21.05044140625C11.085069765625,21.05044140625,10.334949765625,22.34944140625,10.334949765625,22.34944140625C10.334949765625,22.34944140625,10.334949765625,22.34944140625,10.334949765625,22.34944140625ZM13.664909765625,22.34954140625C13.664909765625,22.34954140625,18.394909765625002,19.61954140625,18.394909765625002,19.61954140625C18.394909765625002,19.61954140625,17.645109765625,18.32034140625,17.645109765625,18.32034140625C17.645109765625,18.32034140625,12.915099765625,21.05034140625,12.915099765625,21.05034140625C12.915099765625,21.05034140625,13.664909765625,22.34954140625,13.664909765625,22.34954140625C13.664909765625,22.34954140625,13.664909765625,22.34954140625,13.664909765625,22.34954140625ZM18.439409765625,19.59174140625C18.859709765625,19.308241406249998,19.210409765625002,19.07234140625,19.480009765625,18.85884140625C19.754709765625,18.64124140625,19.999109765625,18.40644140625,20.174609765625,18.102341406249998C20.354309765625,17.79094140625,20.426709765625,17.46854140625,20.459509765625,17.13344140625C20.490809765625,16.814441406249998,20.490009765625,16.43044140625,20.490009765625,15.98994140625C20.490009765625,15.98994140625,18.990009765625,15.98994140625,18.990009765625,15.98994140625C18.990009765625,16.45944140625,18.989209765625,16.757941406249998,18.966709765624998,16.98704140625C18.945809765625,17.20004140625,18.910709765625,17.29144140625,18.875409765625,17.352541406249998C18.835909765625,17.42094140625,18.757809765624998,17.51734140625,18.548709765625,17.682941406250002C18.334609765625,17.852541406249998,18.040309765625,18.05164140625,17.600609765625002,18.34814140625C17.600609765625002,18.34814140625,18.439409765625,19.59174140625,18.439409765625,19.59174140625C18.439409765625,19.59174140625,18.439409765625,19.59174140625,18.439409765625,19.59174140625ZM20.490009765625,15.98994140625C20.490009765625,15.98994140625,20.490009765625,11.01994140625,20.490009765625,11.01994140625C20.490009765625,11.01994140625,18.990009765625,11.01994140625,18.990009765625,11.01994140625C18.990009765625,11.01994140625,18.990009765625,15.98994140625,18.990009765625,15.98994140625C18.990009765625,15.98994140625,20.490009765625,15.98994140625,20.490009765625,15.98994140625C20.490009765625,15.98994140625,20.490009765625,15.98994140625,20.490009765625,15.98994140625ZM20.490009765625,11.01994140625C20.490009765625,10.57948140625,20.490809765625,10.19548140625,20.459509765625,9.87643140625C20.426709765625,9.54131140625,20.354309765625,9.21892140625,20.174609765625,8.90752140625C19.999109765625,8.60346140625,19.754709765625,8.36862140625,19.480009765625,8.151061406250001C19.210409765625002,7.93750140625,18.859709765625,7.70160140625,18.439409765625,7.41814140625C18.439409765625,7.41814140625,17.600609765625002,8.66174140625,17.600609765625002,8.66174140625C18.040309765625,8.95828140625,18.334609765625,9.15738140625,18.548709765625,9.32694140625C18.757809765624998,9.49251140625,18.835909765625,9.58892140625,18.875409765625,9.65736140625C18.910709765625,9.71846140625,18.945809765625,9.80982140625,18.966709765624998,10.02282140625C18.989209765625,10.25190140625,18.990009765625,10.55040140625,18.990009765625,11.01994140625C18.990009765625,11.01994140625,20.490009765625,11.01994140625,20.490009765625,11.01994140625C20.490009765625,11.01994140625,20.490009765625,11.01994140625,20.490009765625,11.01994140625ZM18.394909765625002,7.39037140625C18.394909765625002,7.39037140625,13.664909765625,4.66037040625,13.664909765625,4.66037040625C13.664909765625,4.66037040625,12.915099765625,5.95951140625,12.915099765625,5.95951140625C12.915099765625,5.95951140625,17.645109765625,8.68951140625,17.645109765625,8.68951140625C17.645109765625,8.68951140625,18.394909765625002,7.39037140625,18.394909765625002,7.39037140625C18.394909765625002,7.39037140625,18.394909765625002,7.39037140625,18.394909765625002,7.39037140625ZM13.665109765625,4.66045440625C13.168549765625,4.37373440625,12.563319765625,4.25244140625,12.000009765625,4.25244140625C11.436699765625,4.25244140625,10.831469765625,4.37373440625,10.334949765625,4.66045440625C10.334949765625,4.66045440625,11.085069765625,5.95943140625,11.085069765625,5.95943140625C11.298549765625001,5.83615140625,11.628319765625,5.75244140625,12.000009765625,5.75244140625C12.371699765625,5.75244140625,12.701469765625,5.83615140625,12.914949765625,5.95943140625C12.914949765625,5.95943140625,13.665109765625,4.66045440625,13.665109765625,4.66045440625C13.665109765625,4.66045440625,13.665109765625,4.66045440625,13.665109765625,4.66045440625ZM10.335099765625,4.66037040625C10.335099765625,4.66037040625,5.605099765625,7.39037140625,5.605099765625,7.39037140625C5.605099765625,7.39037140625,6.3549197656250005,8.68951140625,6.3549197656250005,8.68951140625C6.3549197656250005,8.68951140625,11.084919765625,5.95951140625,11.084919765625,5.95951140625C11.084919765625,5.95951140625,10.335099765625,4.66037040625,10.335099765625,4.66037040625C10.335099765625,4.66037040625,10.335099765625,4.66037040625,10.335099765625,4.66037040625ZM5.560649765625,7.41814140625C5.140349765625,7.70160140625,4.7896497656250006,7.93750140625,4.5199897656250005,8.151061406250001C4.245293765625,8.36862140625,4.000945765625,8.60346140625,3.825444765625,8.90752140625C3.645713765625,9.21892140625,3.573329865625,9.54131140625,3.540466865625,9.87643140625C3.509180879625,10.19548140625,3.510011880115,10.57948140625,3.510011880115,11.01994140625C3.510011880115,11.01994140625,5.010009765625,11.01994140625,5.010009765625,11.01994140625C5.010009765625,10.55040140625,5.0108397656250006,10.25190140625,5.033309765625,10.02282140625C5.054189765625,9.80982140625,5.089309765625,9.71846140625,5.1245797656250005,9.65736140625C5.164079765625,9.58892140625,5.242229765625,9.49251140625,5.451279765625,9.32694140625C5.665369765625,9.15738140625,5.959669765625,8.95828140625,6.399369765625,8.66174140625C6.399369765625,8.66174140625,5.560649765625,7.41814140625,5.560649765625,7.41814140625C5.560649765625,7.41814140625,5.560649765625,7.41814140625,5.560649765625,7.41814140625Z" fill="#414D73" fill-opacity="1"/></g><g><path d="M12.629992394866942,10.990000038146972C12.629992394866942,10.990000038146972,13.261582394866943,10.585503038146973,13.261582394866943,10.585503038146973C13.261582394866943,10.585503038146973,13.259362394866944,10.582078038146973,13.259362394866944,10.582078038146973C13.259362394866944,10.582078038146973,12.629992394866942,10.990000038146972,12.629992394866942,10.990000038146972C12.629992394866942,10.990000038146972,12.629992394866942,10.990000038146972,12.629992394866942,10.990000038146972ZM13.199992394866943,11.880000038146973C13.199992394866943,11.880000038146973,12.568422394866943,12.284490038146973,12.568422394866943,12.284490038146973C12.568422394866943,12.284490038146973,12.569112394866943,12.285570038146972,12.569112394866943,12.285570038146972C12.569112394866943,12.285570038146972,13.199992394866943,11.880000038146973,13.199992394866943,11.880000038146973C13.199992394866943,11.880000038146973,13.199992394866943,11.880000038146973,13.199992394866943,11.880000038146973ZM13.639992394866944,12.200000038146973C13.639992394866944,12.200000038146973,13.446732394866943,12.924720038146972,13.446732394866943,12.924720038146972C13.446732394866943,12.924720038146972,13.454742394866944,12.926760038146973,13.454742394866944,12.926760038146973C13.454742394866944,12.926760038146973,13.639992394866944,12.200000038146973,13.639992394866944,12.200000038146973C13.639992394866944,12.200000038146973,13.639992394866944,12.200000038146973,13.639992394866944,12.200000038146973ZM14.659992394866943,12.460000038146973C14.659992394866943,12.460000038146973,14.474742394866944,13.186760038146973,14.474742394866944,13.186760038146973C14.474742394866944,13.186760038146973,14.475382394866944,13.186920038146972,14.475382394866944,13.186920038146972C14.475382394866944,13.186920038146972,14.659992394866943,12.460000038146973,14.659992394866943,12.460000038146973C14.659992394866943,12.460000038146973,14.659992394866943,12.460000038146973,14.659992394866943,12.460000038146973ZM15.049992394866944,13.660000038146972C15.049992394866944,13.660000038146972,15.627922394866943,14.138030038146972,15.627922394866943,14.138030038146972C15.627922394866943,14.138030038146972,15.629942394866944,14.135560038146973,15.629942394866944,14.135560038146973C15.629942394866944,14.135560038146973,15.049992394866944,13.660000038146972,15.049992394866944,13.660000038146972C15.049992394866944,13.660000038146972,15.049992394866944,13.660000038146972,15.049992394866944,13.660000038146972ZM14.379992394866942,14.470000038146972C14.379992394866942,14.470000038146972,13.802082394866943,13.991970038146974,13.802082394866943,13.991970038146974C13.796442394866943,13.998790038146971,13.790922394866943,14.005700038146973,13.785532394866944,14.012720038146973C13.785532394866944,14.012720038146973,14.379992394866942,14.470000038146972,14.379992394866942,14.470000038146972C14.379992394866942,14.470000038146972,14.379992394866942,14.470000038146972,14.379992394866942,14.470000038146972ZM14.209992394866944,14.990000038146974C14.209992394866944,14.990000038146974,14.958782394866944,14.947210038146974,14.958782394866944,14.947210038146974C14.958782394866944,14.947210038146974,14.958532394866943,14.943220038146972,14.958532394866943,14.943220038146972C14.958532394866943,14.943220038146972,14.209992394866944,14.990000038146974,14.209992394866944,14.990000038146974C14.209992394866944,14.990000038146974,14.209992394866944,14.990000038146974,14.209992394866944,14.990000038146974ZM14.269992394866943,16.04000003814697C14.269992394866943,16.04000003814697,13.521212394866943,16.082790038146975,13.521212394866943,16.082790038146975C13.521212394866943,16.082790038146975,13.521412394866942,16.08607003814697,13.521412394866942,16.08607003814697C13.521412394866942,16.08607003814697,14.269992394866943,16.04000003814697,14.269992394866943,16.04000003814697C14.269992394866943,16.04000003814697,14.269992394866943,16.04000003814697,14.269992394866943,16.04000003814697ZM13.249992394866943,16.780000038146973C13.249992394866943,16.780000038146973,13.528542394866943,16.083640038146974,13.528542394866943,16.083640038146974C13.528542394866943,16.083640038146974,13.527312394866943,16.08315003814697,13.527312394866943,16.08315003814697C13.527312394866943,16.08315003814697,13.249992394866943,16.780000038146973,13.249992394866943,16.780000038146973C13.249992394866943,16.780000038146973,13.249992394866943,16.780000038146973,13.249992394866943,16.780000038146973ZM12.269992394866943,16.390000038146972C12.269992394866943,16.390000038146972,11.991452394866943,17.08636003814697,11.991452394866943,17.08636003814697C11.991452394866943,17.08636003814697,11.992682394866943,17.086850038146974,11.992682394866943,17.086850038146974C11.992682394866943,17.086850038146974,12.269992394866943,16.390000038146972,12.269992394866943,16.390000038146972C12.269992394866943,16.390000038146972,12.269992394866943,16.390000038146972,12.269992394866943,16.390000038146972ZM11.719992394866944,16.390000038146972C11.719992394866944,16.390000038146972,11.997312394866944,17.086850038146974,11.997312394866944,17.086850038146974C11.997312394866944,17.086850038146974,11.998542394866943,17.08636003814697,11.998542394866943,17.08636003814697C11.998542394866943,17.08636003814697,11.719992394866944,16.390000038146972,11.719992394866944,16.390000038146972C11.719992394866944,16.390000038146972,11.719992394866944,16.390000038146972,11.719992394866944,16.390000038146972ZM10.739992394866944,16.780000038146973C10.739992394866944,16.780000038146973,10.462682394866944,16.08315003814697,10.462682394866944,16.08315003814697C10.462682394866944,16.08315003814697,10.461452394866944,16.083640038146974,10.461452394866944,16.083640038146974C10.461452394866944,16.083640038146974,10.739992394866944,16.780000038146973,10.739992394866944,16.780000038146973C10.739992394866944,16.780000038146973,10.739992394866944,16.780000038146973,10.739992394866944,16.780000038146973ZM9.719992394866944,16.04000003814697C9.719992394866944,16.04000003814697,10.468542394866944,16.086790038146972,10.468542394866944,16.086790038146972C10.468542394866944,16.086790038146972,10.468772394866944,16.082790038146975,10.468772394866944,16.082790038146975C10.468772394866944,16.082790038146975,9.719992394866944,16.04000003814697,9.719992394866944,16.04000003814697C9.719992394866944,16.04000003814697,9.719992394866944,16.04000003814697,9.719992394866944,16.04000003814697ZM9.779992394866943,14.990000038146974C9.779992394866943,14.990000038146974,9.031452394866943,14.943220038146972,9.031452394866943,14.943220038146972C9.031452394866943,14.943220038146972,9.031222394866944,14.947210038146974,9.031222394866944,14.947210038146974C9.031222394866944,14.947210038146974,9.779992394866943,14.990000038146974,9.779992394866943,14.990000038146974C9.779992394866943,14.990000038146974,9.779992394866943,14.990000038146974,9.779992394866943,14.990000038146974ZM9.610002394866942,14.470000038146972C9.610002394866942,14.470000038146972,9.032082394866944,14.948030038146973,9.032082394866944,14.948030038146973C9.032082394866944,14.948030038146973,9.033832394866943,14.950140038146973,9.033832394866943,14.950140038146973C9.033832394866943,14.950140038146973,9.610002394866942,14.470000038146972,9.610002394866942,14.470000038146972C9.610002394866942,14.470000038146972,9.610002394866942,14.470000038146972,9.610002394866942,14.470000038146972ZM8.939999394866943,13.660000038146972C8.939999394866943,13.660000038146972,8.360043394866944,14.135560038146973,8.360043394866944,14.135560038146973C8.360043394866944,14.135560038146973,8.362082394866944,14.138030038146972,8.362082394866944,14.138030038146972C8.362082394866944,14.138030038146972,8.939999394866943,13.660000038146972,8.939999394866943,13.660000038146972C8.939999394866943,13.660000038146972,8.939999394866943,13.660000038146972,8.939999394866943,13.660000038146972ZM9.330002394866943,12.460000038146973C9.330002394866943,12.460000038146973,9.514612394866944,13.186920038146972,9.514612394866944,13.186920038146972C9.514612394866944,13.186920038146972,9.515252394866943,13.186760038146973,9.515252394866943,13.186760038146973C9.515252394866943,13.186760038146973,9.330002394866943,12.460000038146973,9.330002394866943,12.460000038146973C9.330002394866943,12.460000038146973,9.330002394866943,12.460000038146973,9.330002394866943,12.460000038146973ZM10.349992394866943,12.200000038146973C10.349992394866943,12.200000038146973,10.168092394866942,11.472390038146973,10.168092394866942,11.472390038146973C10.168092394866942,11.472390038146973,10.164742394866943,11.473240038146972,10.164742394866943,11.473240038146972C10.164742394866943,11.473240038146972,10.349992394866943,12.200000038146973,10.349992394866943,12.200000038146973C10.349992394866943,12.200000038146973,10.349992394866943,12.200000038146973,10.349992394866943,12.200000038146973ZM10.789992394866943,11.880000038146973C10.789992394866943,11.880000038146973,10.158322394866943,11.475440038146973,10.158322394866943,11.475440038146973C10.158322394866943,11.475440038146973,10.151252394866944,11.486930038146973,10.151252394866944,11.486930038146973C10.151252394866944,11.486930038146973,10.789992394866943,11.880000038146973,10.789992394866943,11.880000038146973C10.789992394866943,11.880000038146973,10.789992394866943,11.880000038146973,10.789992394866943,11.880000038146973ZM11.359992394866943,10.990000038146972C11.359992394866943,10.990000038146972,10.735852394866944,10.573905038146973,10.735852394866944,10.573905038146973C10.735852394866944,10.573905038146973,10.728422394866943,10.585509038146972,10.728422394866943,10.585509038146972C10.728422394866943,10.585509038146972,11.359992394866943,10.990000038146972,11.359992394866943,10.990000038146972C11.359992394866943,10.990000038146972,11.359992394866943,10.990000038146972,11.359992394866943,10.990000038146972ZM11.998422394866942,11.394490038146973C11.998422394866942,11.394490038146973,12.568422394866943,12.284490038146973,12.568422394866943,12.284490038146973C12.568422394866943,12.284490038146973,13.831572394866942,11.475510038146972,13.831572394866942,11.475510038146972C13.831572394866942,11.475510038146972,13.261572394866944,10.585509038146972,13.261572394866944,10.585509038146972C13.261572394866944,10.585509038146972,11.998422394866942,11.394490038146973,11.998422394866942,11.394490038146973C11.998422394866942,11.394490038146973,11.998422394866942,11.394490038146973,11.998422394866942,11.394490038146973ZM12.569112394866943,12.285570038146972C12.680612394866944,12.459010038146973,12.830462394866943,12.593580038146973,12.959772394866944,12.686510038146974C13.088902394866944,12.779330038146973,13.258692394866944,12.874530038146972,13.446752394866945,12.924680038146972C13.446752394866945,12.924680038146972,13.833242394866943,11.475320038146972,13.833242394866943,11.475320038146972C13.846532394866944,11.478870038146972,13.854892394866944,11.482020038146972,13.858142394866944,11.483310038146973C13.861592394866943,11.484680038146973,13.862162394866942,11.485090038146973,13.860072394866943,11.484030038146972C13.858072394866944,11.483020038146973,13.854602394866944,11.481140038146972,13.849972394866944,11.478300038146973C13.845372394866942,11.475490038146972,13.840352394866944,11.472180038146973,13.835222394866943,11.468490038146973C13.830092394866943,11.464800038146972,13.825442394866943,11.461160038146973,13.821462394866943,11.457830038146973C13.817472394866943,11.454470038146972,13.814812394866944,11.451970038146973,13.813482394866943,11.450650038146973C13.812082394866945,11.449260038146972,13.812912394866943,11.449950038146973,13.815502394866943,11.453060038146972C13.817982394866943,11.456060038146973,13.823582394866943,11.463080038146973,13.830882394866943,11.474430038146973C13.830882394866943,11.474430038146973,12.569112394866943,12.285570038146972,12.569112394866943,12.285570038146972C12.569112394866943,12.285570038146972,12.569112394866943,12.285570038146972,12.569112394866943,12.285570038146972ZM13.454742394866944,12.926760038146973C13.454742394866944,12.926760038146973,14.474742394866944,13.186760038146973,14.474742394866944,13.186760038146973C14.474742394866944,13.186760038146973,14.845252394866943,11.733240038146972,14.845252394866943,11.733240038146972C14.845252394866943,11.733240038146972,13.825252394866943,11.473240038146972,13.825252394866943,11.473240038146972C13.825252394866943,11.473240038146972,13.454742394866944,12.926760038146973,13.454742394866944,12.926760038146973C13.454742394866944,12.926760038146973,13.454742394866944,12.926760038146973,13.454742394866944,12.926760038146973ZM14.475382394866944,13.186920038146972C14.509432394866943,13.195570038146972,14.532872394866942,13.204890038146972,14.547612394866944,13.212030038146972C14.562302394866943,13.219140038146973,14.567762394866943,13.223780038146973,14.567142394866943,13.223260038146972C14.566352394866943,13.222620038146973,14.560232394866944,13.217340038146972,14.552412394866943,13.206080038146972C14.544472394866943,13.194650038146973,14.536692394866943,13.179770038146973,14.531062394866943,13.162270038146973C14.525432394866943,13.144800038146972,14.523222394866943,13.128650038146972,14.523002394866943,13.115710038146972C14.522782394866944,13.103000038146973,14.524512394866942,13.096280038146972,14.524442394866943,13.096540038146973C14.524332394866942,13.096980038146972,14.522192394866943,13.104970038146973,14.514142394866944,13.120170038146973C14.506062394866944,13.135410038146972,14.492372394866944,13.157210038146973,14.470042394866944,13.184440038146972C14.470042394866944,13.184440038146972,15.629942394866944,14.135560038146973,15.629942394866944,14.135560038146973C15.946852394866944,13.749090038146973,16.12832239486694,13.229040038146973,15.958932394866943,12.702730038146973C15.788622394866945,12.173540038146973,15.334472394866943,11.857490038146972,14.844612394866942,11.733080038146973C14.844612394866942,11.733080038146973,14.475382394866944,13.186920038146972,14.475382394866944,13.186920038146972C14.475382394866944,13.186920038146972,14.475382394866944,13.186920038146972,14.475382394866944,13.186920038146972ZM14.472082394866943,13.181970038146972C14.472082394866943,13.181970038146972,13.802082394866943,13.991970038146974,13.802082394866943,13.991970038146974C13.802082394866943,13.991970038146974,14.957912394866943,14.948030038146973,14.957912394866943,14.948030038146973C14.957912394866943,14.948030038146973,15.627912394866943,14.138030038146972,15.627912394866943,14.138030038146972C15.627912394866943,14.138030038146972,14.472082394866943,13.181970038146972,14.472082394866943,13.181970038146972C14.472082394866943,13.181970038146972,14.472082394866943,13.181970038146972,14.472082394866943,13.181970038146972ZM13.785532394866944,14.012720038146973C13.672522394866943,14.159630038146972,13.592912394866943,14.329530038146974,13.542232394866943,14.481580038146973C13.492782394866943,14.629940038146973,13.448422394866943,14.828310038146974,13.461452394866942,15.036780038146972C13.461452394866942,15.036780038146972,14.958532394866943,14.943220038146972,14.958532394866943,14.943220038146972C14.959542394866943,14.959350038146972,14.959092394866943,14.970500038146973,14.958732394866942,14.975870038146972C14.958372394866943,14.981440038146973,14.957932394866944,14.983650038146973,14.958142394866943,14.982420038146973C14.958322394866943,14.981300038146973,14.958912394866942,14.978150038146973,14.960162394866943,14.973180038146973C14.961412394866944,14.968250038146973,14.963102394866944,14.962400038146972,14.965262394866944,14.955920038146973C14.967412394866944,14.949450038146972,14.969812394866944,14.943030038146972,14.972342394866942,14.936960038146973C14.974862394866943,14.930860038146973,14.977232394866943,14.925810038146974,14.979172394866943,14.921970038146974C14.981142394866943,14.918070038146972,14.982222394866945,14.916330038146974,14.982022394866943,14.916650038146972C14.981902394866943,14.916850038146972,14.979562394866942,14.920650038146974,14.974462394866944,14.927280038146971C14.974462394866944,14.927280038146971,13.785532394866944,14.012720038146973,13.785532394866944,14.012720038146973C13.785532394866944,14.012720038146973,13.785532394866944,14.012720038146973,13.785532394866944,14.012720038146973ZM13.461212394866944,15.032790038146974C13.461212394866944,15.032790038146974,13.521222394866943,16.082790038146975,13.521222394866943,16.082790038146975C13.521222394866943,16.082790038146975,15.018772394866943,15.997210038146973,15.018772394866943,15.997210038146973C15.018772394866943,15.997210038146973,14.958772394866944,14.947210038146974,14.958772394866944,14.947210038146974C14.958772394866944,14.947210038146974,13.461212394866944,15.032790038146974,13.461212394866944,15.032790038146974C13.461212394866944,15.032790038146974,13.461212394866944,15.032790038146974,13.461212394866944,15.032790038146974ZM13.521412394866942,16.08607003814697C13.523602394866943,16.121590038146973,13.521882394866942,16.147300038146973,13.519532394866943,16.164120038146972C13.517172394866943,16.180890038146973,13.514292394866944,16.188110038146974,13.514382394866942,16.187910038146974C13.514532394866944,16.18752003814697,13.517432394866944,16.180450038146972,13.525532394866943,16.16977003814697C13.533772394866944,16.15891003814697,13.545472394866945,16.146880038146975,13.560582394866945,16.135960038146973C13.575682394866943,16.125040038146974,13.590782394866944,16.11769003814697,13.603722394866942,16.113250038146973C13.616452394866943,16.108890038146974,13.624182394866942,16.10832003814697,13.624782394866944,16.108290038146972C13.625192394866943,16.108260038146973,13.617732394866945,16.108740038146973,13.601512394866944,16.105800038146974C13.585242394866944,16.102850038146972,13.560862394866945,16.09657003814697,13.528542394866943,16.083640038146974C13.528542394866943,16.083640038146974,12.971452394866944,17.47636003814697,12.971452394866944,17.47636003814697C13.437322394866943,17.662710038146972,13.989612394866944,17.676740038146974,14.439412394866944,17.35154003814697C14.889452394866943,17.026180038146972,15.049522394866944,16.49675003814697,15.018582394866943,15.993930038146972C15.018582394866943,15.993930038146972,13.521412394866942,16.08607003814697,13.521412394866942,16.08607003814697C13.521412394866942,16.08607003814697,13.521412394866942,16.08607003814697,13.521412394866942,16.08607003814697ZM13.527312394866943,16.08315003814697C13.527312394866943,16.08315003814697,12.547312394866942,15.693150038146973,12.547312394866942,15.693150038146973C12.547312394866942,15.693150038146973,11.992682394866943,17.086850038146974,11.992682394866943,17.086850038146974C11.992682394866943,17.086850038146974,12.972682394866943,17.47685003814697,12.972682394866943,17.47685003814697C12.972682394866943,17.47685003814697,13.527312394866943,16.08315003814697,13.527312394866943,16.08315003814697C13.527312394866943,16.08315003814697,13.527312394866943,16.08315003814697,13.527312394866943,16.08315003814697ZM12.548542394866942,15.693640038146974C12.357532394866944,15.617240038146972,12.155602394866943,15.595000038146972,11.994992394866944,15.595000038146972C11.834392394866944,15.595000038146972,11.632462394866943,15.617240038146972,11.441452394866943,15.693640038146974C11.441452394866943,15.693640038146974,11.998542394866943,17.08636003814697,11.998542394866943,17.08636003814697C11.984462394866943,17.091990038146974,11.974722394866944,17.094750038146973,11.970502394866944,17.095860038146974C11.966072394866943,17.097020038146972,11.964712394866943,17.09714003814697,11.966612394866942,17.096830038146972C11.968412394866943,17.096540038146973,11.972062394866944,17.096050038146974,11.977362394866944,17.095640038146975C11.982622394866944,17.095240038146972,11.988612394866944,17.09500003814697,11.994992394866944,17.09500003814697C12.001382394866944,17.09500003814697,12.007362394866943,17.095240038146972,12.012632394866944,17.095640038146975C12.017932394866943,17.096050038146974,12.021572394866944,17.096540038146973,12.023382394866942,17.096830038146972C12.025282394866943,17.09714003814697,12.023912394866944,17.097020038146972,12.019492394866944,17.095860038146974C12.015272394866944,17.094750038146973,12.005532394866943,17.091990038146974,11.991452394866943,17.08636003814697C11.991452394866943,17.08636003814697,12.548542394866942,15.693640038146974,12.548542394866942,15.693640038146974C12.548542394866942,15.693640038146974,12.548542394866942,15.693640038146974,12.548542394866942,15.693640038146974ZM11.442682394866942,15.693150038146973C11.442682394866942,15.693150038146973,10.462682394866944,16.08315003814697,10.462682394866944,16.08315003814697C10.462682394866944,16.08315003814697,11.017312394866943,17.47685003814697,11.017312394866943,17.47685003814697C11.017312394866943,17.47685003814697,11.997312394866944,17.086850038146974,11.997312394866944,17.086850038146974C11.997312394866944,17.086850038146974,11.442682394866942,15.693150038146973,11.442682394866942,15.693150038146973C11.442682394866942,15.693150038146973,11.442682394866942,15.693150038146973,11.442682394866942,15.693150038146973ZM10.461452394866944,16.083640038146974C10.397702394866943,16.109140038146972,10.368082394866944,16.107050038146973,10.369802394866944,16.107160038146972C10.370842394866944,16.107230038146973,10.378572394866943,16.107900038146973,10.390942394866943,16.112230038146972C10.403482394866943,16.116630038146972,10.417862394866944,16.123770038146972,10.432102394866943,16.134160038146973C10.446312394866943,16.14453003814697,10.457252394866943,16.155860038146972,10.464912394866943,16.165970038146973C10.472452394866943,16.175930038146973,10.475132394866943,16.18246003814697,10.475242394866942,16.182740038146974C10.475312394866943,16.182920038146975,10.464302394866944,16.154580038146975,10.468532394866944,16.086790038146972C10.468532394866944,16.086790038146972,8.971462394866943,15.993220038146973,8.971462394866943,15.993220038146973C8.940081394866944,16.495280038146973,9.102822394866944,17.021060038146974,9.547902394866943,17.345840038146974C9.994682394866944,17.671880038146973,10.547012394866943,17.664970038146972,11.018542394866943,17.47636003814697C11.018542394866943,17.47636003814697,10.461452394866944,16.083640038146974,10.461452394866944,16.083640038146974C10.461452394866944,16.083640038146974,10.461452394866944,16.083640038146974,10.461452394866944,16.083640038146974ZM10.468772394866944,16.082790038146975C10.468772394866944,16.082790038146975,10.528772394866943,15.032790038146974,10.528772394866943,15.032790038146974C10.528772394866943,15.032790038146974,9.031222394866944,14.947210038146974,9.031222394866944,14.947210038146974C9.031222394866944,14.947210038146974,8.971222394866944,15.997210038146973,8.971222394866944,15.997210038146973C8.971222394866944,15.997210038146973,10.468772394866944,16.082790038146975,10.468772394866944,16.082790038146975C10.468772394866944,16.082790038146975,10.468772394866944,16.082790038146975,10.468772394866944,16.082790038146975ZM10.528532394866943,15.036780038146972C10.541462394866944,14.829950038146972,10.497882394866943,14.630180038146973,10.448692394866944,14.480640038146973C10.399572394866944,14.331330038146973,10.316692394866944,14.146500038146971,10.186162394866944,13.989860038146972C10.186162394866944,13.989860038146972,9.033832394866943,14.950140038146973,9.033832394866943,14.950140038146973C9.023162394866944,14.937340038146973,9.017012394866944,14.928110038146972,9.014542394866943,14.924240038146973C9.011912394866943,14.920130038146972,9.011362394866943,14.918820038146972,9.012352394866943,14.920750038146974C9.013282394866943,14.922570038146972,9.015022394866943,14.926190038146974,9.017222394866943,14.931510038146973C9.019402394866944,14.936780038146972,9.021662394866944,14.942840038146972,9.023802394866944,14.949360038146972C9.025952394866943,14.955880038146972,9.027722394866943,14.962070038146972,9.029092394866943,14.967580038146973C9.030462394866943,14.973140038146973,9.031202394866943,14.977050038146974,9.031522394866943,14.979020038146974C9.031872394866943,14.981120038146972,9.031532394866943,14.979730038146972,9.031222394866944,14.974910038146973C9.030922394866943,14.970330038146972,9.030442394866943,14.959470038146971,9.031462394866944,14.943220038146972C9.031462394866944,14.943220038146972,10.528532394866943,15.036780038146972,10.528532394866943,15.036780038146972C10.528532394866943,15.036780038146972,10.528532394866943,15.036780038146972,10.528532394866943,15.036780038146972ZM10.187912394866943,13.991970038146974C10.187912394866943,13.991970038146974,9.517912394866944,13.181970038146972,9.517912394866944,13.181970038146972C9.517912394866944,13.181970038146972,8.362082394866944,14.138030038146972,8.362082394866944,14.138030038146972C8.362082394866944,14.138030038146972,9.032082394866944,14.948030038146973,9.032082394866944,14.948030038146973C9.032082394866944,14.948030038146973,10.187912394866943,13.991970038146974,10.187912394866943,13.991970038146974C10.187912394866943,13.991970038146974,10.187912394866943,13.991970038146974,10.187912394866943,13.991970038146974ZM9.519952394866943,13.184440038146972C9.497622394866944,13.157210038146973,9.483932394866944,13.135410038146972,9.475852394866944,13.120170038146973C9.467802394866943,13.104970038146973,9.465662394866943,13.096980038146972,9.465552394866943,13.096540038146973C9.465482394866942,13.096280038146972,9.467212394866943,13.103000038146973,9.466992394866944,13.115710038146972C9.466772394866943,13.128650038146972,9.464562394866944,13.144800038146972,9.458932394866943,13.162270038146973C9.453302394866943,13.179770038146973,9.445522394866943,13.194650038146973,9.437582394866944,13.206080038146972C9.429762394866943,13.217340038146972,9.423642394866944,13.222620038146973,9.422862394866943,13.223260038146972C9.422232394866944,13.223780038146973,9.427692394866943,13.219140038146973,9.442382394866943,13.212030038146972C9.457122394866943,13.204890038146972,9.480562394866944,13.195570038146972,9.514612394866944,13.186920038146972C9.514612394866944,13.186920038146972,9.145382394866942,11.733080038146973,9.145382394866942,11.733080038146973C8.655521394866943,11.857490038146972,8.201375394866943,12.173540038146973,8.031063394866944,12.702730038146973C7.861676394866944,13.229040038146973,8.043140394866944,13.749090038146973,8.360048394866944,14.135560038146973C8.360048394866944,14.135560038146973,9.519952394866943,13.184440038146972,9.519952394866943,13.184440038146972C9.519952394866943,13.184440038146972,9.519952394866943,13.184440038146972,9.519952394866943,13.184440038146972ZM9.515252394866943,13.186760038146973C9.515252394866943,13.186760038146973,10.535252394866944,12.926760038146973,10.535252394866944,12.926760038146973C10.535252394866944,12.926760038146973,10.164742394866943,11.473240038146972,10.164742394866943,11.473240038146972C10.164742394866943,11.473240038146972,9.144752394866943,11.733240038146972,9.144752394866943,11.733240038146972C9.144752394866943,11.733240038146972,9.515252394866943,13.186760038146973,9.515252394866943,13.186760038146973C9.515252394866943,13.186760038146973,9.515252394866943,13.186760038146973,9.515252394866943,13.186760038146973ZM10.531902394866943,12.927610038146973C10.736482394866943,12.876460038146973,10.915002394866944,12.772930038146972,11.043932394866943,12.678250038146972C11.171812394866944,12.584340038146973,11.321592394866943,12.447190038146973,11.428742394866944,12.273070038146972C11.428742394866944,12.273070038146972,10.151252394866944,11.486930038146973,10.151252394866944,11.486930038146973C10.160562394866943,11.471800038146974,10.167972394866943,11.462210038146972,10.171442394866943,11.457910038146974C10.175102394866943,11.453380038146973,10.176792394866943,11.451780038146973,10.175882394866942,11.452700038146972C10.175062394866943,11.453530038146972,10.172802394866943,11.455730038146973,10.169072394866944,11.458940038146972C10.165372394866942,11.462120038146972,10.160962394866942,11.465650038146972,10.156062394866943,11.469250038146972C10.151162394866944,11.472840038146973,10.146442394866943,11.476020038146972,10.142212394866943,11.478650038146974C10.137952394866943,11.481300038146973,10.135012394866944,11.482890038146973,10.133702394866944,11.483560038146972C10.132312394866943,11.484270038146972,10.133852394866944,11.483390038146972,10.138532394866942,11.481560038146974C10.143022394866943,11.479810038146972,10.152952394866944,11.476180038146973,10.168092394866942,11.472390038146973C10.168092394866942,11.472390038146973,10.531902394866943,12.927610038146973,10.531902394866943,12.927610038146973C10.531902394866943,12.927610038146973,10.531902394866943,12.927610038146973,10.531902394866943,12.927610038146973ZM11.421572394866944,12.284490038146973C11.421572394866944,12.284490038146973,11.991572394866942,11.394490038146973,11.991572394866942,11.394490038146973C11.991572394866942,11.394490038146973,10.728422394866943,10.585509038146972,10.728422394866943,10.585509038146972C10.728422394866943,10.585509038146972,10.158422394866943,11.475510038146972,10.158422394866943,11.475510038146972C10.158422394866943,11.475510038146972,11.421572394866944,12.284490038146973,11.421572394866944,12.284490038146973C11.421572394866944,12.284490038146973,11.421572394866944,12.284490038146973,11.421572394866944,12.284490038146973ZM11.984032394866944,11.406030038146973C12.004252394866944,11.375700038146972,12.021812394866943,11.355270038146973,12.034822394866943,11.342220038146973C12.047792394866942,11.329200038146972,12.055682394866944,11.324060038146973,12.057022394866944,11.323220038146973C12.058212394866944,11.322490038146972,12.053342394866943,11.325670038146972,12.042232394866943,11.328990038146973C12.030912394866943,11.332370038146973,12.015982394866944,11.335000038146973,11.998742394866944,11.335000038146973C11.981492394866944,11.335000038146973,11.966022394866943,11.332360038146973,11.953692394866943,11.328660038146973C11.947762394866944,11.326880038146973,11.943192394866944,11.325050038146973,11.940012394866944,11.323590038146973C11.938442394866943,11.322870038146974,11.937262394866943,11.322260038146972,11.936462394866943,11.321830038146972C11.935672394866943,11.321400038146972,11.935282394866944,11.321160038146973,11.935282394866944,11.321160038146973C11.935292394866943,11.321160038146973,11.935692394866944,11.321410038146972,11.936482394866943,11.321980038146972C11.937282394866944,11.322550038146973,11.938462394866944,11.323440038146973,11.940012394866944,11.324700038146972C11.943112394866944,11.327230038146972,11.947682394866943,11.331260038146972,11.953512394866944,11.337210038146972C11.965232394866943,11.349200038146973,11.981602394866943,11.368570038146974,12.000632394866944,11.397920038146973C12.000632394866944,11.397920038146973,13.259362394866944,10.582078038146973,13.259362394866944,10.582078038146973C12.987662394866943,10.162891038146972,12.549682394866943,9.835000038146973,11.998742394866944,9.835000038146973C11.450292394866944,9.835000038146973,11.011892394866944,10.160075038146973,10.735962394866943,10.573975038146973C10.735962394866943,10.573975038146973,11.984032394866944,11.406030038146973,11.984032394866944,11.406030038146973C11.984032394866944,11.406030038146973,11.984032394866944,11.406030038146973,11.984032394866944,11.406030038146973Z" fill="#6175AE" fill-opacity="1"/></g><g transform="matrix(-1,-1.2246469849340659e-16,1.2246469849340659e-16,-1,48,48)" style="opacity:0;"></g></g></svg>