<svg xmlns="http://www.w3.org/2000/svg" xmlns:xlink="http://www.w3.org/1999/xlink" fill="none" version="1.1" width="24" height="24" viewBox="0 0 24 24"><g><g><path d="M12,22.75C17.9142,22.75,22.75,17.9142,22.75,12C22.75,12,21.25,12,21.25,12C21.25,17.0858,17.0858,21.25,12,21.25C12,21.25,12,22.75,12,22.75C12,22.75,12,22.75,12,22.75ZM22.75,12C22.75,6.08579,17.9142,1.25,12,1.25C12,1.25,12,2.75,12,2.75C17.0858,2.75,21.25,6.91421,21.25,12C21.25,12,22.75,12,22.75,12C22.75,12,22.75,12,22.75,12ZM12,1.25C6.08579,1.25,1.25,6.08579,1.25,12C1.25,12,2.75,12,2.75,12C2.75,6.91421,6.91421,2.75,12,2.75C12,2.75,12,1.25,12,1.25C12,1.25,12,1.25,12,1.25ZM1.25,12C1.25,17.9142,6.08579,22.75,12,22.75C12,22.75,12,21.25,12,21.25C6.91421,21.25,2.75,17.0858,2.75,12C2.75,12,1.25,12,1.25,12C1.25,12,1.25,12,1.25,12Z" fill="#414D73" fill-opacity="1"/></g><g><path d="M8.280330476837158,11.469670076293944C7.987437476837158,11.176780076293944,7.512563476837158,11.176780076293944,7.219670476837158,11.469670076293944C6.926777276837158,11.762560076293946,6.926777276837158,12.237440076293945,7.219670476837158,12.530330076293946C7.219670476837158,12.530330076293946,8.280330476837158,11.469670076293944,8.280330476837158,11.469670076293944C8.280330476837158,11.469670076293944,8.280330476837158,11.469670076293944,8.280330476837158,11.469670076293944ZM10.580000476837158,14.830000076293945C10.580000476837158,14.830000076293945,10.049670476837157,15.360330076293945,10.049670476837157,15.360330076293945C10.342380476837159,15.653040076293944,10.816890476837159,15.653250076293945,11.10986047683716,15.360800076293945C11.10986047683716,15.360800076293945,10.580000476837158,14.830000076293945,10.580000476837158,14.830000076293945C10.580000476837158,14.830000076293945,10.580000476837158,14.830000076293945,10.580000476837158,14.830000076293945ZM16.779860476837158,9.700800076293945C17.07300047683716,9.408163076293945,17.073400476837158,8.933290076293945,16.780800476837157,8.640138076293946C16.48816047683716,8.346987076293946,16.013290476837156,8.346567076293946,15.720140476837159,8.639202076293945C15.720140476837159,8.639202076293945,16.779860476837158,9.700800076293945,16.779860476837158,9.700800076293945C16.779860476837158,9.700800076293945,16.779860476837158,9.700800076293945,16.779860476837158,9.700800076293945ZM7.219670476837158,12.530330076293946C7.219670476837158,12.530330076293946,10.049670476837157,15.360330076293945,10.049670476837157,15.360330076293945C10.049670476837157,15.360330076293945,11.11033047683716,14.299670076293946,11.11033047683716,14.299670076293946C11.11033047683716,14.299670076293946,8.280330476837158,11.469670076293944,8.280330476837158,11.469670076293944C8.280330476837158,11.469670076293944,7.219670476837158,12.530330076293946,7.219670476837158,12.530330076293946C7.219670476837158,12.530330076293946,7.219670476837158,12.530330076293946,7.219670476837158,12.530330076293946ZM11.10986047683716,15.360800076293945C11.10986047683716,15.360800076293945,16.779860476837158,9.700800076293945,16.779860476837158,9.700800076293945C16.779860476837158,9.700800076293945,15.720140476837159,8.639202076293945,15.720140476837159,8.639202076293945C15.720140476837159,8.639202076293945,10.050140476837157,14.299200076293946,10.050140476837157,14.299200076293946C10.050140476837157,14.299200076293946,11.10986047683716,15.360800076293945,11.10986047683716,15.360800076293945C11.10986047683716,15.360800076293945,11.10986047683716,15.360800076293945,11.10986047683716,15.360800076293945Z" fill="#6175AE" fill-opacity="1"/></g><g style="opacity:0;"></g></g></svg>