<svg xmlns="http://www.w3.org/2000/svg" xmlns:xlink="http://www.w3.org/1999/xlink" fill="none" version="1.1" width="24" height="24" viewBox="0 0 24 24"><g><g><path d="M21.25,12C21.25,17.105800000000002,17.105800000000002,21.25,12,21.25C12,21.25,12,22.75,12,22.75C17.9342,22.75,22.75,17.9342,22.75,12C22.75,12,21.25,12,21.25,12C21.25,12,21.25,12,21.25,12ZM12,21.25C6.89421,21.25,2.75,17.105800000000002,2.75,12C2.75,12,1.25,12,1.25,12C1.25,17.9342,6.06579,22.75,12,22.75C12,22.75,12,21.25,12,21.25C12,21.25,12,21.25,12,21.25ZM2.75,12C2.75,6.89421,6.89421,2.75,12,2.75C12,2.75,12,1.25,12,1.25C6.06579,1.25,1.25,6.06579,1.25,12C1.25,12,2.75,12,2.75,12C2.75,12,2.75,12,2.75,12ZM12,2.75C17.105800000000002,2.75,21.25,6.89421,21.25,12C21.25,12,22.75,12,22.75,12C22.75,6.06579,17.9342,1.25,12,1.25C12,1.25,12,2.75,12,2.75C12,2.75,12,2.75,12,2.75Z" fill="#414D73" fill-opacity="1"/></g><g><path d="M15.325660114440918,15.824030228881837C15.681350114440917,16.036300228881835,16.141770114440916,15.920030228881837,16.354030114440917,15.564340228881836C16.566300114440917,15.208650228881837,16.450030114440917,14.748230228881836,16.094340114440918,14.535970228881837C16.094340114440918,14.535970228881837,15.325660114440918,15.824030228881837,15.325660114440918,15.824030228881837C15.325660114440918,15.824030228881837,15.325660114440918,15.824030228881837,15.325660114440918,15.824030228881837ZM12.610000114440918,13.330000228881836C12.610000114440918,13.330000228881836,12.994340114440918,12.685960228881836,12.994340114440918,12.685960228881836C12.994340114440918,12.685960228881836,12.992350114440917,12.684780228881836,12.992350114440917,12.684780228881836C12.992350114440917,12.684780228881836,12.610000114440918,13.330000228881836,12.610000114440918,13.330000228881836C12.610000114440918,13.330000228881836,12.610000114440918,13.330000228881836,12.610000114440918,13.330000228881836ZM12.380000114440918,7.510000228881836C12.380000114440918,7.095786228881836,12.044210114440919,6.760000228881836,11.630000114440918,6.760000228881836C11.215786114440919,6.760000228881836,10.880000114440918,7.095786228881836,10.880000114440918,7.510000228881836C10.880000114440918,7.510000228881836,12.380000114440918,7.510000228881836,12.380000114440918,7.510000228881836C12.380000114440918,7.510000228881836,12.380000114440918,7.510000228881836,12.380000114440918,7.510000228881836ZM16.094340114440918,14.535970228881837C16.094340114440918,14.535970228881837,12.994340114440918,12.685970228881835,12.994340114440918,12.685970228881835C12.994340114440918,12.685970228881835,12.225660114440918,13.974030228881837,12.225660114440918,13.974030228881837C12.225660114440918,13.974030228881837,15.325660114440918,15.824030228881837,15.325660114440918,15.824030228881837C15.325660114440918,15.824030228881837,16.094340114440918,14.535970228881837,16.094340114440918,14.535970228881837C16.094340114440918,14.535970228881837,16.094340114440918,14.535970228881837,16.094340114440918,14.535970228881837ZM12.992350114440917,12.684780228881836C12.861000114440918,12.606940228881836,12.699400114440918,12.443370228881836,12.569000114440918,12.214710228881836C12.438630114440919,11.986100228881835,12.380000114440918,11.763550228881837,12.380000114440918,11.610000228881836C12.380000114440918,11.610000228881836,10.880000114440918,11.610000228881836,10.880000114440918,11.610000228881836C10.880000114440918,12.086450228881837,11.041366114440917,12.563900228881835,11.265995114440917,12.957790228881837C11.490597114440918,13.351630228881836,11.818998114440918,13.733060228881836,12.227650114440918,13.975220228881836C12.227650114440918,13.975220228881836,12.992350114440917,12.684780228881836,12.992350114440917,12.684780228881836C12.992350114440917,12.684780228881836,12.992350114440917,12.684780228881836,12.992350114440917,12.684780228881836ZM12.380000114440918,11.610000228881836C12.380000114440918,11.610000228881836,12.380000114440918,7.510000228881836,12.380000114440918,7.510000228881836C12.380000114440918,7.510000228881836,10.880000114440918,7.510000228881836,10.880000114440918,7.510000228881836C10.880000114440918,7.510000228881836,10.880000114440918,11.610000228881836,10.880000114440918,11.610000228881836C10.880000114440918,11.610000228881836,12.380000114440918,11.610000228881836,12.380000114440918,11.610000228881836C12.380000114440918,11.610000228881836,12.380000114440918,11.610000228881836,12.380000114440918,11.610000228881836Z" fill="#6175AE" fill-opacity="1"/></g><g style="opacity:0;"></g></g></svg>