<svg xmlns="http://www.w3.org/2000/svg" xmlns:xlink="http://www.w3.org/1999/xlink" fill="none" version="1.1" width="24" height="24" viewBox="0 0 24 24"><defs><linearGradient x1="0.14304259419441223" y1="0.7828336954116821" x2="0.8024961948394775" y2="0.4241360127925873" id="master_svg0_66_02102"><stop offset="0%" stop-color="#CBD2F0" stop-opacity="1"/><stop offset="100%" stop-color="#CBD2F0" stop-opacity="0.5099999904632568"/></linearGradient></defs><g><g><g><path d="M15.5,13.15C15.5,13.15,13.33,13.15,13.33,13.15C11.55,13.15,10.1,11.71,10.1,9.92C10.1,9.92,10.1,7.75,10.1,7.75C10.1,7.34,9.77,7,9.35,7C9.35,7,6.18,7,6.18,7C3.87,7,2,8.5,2,11.18C2,11.18,2,17.82,2,17.82C2,20.5,3.87,22,6.18,22C6.18,22,12.07,22,12.07,22C14.38,22,16.25,20.5,16.25,17.82C16.25,17.82,16.25,13.9,16.25,13.9C16.25,13.48,15.91,13.15,15.5,13.15C15.5,13.15,15.5,13.15,15.5,13.15Z" fill="url(#master_svg0_66_02102)" fill-opacity="1"/></g><g><path d="M17.820000228881838,2C17.820000228881838,2,15.850000228881836,2,15.850000228881836,2C15.850000228881836,2,14.760000228881836,2,14.760000228881836,2C14.760000228881836,2,11.930000228881836,2,11.930000228881836,2C9.670000228881836,2,7.840000228881836,3.44,7.760000228881836,6.01C7.8200002288818355,6.01,7.870000228881836,6,7.930000228881836,6C7.930000228881836,6,10.760000228881836,6,10.760000228881836,6C10.760000228881836,6,11.850000228881836,6,11.850000228881836,6C11.850000228881836,6,13.820000228881835,6,13.820000228881835,6C16.130000228881833,6,18.000000228881838,7.5,18.000000228881838,10.18C18.000000228881838,10.18,18.000000228881838,12.15,18.000000228881838,12.15C18.000000228881838,12.15,18.000000228881838,14.86,18.000000228881838,14.86C18.000000228881838,14.86,18.000000228881838,16.83,18.000000228881838,16.83C18.000000228881838,16.89,17.990000228881836,16.939999999999998,17.990000228881836,16.990000000000002C20.220000228881837,16.92,22.000000228881838,15.44,22.000000228881838,12.83C22.000000228881838,12.83,22.000000228881838,10.86,22.000000228881838,10.86C22.000000228881838,10.86,22.000000228881838,8.15,22.000000228881838,8.15C22.000000228881838,8.15,22.000000228881838,6.18,22.000000228881838,6.18C22.000000228881838,3.5,20.130000228881833,2,17.820000228881838,2C17.820000228881838,2,17.820000228881838,2,17.820000228881838,2Z" fill="#6175AE" fill-opacity="1"/></g><g><path d="M11.98013571875,7.150000987670898C11.67013571875,6.840000987670899,11.14013671875,7.050000187670898,11.14013671875,7.480000987670898C11.14013671875,7.480000987670898,11.14013671875,10.100002987670898,11.14013671875,10.100002987670898C11.14013671875,11.2000029876709,12.07013671875,12.100002987670898,13.21013671875,12.100002987670898C13.92013671875,12.1100029876709,14.91013671875,12.1100029876709,15.760136718750001,12.1100029876709C16.19013671875,12.1100029876709,16.41013671875,11.6100029876709,16.11013671875,11.310002987670899C15.020136718749999,10.220002987670899,13.08013671875,8.270002987670898,11.98013571875,7.150000987670898C11.98013571875,7.150000987670898,11.98013571875,7.150000987670898,11.98013571875,7.150000987670898Z" fill="#6175AE" fill-opacity="1"/></g><g style="opacity:0;"></g></g></g></svg>