<svg
    xmlns="http://www.w3.org/2000/svg"
    viewBox="0 0 22 22"
    id="vector">
    <path
        id="path"
        d="M 19.193 15.895 C 19.249 15.814 19.28 15.718 19.281 15.619 C 19.288 15.504 19.251 15.391 19.176 15.304 C 19.101 15.217 18.995 15.163 18.881 15.153 C 18.088 14.983 16.859 14.713 16.859 14.713 C 16.859 14.713 16.187 13.306 15.759 12.445 C 15.608 12.128 15.493 12.026 15.419 11.997 C 15.391 11.987 15.227 11.921 14.986 12.444 C 14.56 13.304 13.886 14.708 13.886 14.708 C 13.886 14.708 12.641 14.978 11.839 15.149 C 11.729 15.16 11.627 15.21 11.551 15.289 C 11.474 15.369 11.428 15.473 11.421 15.583 C 11.414 15.692 11.446 15.801 11.512 15.89 C 12.077 16.65 13.073 17.905 13.073 17.905 C 13.073 17.905 12.91 19.285 12.818 20.224 C 12.787 20.354 12.808 20.491 12.876 20.606 C 12.912 20.671 12.966 20.724 13.031 20.759 C 13.097 20.794 13.171 20.81 13.245 20.804 C 13.319 20.798 13.389 20.77 13.448 20.725 L 15.377 19.651 Q 16.33 20.197 17.286 20.737 C 17.636 20.924 17.946 20.717 17.906 20.237 C 17.816 19.295 17.654 17.914 17.654 17.914 C 17.654 17.914 18.642 16.657 19.2 15.896 Z M 16.661 16.226 C 16.47 16.486 16.134 16.914 16.134 16.914 C 16.134 16.914 16.189 17.385 16.22 17.706 C 16.233 17.87 16.128 17.94 16.008 17.877 Q 15.683 17.693 15.358 17.507 L 14.7 17.873 C 14.68 17.889 14.655 17.9 14.629 17.902 C 14.603 17.904 14.577 17.899 14.554 17.887 C 14.531 17.874 14.512 17.855 14.5 17.832 C 14.477 17.793 14.469 17.746 14.48 17.702 C 14.511 17.382 14.567 16.911 14.567 16.911 C 14.567 16.911 14.228 16.484 14.035 16.224 C 14.012 16.194 14.001 16.157 14.004 16.119 C 14.006 16.082 14.022 16.047 14.048 16.02 C 14.074 15.993 14.109 15.976 14.146 15.972 L 14.846 15.822 C 14.846 15.822 15.077 15.343 15.222 15.05 C 15.304 14.871 15.36 14.894 15.37 14.898 C 15.395 14.907 15.434 14.942 15.485 15.05 C 15.631 15.344 15.859 15.823 15.859 15.823 L 16.549 15.973 C 16.588 15.976 16.624 15.995 16.65 16.025 C 16.676 16.054 16.688 16.093 16.686 16.132 C 16.686 16.166 16.675 16.198 16.656 16.226 Z"
        fill="#000000"/>
    <path
        id="path_1"
        d="M 9.902 18.101 L 5.197 18.101 C 4.926 18.107 4.664 18.004 4.468 17.817 C 4.272 17.63 4.158 17.372 4.152 17.101 L 4.152 4.101 C 4.158 3.83 4.272 3.572 4.468 3.385 C 4.664 3.198 4.926 3.095 5.197 3.101 L 14.606 3.101 C 14.877 3.095 15.14 3.197 15.336 3.385 C 15.532 3.572 15.646 3.83 15.652 4.101 L 15.652 10.601"
        fill="#00000000"
        stroke="#000000"
        stroke-width="1"
        stroke-linecap="round"/>
    <path
        id="path_2"
        d="M 6.652 6.102 L 12.652 6.102"
        fill="#00000000"
        stroke="#000000"
        stroke-width="1"
        stroke-linecap="round"/>
    <path
        id="path_6"
        d="M 6.652 9.102 L 12.652 9.102"
        fill="#00000000"
        stroke="#000000"
        stroke-width="1"
        stroke-linecap="round"/>
    <path
        id="path_7"
        d="M 6.652 12.102 L 9.652 12.102"
        fill="#00000000"
        stroke="#000000"
        stroke-width="1"
        stroke-linecap="round"/>
</svg>
