<svg xmlns="http://www.w3.org/2000/svg" xmlns:xlink="http://www.w3.org/1999/xlink" fill="none" version="1.1" width="24" height="24" viewBox="0 0 24 24"><defs><clipPath id="master_svg0_75_0663"><rect x="0" y="0" width="24" height="24" rx="0"/></clipPath></defs><g clip-path="url(#master_svg0_75_0663)"><g><rect x="0" y="0" width="24" height="24" rx="0" fill="#FFFFFF" fill-opacity="0.009999999776482582"/></g><g><path d="M10.5,22.75L5,22.75Q3.25,22.75,3.25,21L3.25,3Q3.25,1.25,5,1.25L19,1.25Q19.724899999999998,1.25,20.2374,1.762566Q20.75,2.275126,20.75,3L20.75,13.5Q20.75,13.5739,20.7356,13.6463Q20.7212,13.7188,20.6929,13.787Q20.6646,13.8553,20.6236,13.9167Q20.5826,13.9781,20.5303,14.0303Q20.4781,14.0826,20.4167,14.1236Q20.3553,14.1646,20.287,14.1929Q20.2188,14.2212,20.1463,14.2356Q20.0739,14.25,20,14.25Q19.926099999999998,14.25,19.8537,14.2356Q19.7812,14.2212,19.713,14.1929Q19.6447,14.1646,19.5833,14.1236Q19.521900000000002,14.0826,19.4697,14.0303Q19.4174,13.9781,19.3764,13.9167Q19.3354,13.8553,19.3071,13.787Q19.2788,13.7188,19.264400000000002,13.6463Q19.25,13.5739,19.25,13.5L19.25,3Q19.25,2.75,19,2.75L5,2.75Q4.896446,2.75,4.8232230000000005,2.823223Q4.75,2.896446,4.75,3L4.75,21Q4.75,21.1036,4.82322,21.1768Q4.896442,21.25,5,21.25L10.5,21.25Q10.57387,21.25,10.64632,21.2644Q10.71877,21.2788,10.78701,21.3071Q10.855260000000001,21.3354,10.91668,21.3764Q10.978100000000001,21.4174,11.03033,21.4697Q11.08256,21.5219,11.1236,21.5833Q11.16464,21.6447,11.192910000000001,21.713Q11.22118,21.7812,11.23559,21.8537Q11.25,21.9261,11.25,22Q11.25,22.0739,11.23559,22.1463Q11.22118,22.2188,11.192910000000001,22.287Q11.16464,22.3553,11.1236,22.4167Q11.08256,22.4781,11.03033,22.5303Q10.978100000000001,22.5826,10.91668,22.6236Q10.855260000000001,22.6646,10.78701,22.6929Q10.71877,22.7212,10.64632,22.7356Q10.57387,22.75,10.5,22.75ZM11.25,22Q11.25,22.0739,11.23559,22.1463Q11.22118,22.2188,11.192910000000001,22.287Q11.16464,22.3553,11.1236,22.4167Q11.08256,22.4781,11.03033,22.5303Q10.978100000000001,22.5826,10.91668,22.6236Q10.855260000000001,22.6646,10.78701,22.6929Q10.71877,22.7212,10.64632,22.7356Q10.57387,22.75,10.5,22.75Q10.42613,22.75,10.35368,22.7356Q10.28123,22.7212,10.21299,22.6929Q10.144739999999999,22.6646,10.08332,22.6236Q10.021899999999999,22.5826,9.96967,22.5303Q9.91744,22.4781,9.8764,22.4167Q9.83536,22.3553,9.807089999999999,22.287Q9.77882,22.2188,9.76441,22.1463Q9.75,22.0739,9.75,22Q9.75,21.9261,9.76441,21.8537Q9.77882,21.7812,9.807089999999999,21.713Q9.83536,21.6447,9.8764,21.5833Q9.91744,21.5219,9.96967,21.4697Q10.021899999999999,21.4174,10.08332,21.3764Q10.144739999999999,21.3354,10.21299,21.3071Q10.28123,21.2788,10.35368,21.2644Q10.42613,21.25,10.5,21.25Q10.57387,21.25,10.64632,21.2644Q10.71877,21.2788,10.78701,21.3071Q10.855260000000001,21.3354,10.91668,21.3764Q10.978100000000001,21.4174,11.03033,21.4697Q11.08256,21.5219,11.1236,21.5833Q11.16464,21.6447,11.192910000000001,21.713Q11.22118,21.7812,11.23559,21.8537Q11.25,21.9261,11.25,22ZM20.75,13.5Q20.75,13.5739,20.7356,13.6463Q20.7212,13.7188,20.6929,13.787Q20.6646,13.8553,20.6236,13.9167Q20.5826,13.9781,20.5303,14.0303Q20.4781,14.0826,20.4167,14.1236Q20.3553,14.1646,20.287,14.1929Q20.2188,14.2212,20.1463,14.2356Q20.0739,14.25,20,14.25Q19.926099999999998,14.25,19.8537,14.2356Q19.7812,14.2212,19.713,14.1929Q19.6447,14.1646,19.5833,14.1236Q19.521900000000002,14.0826,19.4697,14.0303Q19.4174,13.9781,19.3764,13.9167Q19.3354,13.8553,19.3071,13.787Q19.2788,13.7188,19.264400000000002,13.6463Q19.25,13.5739,19.25,13.5Q19.25,13.4261,19.264400000000002,13.3537Q19.2788,13.2812,19.3071,13.213Q19.3354,13.1447,19.3764,13.0833Q19.4174,13.0219,19.4697,12.9697Q19.521900000000002,12.9174,19.5833,12.8764Q19.6447,12.8354,19.713,12.8071Q19.7812,12.7788,19.8537,12.7644Q19.926099999999998,12.75,20,12.75Q20.0739,12.75,20.1463,12.7644Q20.2188,12.7788,20.287,12.8071Q20.3553,12.8354,20.4167,12.8764Q20.4781,12.9174,20.5303,12.9697Q20.5826,13.0219,20.6236,13.0833Q20.6646,13.1447,20.6929,13.213Q20.7212,13.2812,20.7356,13.3537Q20.75,13.4261,20.75,13.5Z" fill="#3E4660" fill-opacity="1"/></g><g><path d="M15.5,6.75L8.5,6.75Q8.4261315,6.75,8.353682,6.735589Q8.281233,6.721178,8.212987,6.69291Q8.144742,6.664641,8.083322,6.623602Q8.021903,6.582563,7.96967,6.53033Q7.917437,6.478097,7.876398,6.416678Q7.835359,6.355258,7.80709,6.287013Q7.778822,6.218767,7.764411,6.146318Q7.75,6.0738685,7.75,6Q7.75,5.9261315,7.764411,5.853682Q7.778822,5.781233,7.80709,5.712987Q7.835359,5.644742,7.876398,5.583322Q7.917437,5.521903,7.96967,5.46967Q8.021903,5.417437,8.083322,5.376398Q8.144742,5.335359,8.212987,5.30709Q8.281233,5.278822,8.353682,5.264411Q8.4261315,5.25,8.5,5.25L15.5,5.25Q15.57387,5.25,15.64632,5.264411Q15.71877,5.278822,15.78701,5.30709Q15.855260000000001,5.335359,15.91668,5.376398Q15.978100000000001,5.417437,16.03033,5.46967Q16.08256,5.521903,16.1236,5.583322Q16.16464,5.644742,16.19291,5.712987Q16.22118,5.781233,16.235590000000002,5.853682Q16.25,5.9261315,16.25,6Q16.25,6.0738685,16.235590000000002,6.146318Q16.22118,6.218767,16.19291,6.287013Q16.16464,6.355258,16.1236,6.416678Q16.08256,6.478097,16.03033,6.53033Q15.978100000000001,6.582563,15.91668,6.623602Q15.855260000000001,6.664641,15.78701,6.69291Q15.71877,6.721178,15.64632,6.735589Q15.57387,6.75,15.5,6.75ZM16.25,6Q16.25,6.0738685,16.235590000000002,6.146318Q16.22118,6.218767,16.19291,6.287013Q16.16464,6.355258,16.1236,6.416678Q16.08256,6.478097,16.03033,6.53033Q15.978100000000001,6.582563,15.91668,6.623602Q15.855260000000001,6.664641,15.78701,6.69291Q15.71877,6.721178,15.64632,6.735589Q15.57387,6.75,15.5,6.75Q15.42613,6.75,15.35368,6.735589Q15.28123,6.721178,15.21299,6.69291Q15.144739999999999,6.664641,15.08332,6.623602Q15.021899999999999,6.582563,14.96967,6.53033Q14.91744,6.478097,14.8764,6.416678Q14.83536,6.355258,14.807089999999999,6.287013Q14.77882,6.218767,14.76441,6.146318Q14.75,6.0738685,14.75,6Q14.75,5.9261315,14.76441,5.853682Q14.77882,5.781233,14.807089999999999,5.712987Q14.83536,5.644742,14.8764,5.583322Q14.91744,5.521903,14.96967,5.46967Q15.021899999999999,5.417437,15.08332,5.376398Q15.144739999999999,5.335359,15.21299,5.30709Q15.28123,5.278822,15.35368,5.264411Q15.42613,5.25,15.5,5.25Q15.57387,5.25,15.64632,5.264411Q15.71877,5.278822,15.78701,5.30709Q15.855260000000001,5.335359,15.91668,5.376398Q15.978100000000001,5.417437,16.03033,5.46967Q16.08256,5.521903,16.1236,5.583322Q16.16464,5.644742,16.19291,5.712987Q16.22118,5.781233,16.235590000000002,5.853682Q16.25,5.9261315,16.25,6ZM9.25,6Q9.25,6.0738685,9.235589000000001,6.146318Q9.221178,6.218767,9.19291,6.287013Q9.164641,6.355258,9.123602,6.416678Q9.082563,6.478097,9.03033,6.53033Q8.978097,6.582563,8.916678,6.623602Q8.855258,6.664641,8.787013,6.69291Q8.718767,6.721178,8.646318,6.735589Q8.5738685,6.75,8.5,6.75Q8.4261315,6.75,8.353682,6.735589Q8.281233,6.721178,8.212987,6.69291Q8.144742,6.664641,8.083322,6.623602Q8.021903,6.582563,7.96967,6.53033Q7.917437,6.478097,7.876398,6.416678Q7.835359,6.355258,7.80709,6.287013Q7.778822,6.218767,7.764411,6.146318Q7.75,6.0738685,7.75,6Q7.75,5.9261315,7.764411,5.853682Q7.778822,5.781233,7.80709,5.712987Q7.835359,5.644742,7.876398,5.583322Q7.917437,5.521903,7.96967,5.46967Q8.021903,5.417437,8.083322,5.376398Q8.144742,5.335359,8.212987,5.30709Q8.281233,5.278822,8.353682,5.264411Q8.4261315,5.25,8.5,5.25Q8.5738685,5.25,8.646318,5.264411Q8.718767,5.278822,8.787013,5.30709Q8.855258,5.335359,8.916678,5.376398Q8.978097,5.417437,9.03033,5.46967Q9.082563,5.521903,9.123602,5.583322Q9.164641,5.644742,9.19291,5.712987Q9.221178,5.781233,9.235589000000001,5.853682Q9.25,5.9261315,9.25,6Z" fill="#3E4660" fill-opacity="1"/></g><g><path d="M15.5,10.75L8.5,10.75Q8.4261315,10.75,8.353682,10.735589000000001Q8.281233,10.721178,8.212987,10.69291Q8.144742,10.664641,8.083322,10.623602Q8.021903,10.582563,7.96967,10.53033Q7.917437,10.478097,7.876398,10.416678Q7.835359,10.355258,7.80709,10.287013Q7.778822,10.218767,7.764411,10.146318Q7.75,10.0738685,7.75,10Q7.75,9.9261315,7.764411,9.853682Q7.778822,9.781233,7.80709,9.712987Q7.835359,9.644742,7.876398,9.583322Q7.917437,9.521903,7.96967,9.46967Q8.021903,9.417437,8.083322,9.376398Q8.144742,9.335359,8.212987,9.30709Q8.281233,9.278822,8.353682,9.264410999999999Q8.4261315,9.25,8.5,9.25L15.5,9.25Q15.57387,9.25,15.64632,9.264410999999999Q15.71877,9.278822,15.78701,9.30709Q15.855260000000001,9.335359,15.91668,9.376398Q15.978100000000001,9.417437,16.03033,9.46967Q16.08256,9.521903,16.1236,9.583322Q16.16464,9.644742,16.19291,9.712987Q16.22118,9.781233,16.235590000000002,9.853682Q16.25,9.9261315,16.25,10Q16.25,10.0738685,16.235590000000002,10.146318Q16.22118,10.218767,16.19291,10.287013Q16.16464,10.355258,16.1236,10.416678Q16.08256,10.478097,16.03033,10.53033Q15.978100000000001,10.582563,15.91668,10.623602Q15.855260000000001,10.664641,15.78701,10.69291Q15.71877,10.721178,15.64632,10.735589000000001Q15.57387,10.75,15.5,10.75ZM16.25,10Q16.25,10.0738685,16.235590000000002,10.146318Q16.22118,10.218767,16.19291,10.287013Q16.16464,10.355258,16.1236,10.416678Q16.08256,10.478097,16.03033,10.53033Q15.978100000000001,10.582563,15.91668,10.623602Q15.855260000000001,10.664641,15.78701,10.69291Q15.71877,10.721178,15.64632,10.735589000000001Q15.57387,10.75,15.5,10.75Q15.42613,10.75,15.35368,10.735589000000001Q15.28123,10.721178,15.21299,10.69291Q15.144739999999999,10.664641,15.08332,10.623602Q15.021899999999999,10.582563,14.96967,10.53033Q14.91744,10.478097,14.8764,10.416678Q14.83536,10.355258,14.807089999999999,10.287013Q14.77882,10.218767,14.76441,10.146318Q14.75,10.0738685,14.75,10Q14.75,9.9261315,14.76441,9.853682Q14.77882,9.781233,14.807089999999999,9.712987Q14.83536,9.644742,14.8764,9.583322Q14.91744,9.521903,14.96967,9.46967Q15.021899999999999,9.417437,15.08332,9.376398Q15.144739999999999,9.335359,15.21299,9.30709Q15.28123,9.278822,15.35368,9.264410999999999Q15.42613,9.25,15.5,9.25Q15.57387,9.25,15.64632,9.264410999999999Q15.71877,9.278822,15.78701,9.30709Q15.855260000000001,9.335359,15.91668,9.376398Q15.978100000000001,9.417437,16.03033,9.46967Q16.08256,9.521903,16.1236,9.583322Q16.16464,9.644742,16.19291,9.712987Q16.22118,9.781233,16.235590000000002,9.853682Q16.25,9.9261315,16.25,10ZM9.25,10Q9.25,10.0738685,9.235589000000001,10.146318Q9.221178,10.218767,9.19291,10.287013Q9.164641,10.355258,9.123602,10.416678Q9.082563,10.478097,9.03033,10.53033Q8.978097,10.582563,8.916678,10.623602Q8.855258,10.664641,8.787013,10.69291Q8.718767,10.721178,8.646318,10.735589000000001Q8.5738685,10.75,8.5,10.75Q8.4261315,10.75,8.353682,10.735589000000001Q8.281233,10.721178,8.212987,10.69291Q8.144742,10.664641,8.083322,10.623602Q8.021903,10.582563,7.96967,10.53033Q7.917437,10.478097,7.876398,10.416678Q7.835359,10.355258,7.80709,10.287013Q7.778822,10.218767,7.764411,10.146318Q7.75,10.0738685,7.75,10Q7.75,9.9261315,7.764411,9.853682Q7.778822,9.781233,7.80709,9.712987Q7.835359,9.644742,7.876398,9.583322Q7.917437,9.521903,7.96967,9.46967Q8.021903,9.417437,8.083322,9.376398Q8.144742,9.335359,8.212987,9.30709Q8.281233,9.278822,8.353682,9.264410999999999Q8.4261315,9.25,8.5,9.25Q8.5738685,9.25,8.646318,9.264410999999999Q8.718767,9.278822,8.787013,9.30709Q8.855258,9.335359,8.916678,9.376398Q8.978097,9.417437,9.03033,9.46967Q9.082563,9.521903,9.123602,9.583322Q9.164641,9.644742,9.19291,9.712987Q9.221178,9.781233,9.235589000000001,9.853682Q9.25,9.9261315,9.25,10Z" fill="#3E4660" fill-opacity="1"/></g><g><path d="M11.5,14.75L8.5,14.75Q8.4261315,14.75,8.353682,14.735589000000001Q8.281233,14.721178,8.212987,14.69291Q8.144742,14.664641,8.083322,14.623602Q8.021903,14.582563,7.96967,14.53033Q7.917437,14.478097,7.876398,14.416678Q7.835359,14.355258,7.80709,14.287013Q7.778822,14.218767,7.764411,14.146318Q7.75,14.0738685,7.75,14Q7.75,13.9261315,7.764411,13.853682Q7.778822,13.781233,7.80709,13.712987Q7.835359,13.644742,7.876398,13.583322Q7.917437,13.521903,7.96967,13.46967Q8.021903,13.417437,8.083322,13.376398Q8.144742,13.335359,8.212987,13.30709Q8.281233,13.278822,8.353682,13.264410999999999Q8.4261315,13.25,8.5,13.25L11.5,13.25Q11.57387,13.25,11.64632,13.264410999999999Q11.71877,13.278822,11.78701,13.30709Q11.85526,13.335359,11.91668,13.376398Q11.9781,13.417437,12.03033,13.46967Q12.08256,13.521903,12.1236,13.583322Q12.16464,13.644742,12.19291,13.712987Q12.22118,13.781233,12.23559,13.853682Q12.25,13.9261315,12.25,14Q12.25,14.0738685,12.23559,14.146318Q12.22118,14.218767,12.19291,14.287013Q12.16464,14.355258,12.1236,14.416678Q12.08256,14.478097,12.03033,14.53033Q11.9781,14.582563,11.91668,14.623602Q11.85526,14.664641,11.78701,14.69291Q11.71877,14.721178,11.64632,14.735589000000001Q11.57387,14.75,11.5,14.75ZM12.25,14Q12.25,14.0738685,12.23559,14.146318Q12.22118,14.218767,12.19291,14.287013Q12.16464,14.355258,12.1236,14.416678Q12.08256,14.478097,12.03033,14.53033Q11.9781,14.582563,11.91668,14.623602Q11.85526,14.664641,11.78701,14.69291Q11.71877,14.721178,11.64632,14.735589000000001Q11.57387,14.75,11.5,14.75Q11.42613,14.75,11.35368,14.735589000000001Q11.28123,14.721178,11.21299,14.69291Q11.14474,14.664641,11.08332,14.623602Q11.0219,14.582563,10.96967,14.53033Q10.91744,14.478097,10.8764,14.416678Q10.83536,14.355258,10.80709,14.287013Q10.77882,14.218767,10.76441,14.146318Q10.75,14.0738685,10.75,14Q10.75,13.9261315,10.76441,13.853682Q10.77882,13.781233,10.80709,13.712987Q10.83536,13.644742,10.8764,13.583322Q10.91744,13.521903,10.96967,13.46967Q11.0219,13.417437,11.08332,13.376398Q11.14474,13.335359,11.21299,13.30709Q11.28123,13.278822,11.35368,13.264410999999999Q11.42613,13.25,11.5,13.25Q11.57387,13.25,11.64632,13.264410999999999Q11.71877,13.278822,11.78701,13.30709Q11.85526,13.335359,11.91668,13.376398Q11.9781,13.417437,12.03033,13.46967Q12.08256,13.521903,12.1236,13.583322Q12.16464,13.644742,12.19291,13.712987Q12.22118,13.781233,12.23559,13.853682Q12.25,13.9261315,12.25,14ZM9.25,14Q9.25,14.0738685,9.235589000000001,14.146318Q9.221178,14.218767,9.19291,14.287013Q9.164641,14.355258,9.123602,14.416678Q9.082563,14.478097,9.03033,14.53033Q8.978097,14.582563,8.916678,14.623602Q8.855258,14.664641,8.787013,14.69291Q8.718767,14.721178,8.646318,14.735589000000001Q8.5738685,14.75,8.5,14.75Q8.4261315,14.75,8.353682,14.735589000000001Q8.281233,14.721178,8.212987,14.69291Q8.144742,14.664641,8.083322,14.623602Q8.021903,14.582563,7.96967,14.53033Q7.917437,14.478097,7.876398,14.416678Q7.835359,14.355258,7.80709,14.287013Q7.778822,14.218767,7.764411,14.146318Q7.75,14.0738685,7.75,14Q7.75,13.9261315,7.764411,13.853682Q7.778822,13.781233,7.80709,13.712987Q7.835359,13.644742,7.876398,13.583322Q7.917437,13.521903,7.96967,13.46967Q8.021903,13.417437,8.083322,13.376398Q8.144742,13.335359,8.212987,13.30709Q8.281233,13.278822,8.353682,13.264410999999999Q8.4261315,13.25,8.5,13.25Q8.5738685,13.25,8.646318,13.264410999999999Q8.718767,13.278822,8.787013,13.30709Q8.855258,13.335359,8.916678,13.376398Q8.978097,13.417437,9.03033,13.46967Q9.082563,13.521903,9.123602,13.583322Q9.164641,13.644742,9.19291,13.712987Q9.221178,13.781233,9.235589000000001,13.853682Q9.25,13.9261315,9.25,14Z" fill="#3E4660" fill-opacity="1"/></g><g><path d="M16,15.5Q17.24263,15.5,18.12132,16.378684Q19,17.25737,19,18.5Q19,19.7427,18.12128,20.62132Q17.2427,21.5,16,21.5Q14.75737,21.5,13.878684,20.62132Q13,19.74263,13,18.5Q13,17.25737,13.878684,16.378684Q14.75737,15.5,16,15.5ZM16,16.5Q14,16.5,14,18.5Q14,20.5,16,20.5Q16.82846,20.5,17.41422,19.91418Q18,19.32846,18,18.5Q18,16.5,16,16.5Z" fill="#3E4660" fill-opacity="1"/></g><g><path d="M18.29808,19.73742L20.03033,21.46967Q20.08256,21.5219,20.1236,21.58332Q20.16464,21.64474,20.19291,21.712989999999998Q20.22118,21.78123,20.235590000000002,21.85368Q20.25,21.92613,20.25,22Q20.25,22.07387,20.235590000000002,22.14632Q20.22118,22.21877,20.19291,22.287010000000002Q20.16464,22.35526,20.1236,22.41668Q20.08256,22.4781,20.03033,22.53033Q19.9781,22.58256,19.91668,22.6236Q19.85526,22.66464,19.787010000000002,22.69291Q19.71877,22.72118,19.64632,22.735590000000002Q19.57387,22.75,19.5,22.75Q19.42613,22.75,19.35368,22.735590000000002Q19.28123,22.72118,19.212989999999998,22.69291Q19.14474,22.66464,19.08332,22.6236Q19.0219,22.58256,18.96967,22.53033L17.23742,20.79808Q17.18519,20.74585,17.14415,20.68443Q17.10311,20.62301,17.074840000000002,20.55476Q17.04657,20.48652,17.03216,20.41407Q17.01775,20.34162,17.01775,20.26775Q17.01775,20.19388,17.03216,20.12143Q17.04657,20.04898,17.074840000000002,19.98074Q17.10311,19.91249,17.14415,19.85107Q17.18519,19.78965,17.23742,19.73742Q17.28965,19.68519,17.35107,19.64415Q17.41249,19.60311,17.48074,19.574840000000002Q17.54898,19.54657,17.62143,19.53216Q17.69388,19.51775,17.76775,19.51775Q17.84162,19.51775,17.91407,19.53216Q17.98652,19.54657,18.05476,19.574840000000002Q18.12301,19.60311,18.18443,19.64415Q18.24585,19.68519,18.29808,19.73742ZM16,20.25Q16.724899999999998,20.25,17.23739,19.73745Q17.75,19.224899999999998,17.75,18.5Q17.75,16.75,16,16.75Q14.25,16.75,14.25,18.5Q14.25,20.25,16,20.25ZM16,21.75Q14.65381,21.75,13.701907,20.798090000000002Q12.75,19.84618,12.75,18.5Q12.75,17.15382,13.701907,16.201908Q14.65381,15.25,16,15.25Q17.34618,15.25,18.298090000000002,16.201908Q19.25,17.15382,19.25,18.5Q19.25,19.84626,18.29811,20.79805Q17.34626,21.75,16,21.75ZM18.51775,20.26775Q18.51775,20.34162,18.50334,20.41407Q18.48893,20.48652,18.46066,20.55476Q18.432389999999998,20.62301,18.39135,20.68443Q18.35031,20.74585,18.29808,20.79808Q18.24585,20.85031,18.18443,20.89135Q18.12301,20.932389999999998,18.05476,20.96066Q17.98652,20.98893,17.91407,21.00334Q17.84162,21.01775,17.76775,21.01775Q17.69388,21.01775,17.62143,21.00334Q17.54898,20.98893,17.48074,20.96066Q17.41249,20.932389999999998,17.35107,20.89135Q17.28965,20.85031,17.23742,20.79808Q17.18519,20.74585,17.14415,20.68443Q17.10311,20.62301,17.074840000000002,20.55476Q17.04657,20.48652,17.03216,20.41407Q17.01775,20.34162,17.01775,20.26775Q17.01775,20.19388,17.03216,20.12143Q17.04657,20.04898,17.074840000000002,19.98074Q17.10311,19.91249,17.14415,19.85107Q17.18519,19.78965,17.23742,19.73742Q17.28965,19.68519,17.35107,19.64415Q17.41249,19.60311,17.48074,19.574840000000002Q17.54898,19.54657,17.62143,19.53216Q17.69388,19.51775,17.76775,19.51775Q17.84162,19.51775,17.91407,19.53216Q17.98652,19.54657,18.05476,19.574840000000002Q18.12301,19.60311,18.18443,19.64415Q18.24585,19.68519,18.29808,19.73742Q18.35031,19.78965,18.39135,19.85107Q18.432389999999998,19.91249,18.46066,19.98074Q18.48893,20.04898,18.50334,20.12143Q18.51775,20.19388,18.51775,20.26775ZM20.25,22Q20.25,22.07387,20.235590000000002,22.14632Q20.22118,22.21877,20.19291,22.287010000000002Q20.16464,22.35526,20.1236,22.41668Q20.08256,22.4781,20.03033,22.53033Q19.9781,22.58256,19.91668,22.6236Q19.85526,22.66464,19.787010000000002,22.69291Q19.71877,22.72118,19.64632,22.735590000000002Q19.57387,22.75,19.5,22.75Q19.42613,22.75,19.35368,22.735590000000002Q19.28123,22.72118,19.212989999999998,22.69291Q19.14474,22.66464,19.08332,22.6236Q19.0219,22.58256,18.96967,22.53033Q18.91744,22.4781,18.8764,22.41668Q18.83536,22.35526,18.80709,22.287010000000002Q18.77882,22.21877,18.764409999999998,22.14632Q18.75,22.07387,18.75,22Q18.75,21.92613,18.764409999999998,21.85368Q18.77882,21.78123,18.80709,21.712989999999998Q18.83536,21.64474,18.8764,21.58332Q18.91744,21.5219,18.96967,21.46967Q19.0219,21.41744,19.08332,21.3764Q19.14474,21.33536,19.212989999999998,21.30709Q19.28123,21.27882,19.35368,21.264409999999998Q19.42613,21.25,19.5,21.25Q19.57387,21.25,19.64632,21.264409999999998Q19.71877,21.27882,19.787010000000002,21.30709Q19.85526,21.33536,19.91668,21.3764Q19.9781,21.41744,20.03033,21.46967Q20.08256,21.5219,20.1236,21.58332Q20.16464,21.64474,20.19291,21.712989999999998Q20.22118,21.78123,20.235590000000002,21.85368Q20.25,21.92613,20.25,22Z" fill="#3E4660" fill-opacity="1"/></g></g></svg>