<svg xmlns="http://www.w3.org/2000/svg" xmlns:xlink="http://www.w3.org/1999/xlink" fill="currentColor" version="1.1" width="24" height="24" viewBox="0 0 24 24"><defs><clipPath id="master_svg0_649_2668"><rect x="0" y="0" width="24" height="24" rx="0"/></clipPath></defs><g clip-path="url(#master_svg0_649_2668)"><g><rect x="0" y="0" width="24" height="24" rx="0" fill="#FFFFFF" fill-opacity="0.009999999776482582"/></g><g><path d="M5,22.75L10.5,22.75Q10.57387,22.75,10.64632,22.7356Q10.71877,22.7212,10.78701,22.6929Q10.855260000000001,22.6646,10.91668,22.6236Q10.978100000000001,22.5826,11.03033,22.5303Q11.08256,22.4781,11.1236,22.4167Q11.16464,22.3553,11.192910000000001,22.287Q11.22118,22.2188,11.23559,22.1463Q11.25,22.0739,11.25,22Q11.25,21.9261,11.23559,21.8537Q11.22118,21.7812,11.192910000000001,21.713Q11.16464,21.6447,11.1236,21.5833Q11.08256,21.5219,11.03033,21.4697Q10.978100000000001,21.4174,10.91668,21.3764Q10.855260000000001,21.3354,10.78701,21.3071Q10.71877,21.2788,10.64632,21.2644Q10.57387,21.25,10.5,21.25L5,21.25Q4.896442,21.25,4.82322,21.1768Q4.75,21.1036,4.75,21L4.75,3Q4.75,2.896446,4.8232230000000005,2.823223Q4.896446,2.75,5,2.75L19,2.75Q19.25,2.75,19.25,3L19.25,13.5Q19.25,13.5739,19.264400000000002,13.6463Q19.2788,13.7188,19.3071,13.787Q19.3354,13.8553,19.3764,13.9167Q19.4174,13.9781,19.4697,14.0303Q19.521900000000002,14.0826,19.5833,14.1236Q19.6447,14.1646,19.713,14.1929Q19.7812,14.2212,19.8537,14.2356Q19.926099999999998,14.25,20,14.25Q20.0739,14.25,20.1463,14.2356Q20.2188,14.2212,20.287,14.1929Q20.3553,14.1646,20.4167,14.1236Q20.4781,14.0826,20.5303,14.0303Q20.5826,13.9781,20.6236,13.9167Q20.6646,13.8553,20.6929,13.787Q20.7212,13.7188,20.7356,13.6463Q20.75,13.5739,20.75,13.5L20.75,3Q20.75,2.275126,20.2374,1.762566Q19.724899999999998,1.25,19,1.25L5,1.25Q4.275126,1.25,3.762563,1.762563Q3.25,2.275126,3.25,3L3.25,21Q3.25,21.7249,3.762566,22.2374Q4.275127,22.75,5,22.75Z" fill-rule="evenodd" fill="currentColor" fill-opacity="1"/></g><g><path d="M8.5,6.75L15.5,6.75Q15.57387,6.75,15.64632,6.735589Q15.71877,6.721178,15.78701,6.69291Q15.855260000000001,6.664641,15.91668,6.623602Q15.978100000000001,6.582563,16.03033,6.53033Q16.08256,6.478097,16.1236,6.416678Q16.16464,6.355258,16.19291,6.287013Q16.22118,6.218767,16.235590000000002,6.146318Q16.25,6.0738685,16.25,6Q16.25,5.9261315,16.235590000000002,5.853682Q16.22118,5.781233,16.19291,5.712987Q16.16464,5.644742,16.1236,5.583322Q16.08256,5.521903,16.03033,5.46967Q15.978100000000001,5.417437,15.91668,5.376398Q15.855260000000001,5.335359,15.78701,5.30709Q15.71877,5.278822,15.64632,5.264411Q15.57387,5.25,15.5,5.25L8.5,5.25Q8.4261315,5.25,8.353682,5.264411Q8.281233,5.278822,8.212987,5.30709Q8.144742,5.335359,8.083322,5.376398Q8.021903,5.417437,7.96967,5.46967Q7.917437,5.521903,7.876398,5.583322Q7.835359,5.644742,7.80709,5.712987Q7.778822,5.781233,7.764411,5.853682Q7.75,5.9261315,7.75,6Q7.75,6.0738685,7.764411,6.146318Q7.778822,6.218767,7.80709,6.287013Q7.835359,6.355258,7.876398,6.416678Q7.917437,6.478097,7.96967,6.53033Q8.021903,6.582563,8.083322,6.623602Q8.144742,6.664641,8.212987,6.69291Q8.281233,6.721178,8.353682,6.735589Q8.4261315,6.75,8.5,6.75Z" fill-rule="evenodd" fill="currentColor" fill-opacity="1"/></g><g><path d="M8.5,10.75L15.5,10.75Q15.57387,10.75,15.64632,10.735589000000001Q15.71877,10.721178,15.78701,10.69291Q15.855260000000001,10.664641,15.91668,10.623602Q15.978100000000001,10.582563,16.03033,10.53033Q16.08256,10.478097,16.1236,10.416678Q16.16464,10.355258,16.19291,10.287013Q16.22118,10.218767,16.235590000000002,10.146318Q16.25,10.0738685,16.25,10Q16.25,9.9261315,16.235590000000002,9.853682Q16.22118,9.781233,16.19291,9.712987Q16.16464,9.644742,16.1236,9.583322Q16.08256,9.521903,16.03033,9.46967Q15.978100000000001,9.417437,15.91668,9.376398Q15.855260000000001,9.335359,15.78701,9.30709Q15.71877,9.278822,15.64632,9.264410999999999Q15.57387,9.25,15.5,9.25L8.5,9.25Q8.4261315,9.25,8.353682,9.264410999999999Q8.281233,9.278822,8.212987,9.30709Q8.144742,9.335359,8.083322,9.376398Q8.021903,9.417437,7.96967,9.46967Q7.917437,9.521903,7.876398,9.583322Q7.835359,9.644742,7.80709,9.712987Q7.778822,9.781233,7.764411,9.853682Q7.75,9.9261315,7.75,10Q7.75,10.0738685,7.764411,10.146318Q7.778822,10.218767,7.80709,10.287013Q7.835359,10.355258,7.876398,10.416678Q7.917437,10.478097,7.96967,10.53033Q8.021903,10.582563,8.083322,10.623602Q8.144742,10.664641,8.212987,10.69291Q8.281233,10.721178,8.353682,10.735589000000001Q8.4261315,10.75,8.5,10.75Z" fill-rule="evenodd" fill="currentColor" fill-opacity="1"/></g><g><path d="M8.5,14.75L11.5,14.75Q11.57387,14.75,11.64632,14.735589000000001Q11.71877,14.721178,11.78701,14.69291Q11.85526,14.664641,11.91668,14.623602Q11.9781,14.582563,12.03033,14.53033Q12.08256,14.478097,12.1236,14.416678Q12.16464,14.355258,12.19291,14.287013Q12.22118,14.218767,12.23559,14.146318Q12.25,14.0738685,12.25,14Q12.25,13.9261315,12.23559,13.853682Q12.22118,13.781233,12.19291,13.712987Q12.16464,13.644742,12.1236,13.583322Q12.08256,13.521903,12.03033,13.46967Q11.9781,13.417437,11.91668,13.376398Q11.85526,13.335359,11.78701,13.30709Q11.71877,13.278822,11.64632,13.264410999999999Q11.57387,13.25,11.5,13.25L8.5,13.25Q8.4261315,13.25,8.353682,13.264410999999999Q8.281233,13.278822,8.212987,13.30709Q8.144742,13.335359,8.083322,13.376398Q8.021903,13.417437,7.96967,13.46967Q7.917437,13.521903,7.876398,13.583322Q7.835359,13.644742,7.80709,13.712987Q7.778822,13.781233,7.764411,13.853682Q7.75,13.9261315,7.75,14Q7.75,14.0738685,7.764411,14.146318Q7.778822,14.218767,7.80709,14.287013Q7.835359,14.355258,7.876398,14.416678Q7.917437,14.478097,7.96967,14.53033Q8.021903,14.582563,8.083322,14.623602Q8.144742,14.664641,8.212987,14.69291Q8.281233,14.721178,8.353682,14.735589000000001Q8.4261315,14.75,8.5,14.75Z" fill-rule="evenodd" fill="currentColor" fill-opacity="1"/></g><g><path d="M18.12132,16.378684Q17.24263,15.5,16,15.5Q14.75737,15.5,13.878684,16.378684Q13,17.25737,13,18.5Q13,19.74263,13.878684,20.62132Q14.75737,21.5,16,21.5Q17.2427,21.5,18.12128,20.62132Q19,19.7427,19,18.5Q19,17.25737,18.12132,16.378684ZM14.58579,17.08579Q15.17158,16.5,16,16.5Q16.82842,16.5,17.41421,17.08579Q18,17.67158,18,18.5Q18,19.32846,17.41422,19.91418Q16.82846,20.5,16,20.5Q15.17158,20.5,14.58579,19.91421Q14,19.32842,14,18.5Q14,17.67158,14.58579,17.08579Z" fill-rule="evenodd" fill="currentColor" fill-opacity="1"/></g><g><path d="M13.701907,20.798090000000002Q14.65381,21.75,16,21.75Q16.95453,21.75,17.71078,21.27144L18.96967,22.53033Q19.07516,22.63582,19.212989999999998,22.69291Q19.35082,22.75,19.5,22.75Q19.64918,22.75,19.787010000000002,22.69291Q19.92484,22.63582,20.03033,22.53033Q20.13582,22.42484,20.19291,22.287010000000002Q20.25,22.14918,20.25,22Q20.25,21.85082,20.19291,21.712989999999998Q20.13582,21.57516,20.03033,21.46967L18.77145,20.21079Q19.25,19.45455,19.25,18.5Q19.25,17.15382,18.298090000000002,16.201908Q17.34618,15.25,16,15.25Q14.65381,15.25,13.701907,16.201908Q12.75,17.15382,12.75,18.5Q12.75,19.84618,13.701907,20.798090000000002ZM17.23742,19.73742Q17.75,19.22487,17.75,18.5Q17.75,17.77514,17.23743,17.26257Q16.72486,16.75,16,16.75Q15.27514,16.75,14.76257,17.26257Q14.25,17.77514,14.25,18.5Q14.25,19.22486,14.76257,19.73743Q15.27514,20.25,16,20.25Q16.724899999999998,20.25,17.23739,19.73745L17.23742,19.73742Z" fill-rule="evenodd" fill="currentColor" fill-opacity="1"/></g></g></svg>