<svg xmlns="http://www.w3.org/2000/svg" xmlns:xlink="http://www.w3.org/1999/xlink" fill="none" version="1.1" width="24" height="24" viewBox="0 0 24 24"><g><g><g><g><g><path d="M2.52001953125,6.3599853515625C2.10580553125,6.3599853515625,1.77001953125,6.6957713515625,1.77001953125,7.1099853515625C1.77001953125,7.5241953515625,2.10580553125,7.8599853515625,2.52001953125,7.8599853515625C2.52001953125,7.8599853515625,2.52001953125,6.3599853515625,2.52001953125,6.3599853515625C2.52001953125,6.3599853515625,2.52001953125,6.3599853515625,2.52001953125,6.3599853515625ZM21.48001953125,7.8599853515625C21.89421953125,7.8599853515625,22.23001953125,7.5241953515625,22.23001953125,7.1099853515625C22.23001953125,6.6957713515625,21.89421953125,6.3599853515625,21.48001953125,6.3599853515625C21.48001953125,6.3599853515625,21.48001953125,7.8599853515625,21.48001953125,7.8599853515625C21.48001953125,7.8599853515625,21.48001953125,7.8599853515625,21.48001953125,7.8599853515625ZM2.52001953125,7.8599853515625C2.52001953125,7.8599853515625,21.48001953125,7.8599853515625,21.48001953125,7.8599853515625C21.48001953125,7.8599853515625,21.48001953125,6.3599853515625,21.48001953125,6.3599853515625C21.48001953125,6.3599853515625,2.52001953125,6.3599853515625,2.52001953125,6.3599853515625C2.52001953125,6.3599853515625,2.52001953125,7.8599853515625,2.52001953125,7.8599853515625C2.52001953125,7.8599853515625,2.52001953125,7.8599853515625,2.52001953125,7.8599853515625Z" fill="#6175AE" fill-opacity="1"/></g><g><path d="M9.27001953125,2.1099853515625C9.27001953125,1.6957713515625,8.93422953125,1.3599853515625,8.52001953125,1.3599853515625C8.10580553125,1.3599853515625,7.77001953125,1.6957713515625,7.77001953125,2.1099853515625C7.77001953125,2.1099853515625,9.27001953125,2.1099853515625,9.27001953125,2.1099853515625C9.27001953125,2.1099853515625,9.27001953125,2.1099853515625,9.27001953125,2.1099853515625ZM7.77001953125,6.9699853515625C7.77001953125,7.3841953515625,8.10580553125,7.7199853515625,8.52001953125,7.7199853515625C8.93422953125,7.7199853515625,9.27001953125,7.3841953515625,9.27001953125,6.9699853515625C9.27001953125,6.9699853515625,7.77001953125,6.9699853515625,7.77001953125,6.9699853515625C7.77001953125,6.9699853515625,7.77001953125,6.9699853515625,7.77001953125,6.9699853515625ZM7.77001953125,2.1099853515625C7.77001953125,2.1099853515625,7.77001953125,6.9699853515625,7.77001953125,6.9699853515625C7.77001953125,6.9699853515625,9.27001953125,6.9699853515625,9.27001953125,6.9699853515625C9.27001953125,6.9699853515625,9.27001953125,2.1099853515625,9.27001953125,2.1099853515625C9.27001953125,2.1099853515625,7.77001953125,2.1099853515625,7.77001953125,2.1099853515625C7.77001953125,2.1099853515625,7.77001953125,2.1099853515625,7.77001953125,2.1099853515625Z" fill="#6175AE" fill-opacity="1"/></g><g><path d="M16.22998046875,2.1099853515625C16.22998046875,1.6957713515625,15.89419046875,1.3599853515625,15.47998046875,1.3599853515625C15.06576646875,1.3599853515625,14.72998046875,1.6957713515625,14.72998046875,2.1099853515625C14.72998046875,2.1099853515625,16.22998046875,2.1099853515625,16.22998046875,2.1099853515625C16.22998046875,2.1099853515625,16.22998046875,2.1099853515625,16.22998046875,2.1099853515625ZM14.72998046875,6.5200153515625C14.72998046875,6.9342353515625,15.06576646875,7.2700153515625,15.47998046875,7.2700153515625C15.89419046875,7.2700153515625,16.22998046875,6.9342353515625,16.22998046875,6.5200153515625C16.22998046875,6.5200153515625,14.72998046875,6.5200153515625,14.72998046875,6.5200153515625C14.72998046875,6.5200153515625,14.72998046875,6.5200153515625,14.72998046875,6.5200153515625ZM14.72998046875,2.1099853515625C14.72998046875,2.1099853515625,14.72998046875,6.5200153515625,14.72998046875,6.5200153515625C14.72998046875,6.5200153515625,16.22998046875,6.5200153515625,16.22998046875,6.5200153515625C16.22998046875,6.5200153515625,16.22998046875,2.1099853515625,16.22998046875,2.1099853515625C16.22998046875,2.1099853515625,14.72998046875,2.1099853515625,14.72998046875,2.1099853515625C14.72998046875,2.1099853515625,14.72998046875,2.1099853515625,14.72998046875,2.1099853515625Z" fill="#6175AE" fill-opacity="1"/></g></g><g><path d="M21.98,15.65C21.98,15.65,21.3977,16.122799999999998,21.3977,16.122799999999998C21.5897,16.3592,21.9055,16.456,22.197,16.368000000000002C22.4885,16.279899999999998,22.6978,16.0243,22.7266,15.7211C22.7266,15.7211,21.98,15.65,21.98,15.65C21.98,15.65,21.98,15.65,21.98,15.65ZM15.69,14.99C15.69,14.99,16.154400000000003,15.579,16.154400000000003,15.579C16.154400000000003,15.579,16.1604,15.5742,16.1604,15.5742C16.1604,15.5742,15.69,14.99,15.69,14.99C15.69,14.99,15.69,14.99,15.69,14.99ZM15.65,21.98C15.65,21.98,15.7211,22.7266,15.7211,22.7266C16.0242,22.6977,16.2798,22.4884,16.3679,22.197C16.456,21.9055,16.359099999999998,21.5897,16.122700000000002,21.3977C16.122700000000002,21.3977,15.65,21.98,15.65,21.98C15.65,21.98,15.65,21.98,15.65,21.98ZM21.25,9C21.25,9,21.25,15,21.25,15C21.25,15,22.75,15,22.75,15C22.75,15,22.75,9,22.75,9C22.75,9,21.25,9,21.25,9C21.25,9,21.25,9,21.25,9ZM21.25,15C21.25,15.2271,21.2494,15.4107,21.2334,15.5789C21.2334,15.5789,22.7266,15.7211,22.7266,15.7211C22.7506,15.4694,22.75,15.2129,22.75,15C22.75,15,21.25,15,21.25,15C21.25,15,21.25,15,21.25,15ZM22.5623,15.1773C21.6044,13.9975,20.1431,13.25,18.5,13.25C18.5,13.25,18.5,14.75,18.5,14.75C19.6769,14.75,20.7156,15.2826,21.3977,16.122799999999998C21.3977,16.122799999999998,22.5623,15.1773,22.5623,15.1773C22.5623,15.1773,22.5623,15.1773,22.5623,15.1773ZM18.5,13.25C17.263,13.25,16.118299999999998,13.6822,15.2196,14.4058C15.2196,14.4058,16.1604,15.5742,16.1604,15.5742C16.8017,15.0577,17.617,14.75,18.5,14.75C18.5,14.75,18.5,13.25,18.5,13.25C18.5,13.25,18.5,13.25,18.5,13.25ZM15.2256,14.401C14.0085,15.3607,13.25,16.8462,13.25,18.5C13.25,18.5,14.75,18.5,14.75,18.5C14.75,17.3138,15.2915,16.2593,16.154400000000003,15.5789C16.154400000000003,15.5789,15.2256,14.401,15.2256,14.401C15.2256,14.401,15.2256,14.401,15.2256,14.401ZM13.25,18.5C13.25,20.143,13.9974,21.6044,15.1773,22.5622C15.1773,22.5622,16.122700000000002,21.3977,16.122700000000002,21.3977C15.2825,20.7156,14.75,19.677,14.75,18.5C14.75,18.5,13.25,18.5,13.25,18.5C13.25,18.5,13.25,18.5,13.25,18.5ZM15.5789,21.2334C15.4106,21.2494,15.227,21.25,15,21.25C15,21.25,15,22.75,15,22.75C15.213,22.75,15.4694,22.7506,15.7211,22.7266C15.7211,22.7266,15.5789,21.2334,15.5789,21.2334C15.5789,21.2334,15.5789,21.2334,15.5789,21.2334ZM15,21.25C15,21.25,9,21.25,9,21.25C9,21.25,9,22.75,9,22.75C9,22.75,15,22.75,15,22.75C15,22.75,15,21.25,15,21.25C15,21.25,15,21.25,15,21.25ZM9,21.25C6.57397,21.25,5.07086,20.7602,4.15533,19.8447C3.2398,18.9291,2.75,17.426,2.75,15C2.75,15,1.25,15,1.25,15C1.25,17.574,1.760201,19.5709,3.09467,20.9053C4.42914,22.2398,6.42603,22.75,9,22.75C9,22.75,9,21.25,9,21.25C9,21.25,9,21.25,9,21.25ZM2.75,15C2.75,15,2.75,9,2.75,9C2.75,9,1.25,9,1.25,9C1.25,9,1.25,15,1.25,15C1.25,15,2.75,15,2.75,15C2.75,15,2.75,15,2.75,15ZM2.75,9C2.75,6.57397,3.2398,5.07086,4.15533,4.15533C5.07086,3.2398,6.57397,2.75,9,2.75C9,2.75,9,1.25,9,1.25C6.42603,1.25,4.42914,1.760201,3.09467,3.09467C1.760201,4.42914,1.25,6.42603,1.25,9C1.25,9,2.75,9,2.75,9C2.75,9,2.75,9,2.75,9ZM9,2.75C9,2.75,15,2.75,15,2.75C15,2.75,15,1.25,15,1.25C15,1.25,9,1.25,9,1.25C9,1.25,9,2.75,9,2.75C9,2.75,9,2.75,9,2.75ZM15,2.75C17.426,2.75,18.9291,3.2398,19.8447,4.15533C20.7602,5.07086,21.25,6.57397,21.25,9C21.25,9,22.75,9,22.75,9C22.75,6.42603,22.2398,4.42914,20.9053,3.09467C19.5709,1.760201,17.574,1.25,15,1.25C15,1.25,15,2.75,15,2.75C15,2.75,15,2.75,15,2.75Z" fill="#414D73" fill-opacity="1"/></g><g><g><path d="M21.47,21.880000000000003C21.47,21.880000000000003,21.95992,22.44802,21.95992,22.44802C21.95992,22.44802,21.96939,22.43956,21.96939,22.43956C21.96939,22.43956,21.47,21.880000000000003,21.47,21.880000000000003C21.47,21.880000000000003,21.47,21.880000000000003,21.47,21.880000000000003ZM15.649989999999999,21.979979999999998C15.649989999999999,21.979979999999998,16.12943,21.40316,16.12943,21.40316C16.12943,21.40316,16.12272,21.39772,16.12272,21.39772C16.12272,21.39772,15.649989999999999,21.979979999999998,15.649989999999999,21.979979999999998C15.649989999999999,21.979979999999998,15.649989999999999,21.979979999999998,15.649989999999999,21.979979999999998ZM15.69,14.98999C15.69,14.98999,16.15439,15.57897,16.15439,15.57897C16.15439,15.57897,16.16037,15.57416,16.16037,15.57416C16.16037,15.57416,15.69,14.98999,15.69,14.98999C15.69,14.98999,15.69,14.98999,15.69,14.98999ZM21.98001,15.65002C21.98001,15.65002,21.39771,16.12278,21.39771,16.12278C21.39771,16.12278,21.40323,16.12943,21.40323,16.12943C21.40323,16.12943,21.98001,15.65002,21.98001,15.65002C21.98001,15.65002,21.98001,15.65002,21.98001,15.65002ZM22.25,18.5C22.25,19.62095,21.75299,20.62219,20.97061,21.32045C20.97061,21.32045,21.96939,22.43956,21.96939,22.43956C23.04702,21.47782,23.75,20.07905,23.75,18.5C23.75,18.5,22.25,18.5,22.25,18.5C22.25,18.5,22.25,18.5,22.25,18.5ZM20.980159999999998,21.31207C20.304949999999998,21.89443,19.44569,22.25,18.5,22.25C18.5,22.25,18.5,23.75,18.5,23.75C19.834310000000002,23.75,21.03505,23.24558,21.95985,22.44794C21.95985,22.44794,20.980159999999998,21.31207,20.980159999999998,21.31207C20.980159999999998,21.31207,20.980159999999998,21.31207,20.980159999999998,21.31207ZM18.5,22.25C17.5973,22.25,16.7664,21.93266,16.1294,21.4032C16.1294,21.4032,15.17059,22.55676,15.17059,22.55676C16.07359,23.307299999999998,17.2427,23.75,18.5,23.75C18.5,23.75,18.5,22.25,18.5,22.25C18.5,22.25,18.5,22.25,18.5,22.25ZM16.12272,21.39772C15.282540000000001,20.71559,14.75,19.676949999999998,14.75,18.5C14.75,18.5,13.25,18.5,13.25,18.5C13.25,20.14305,13.997445,21.60437,15.17727,22.56224C15.17727,22.56224,16.12272,21.39772,16.12272,21.39772C16.12272,21.39772,16.12272,21.39772,16.12272,21.39772ZM14.75,18.5C14.75,17.313769999999998,15.29152,16.25926,16.15437,15.57894C16.15437,15.57894,15.22564,14.40104,15.22564,14.40104C14.008483,15.36072,13.25,16.84623,13.25,18.5C13.25,18.5,14.75,18.5,14.75,18.5C14.75,18.5,14.75,18.5,14.75,18.5ZM16.16037,15.57416C16.80173,15.057739999999999,17.616979999999998,14.75,18.5,14.75C18.5,14.75,18.5,13.25,18.5,13.25C17.26302,13.25,16.11828,13.68224,15.21963,14.40582C15.21963,14.40582,16.16037,15.57416,16.16037,15.57416C16.16037,15.57416,16.16037,15.57416,16.16037,15.57416ZM18.5,14.75C19.676949999999998,14.75,20.71562,15.28257,21.397750000000002,16.12275C21.397750000000002,16.12275,22.562269999999998,15.1773,22.562269999999998,15.1773C21.6044,13.99748,20.14305,13.25,18.5,13.25C18.5,13.25,18.5,14.75,18.5,14.75C18.5,14.75,18.5,14.75,18.5,14.75ZM21.40323,16.12943C21.932679999999998,16.76642,22.25,17.59729,22.25,18.5C22.25,18.5,23.75,18.5,23.75,18.5C23.75,17.24271,23.307299999999998,16.07363,22.55679,15.17062C22.55679,15.17062,21.40323,16.12943,21.40323,16.12943C21.40323,16.12943,21.40323,16.12943,21.40323,16.12943Z" fill="#414D73" fill-opacity="1"/></g><g><path d="M19.52999163398743,17.09002685546875C19.52999163398743,16.67581285546875,19.194211633987425,16.34002685546875,18.77999163398743,16.34002685546875C18.365781633987428,16.34002685546875,18.03000163398743,16.67581285546875,18.03000163398743,17.09002685546875C18.03000163398743,17.09002685546875,19.52999163398743,17.09002685546875,19.52999163398743,17.09002685546875C19.52999163398743,17.09002685546875,19.52999163398743,17.09002685546875,19.52999163398743,17.09002685546875ZM18.77999163398743,18.78002685546875C18.77999163398743,18.78002685546875,19.165861633987426,19.42315685546875,19.165861633987426,19.42315685546875C19.391771633987428,19.287616855468748,19.52999163398743,19.04347685546875,19.52999163398743,18.78002685546875C19.52999163398743,18.78002685546875,18.77999163398743,18.78002685546875,18.77999163398743,18.78002685546875C18.77999163398743,18.78002685546875,18.77999163398743,18.78002685546875,18.77999163398743,18.78002685546875ZM16.994142633987426,18.97686685546875C16.638954883987427,19.18997685546875,16.523773633987428,19.65066685546875,16.736878633987427,20.00585685546875C16.949984633987427,20.36104685546875,17.410677633987426,20.47622685546875,17.765871633987427,20.263116855468752C17.765871633987427,20.263116855468752,16.994142633987426,18.97686685546875,16.994142633987426,18.97686685546875C16.994142633987426,18.97686685546875,16.994142633987426,18.97686685546875,16.994142633987426,18.97686685546875ZM18.03000163398743,17.09002685546875C18.03000163398743,17.09002685546875,18.03000163398743,18.78002685546875,18.03000163398743,18.78002685546875C18.03000163398743,18.78002685546875,19.52999163398743,18.78002685546875,19.52999163398743,18.78002685546875C19.52999163398743,18.78002685546875,19.52999163398743,17.09002685546875,19.52999163398743,17.09002685546875C19.52999163398743,17.09002685546875,18.03000163398743,17.09002685546875,18.03000163398743,17.09002685546875C18.03000163398743,17.09002685546875,18.03000163398743,17.09002685546875,18.03000163398743,17.09002685546875ZM18.394131633987428,18.13690685546875C18.394131633987428,18.13690685546875,16.994142633987426,18.97686685546875,16.994142633987426,18.97686685546875C16.994142633987426,18.97686685546875,17.765871633987427,20.263116855468752,17.765871633987427,20.263116855468752C17.765871633987427,20.263116855468752,19.165861633987426,19.42315685546875,19.165861633987426,19.42315685546875C19.165861633987426,19.42315685546875,18.394131633987428,18.13690685546875,18.394131633987428,18.13690685546875C18.394131633987428,18.13690685546875,18.394131633987428,18.13690685546875,18.394131633987428,18.13690685546875Z" fill="#6175AE" fill-opacity="1"/></g></g><g style="opacity:0;"></g></g></g></g></svg>