<svg xmlns="http://www.w3.org/2000/svg" xmlns:xlink="http://www.w3.org/1999/xlink" fill="none" version="1.1" width="24" height="24" viewBox="0 0 24 24"><g><g><path d="M7.760358121221924,4.8457799999999995C7.691756121221924,5.25428,7.967292221221924,5.64104,8.375785221221923,5.70964C8.784282221221924,5.77824,9.171042221221924,5.50271,9.239642221221924,5.09421C9.239642221221924,5.09421,7.760358121221924,4.8457799999999995,7.760358121221924,4.8457799999999995C7.760358121221924,4.8457799999999995,7.760358121221924,4.8457799999999995,7.760358121221924,4.8457799999999995ZM8.720000221221923,3.66C8.720000221221923,3.66,7.980416221221923,3.53544,7.980416221221923,3.53544C7.980416221221923,3.53544,7.980358221221924,3.53579,7.980358221221924,3.53579C7.980358221221924,3.53579,8.720000221221923,3.66,8.720000221221923,3.66C8.720000221221923,3.66,8.720000221221923,3.66,8.720000221221923,3.66ZM15.280002221221924,3.67C15.280002221221924,3.67,14.539762221221924,3.79069,14.539762221221924,3.79069C14.539762221221924,3.79069,14.540512221221924,3.79514,14.540512221221924,3.79514C14.540512221221924,3.79514,15.280002221221924,3.67,15.280002221221924,3.67C15.280002221221924,3.67,15.280002221221924,3.67,15.280002221221924,3.67ZM14.760512221221923,5.09514C14.829632221221924,5.50355,15.216742221221924,5.7786,15.625142221221925,5.70949C16.033552221221925,5.64037,16.308602221221925,5.25326,16.239492221221923,4.844860000000001C16.239492221221923,4.844860000000001,14.760512221221923,5.09514,14.760512221221923,5.09514C14.760512221221923,5.09514,14.760512221221923,5.09514,14.760512221221923,5.09514ZM9.239642221221924,5.09421C9.239642221221924,5.09421,9.459642221221923,3.78421,9.459642221221923,3.78421C9.459642221221923,3.78421,7.980358221221924,3.53579,7.980358221221924,3.53579C7.980358221221924,3.53579,7.760358121221924,4.8457799999999995,7.760358121221924,4.8457799999999995C7.760358121221924,4.8457799999999995,9.239642221221924,5.09421,9.239642221221924,5.09421C9.239642221221924,5.09421,9.239642221221924,5.09421,9.239642221221924,5.09421ZM9.459582221221924,3.78456C9.549702221221924,3.2494899999999998,9.601632221221923,3.07429,9.693772221221924,2.96981C9.742202221221923,2.91488,9.923902221221924,2.75,10.690002221221924,2.75C10.690002221221924,2.75,10.690002221221924,1.2500000000000002,10.690002221221924,1.2500000000000002C9.766102221221924,1.2500000000000002,9.042792221221923,1.440117,8.568733221221924,1.977691C8.138370221221924,2.46571,8.050299221221923,3.12051,7.980416221221923,3.53544C7.980416221221923,3.53544,9.459582221221924,3.78456,9.459582221221924,3.78456C9.459582221221924,3.78456,9.459582221221924,3.78456,9.459582221221924,3.78456ZM10.690002221221924,2.75C10.690002221221924,2.75,13.310002221221925,2.75,13.310002221221925,2.75C13.310002221221925,2.75,13.310002221221925,1.2500000000000002,13.310002221221925,1.2500000000000002C13.310002221221925,1.2500000000000002,10.690002221221924,1.2500000000000002,10.690002221221924,1.2500000000000002C10.690002221221924,1.2500000000000002,10.690002221221924,2.75,10.690002221221924,2.75C10.690002221221924,2.75,10.690002221221924,2.75,10.690002221221924,2.75ZM13.310002221221925,2.75C14.064862221221924,2.75,14.252282221221924,2.9196,14.306042221221924,2.98155C14.403202221221925,3.09352,14.456132221221925,3.27767,14.539772221221924,3.79069C14.539772221221924,3.79069,16.020232221221924,3.54931,16.020232221221924,3.54931C15.953872221221923,3.1423300000000003,15.866802221221924,2.49148,15.438962221221924,1.998446C14.967722221221923,1.4553989999999999,14.245142221221924,1.2500000000000002,13.310002221221925,1.2500000000000002C13.310002221221925,1.2500000000000002,13.310002221221925,2.75,13.310002221221925,2.75C13.310002221221925,2.75,13.310002221221925,2.75,13.310002221221925,2.75ZM14.540512221221924,3.79514C14.540512221221924,3.79514,14.760512221221923,5.09514,14.760512221221923,5.09514C14.760512221221923,5.09514,16.239492221221923,4.844860000000001,16.239492221221923,4.844860000000001C16.239492221221923,4.844860000000001,16.019492221221924,3.54486,16.019492221221924,3.54486C16.019492221221924,3.54486,14.540512221221924,3.79514,14.540512221221924,3.79514C14.540512221221924,3.79514,14.540512221221924,3.79514,14.540512221221924,3.79514Z" fill="#6175AE" fill-opacity="1"/></g><g><path d="M20.926045878982546,6.726340019073486C21.338245878982544,6.767190019073486,21.705545878982544,6.466160019073486,21.746345878982545,6.053960019073486C21.787245878982542,5.641768019073487,21.486245878982544,5.274504019073486,21.074045878982545,5.233656019073487C21.074045878982545,5.233656019073487,20.926045878982546,6.726340019073486,20.926045878982546,6.726340019073486C20.926045878982546,6.726340019073486,20.926045878982546,6.726340019073486,20.926045878982546,6.726340019073486ZM5.039995878982544,5.780000019073486C5.039995878982544,5.780000019073486,5.113175878982544,6.526420019073486,5.113175878982544,6.526420019073486C5.113175878982544,6.526420019073486,5.115365878982544,6.526200019073486,5.115365878982544,6.526200019073486C5.115365878982544,6.526200019073486,5.039995878982544,5.780000019073486,5.039995878982544,5.780000019073486C5.039995878982544,5.780000019073486,5.039995878982544,5.780000019073486,5.039995878982544,5.780000019073486ZM2.926821878982544,5.2335790190734865C2.514583878982544,5.273994019073486,2.213162978982544,5.6409410190734866,2.253578938982544,6.053180019073486C2.293993978982544,6.465420019073486,2.6609408789825437,6.766840019073486,3.073178878982544,6.726420019073487C3.073178878982544,6.726420019073487,2.926821878982544,5.2335790190734865,2.926821878982544,5.2335790190734865C2.926821878982544,5.2335790190734865,2.926821878982544,5.2335790190734865,2.926821878982544,5.2335790190734865ZM21.074045878982545,5.233656019073487C17.720145878982542,4.901288019073486,14.345445878982543,4.730000019073486,10.979995878982544,4.730000019073486C10.979995878982544,4.730000019073486,10.979995878982544,6.230000019073486,10.979995878982544,6.230000019073486C14.294645878982545,6.230000019073486,17.61994587898254,6.398710019073486,20.926045878982546,6.726340019073486C20.926045878982546,6.726340019073486,21.074045878982545,5.233656019073487,21.074045878982545,5.233656019073487C21.074045878982545,5.233656019073487,21.074045878982545,5.233656019073487,21.074045878982545,5.233656019073487ZM10.979995878982544,4.730000019073486C8.974695878982544,4.730000019073486,6.969535878982544,4.831280019073486,4.9646258789825435,5.033797019073487C4.9646258789825435,5.033797019073487,5.115365878982544,6.526200019073486,5.115365878982544,6.526200019073486C7.070455878982544,6.3287200190734865,9.025295878982543,6.230000019073486,10.979995878982544,6.230000019073486C10.979995878982544,6.230000019073486,10.979995878982544,4.730000019073486,10.979995878982544,4.730000019073486C10.979995878982544,4.730000019073486,10.979995878982544,4.730000019073486,10.979995878982544,4.730000019073486ZM4.966815878982544,5.033579019073486C4.966815878982544,5.033579019073486,2.926821878982544,5.2335790190734865,2.926821878982544,5.2335790190734865C2.926821878982544,5.2335790190734865,3.073178878982544,6.726420019073487,3.073178878982544,6.726420019073487C3.073178878982544,6.726420019073487,5.113175878982544,6.526420019073486,5.113175878982544,6.526420019073486C5.113175878982544,6.526420019073486,4.966815878982544,5.033579019073486,4.966815878982544,5.033579019073486C4.966815878982544,5.033579019073486,4.966815878982544,5.033579019073486,4.966815878982544,5.033579019073486Z" fill="#414D73" fill-opacity="1"/></g><g><path d="M19.59837339248657,9.188310640441895C19.62507339248657,8.774957640441894,19.311673392486572,8.418239240441894,18.898273392486573,8.391558220441894C18.484973392486573,8.364876240441895,18.128173392486573,8.678336640441895,18.10157339248657,9.091689640441894C18.10157339248657,9.091689640441894,19.59837339248657,9.188310640441895,19.59837339248657,9.188310640441895C19.59837339248657,9.188310640441895,19.59837339248657,9.188310640441895,19.59837339248657,9.188310640441895ZM18.199973392486573,19.209973640441895C18.199973392486573,19.209973640441895,18.948173392486574,19.262373640441893,18.948173392486574,19.262373640441893C18.948173392486574,19.262373640441893,18.948373392486573,19.258273640441892,18.948373392486573,19.258273640441892C18.948373392486573,19.258273640441892,18.199973392486573,19.209973640441895,18.199973392486573,19.209973640441895C18.199973392486573,19.209973640441895,18.199973392486573,19.209973640441895,18.199973392486573,19.209973640441895ZM5.800003392486572,19.209973640441895C5.800003392486572,19.209973640441895,5.051546392486572,19.258273640441892,5.051546392486572,19.258273640441892C5.051546392486572,19.258273640441892,5.0518343924865725,19.262373640441893,5.0518343924865725,19.262373640441893C5.0518343924865725,19.262373640441893,5.800003392486572,19.209973640441895,5.800003392486572,19.209973640441895C5.800003392486572,19.209973640441895,5.800003392486572,19.209973640441895,5.800003392486572,19.209973640441895ZM5.8984433924865725,9.091689640441894C5.871763392486573,8.678336640441895,5.5150433924865725,8.364876240441895,5.1016893924865725,8.391558220441894C4.688336392486573,8.418239240441894,4.374875992486572,8.774957640441894,4.4015579724865725,9.188310640441895C4.4015579724865725,9.188310640441895,5.8984433924865725,9.091689640441894,5.8984433924865725,9.091689640441894C5.8984433924865725,9.091689640441894,5.8984433924865725,9.091689640441894,5.8984433924865725,9.091689640441894ZM18.10157339248657,9.091689640441894C18.10157339248657,9.091689640441894,17.451573392486573,19.161673640441894,17.451573392486573,19.161673640441894C17.451573392486573,19.161673640441894,18.948373392486573,19.258273640441892,18.948373392486573,19.258273640441892C18.948373392486573,19.258273640441892,19.59837339248657,9.188310640441895,19.59837339248657,9.188310640441895C19.59837339248657,9.188310640441895,18.10157339248657,9.091689640441894,18.10157339248657,9.091689640441894C18.10157339248657,9.091689640441894,18.10157339248657,9.091689640441894,18.10157339248657,9.091689640441894ZM17.451773392486572,19.157573640441896C17.42347339248657,19.561273640441897,17.399673392486573,19.881273640441897,17.343473392486572,20.160173640441897C17.288873392486572,20.431273640441894,17.21307339248657,20.609373640441895,17.11517339248657,20.736873640441893C16.94637339248657,20.956673640441895,16.529373392486573,21.249973640441894,15.209973392486573,21.249973640441894C15.209973392486573,21.249973640441894,15.209973392486573,22.749973640441894,15.209973392486573,22.749973640441894C16.680573392486572,22.749973640441894,17.70357339248657,22.433273640441897,18.304773392486574,21.650573640441895C18.591873392486573,21.276773640441895,18.733573392486573,20.855473640441893,18.813973392486574,20.456373640441896C18.892773392486575,20.064873640441895,18.921473392486572,19.643673640441897,18.948173392486574,19.262373640441893C18.948173392486574,19.262373640441893,17.451773392486572,19.157573640441896,17.451773392486572,19.157573640441896C17.451773392486572,19.157573640441896,17.451773392486572,19.157573640441896,17.451773392486572,19.157573640441896ZM15.209973392486573,21.249973640441894C15.209973392486573,21.249973640441894,8.790003392486572,21.249973640441894,8.790003392486572,21.249973640441894C8.790003392486572,21.249973640441894,8.790003392486572,22.749973640441894,8.790003392486572,22.749973640441894C8.790003392486572,22.749973640441894,15.209973392486573,22.749973640441894,15.209973392486573,22.749973640441894C15.209973392486573,22.749973640441894,15.209973392486573,21.249973640441894,15.209973392486573,21.249973640441894C15.209973392486573,21.249973640441894,15.209973392486573,21.249973640441894,15.209973392486573,21.249973640441894ZM8.790003392486572,21.249973640441894C7.470563392486572,21.249973640441894,7.053633392486573,20.956673640441895,6.884803392486573,20.736873640441893C6.786903392486572,20.609373640441895,6.711093392486572,20.431273640441894,6.656493392486572,20.160173640441897C6.6003233924865725,19.881273640441897,6.576453392486572,19.561273640441897,6.548173392486572,19.157573640441896C6.548173392486572,19.157573640441896,5.0518343924865725,19.262373640441893,5.0518343924865725,19.262373640441893C5.078548392486573,19.643673640441897,5.107177392486572,20.064873640441895,5.186013392486572,20.456373640441896C5.266406392486572,20.855473640441893,5.408093392486572,21.276773640441895,5.695203392486572,21.650573640441895C6.296373392486572,22.433273640441897,7.319443392486573,22.749973640441894,8.790003392486572,22.749973640441894C8.790003392486572,22.749973640441894,8.790003392486572,21.249973640441894,8.790003392486572,21.249973640441894C8.790003392486572,21.249973640441894,8.790003392486572,21.249973640441894,8.790003392486572,21.249973640441894ZM6.548443392486572,19.161673640441894C6.548443392486572,19.161673640441894,5.8984433924865725,9.091689640441894,5.8984433924865725,9.091689640441894C5.8984433924865725,9.091689640441894,4.4015579724865725,9.188310640441895,4.4015579724865725,9.188310640441895C4.4015579724865725,9.188310640441895,5.051557392486572,19.258273640441892,5.051557392486572,19.258273640441892C5.051557392486572,19.258273640441892,6.548443392486572,19.161673640441894,6.548443392486572,19.161673640441894C6.548443392486572,19.161673640441894,6.548443392486572,19.161673640441894,6.548443392486572,19.161673640441894Z" fill="#414D73" fill-opacity="1"/></g><g><path d="M10.329999923706055,15.75C9.915785923706055,15.75,9.579999923706055,16.085786,9.579999923706055,16.5C9.579999923706055,16.91421,9.915785923706055,17.25,10.329999923706055,17.25C10.329999923706055,17.25,10.329999923706055,15.75,10.329999923706055,15.75C10.329999923706055,15.75,10.329999923706055,15.75,10.329999923706055,15.75ZM13.659999923706055,17.25C14.074209923706054,17.25,14.409999923706055,16.91421,14.409999923706055,16.5C14.409999923706055,16.085786,14.074209923706054,15.75,13.659999923706055,15.75C13.659999923706055,15.75,13.659999923706055,17.25,13.659999923706055,17.25C13.659999923706055,17.25,13.659999923706055,17.25,13.659999923706055,17.25ZM10.329999923706055,17.25C10.329999923706055,17.25,13.659999923706055,17.25,13.659999923706055,17.25C13.659999923706055,17.25,13.659999923706055,15.75,13.659999923706055,15.75C13.659999923706055,15.75,10.329999923706055,15.75,10.329999923706055,15.75C10.329999923706055,15.75,10.329999923706055,17.25,10.329999923706055,17.25C10.329999923706055,17.25,10.329999923706055,17.25,10.329999923706055,17.25Z" fill="#6175AE" fill-opacity="1"/></g><g><path d="M9.5,11.75C9.085786,11.75,8.75,12.085786,8.75,12.5C8.75,12.91421,9.085786,13.25,9.5,13.25C9.5,13.25,9.5,11.75,9.5,11.75C9.5,11.75,9.5,11.75,9.5,11.75ZM14.5,13.25C14.91421,13.25,15.25,12.91421,15.25,12.5C15.25,12.085786,14.91421,11.75,14.5,11.75C14.5,11.75,14.5,13.25,14.5,13.25C14.5,13.25,14.5,13.25,14.5,13.25ZM9.5,13.25C9.5,13.25,14.5,13.25,14.5,13.25C14.5,13.25,14.5,11.75,14.5,11.75C14.5,11.75,9.5,11.75,9.5,11.75C9.5,11.75,9.5,13.25,9.5,13.25C9.5,13.25,9.5,13.25,9.5,13.25Z" fill="#6175AE" fill-opacity="1"/></g><g style="opacity:0;"></g></g></svg>