<svg xmlns="http://www.w3.org/2000/svg" xmlns:xlink="http://www.w3.org/1999/xlink" fill="none" version="1.1" width="20" height="20" viewBox="0 0 20 20"><defs><clipPath id="master_svg0_65_3615"><rect x="0" y="0" width="20" height="20" rx="0"/></clipPath></defs><g clip-path="url(#master_svg0_65_3615)"><g><rect x="0" y="0" width="20" height="20" rx="0" fill="#FFFFFF" fill-opacity="0.009999999776482582"/></g><g><path d="M2.75,4.166748046875L2.75,18.333448046875Q2.75,18.431948046875,2.769215,18.528548046875002Q2.78843,18.625148046874997,2.826121,18.716048046875002Q2.8638120000000002,18.807048046875,2.91853,18.888948046875Q2.973249,18.970848046875,3.042893,19.040548046875Q3.112537,19.110148046875,3.19443,19.164848046875Q3.276322,19.219648046875,3.367317,19.257248046875Q3.458311,19.294948046875,3.55491,19.314248046875Q3.6515086,19.333448046875,3.75,19.333448046875L16.25,19.333448046875Q16.3485,19.333448046875,16.4451,19.314248046875Q16.5417,19.294948046875,16.6327,19.257248046875Q16.7237,19.219648046875,16.8056,19.164848046875Q16.8875,19.110148046875,16.9571,19.040548046875Q17.0268,18.970848046875,17.0815,18.888948046875Q17.136200000000002,18.807048046875,17.1739,18.716048046875002Q17.2116,18.625148046874997,17.230800000000002,18.528548046875002Q17.25,18.431948046875,17.25,18.333448046875L17.25,4.166748046875Q17.25,4.068256646875,17.230800000000002,3.971658046875Q17.2116,3.875059046875,17.1739,3.784065046875Q17.136200000000002,3.693070046875,17.0815,3.611178046875Q17.0268,3.529285046875,16.9571,3.459641046875Q16.8875,3.389997046875,16.8056,3.335278046875Q16.7237,3.2805600468750002,16.6327,3.242869046875Q16.5417,3.205178046875,16.4451,3.185963046875Q16.3485,3.166748046875,16.25,3.166748046875L3.75,3.166748046875Q3.6515086,3.166748046875,3.55491,3.185963046875Q3.458311,3.205178046875,3.367317,3.242869046875Q3.276322,3.2805600468750002,3.19443,3.335278046875Q3.112537,3.389997046875,3.042893,3.459641046875Q2.973249,3.529285046875,2.91853,3.611178046875Q2.8638120000000002,3.693070046875,2.826121,3.784065046875Q2.78843,3.875059046875,2.769215,3.971658046875Q2.75,4.068256646875,2.75,4.166748046875ZM4.75,5.166748046875L15.25,5.166748046875L15.25,17.333448046875L4.75,17.333448046875L4.75,5.166748046875Z" fill="#6175AE" fill-opacity="1"/></g><g><path d="M7.3333740234375,13.749921953125L7.3333740234375,8.333251953125Q7.3333740234375,8.234760553125,7.3525890234375,8.138161953125Q7.3718040234375,8.041562953125,7.4094950234375,7.950568953125Q7.4471860234375,7.859573953125,7.5019040234375,7.777681953125Q7.5566230234375,7.695788953125,7.6262670234375,7.626144953125Q7.6959110234375,7.556500953125,7.7778040234375,7.501781953125Q7.8596960234375,7.447063953125,7.9506910234375,7.409372953125Q8.0416850234375,7.371681953125,8.1382840234375,7.352466953125Q8.2348826234375,7.333251953125,8.3333740234375,7.333251953125Q8.4318654234375,7.333251953125,8.5284640234375,7.352466953125Q8.6250630234375,7.371681953125,8.7160570234375,7.409372953125Q8.8070520234375,7.447063953125,8.8889440234375,7.501781953125Q8.9708370234375,7.556500953125,9.0404810234375,7.626144953125Q9.1101250234375,7.695788953125,9.1648440234375,7.777681953125Q9.2195620234375,7.859573953125,9.2572530234375,7.950568953125Q9.2949440234375,8.041562953125,9.314159023437501,8.138161953125Q9.3333740234375,8.234760553125,9.3333740234375,8.333251953125L9.3333740234375,13.749921953125Q9.3333740234375,13.848411953125,9.314159023437501,13.945011953125Q9.2949440234375,14.041611953124999,9.2572530234375,14.132601953125Q9.2195620234375,14.223591953125,9.1648440234375,14.305491953125Q9.1101250234375,14.387381953125,9.0404810234375,14.457021953125Q8.9708370234375,14.526671953125,8.8889440234375,14.581391953125Q8.8070520234375,14.636101953125,8.7160570234375,14.673801953125Q8.6250630234375,14.711491953125,8.5284640234375,14.730701953125Q8.4318654234375,14.749921953125,8.3333740234375,14.749921953125Q8.2348826234375,14.749921953125,8.1382840234375,14.730701953125Q8.0416850234375,14.711491953125,7.9506910234375,14.673801953125Q7.8596960234375,14.636101953125,7.7778040234375,14.581391953125Q7.6959110234375,14.526671953125,7.6262670234375,14.457021953125Q7.5566230234375,14.387381953125,7.5019040234375,14.305491953125Q7.4471860234375,14.223591953125,7.4094950234375,14.132601953125Q7.3718040234375,14.041611953124999,7.3525890234375,13.945011953125Q7.3333740234375,13.848411953125,7.3333740234375,13.749921953125ZM9.3333740234375,13.749921953125Q9.3333740234375,13.848411953125,9.314159023437501,13.945011953125Q9.2949440234375,14.041611953124999,9.2572530234375,14.132601953125Q9.2195620234375,14.223591953125,9.1648440234375,14.305491953125Q9.1101250234375,14.387381953125,9.0404810234375,14.457021953125Q8.9708370234375,14.526671953125,8.8889440234375,14.581391953125Q8.8070520234375,14.636101953125,8.7160570234375,14.673801953125Q8.6250630234375,14.711491953125,8.5284640234375,14.730701953125Q8.4318654234375,14.749921953125,8.3333740234375,14.749921953125Q8.2348826234375,14.749921953125,8.1382840234375,14.730701953125Q8.0416850234375,14.711491953125,7.9506910234375,14.673801953125Q7.8596960234375,14.636101953125,7.7778040234375,14.581391953125Q7.6959110234375,14.526671953125,7.6262670234375,14.457021953125Q7.5566230234375,14.387381953125,7.5019040234375,14.305491953125Q7.4471860234375,14.223591953125,7.4094950234375,14.132601953125Q7.3718040234375,14.041611953124999,7.3525890234375,13.945011953125Q7.3333740234375,13.848411953125,7.3333740234375,13.749921953125Q7.3333740234375,13.651431953125,7.3525890234375,13.554831953125Q7.3718040234375,13.458231953125,7.4094950234375,13.367231953125Q7.4471860234375,13.276241953125,7.5019040234375,13.194351953125Q7.5566230234375,13.112451953125,7.6262670234375,13.042811953125Q7.6959110234375,12.973171953125,7.7778040234375,12.918451953125Q7.8596960234375,12.863731953125,7.9506910234375,12.826041953125Q8.0416850234375,12.788351953125,8.1382840234375,12.769131953125001Q8.2348826234375,12.749921953125,8.3333740234375,12.749921953125Q8.4318654234375,12.749921953125,8.5284640234375,12.769131953125001Q8.6250630234375,12.788351953125,8.7160570234375,12.826041953125Q8.8070520234375,12.863731953125,8.8889440234375,12.918451953125Q8.9708370234375,12.973171953125,9.0404810234375,13.042811953125Q9.1101250234375,13.112451953125,9.1648440234375,13.194351953125Q9.2195620234375,13.276241953125,9.2572530234375,13.367231953125Q9.2949440234375,13.458231953125,9.314159023437501,13.554831953125Q9.3333740234375,13.651431953125,9.3333740234375,13.749921953125ZM9.3333740234375,8.333251953125Q9.3333740234375,8.431743353125,9.314159023437501,8.528341953125Q9.2949440234375,8.624940953125,9.2572530234375,8.715934953125Q9.2195620234375,8.806929953125,9.1648440234375,8.888821953125Q9.1101250234375,8.970714953125,9.0404810234375,9.040358953125Q8.9708370234375,9.110002953125,8.8889440234375,9.164721953125Q8.8070520234375,9.219439953125,8.7160570234375,9.257130953125Q8.6250630234375,9.294821953125,8.5284640234375,9.314036953125001Q8.4318654234375,9.333251953125,8.3333740234375,9.333251953125Q8.2348826234375,9.333251953125,8.1382840234375,9.314036953125001Q8.0416850234375,9.294821953125,7.9506910234375,9.257130953125Q7.8596960234375,9.219439953125,7.7778040234375,9.164721953125Q7.6959110234375,9.110002953125,7.6262670234375,9.040358953125Q7.5566230234375,8.970714953125,7.5019040234375,8.888821953125Q7.4471860234375,8.806929953125,7.4094950234375,8.715934953125Q7.3718040234375,8.624940953125,7.3525890234375,8.528341953125Q7.3333740234375,8.431743353125,7.3333740234375,8.333251953125Q7.3333740234375,8.234760553125,7.3525890234375,8.138161953125Q7.3718040234375,8.041562953125,7.4094950234375,7.950568953125Q7.4471860234375,7.859573953125,7.5019040234375,7.777681953125Q7.5566230234375,7.695788953125,7.6262670234375,7.626144953125Q7.6959110234375,7.556500953125,7.7778040234375,7.501781953125Q7.8596960234375,7.447063953125,7.9506910234375,7.409372953125Q8.0416850234375,7.371681953125,8.1382840234375,7.352466953125Q8.2348826234375,7.333251953125,8.3333740234375,7.333251953125Q8.4318654234375,7.333251953125,8.5284640234375,7.352466953125Q8.6250630234375,7.371681953125,8.7160570234375,7.409372953125Q8.8070520234375,7.447063953125,8.8889440234375,7.501781953125Q8.9708370234375,7.556500953125,9.0404810234375,7.626144953125Q9.1101250234375,7.695788953125,9.1648440234375,7.777681953125Q9.2195620234375,7.859573953125,9.2572530234375,7.950568953125Q9.2949440234375,8.041562953125,9.314159023437501,8.138161953125Q9.3333740234375,8.234760553125,9.3333740234375,8.333251953125Z" fill="#6175AE" fill-opacity="1"/></g><g><path d="M10.6666259765625,13.749921953125L10.6666259765625,8.333251953125Q10.6666259765625,8.234760553125,10.685840976562499,8.138161953125Q10.7050559765625,8.041562953125,10.7427469765625,7.950568953125Q10.7804379765625,7.859573953125,10.8351559765625,7.777681953125Q10.8898749765625,7.695788953125,10.9595189765625,7.626144953125Q11.0291629765625,7.556500953125,11.1110559765625,7.501781953125Q11.1929479765625,7.447063953125,11.2839429765625,7.409372953125Q11.3749369765625,7.371681953125,11.4715359765625,7.352466953125Q11.5681345765625,7.333251953125,11.6666259765625,7.333251953125Q11.7651173765625,7.333251953125,11.8617159765625,7.352466953125Q11.9583149765625,7.371681953125,12.0493089765625,7.409372953125Q12.1403039765625,7.447063953125,12.2221959765625,7.501781953125Q12.3040889765625,7.556500953125,12.3737329765625,7.626144953125Q12.4433769765625,7.695788953125,12.4980959765625,7.777681953125Q12.5528139765625,7.859573953125,12.5905049765625,7.950568953125Q12.6281959765625,8.041562953125,12.647410976562501,8.138161953125Q12.6666259765625,8.234760553125,12.6666259765625,8.333251953125L12.6666259765625,13.749921953125Q12.6666259765625,13.848411953125,12.647410976562501,13.945011953125Q12.6281959765625,14.041611953124999,12.5905049765625,14.132601953125Q12.5528139765625,14.223591953125,12.4980959765625,14.305491953125Q12.4433769765625,14.387381953125,12.3737329765625,14.457021953125Q12.3040889765625,14.526671953125,12.2221959765625,14.581391953125Q12.1403039765625,14.636101953125,12.0493089765625,14.673801953125Q11.9583149765625,14.711491953125,11.8617159765625,14.730701953125Q11.7651173765625,14.749921953125,11.6666259765625,14.749921953125Q11.5681345765625,14.749921953125,11.4715359765625,14.730701953125Q11.3749369765625,14.711491953125,11.2839429765625,14.673801953125Q11.1929479765625,14.636101953125,11.1110559765625,14.581391953125Q11.0291629765625,14.526671953125,10.9595189765625,14.457021953125Q10.8898749765625,14.387381953125,10.8351559765625,14.305491953125Q10.7804379765625,14.223591953125,10.7427469765625,14.132601953125Q10.7050559765625,14.041611953124999,10.685840976562499,13.945011953125Q10.6666259765625,13.848411953125,10.6666259765625,13.749921953125ZM12.6666259765625,13.749921953125Q12.6666259765625,13.848411953125,12.647410976562501,13.945011953125Q12.6281959765625,14.041611953124999,12.5905049765625,14.132601953125Q12.5528139765625,14.223591953125,12.4980959765625,14.305491953125Q12.4433769765625,14.387381953125,12.3737329765625,14.457021953125Q12.3040889765625,14.526671953125,12.2221959765625,14.581391953125Q12.1403039765625,14.636101953125,12.0493089765625,14.673801953125Q11.9583149765625,14.711491953125,11.8617159765625,14.730701953125Q11.7651173765625,14.749921953125,11.6666259765625,14.749921953125Q11.5681345765625,14.749921953125,11.4715359765625,14.730701953125Q11.3749369765625,14.711491953125,11.2839429765625,14.673801953125Q11.1929479765625,14.636101953125,11.1110559765625,14.581391953125Q11.0291629765625,14.526671953125,10.9595189765625,14.457021953125Q10.8898749765625,14.387381953125,10.8351559765625,14.305491953125Q10.7804379765625,14.223591953125,10.7427469765625,14.132601953125Q10.7050559765625,14.041611953124999,10.685840976562499,13.945011953125Q10.6666259765625,13.848411953125,10.6666259765625,13.749921953125Q10.6666259765625,13.651431953125,10.685840976562499,13.554831953125Q10.7050559765625,13.458231953125,10.7427469765625,13.367231953125Q10.7804379765625,13.276241953125,10.8351559765625,13.194351953125Q10.8898749765625,13.112451953125,10.9595189765625,13.042811953125Q11.0291629765625,12.973171953125,11.1110559765625,12.918451953125Q11.1929479765625,12.863731953125,11.2839429765625,12.826041953125Q11.3749369765625,12.788351953125,11.4715359765625,12.769131953125001Q11.5681345765625,12.749921953125,11.6666259765625,12.749921953125Q11.7651173765625,12.749921953125,11.8617159765625,12.769131953125001Q11.9583149765625,12.788351953125,12.0493089765625,12.826041953125Q12.1403039765625,12.863731953125,12.2221959765625,12.918451953125Q12.3040889765625,12.973171953125,12.3737329765625,13.042811953125Q12.4433769765625,13.112451953125,12.4980959765625,13.194351953125Q12.5528139765625,13.276241953125,12.5905049765625,13.367231953125Q12.6281959765625,13.458231953125,12.647410976562501,13.554831953125Q12.6666259765625,13.651431953125,12.6666259765625,13.749921953125ZM12.6666259765625,8.333251953125Q12.6666259765625,8.431743353125,12.647410976562501,8.528341953125Q12.6281959765625,8.624940953125,12.5905049765625,8.715934953125Q12.5528139765625,8.806929953125,12.4980959765625,8.888821953125Q12.4433769765625,8.970714953125,12.3737329765625,9.040358953125Q12.3040889765625,9.110002953125,12.2221959765625,9.164721953125Q12.1403039765625,9.219439953125,12.0493089765625,9.257130953125Q11.9583149765625,9.294821953125,11.8617159765625,9.314036953125001Q11.7651173765625,9.333251953125,11.6666259765625,9.333251953125Q11.5681345765625,9.333251953125,11.4715359765625,9.314036953125001Q11.3749369765625,9.294821953125,11.2839429765625,9.257130953125Q11.1929479765625,9.219439953125,11.1110559765625,9.164721953125Q11.0291629765625,9.110002953125,10.9595189765625,9.040358953125Q10.8898749765625,8.970714953125,10.8351559765625,8.888821953125Q10.7804379765625,8.806929953125,10.7427469765625,8.715934953125Q10.7050559765625,8.624940953125,10.685840976562499,8.528341953125Q10.6666259765625,8.431743353125,10.6666259765625,8.333251953125Q10.6666259765625,8.234760553125,10.685840976562499,8.138161953125Q10.7050559765625,8.041562953125,10.7427469765625,7.950568953125Q10.7804379765625,7.859573953125,10.8351559765625,7.777681953125Q10.8898749765625,7.695788953125,10.9595189765625,7.626144953125Q11.0291629765625,7.556500953125,11.1110559765625,7.501781953125Q11.1929479765625,7.447063953125,11.2839429765625,7.409372953125Q11.3749369765625,7.371681953125,11.4715359765625,7.352466953125Q11.5681345765625,7.333251953125,11.6666259765625,7.333251953125Q11.7651173765625,7.333251953125,11.8617159765625,7.352466953125Q11.9583149765625,7.371681953125,12.0493089765625,7.409372953125Q12.1403039765625,7.447063953125,12.2221959765625,7.501781953125Q12.3040889765625,7.556500953125,12.3737329765625,7.626144953125Q12.4433769765625,7.695788953125,12.4980959765625,7.777681953125Q12.5528139765625,7.859573953125,12.5905049765625,7.950568953125Q12.6281959765625,8.041562953125,12.647410976562501,8.138161953125Q12.6666259765625,8.234760553125,12.6666259765625,8.333251953125Z" fill="#6175AE" fill-opacity="1"/></g><g><path d="M18.3333259765625,5.166748046875L1.6666259765625,5.166748046875Q1.5681345765625,5.166748046875,1.4715359765625,5.147533046875Q1.3749369765625001,5.128318046875,1.2839429765625,5.090627046875Q1.1929479765625,5.052936046875,1.1110559765625,4.998218046875Q1.0291629765625,4.943499046875,0.9595189765625,4.873855046875Q0.8898749765625,4.804211046875,0.8351559765625,4.722318046875Q0.7804379765625,4.640426046875,0.7427469765625,4.549431046875Q0.7050559765625,4.458437046875,0.6858409765625,4.361838046875Q0.6666259765625,4.265239446875,0.6666259765625,4.166748046875Q0.6666259765625,4.068256646875,0.6858409765625,3.971658046875Q0.7050559765625,3.875059046875,0.7427469765625,3.784065046875Q0.7804379765625,3.693070046875,0.8351559765625,3.611178046875Q0.8898749765625,3.529285046875,0.9595189765625,3.459641046875Q1.0291629765625,3.389997046875,1.1110559765625,3.335278046875Q1.1929479765625,3.2805600468750002,1.2839429765625,3.242869046875Q1.3749369765625001,3.205178046875,1.4715359765625,3.185963046875Q1.5681345765625,3.166748046875,1.6666259765625,3.166748046875L18.3333259765625,3.166748046875Q18.4318259765625,3.166748046875,18.5284259765625,3.185963046875Q18.6250259765625,3.205178046875,18.7159259765625,3.242869046875Q18.8069259765625,3.2805600468750002,18.8888259765625,3.335278046875Q18.9707259765625,3.389997046875,19.0404259765625,3.459641046875Q19.1100259765625,3.529285046875,19.1647259765625,3.611178046875Q19.2195259765625,3.693070046875,19.2571259765625,3.784065046875Q19.2948259765625,3.875059046875,19.3140259765625,3.971658046875Q19.3333259765625,4.068256646875,19.3333259765625,4.166748046875Q19.3333259765625,4.265239446875,19.3140259765625,4.361838046875Q19.2948259765625,4.458437046875,19.2571259765625,4.549431046875Q19.2195259765625,4.640426046875,19.1647259765625,4.722318046875Q19.1100259765625,4.804211046875,19.0404259765625,4.873855046875Q18.9707259765625,4.943499046875,18.8888259765625,4.998218046875Q18.8069259765625,5.052936046875,18.7159259765625,5.090627046875Q18.6250259765625,5.128318046875,18.5284259765625,5.147533046875Q18.4318259765625,5.166748046875,18.3333259765625,5.166748046875ZM19.3333259765625,4.166748046875Q19.3333259765625,4.265239446875,19.3140259765625,4.361838046875Q19.2948259765625,4.458437046875,19.2571259765625,4.549431046875Q19.2195259765625,4.640426046875,19.1647259765625,4.722318046875Q19.1100259765625,4.804211046875,19.0404259765625,4.873855046875Q18.9707259765625,4.943499046875,18.8888259765625,4.998218046875Q18.8069259765625,5.052936046875,18.7159259765625,5.090627046875Q18.6250259765625,5.128318046875,18.5284259765625,5.147533046875Q18.4318259765625,5.166748046875,18.3333259765625,5.166748046875Q18.2348259765625,5.166748046875,18.1382259765625,5.147533046875Q18.0416259765625,5.128318046875,17.9506259765625,5.090627046875Q17.8596259765625,5.052936046875,17.7777259765625,4.998218046875Q17.6958259765625,4.943499046875,17.626225976562502,4.873855046875Q17.5565259765625,4.804211046875,17.5018259765625,4.722318046875Q17.4471259765625,4.640426046875,17.409425976562503,4.549431046875Q17.3717259765625,4.458437046875,17.3525259765625,4.361838046875Q17.3333259765625,4.265239446875,17.3333259765625,4.166748046875Q17.3333259765625,4.068256646875,17.3525259765625,3.971658046875Q17.3717259765625,3.875059046875,17.409425976562503,3.784065046875Q17.4471259765625,3.693070046875,17.5018259765625,3.611178046875Q17.5565259765625,3.529285046875,17.626225976562502,3.459641046875Q17.6958259765625,3.389997046875,17.7777259765625,3.335278046875Q17.8596259765625,3.2805600468750002,17.9506259765625,3.242869046875Q18.0416259765625,3.205178046875,18.1382259765625,3.185963046875Q18.2348259765625,3.166748046875,18.3333259765625,3.166748046875Q18.4318259765625,3.166748046875,18.5284259765625,3.185963046875Q18.6250259765625,3.205178046875,18.7159259765625,3.242869046875Q18.8069259765625,3.2805600468750002,18.8888259765625,3.335278046875Q18.9707259765625,3.389997046875,19.0404259765625,3.459641046875Q19.1100259765625,3.529285046875,19.1647259765625,3.611178046875Q19.2195259765625,3.693070046875,19.2571259765625,3.784065046875Q19.2948259765625,3.875059046875,19.3140259765625,3.971658046875Q19.3333259765625,4.068256646875,19.3333259765625,4.166748046875ZM2.6666259765625,4.166748046875Q2.6666259765625,4.265239446875,2.6474109765625,4.361838046875Q2.6281959765625,4.458437046875,2.5905049765625,4.549431046875Q2.5528139765624998,4.640426046875,2.4980959765625,4.722318046875Q2.4433769765625,4.804211046875,2.3737329765625,4.873855046875Q2.3040889765625,4.943499046875,2.2221959765625,4.998218046875Q2.1403039765625,5.052936046875,2.0493089765625,5.090627046875Q1.9583149765624999,5.128318046875,1.8617159765625,5.147533046875Q1.7651173765625,5.166748046875,1.6666259765625,5.166748046875Q1.5681345765625,5.166748046875,1.4715359765625,5.147533046875Q1.3749369765625001,5.128318046875,1.2839429765625,5.090627046875Q1.1929479765625,5.052936046875,1.1110559765625,4.998218046875Q1.0291629765625,4.943499046875,0.9595189765625,4.873855046875Q0.8898749765625,4.804211046875,0.8351559765625,4.722318046875Q0.7804379765625,4.640426046875,0.7427469765625,4.549431046875Q0.7050559765625,4.458437046875,0.6858409765625,4.361838046875Q0.6666259765625,4.265239446875,0.6666259765625,4.166748046875Q0.6666259765625,4.068256646875,0.6858409765625,3.971658046875Q0.7050559765625,3.875059046875,0.7427469765625,3.784065046875Q0.7804379765625,3.693070046875,0.8351559765625,3.611178046875Q0.8898749765625,3.529285046875,0.9595189765625,3.459641046875Q1.0291629765625,3.389997046875,1.1110559765625,3.335278046875Q1.1929479765625,3.2805600468750002,1.2839429765625,3.242869046875Q1.3749369765625001,3.205178046875,1.4715359765625,3.185963046875Q1.5681345765625,3.166748046875,1.6666259765625,3.166748046875Q1.7651173765625,3.166748046875,1.8617159765625,3.185963046875Q1.9583149765624999,3.205178046875,2.0493089765625,3.242869046875Q2.1403039765625,3.2805600468750002,2.2221959765625,3.335278046875Q2.3040889765625,3.389997046875,2.3737329765625,3.459641046875Q2.4433769765625,3.529285046875,2.4980959765625,3.611178046875Q2.5528139765624998,3.693070046875,2.5905049765625,3.784065046875Q2.6281959765625,3.875059046875,2.6474109765625,3.971658046875Q2.6666259765625,4.068256646875,2.6666259765625,4.166748046875Z" fill="#6175AE" fill-opacity="1"/></g><g><path d="M13.3332959765625,5.166748046875L6.6666259765625,5.166748046875Q6.5681345765625,5.166748046875,6.4715359765625,5.147528046875Q6.3749369765625,5.128318046875,6.2839429765625,5.0906280468750005Q6.1929479765625,5.052938046875,6.1110559765625,4.9982180468749995Q6.0291629765625,4.943498046875,5.9595189765625,4.873858046875Q5.8898749765625,4.804208046875,5.8351559765625,4.7223180468749995Q5.7804379765625,4.640428046875,5.7427469765625,4.549428046875001Q5.7050559765625,4.458438046875,5.6858409765625,4.361838046875Q5.6666259765625,4.265238046875,5.6666259765625,4.166748046875Q5.6666259765625,3.910638046875,5.7897319765625,3.686068046875L7.1601489765625,1.1860640468749999Q7.2247869765625,1.068146046875,7.3182799765625,0.971493046875Q7.4117719765625,0.874839046875,7.5274759765625,0.806317046875Q7.6431799765625,0.737794046875,7.7728759765625,0.702271046875Q7.9025659765625,0.666748046875,8.0370459765625,0.666748046875L11.990415976562499,0.666748046875Q12.1259759765625,0.666748046875,12.2566359765625,0.702835046875Q12.3872959765625,0.738923046875,12.503645976562499,0.808493046875Q12.6199859765625,0.878063046875,12.7136059765625,0.976095046875Q12.8072259765625,1.074126046875,12.871365976562501,1.193544046875L14.2142459765625,3.693548046875Q14.2608559765625,3.780308046875,14.2896359765625,3.874498046875Q14.3184159765625,3.968698046875,14.3282759765625,4.066688046875Q14.3381259765625,4.164688046875,14.3286759765625,4.262728046875Q14.3192259765625,4.3607580468750005,14.2908259765625,4.455068046875001Q14.2624259765625,4.549378046875,14.2161759765625,4.636338046875Q14.1699259765625,4.723288046875,14.1075959765625,4.799558046875Q14.0452759765625,4.8758180468750005,13.9692659765625,4.938458046875001Q13.8932659765625,5.001098046875001,13.8064959765625,5.047698046875Q13.5848659765625,5.166748046875,13.3332959765625,5.166748046875ZM13.3332959765625,3.166748046875L13.3332959765625,4.166748046875L12.4523359765625,4.639948046875L11.1094659765625,2.139952046875L11.990415976562499,1.666748046875L11.990415976562499,2.666748046875L8.0370459765625,2.666748046875L8.0370459765625,1.666748046875L8.9139359765625,2.147432046875L7.5435199765625,4.6474280468749996L6.6666259765625,4.166748046875L6.6666259765625,3.166748046875L13.3332959765625,3.166748046875Z" fill="#6175AE" fill-opacity="1"/></g></g></svg>